M48
;Layer_Color=9474304
;FILE_FORMAT=2:5
INCH,TZ
;TYPE=PLATED
T1F00S00C0.01181
T2F00S00C0.03543
T3F00S00C0.04331
T4F00S00C0.12598
%
T01
X220000Y2500
X224000Y10500
X220000Y18500
X224000Y26500
X220000Y34500
X224000Y42500
X220000Y50500
X224000Y58500
X220000Y66500
X224000Y74500
X220000Y82500
X224000Y90500
X220000Y98500
X224000Y106500
X220000Y114500
X224000Y122500
X220000Y130500
X212000
X216000Y122500
X208000
X212000Y114500
X216000Y106500
X208000
X212000Y98500
X216000Y90500
X208000
X212000Y82500
X216000Y74500
X208000
X212000Y66500
X216000Y58500
X208000
X212000Y50500
X204000
X208000Y42500
X216000
X212000Y34500
X204000
X208000Y26500
X216000
X212000Y18500
X204000
X208000Y10500
X216000
X212000Y2500
X204000
X196000
X200000Y10500
X188000Y34500
X168000Y26500
X160000
X164000Y18500
X152000Y10500
X144000
X148000Y2500
X156000
X140000
X132000
X124000
X116000
X108000
X100000
X92000
X84000
X76000
X68000
X72000Y26500
X73000Y32000
X76500
X80000
Y26500
X83500Y74000
X86500
Y79000
X83500
X97500
Y74000
X104000Y74500
X108000Y66500
X116000
X124000
X132000
X140000
X148000
X148500Y72354
X151291Y75146
X145709
X136000Y74500
X128000
Y58500
X136000
X144000
X152000
X160000
X168000
X172000Y66500
X164000
X165000Y72354
X162310Y75076
X167804Y75106
X156000Y66500
Y50500
X164000
X148000
X140000
X132000
X120000Y58500
X100000Y66500
X92000
X90000Y115500
X86500
X83000
X88000Y122500
X96000
X92000Y130500
X84000
X68000
X64000Y122500
X63000Y115500
X67000
X106209Y115209
X109000Y118000
X113500
X116291Y115209
X124000Y114500
X132000
X140000
X148000
X156000
X164000
X172000
X176000Y106500
X184000
X188000Y98500
X167791Y101854
X168000Y106500
X165000Y104646
X162209Y101854
X160000Y106500
X152000
X148500Y104500
X145709Y101709
X151291
X156000Y98500
X140000
X132000
X136000Y106500
X144000
Y122500
X152000
X160000
X168000
X172000Y130500
X164000
X156000
X148000
X140000
X132000
X124000
X116000
X108000
X112000Y122500
X120000
X128000
X136000
X128000Y106500
X138000Y88500
X145500
X188000Y130500
X60000
X52000
X44000
X36000
X28000
X20000
X12000
X4000
X8000Y122500
X16000
X24000
X32000
X40000
X48000
X56000
X59500Y115500
X52000Y114500
X44000
X36000
X28000
X20000
X12000
X4000
X8000Y106500
X16000
X24000
X32000
X40000
X48000
X52000Y98500
X44000
X36000
X28000
X20000
X12000
X4000
X8000Y90500
X16000
X24000
X32000
X40000
X48000
X52000Y82500
X44000
X36000
X28000
X20000
X12000
X4000
X8000Y74500
X16000
X24000
X32000
X40000
X48000
X52000Y66500
X44000
X36000
X28000
X20000
X12000
X4000
X8000Y58500
X16000
X24000
X32000
X40000
X48000
X44000Y50500
X36000
X28000
X20000
X12000
X4000
X8000Y42500
X16000
X4000Y34500
Y18500
Y2500
X44000
X52000
X60000
X56000Y26500
X48000
X40000
Y138500
X48000
X56000
X60000Y146500
X52000
X44000
X36000
X28000
X20000
X12000
X4000
X8000Y154500
X16000
X24000
X32000
X40000
X48000
X56000
X60000Y162500
X52000
X44000
X36000
X28000
X20000
X12000
X4000
X8000Y170500
X16000
X24000
X32000
X40000
X48000
X56000
X60000Y178500
X52000
X44000
X36000
X28000
X20000
X12000
X4000
X8000Y186500
X16000
X24000
X32000
X40000
X48000
X56000
X60000Y194500
X52000
X44000
X36000
X28000
X20000
X12000
X4000
X8000Y202500
X16000
X24000
X32000
X40000
X48000
X56000
X60000Y210500
X52000
X44000
X36000
X28000
X20000
X12000
X4000
X8000Y218500
X16000
X24000
X32000
X40000
X48000
X56000
X60000Y226500
X52000
X44000
X36000
X28000
X20000
X12000
X4000
X8000Y234500
X16000
X24000
X32000
X40000
X48000
X56000
X60000Y242500
X52000
X44000
X36000
X28000
X20000
X12000
X4000
X8000Y250500
X16000
X24000
X32000
X40000
X48000
X56000
X60000Y258500
X52000
X44000
X36000
X28000
X20000
X12000
X4000
X24000Y266500
X32000
X40000
X48000
X56000
X60000Y274500
X52000
X44000
X36000
X28000
X32000Y282500
X40000
X48000
X56000
X32000Y138500
X24000
X16000
X8000
X64000
X68000Y146500
X64000Y154500
X68000Y162500
X64000Y170500
X68000Y178500
X64000Y186500
X68000Y194500
X64000Y202500
X68000Y210500
X64000Y218500
X68000Y226500
X64000Y234500
X68000Y242500
X76000
X84000
X92000
X88000Y250500
X80000
X72000
X64000
X68000Y258500
X76000
X84000
X92000
X100000
X108000
X116000
X124000
X132000
X140000
X148000
X156000
X164000
X168000Y266500
X176000
X184000
X192000
X200000
X208000
X212000Y258500
X204000
X196000
X200000Y250500
X208000
X216000
X212000Y242500
X204000
X196000
X188000
X180000
X172000
X164000
X165000Y237146
X167791Y234354
X162209
X151291Y234209
X145709
X148500Y237000
X148000Y242500
X156000
X160000Y250500
X168000
X152000
X144000
X136000
X128000
X120000
X116291Y248209
X113500Y251000
X109000
X104000Y250500
X106209Y248209
X104000Y266500
X112000
X120000
X128000
X136000
X144000
X152000
X160000
X164000Y274500
X172000
X180000
X188000
X196000
X200000Y282500
X192000
X184000
X176000
X168000
X160000
X152000
X144000
X136000
X128000
X120000
X112000
X104000
X96000
X88000
X80000
X72000
X64000
X68000Y274500
X76000
X84000
X92000
X100000
X108000
X116000
X124000
X132000
X140000
X148000
X156000
X140000Y242500
X132000
X124000
X128000Y234500
X136000
X138000Y221000
X145500
X145709Y207646
X148500Y204854
X151291Y207646
X152000Y202500
X160000
X165000Y204854
X168000Y202500
X167804Y207606
X162310Y207576
X156000Y210500
X172000
X196000
X204000
X212000
X216000Y218500
X208000
X200000
X192000
X196000Y226500
X204000
X212000
X216000Y234500
X208000
X200000
X192000
X184000
X176000
X192000Y250500
X200000Y202500
X208000
X216000
X212000Y194500
X204000
X208000Y186500
X216000
X212000Y178500
X204000
X208000Y170500
X216000
X212000Y162500
X202000Y163000
Y166500
Y159500
X208000Y154500
X216000
X212000Y146500
X216000Y138500
X208000
X184000
X176000
X168000
X160000
X152000
X144000
X136000
X128000
X120000
X112000
X116000Y146500
X124000
X132000
X140000
X148000
X156000
X164000
X172000
X168000Y154500
X160000
X152000
X144000
X136000
X128000
X120000
X112000
X116000Y162500
X124000
X132000
X140000
X148000
X156000
X164000
X172000
X176000Y170500
X184000
X188000Y178500
X180000
X172000
X164000
X156000
X148000
X140000
X132000
X124000
X116000
X108000
X112000Y186500
X120000
X128000
X136000
X144000
X152000
X160000
X168000
X164000Y194500
X156000
X148000
X140000
X132000
X124000
X116000
X108000
X112000Y202500
X120000
X128000
X136000
X144000
X140000Y210500
X132000
X97500Y212000
Y207000
X96000Y202500
X88000
X86500Y207000
X83500
Y212000
X86500
X84000Y194500
X92000
X96000Y186500
X88000
X92000Y178500
X84000
X88000Y170500
X96000
X92000Y162500
X84000
X88000Y154500
X96000
X92000Y146500
X84000
X88000Y138500
X96000
X108000Y146500
Y162500
X112000Y170500
X120000
X128000
X136000
X144000
X152000
X160000
X168000
X188000Y146500
X96000Y266500
X88000
X80000
X72000
X64000
X224000
X220000Y258500
X224000Y250500
X220000Y242500
X224000Y234500
X220000Y226500
X224000Y218500
X220000Y210500
X224000Y202500
X220000Y194500
X224000Y186500
X220000Y178500
X224000Y170500
X220000Y162500
X224000Y154500
X220000Y146500
X224000Y138500
T02
X66000Y10500
Y20500
X76000
Y10500
X86000
X96000
X106000
Y20500
X96000
X86000
X116000
Y10500
X126000
Y20500
X136000
Y10500
X56000
X46000
Y20500
X36000
X26000
X16000
Y10500
X26000
X36000
X56000Y20500
T03
X175500Y50689
Y61594
Y72500
Y83406
Y94311
X185500Y88858
Y77953
Y67047
Y56142
Y188642
Y199547
Y210453
Y221358
X175500Y226811
Y215905
Y205000
Y194095
Y183189
T04
X180500Y23307
Y121693
X12500Y279500
X180500Y254193
X215000Y279500
X180500Y155807
M30
