G04*
G04 #@! TF.GenerationSoftware,Altium Limited,Altium Designer,21.0.8 (223)*
G04*
G04 Layer_Color=32896*
%FSLAX25Y25*%
%MOIN*%
G70*
G04*
G04 #@! TF.SameCoordinates,8614DC1C-B162-4B63-BA2F-6D4862A9A950*
G04*
G04*
G04 #@! TF.FilePolarity,Positive*
G04*
G01*
G75*
%ADD16C,0.02500*%
D16*
X35503Y216645D02*
X45500D01*
X42168D01*
X35503Y209981D01*
X40502Y214979D01*
X45500Y209981D01*
Y206648D02*
X35503D01*
X45500Y199984D01*
X35503D01*
Y189987D02*
Y196652D01*
X45500D01*
Y189987D01*
X40502Y196652D02*
Y193319D01*
X45500Y176658D02*
X38835D01*
X35503Y173326D01*
X38835Y169993D01*
X45500D01*
X40502D01*
Y176658D01*
X37169Y159997D02*
X35503Y161663D01*
Y164995D01*
X37169Y166661D01*
X43834D01*
X45500Y164995D01*
Y161663D01*
X43834Y159997D01*
X40502D01*
Y163329D01*
X35503Y156665D02*
X45500D01*
X40502D01*
Y150000D01*
X35503D01*
X45500D01*
X19337Y248131D02*
X29334D01*
Y241466D01*
X19337Y238134D02*
Y234802D01*
Y236468D01*
X29334D01*
Y238134D01*
Y234802D01*
X19337Y223139D02*
Y229803D01*
X24336D01*
Y226471D01*
Y229803D01*
X29334D01*
X19337Y219806D02*
Y213142D01*
Y216474D01*
X29334D01*
X31000Y209810D02*
Y203145D01*
X21003Y193148D02*
X19337Y194815D01*
Y198147D01*
X21003Y199813D01*
X27668D01*
X29334Y198147D01*
Y194815D01*
X27668Y193148D01*
X29334Y189816D02*
X22669D01*
X19337Y186484D01*
X22669Y183152D01*
X29334D01*
X24336D01*
Y189816D01*
X29334Y179819D02*
X19337D01*
Y174821D01*
X21003Y173155D01*
X24336D01*
X26002Y174821D01*
Y179819D01*
Y176487D02*
X29334Y173155D01*
X19337Y169823D02*
X29334D01*
Y164824D01*
X27668Y163158D01*
X21003D01*
X19337Y164824D01*
Y169823D01*
X31000Y159826D02*
Y153161D01*
X22669Y149829D02*
X29334Y146497D01*
X22669Y143165D01*
X29334Y139832D02*
Y136500D01*
Y138166D01*
X19337D01*
X21003Y139832D01*
X60000Y188990D02*
Y195655D01*
X53335Y188990D01*
X51669D01*
X50003Y190656D01*
Y193989D01*
X51669Y195655D01*
Y185658D02*
X50003Y183992D01*
Y180660D01*
X51669Y178993D01*
X58334D01*
X60000Y180660D01*
Y183992D01*
X58334Y185658D01*
X51669D01*
X60000Y168997D02*
Y175661D01*
X53335Y168997D01*
X51669D01*
X50003Y170663D01*
Y173995D01*
X51669Y175661D01*
Y165665D02*
X50003Y163998D01*
Y160666D01*
X51669Y159000D01*
X58334D01*
X60000Y160666D01*
Y163998D01*
X58334Y165665D01*
X51669D01*
M02*
