G04*
G04 #@! TF.GenerationSoftware,Altium Limited,Altium Designer,21.0.8 (223)*
G04*
G04 Layer_Color=16711935*
%FSLAX25Y25*%
%MOIN*%
G70*
G04*
G04 #@! TF.SameCoordinates,8614DC1C-B162-4B63-BA2F-6D4862A9A950*
G04*
G04*
G04 #@! TF.FilePolarity,Negative*
G04*
G01*
G75*
%ADD29C,0.06496*%
%ADD30R,0.06496X0.06496*%
%ADD31C,0.07677*%
%ADD32C,0.18307*%
%ADD33C,0.23622*%
D29*
X66000Y20500D02*
D03*
Y10500D02*
D03*
X46000Y20500D02*
D03*
Y10500D02*
D03*
X16000Y20500D02*
D03*
X26000Y10500D02*
D03*
Y20500D02*
D03*
X36000Y10500D02*
D03*
Y20500D02*
D03*
X56000D02*
D03*
Y10500D02*
D03*
X76000D02*
D03*
Y20500D02*
D03*
X86000Y10500D02*
D03*
X96000D02*
D03*
X106000D02*
D03*
Y20500D02*
D03*
X96000D02*
D03*
X86000D02*
D03*
X116000Y10500D02*
D03*
Y20500D02*
D03*
X126000Y10500D02*
D03*
Y20500D02*
D03*
X136000Y10500D02*
D03*
Y20500D02*
D03*
D30*
X16000Y10500D02*
D03*
D31*
X175500Y72500D02*
D03*
Y61594D02*
D03*
Y50689D02*
D03*
Y83406D02*
D03*
Y94311D02*
D03*
X185500Y77953D02*
D03*
Y88858D02*
D03*
Y67047D02*
D03*
Y56142D02*
D03*
X175500Y205000D02*
D03*
Y194095D02*
D03*
Y183189D02*
D03*
Y215905D02*
D03*
Y226811D02*
D03*
X185500Y210453D02*
D03*
Y221358D02*
D03*
Y199547D02*
D03*
Y188642D02*
D03*
D32*
X180500Y23307D02*
D03*
Y121693D02*
D03*
Y155807D02*
D03*
Y254193D02*
D03*
D33*
X215000Y279500D02*
D03*
X12500D02*
D03*
M02*
