G04*
G04 #@! TF.GenerationSoftware,Altium Limited,Altium Designer,21.0.8 (223)*
G04*
G04 Layer_Color=8388736*
%FSLAX25Y25*%
%MOIN*%
G70*
G04*
G04 #@! TF.SameCoordinates,8614DC1C-B162-4B63-BA2F-6D4862A9A950*
G04*
G04*
G04 #@! TF.FilePolarity,Negative*
G04*
G01*
G75*
%ADD23R,0.03740X0.03543*%
%ADD24R,0.03543X0.03740*%
%ADD25R,0.05709X0.02953*%
%ADD26R,0.07591X0.06991*%
%ADD27R,0.08591X0.03191*%
%ADD28R,0.02362X0.02362*%
%ADD29C,0.06496*%
%ADD30R,0.06496X0.06496*%
%ADD31C,0.07677*%
%ADD32C,0.18307*%
%ADD33C,0.23622*%
D23*
X165000Y101854D02*
D03*
Y96146D02*
D03*
X148500Y101854D02*
D03*
Y96146D02*
D03*
X165000Y85646D02*
D03*
Y91354D02*
D03*
X148500Y85646D02*
D03*
Y91354D02*
D03*
X165000Y75146D02*
D03*
Y80854D02*
D03*
X148500Y75146D02*
D03*
Y80854D02*
D03*
X113500Y248209D02*
D03*
Y242500D02*
D03*
X109000Y248209D02*
D03*
Y242500D02*
D03*
X97500Y115354D02*
D03*
Y109646D02*
D03*
Y248354D02*
D03*
Y242646D02*
D03*
X113500Y115209D02*
D03*
Y109500D02*
D03*
X109000Y115209D02*
D03*
Y109500D02*
D03*
X165000Y207646D02*
D03*
Y213354D02*
D03*
X148500Y207646D02*
D03*
Y213354D02*
D03*
X165000Y218146D02*
D03*
Y223854D02*
D03*
X148500Y218146D02*
D03*
Y223854D02*
D03*
X165000Y234354D02*
D03*
Y228646D02*
D03*
X148500Y234209D02*
D03*
Y228500D02*
D03*
D24*
X154646Y91500D02*
D03*
X160354D02*
D03*
X154646Y85500D02*
D03*
X160354D02*
D03*
X84354Y84000D02*
D03*
X78646D02*
D03*
Y99000D02*
D03*
X84354D02*
D03*
Y94000D02*
D03*
X78646D02*
D03*
X84354Y217000D02*
D03*
X78646D02*
D03*
Y232000D02*
D03*
X84354D02*
D03*
Y227000D02*
D03*
X78646D02*
D03*
X154146Y218000D02*
D03*
X159854D02*
D03*
X154146Y224000D02*
D03*
X159854D02*
D03*
D25*
X133971Y92240D02*
D03*
Y84760D02*
D03*
X142239Y88500D02*
D03*
X133866Y224740D02*
D03*
Y217260D02*
D03*
X142134Y221000D02*
D03*
D26*
X125500Y81800D02*
D03*
Y95200D02*
D03*
Y214300D02*
D03*
Y227700D02*
D03*
D27*
X92000Y237000D02*
D03*
Y232000D02*
D03*
Y227000D02*
D03*
X114000Y237000D02*
D03*
Y232000D02*
D03*
Y227000D02*
D03*
X92000Y222000D02*
D03*
Y217000D02*
D03*
Y212000D02*
D03*
X114000Y217000D02*
D03*
Y212000D02*
D03*
Y207000D02*
D03*
X92000D02*
D03*
X114000Y222000D02*
D03*
X92000Y104000D02*
D03*
Y99000D02*
D03*
Y94000D02*
D03*
X114000Y104000D02*
D03*
Y99000D02*
D03*
Y94000D02*
D03*
X92000Y89000D02*
D03*
Y84000D02*
D03*
Y79000D02*
D03*
X114000Y84000D02*
D03*
Y79000D02*
D03*
Y74000D02*
D03*
X92000D02*
D03*
X114000Y89000D02*
D03*
D28*
X101850Y242500D02*
D03*
X105000D02*
D03*
X101850Y109500D02*
D03*
X105000D02*
D03*
D29*
X66000Y20500D02*
D03*
Y10500D02*
D03*
X46000Y20500D02*
D03*
Y10500D02*
D03*
X16000Y20500D02*
D03*
X26000Y10500D02*
D03*
Y20500D02*
D03*
X36000Y10500D02*
D03*
Y20500D02*
D03*
X56000D02*
D03*
Y10500D02*
D03*
X76000D02*
D03*
Y20500D02*
D03*
X86000Y10500D02*
D03*
X96000D02*
D03*
X106000D02*
D03*
Y20500D02*
D03*
X96000D02*
D03*
X86000D02*
D03*
X116000Y10500D02*
D03*
Y20500D02*
D03*
X126000Y10500D02*
D03*
Y20500D02*
D03*
X136000Y10500D02*
D03*
Y20500D02*
D03*
D30*
X16000Y10500D02*
D03*
D31*
X175500Y72500D02*
D03*
Y61594D02*
D03*
Y50689D02*
D03*
Y83406D02*
D03*
Y94311D02*
D03*
X185500Y77953D02*
D03*
Y88858D02*
D03*
Y67047D02*
D03*
Y56142D02*
D03*
X175500Y205000D02*
D03*
Y194095D02*
D03*
Y183189D02*
D03*
Y215905D02*
D03*
Y226811D02*
D03*
X185500Y210453D02*
D03*
Y221358D02*
D03*
Y199547D02*
D03*
Y188642D02*
D03*
D32*
X180500Y23307D02*
D03*
Y121693D02*
D03*
Y155807D02*
D03*
Y254193D02*
D03*
D33*
X215000Y279500D02*
D03*
X12500D02*
D03*
M02*
