G04*
G04 #@! TF.GenerationSoftware,Altium Limited,Altium Designer,21.0.8 (223)*
G04*
G04 Layer_Physical_Order=2*
G04 Layer_Color=16711680*
%FSLAX25Y25*%
%MOIN*%
G70*
G04*
G04 #@! TF.SameCoordinates,8FE4C6D1-BE16-481A-9B8C-92EB46E9F254*
G04*
G04*
G04 #@! TF.FilePolarity,Positive*
G04*
G01*
G75*
%ADD34C,0.23622*%
%ADD35C,0.03000*%
%ADD36C,0.05000*%
%ADD37C,0.05906*%
%ADD38R,0.05906X0.05906*%
%ADD39C,0.07087*%
%ADD40C,0.17717*%
%ADD41C,0.02559*%
G36*
X206444Y289697D02*
X205559Y288941D01*
X204198Y287348D01*
X203103Y285562D01*
X202301Y283626D01*
X201812Y281589D01*
X201648Y279500D01*
X201812Y277411D01*
X202301Y275374D01*
X203103Y273438D01*
X204198Y271652D01*
X205559Y270059D01*
X207152Y268698D01*
X208938Y267603D01*
X210874Y266801D01*
X212911Y266312D01*
X215000Y266148D01*
X217089Y266312D01*
X219126Y266801D01*
X221062Y267603D01*
X222848Y268698D01*
X224441Y270059D01*
X225197Y270943D01*
X226697Y270390D01*
Y803D01*
X803D01*
Y270390D01*
X2303Y270943D01*
X3059Y270059D01*
X4652Y268698D01*
X6438Y267603D01*
X8374Y266801D01*
X10411Y266312D01*
X12500Y266148D01*
X14589Y266312D01*
X16626Y266801D01*
X18562Y267603D01*
X20348Y268698D01*
X21941Y270059D01*
X23302Y271652D01*
X24397Y273438D01*
X25199Y275374D01*
X25688Y277411D01*
X25852Y279500D01*
X25688Y281589D01*
X25199Y283626D01*
X24397Y285562D01*
X23302Y287348D01*
X21941Y288941D01*
X21057Y289697D01*
X21610Y291197D01*
X205890D01*
X206444Y289697D01*
D02*
G37*
%LPC*%
G36*
X181250Y263422D02*
Y254943D01*
X189729D01*
X189624Y256008D01*
X189095Y257753D01*
X188235Y259361D01*
X187078Y260771D01*
X185669Y261928D01*
X184060Y262788D01*
X182315Y263317D01*
X181250Y263422D01*
D02*
G37*
G36*
X179750D02*
X178685Y263317D01*
X176940Y262788D01*
X175331Y261928D01*
X173922Y260771D01*
X172765Y259361D01*
X171905Y257753D01*
X171376Y256008D01*
X171271Y254943D01*
X179750D01*
Y263422D01*
D02*
G37*
G36*
X189729Y253443D02*
X181250D01*
Y244964D01*
X182315Y245069D01*
X184060Y245598D01*
X185669Y246458D01*
X187078Y247615D01*
X188235Y249024D01*
X189095Y250633D01*
X189624Y252378D01*
X189729Y253443D01*
D02*
G37*
G36*
X179750D02*
X171271D01*
X171376Y252378D01*
X171905Y250633D01*
X172765Y249024D01*
X173922Y247615D01*
X175331Y246458D01*
X176940Y245598D01*
X178685Y245069D01*
X179750Y244964D01*
Y253443D01*
D02*
G37*
G36*
X176250Y208879D02*
Y205750D01*
X179379D01*
X179342Y206029D01*
X178945Y206989D01*
X178312Y207812D01*
X177489Y208444D01*
X176529Y208842D01*
X176250Y208879D01*
D02*
G37*
G36*
X174750D02*
X174471Y208842D01*
X173511Y208444D01*
X172688Y207812D01*
X172055Y206989D01*
X171658Y206029D01*
X171621Y205750D01*
X174750D01*
Y208879D01*
D02*
G37*
G36*
X179379Y204250D02*
X176250D01*
Y201121D01*
X176529Y201158D01*
X177489Y201555D01*
X178312Y202188D01*
X178945Y203011D01*
X179342Y203971D01*
X179379Y204250D01*
D02*
G37*
G36*
X174750D02*
X171621D01*
X171658Y203971D01*
X172055Y203011D01*
X172688Y202188D01*
X173511Y201555D01*
X174471Y201158D01*
X174750Y201121D01*
Y204250D01*
D02*
G37*
G36*
X176250Y197973D02*
Y194844D01*
X179379D01*
X179342Y195124D01*
X178945Y196083D01*
X178312Y196907D01*
X177489Y197539D01*
X176529Y197936D01*
X176250Y197973D01*
D02*
G37*
G36*
X174750Y197973D02*
X174471Y197936D01*
X173511Y197539D01*
X172688Y196907D01*
X172055Y196083D01*
X171658Y195124D01*
X171621Y194844D01*
X174750D01*
Y197973D01*
D02*
G37*
G36*
X179379Y193344D02*
X176250D01*
Y190216D01*
X176529Y190253D01*
X177489Y190650D01*
X178312Y191282D01*
X178945Y192106D01*
X179342Y193065D01*
X179379Y193344D01*
D02*
G37*
G36*
X174750D02*
X171621D01*
X171658Y193065D01*
X172055Y192106D01*
X172688Y191282D01*
X173511Y190650D01*
X174471Y190253D01*
X174750Y190216D01*
Y193344D01*
D02*
G37*
G36*
X176250Y187068D02*
Y183939D01*
X179379D01*
X179342Y184218D01*
X178945Y185178D01*
X178312Y186001D01*
X177489Y186633D01*
X176529Y187031D01*
X176250Y187068D01*
D02*
G37*
G36*
X174750Y187068D02*
X174471Y187031D01*
X173511Y186633D01*
X172688Y186001D01*
X172055Y185178D01*
X171658Y184218D01*
X171621Y183939D01*
X174750D01*
Y187068D01*
D02*
G37*
G36*
X179379Y182439D02*
X176250D01*
Y179310D01*
X176529Y179347D01*
X177489Y179745D01*
X178312Y180377D01*
X178945Y181200D01*
X179342Y182160D01*
X179379Y182439D01*
D02*
G37*
G36*
X174750D02*
X171621D01*
X171658Y182160D01*
X172055Y181200D01*
X172688Y180377D01*
X173511Y179745D01*
X174471Y179347D01*
X174750Y179310D01*
Y182439D01*
D02*
G37*
G36*
X181250Y165036D02*
Y156557D01*
X189729D01*
X189624Y157622D01*
X189095Y159367D01*
X188235Y160976D01*
X187078Y162385D01*
X185669Y163542D01*
X184060Y164402D01*
X182315Y164931D01*
X181250Y165036D01*
D02*
G37*
G36*
X179750D02*
X178685Y164931D01*
X176940Y164402D01*
X175331Y163542D01*
X173922Y162385D01*
X172765Y160976D01*
X171905Y159367D01*
X171376Y157622D01*
X171271Y156557D01*
X179750D01*
Y165036D01*
D02*
G37*
G36*
X175500Y231898D02*
X174183Y231725D01*
X172957Y231216D01*
X171903Y230408D01*
X171095Y229354D01*
X170587Y228128D01*
X170413Y226811D01*
X170587Y225495D01*
X171095Y224268D01*
X171903Y223214D01*
X172957Y222406D01*
X173526Y222170D01*
Y220547D01*
X172957Y220311D01*
X171903Y219502D01*
X171095Y218449D01*
X170587Y217222D01*
X170413Y215905D01*
X170587Y214589D01*
X171095Y213362D01*
X171903Y212309D01*
X172957Y211500D01*
X174183Y210992D01*
X175500Y210819D01*
X176817Y210992D01*
X178043Y211500D01*
X179097Y212309D01*
X179291Y212562D01*
X180601Y211805D01*
X180587Y211769D01*
X180413Y210453D01*
X180587Y209136D01*
X181095Y207909D01*
X181903Y206856D01*
X182957Y206047D01*
X183526Y205812D01*
Y204188D01*
X182957Y203953D01*
X181903Y203144D01*
X181095Y202091D01*
X180587Y200864D01*
X180413Y199547D01*
X180587Y198231D01*
X181095Y197004D01*
X181903Y195950D01*
X182957Y195142D01*
X183526Y194906D01*
Y193283D01*
X182957Y193047D01*
X181903Y192239D01*
X181095Y191185D01*
X180587Y189958D01*
X180413Y188642D01*
X180587Y187325D01*
X181095Y186098D01*
X181903Y185045D01*
X182957Y184236D01*
X184183Y183728D01*
X184787Y183649D01*
X197966Y170471D01*
Y166500D01*
Y163000D01*
Y159500D01*
X198103Y158456D01*
X198506Y157483D01*
X199147Y156647D01*
X199983Y156006D01*
X200956Y155603D01*
X202000Y155465D01*
X203044Y155603D01*
X204017Y156006D01*
X204853Y156647D01*
X205494Y157483D01*
X205897Y158456D01*
X206034Y159500D01*
Y163000D01*
Y166500D01*
Y172142D01*
X205897Y173186D01*
X205494Y174159D01*
X204853Y174995D01*
X204853Y174995D01*
X190493Y189354D01*
X190413Y189958D01*
X189905Y191185D01*
X189097Y192239D01*
X188043Y193047D01*
X187475Y193283D01*
Y194906D01*
X188043Y195142D01*
X189097Y195950D01*
X189905Y197004D01*
X190413Y198231D01*
X190587Y199547D01*
X190413Y200864D01*
X189905Y202091D01*
X189097Y203144D01*
X188043Y203953D01*
X187475Y204188D01*
Y205812D01*
X188043Y206047D01*
X189097Y206856D01*
X189905Y207909D01*
X190413Y209136D01*
X190587Y210453D01*
X190413Y211769D01*
X189905Y212996D01*
X189097Y214050D01*
X188043Y214858D01*
X187475Y215094D01*
Y216717D01*
X188043Y216953D01*
X189097Y217761D01*
X189905Y218815D01*
X190413Y220042D01*
X190587Y221358D01*
X190413Y222675D01*
X189905Y223902D01*
X189097Y224955D01*
X188043Y225764D01*
X186817Y226272D01*
X185500Y226445D01*
X184183Y226272D01*
X182957Y225764D01*
X181903Y224955D01*
X181709Y224702D01*
X180399Y225459D01*
X180413Y225495D01*
X180587Y226811D01*
X180413Y228128D01*
X179905Y229354D01*
X179097Y230408D01*
X178043Y231216D01*
X176817Y231725D01*
X175500Y231898D01*
D02*
G37*
G36*
X179750Y155057D02*
X171271D01*
X171376Y153992D01*
X171905Y152247D01*
X172765Y150639D01*
X173922Y149229D01*
X175331Y148072D01*
X176940Y147212D01*
X178685Y146683D01*
X179750Y146578D01*
Y155057D01*
D02*
G37*
G36*
X189729D02*
X181250D01*
Y146578D01*
X182315Y146683D01*
X184060Y147212D01*
X185669Y148072D01*
X187078Y149229D01*
X188235Y150639D01*
X189095Y152247D01*
X189624Y153992D01*
X189729Y155057D01*
D02*
G37*
G36*
X181250Y130922D02*
Y122443D01*
X189729D01*
X189624Y123508D01*
X189095Y125253D01*
X188235Y126861D01*
X187078Y128271D01*
X185669Y129428D01*
X184060Y130288D01*
X182315Y130817D01*
X181250Y130922D01*
D02*
G37*
G36*
X179750D02*
X178685Y130817D01*
X176940Y130288D01*
X175331Y129428D01*
X173922Y128271D01*
X172765Y126861D01*
X171905Y125253D01*
X171376Y123508D01*
X171271Y122443D01*
X179750D01*
Y130922D01*
D02*
G37*
G36*
X90000Y118526D02*
X59500D01*
X58717Y118423D01*
X57987Y118121D01*
X57360Y117640D01*
X56880Y117013D01*
X56577Y116283D01*
X56474Y115500D01*
X56577Y114717D01*
X56880Y113987D01*
X57360Y113360D01*
X57987Y112880D01*
X58717Y112577D01*
X59500Y112474D01*
X90000D01*
X90783Y112577D01*
X91513Y112880D01*
X92140Y113360D01*
X92620Y113987D01*
X92923Y114717D01*
X93026Y115500D01*
X92923Y116283D01*
X92620Y117013D01*
X92140Y117640D01*
X91513Y118121D01*
X90783Y118423D01*
X90000Y118526D01*
D02*
G37*
G36*
X189729Y120943D02*
X181250D01*
Y112464D01*
X182315Y112569D01*
X184060Y113098D01*
X185669Y113958D01*
X187078Y115115D01*
X188235Y116524D01*
X189095Y118133D01*
X189624Y119878D01*
X189729Y120943D01*
D02*
G37*
G36*
X179750D02*
X171271D01*
X171376Y119878D01*
X171905Y118133D01*
X172765Y116524D01*
X173922Y115115D01*
X175331Y113958D01*
X176940Y113098D01*
X178685Y112569D01*
X179750Y112464D01*
Y120943D01*
D02*
G37*
G36*
X176250Y76379D02*
Y73250D01*
X179379D01*
X179342Y73529D01*
X178945Y74489D01*
X178312Y75312D01*
X177489Y75945D01*
X176529Y76342D01*
X176250Y76379D01*
D02*
G37*
G36*
X174750D02*
X174471Y76342D01*
X173511Y75945D01*
X172688Y75312D01*
X172055Y74489D01*
X171658Y73529D01*
X171621Y73250D01*
X174750D01*
Y76379D01*
D02*
G37*
G36*
X179379Y71750D02*
X176250D01*
Y68621D01*
X176529Y68658D01*
X177489Y69055D01*
X178312Y69688D01*
X178945Y70511D01*
X179342Y71471D01*
X179379Y71750D01*
D02*
G37*
G36*
X174750D02*
X171621D01*
X171658Y71471D01*
X172055Y70511D01*
X172688Y69688D01*
X173511Y69055D01*
X174471Y68658D01*
X174750Y68621D01*
Y71750D01*
D02*
G37*
G36*
X176250Y65473D02*
Y62344D01*
X179379D01*
X179342Y62624D01*
X178945Y63583D01*
X178312Y64407D01*
X177489Y65039D01*
X176529Y65436D01*
X176250Y65473D01*
D02*
G37*
G36*
X174750Y65473D02*
X174471Y65436D01*
X173511Y65039D01*
X172688Y64407D01*
X172055Y63583D01*
X171658Y62624D01*
X171621Y62344D01*
X174750D01*
Y65473D01*
D02*
G37*
G36*
X179379Y60844D02*
X176250D01*
Y57716D01*
X176529Y57753D01*
X177489Y58150D01*
X178312Y58782D01*
X178945Y59606D01*
X179342Y60565D01*
X179379Y60844D01*
D02*
G37*
G36*
X174750D02*
X171621D01*
X171658Y60565D01*
X172055Y59606D01*
X172688Y58782D01*
X173511Y58150D01*
X174471Y57753D01*
X174750Y57716D01*
Y60844D01*
D02*
G37*
G36*
X176250Y54568D02*
Y51439D01*
X179379D01*
X179342Y51718D01*
X178945Y52678D01*
X178312Y53501D01*
X177489Y54133D01*
X176529Y54531D01*
X176250Y54568D01*
D02*
G37*
G36*
X174750D02*
X174471Y54531D01*
X173511Y54133D01*
X172688Y53501D01*
X172055Y52678D01*
X171658Y51718D01*
X171621Y51439D01*
X174750D01*
Y54568D01*
D02*
G37*
G36*
X179379Y49939D02*
X176250D01*
Y46810D01*
X176529Y46847D01*
X177489Y47245D01*
X178312Y47877D01*
X178945Y48700D01*
X179342Y49660D01*
X179379Y49939D01*
D02*
G37*
G36*
X174750D02*
X171621D01*
X171658Y49660D01*
X172055Y48700D01*
X172688Y47877D01*
X173511Y47245D01*
X174471Y46847D01*
X174750Y46810D01*
Y49939D01*
D02*
G37*
G36*
X175500Y99398D02*
X174183Y99225D01*
X172957Y98716D01*
X171903Y97908D01*
X171095Y96854D01*
X170587Y95628D01*
X170413Y94311D01*
X170587Y92994D01*
X171095Y91768D01*
X171903Y90714D01*
X172957Y89906D01*
X173526Y89670D01*
Y88046D01*
X172957Y87811D01*
X171903Y87002D01*
X171095Y85949D01*
X170587Y84722D01*
X170413Y83406D01*
X170587Y82089D01*
X171095Y80862D01*
X171903Y79809D01*
X172957Y79000D01*
X174183Y78492D01*
X175500Y78319D01*
X176817Y78492D01*
X178043Y79000D01*
X179097Y79809D01*
X179291Y80062D01*
X180601Y79305D01*
X180587Y79269D01*
X180413Y77953D01*
X180587Y76636D01*
X181095Y75409D01*
X181465Y74926D01*
Y70074D01*
X181095Y69591D01*
X180587Y68364D01*
X180413Y67047D01*
X180587Y65731D01*
X181095Y64504D01*
X181903Y63450D01*
X182957Y62642D01*
X183526Y62406D01*
Y60783D01*
X182957Y60547D01*
X181903Y59739D01*
X181095Y58685D01*
X180587Y57458D01*
X180413Y56142D01*
X180587Y54825D01*
X181095Y53598D01*
X181865Y52595D01*
Y42600D01*
X181299Y42035D01*
X68929D01*
X68929Y42035D01*
X67885Y41897D01*
X66912Y41494D01*
X66076Y40853D01*
X66076Y40853D01*
X63147Y37924D01*
X62506Y37088D01*
X62103Y36115D01*
X61966Y35071D01*
X61966Y35071D01*
Y22395D01*
X61662Y21662D01*
X61509Y20500D01*
X61662Y19338D01*
X61966Y18605D01*
Y12395D01*
X61662Y11662D01*
X61509Y10500D01*
X61662Y9338D01*
X62111Y8254D01*
X62824Y7324D01*
X63754Y6611D01*
X64838Y6162D01*
X66000Y6009D01*
X67162Y6162D01*
X68246Y6611D01*
X69176Y7324D01*
X69889Y8254D01*
X70223Y9059D01*
X70888Y9188D01*
X71112D01*
X71777Y9059D01*
X72110Y8254D01*
X72824Y7324D01*
X73754Y6611D01*
X74838Y6162D01*
X76000Y6009D01*
X77162Y6162D01*
X78246Y6611D01*
X79176Y7324D01*
X79890Y8254D01*
X80223Y9059D01*
X80888Y9188D01*
X81112D01*
X81777Y9059D01*
X82111Y8254D01*
X82824Y7324D01*
X83754Y6611D01*
X84838Y6162D01*
X86000Y6009D01*
X87162Y6162D01*
X88246Y6611D01*
X89176Y7324D01*
X89890Y8254D01*
X90223Y9059D01*
X90888Y9188D01*
X91112D01*
X91777Y9059D01*
X92111Y8254D01*
X92824Y7324D01*
X93754Y6611D01*
X94838Y6162D01*
X96000Y6009D01*
X97162Y6162D01*
X98246Y6611D01*
X99176Y7324D01*
X99889Y8254D01*
X100223Y9059D01*
X100888Y9188D01*
X101112D01*
X101777Y9059D01*
X102111Y8254D01*
X102824Y7324D01*
X103754Y6611D01*
X104838Y6162D01*
X106000Y6009D01*
X107162Y6162D01*
X108246Y6611D01*
X109176Y7324D01*
X109889Y8254D01*
X110223Y9059D01*
X110888Y9188D01*
X111112D01*
X111777Y9059D01*
X112110Y8254D01*
X112824Y7324D01*
X113754Y6611D01*
X114838Y6162D01*
X116000Y6009D01*
X117162Y6162D01*
X118246Y6611D01*
X119176Y7324D01*
X119889Y8254D01*
X120223Y9059D01*
X120888Y9188D01*
X121112D01*
X121777Y9059D01*
X122110Y8254D01*
X122824Y7324D01*
X123754Y6611D01*
X124838Y6162D01*
X126000Y6009D01*
X127162Y6162D01*
X128246Y6611D01*
X129176Y7324D01*
X129890Y8254D01*
X130223Y9059D01*
X130888Y9188D01*
X131112D01*
X131777Y9059D01*
X132111Y8254D01*
X132824Y7324D01*
X133754Y6611D01*
X134838Y6162D01*
X136000Y6009D01*
X137162Y6162D01*
X138246Y6611D01*
X139176Y7324D01*
X139890Y8254D01*
X140338Y9338D01*
X140491Y10500D01*
X140338Y11662D01*
X139890Y12746D01*
X139176Y13676D01*
X138246Y14390D01*
X137441Y14723D01*
X137312Y15388D01*
Y15612D01*
X137441Y16277D01*
X138246Y16611D01*
X139176Y17324D01*
X139890Y18254D01*
X140338Y19338D01*
X140491Y20500D01*
X140338Y21662D01*
X139890Y22746D01*
X139176Y23676D01*
X138246Y24389D01*
X137162Y24838D01*
X136000Y24991D01*
X134838Y24838D01*
X133754Y24389D01*
X132824Y23676D01*
X132111Y22746D01*
X131777Y21941D01*
X131112Y21812D01*
X130888D01*
X130223Y21941D01*
X129890Y22746D01*
X129176Y23676D01*
X128246Y24389D01*
X127162Y24838D01*
X126000Y24991D01*
X124838Y24838D01*
X123754Y24389D01*
X122824Y23676D01*
X122110Y22746D01*
X121777Y21941D01*
X121112Y21812D01*
X120888D01*
X120223Y21941D01*
X119889Y22746D01*
X119176Y23676D01*
X118246Y24389D01*
X117162Y24838D01*
X116000Y24991D01*
X114838Y24838D01*
X113754Y24389D01*
X112824Y23676D01*
X112110Y22746D01*
X111777Y21941D01*
X111112Y21812D01*
X110888D01*
X110223Y21941D01*
X109889Y22746D01*
X109176Y23676D01*
X108246Y24389D01*
X107162Y24838D01*
X106000Y24991D01*
X104838Y24838D01*
X103754Y24389D01*
X102824Y23676D01*
X102111Y22746D01*
X101777Y21941D01*
X101112Y21812D01*
X100888D01*
X100223Y21941D01*
X99889Y22746D01*
X99176Y23676D01*
X98246Y24389D01*
X97162Y24838D01*
X96000Y24991D01*
X94838Y24838D01*
X93754Y24389D01*
X92824Y23676D01*
X92111Y22746D01*
X91777Y21941D01*
X91112Y21812D01*
X90888D01*
X90223Y21941D01*
X89890Y22746D01*
X89176Y23676D01*
X88246Y24389D01*
X87162Y24838D01*
X86000Y24991D01*
X84838Y24838D01*
X83754Y24389D01*
X82824Y23676D01*
X82111Y22746D01*
X81777Y21941D01*
X81112Y21812D01*
X80888D01*
X80223Y21941D01*
X79890Y22746D01*
X79176Y23676D01*
X78246Y24389D01*
X77162Y24838D01*
X76000Y24991D01*
X74838Y24838D01*
X73754Y24389D01*
X72824Y23676D01*
X72110Y22746D01*
X71308Y22539D01*
X70410Y22559D01*
X70034Y22959D01*
Y27343D01*
X70249Y27607D01*
X71535Y28277D01*
X71956Y28103D01*
X73000Y27966D01*
X139329D01*
X161652Y5642D01*
X161652Y5642D01*
X163147Y4147D01*
X163983Y3506D01*
X164956Y3103D01*
X166000Y2966D01*
X166000Y2966D01*
X188500D01*
X188500Y2966D01*
X189544Y3103D01*
X190517Y3506D01*
X191353Y4147D01*
X199853Y12647D01*
X199853Y12647D01*
X200494Y13483D01*
X200897Y14456D01*
X201034Y15500D01*
X201034Y15500D01*
Y62500D01*
X201034Y62500D01*
X200897Y63544D01*
X200494Y64517D01*
X199853Y65353D01*
X198348Y66858D01*
X198347Y66858D01*
X195705Y69501D01*
X195705Y69501D01*
X194869Y70142D01*
X193896Y70545D01*
X192852Y70683D01*
X192852Y70683D01*
X189534D01*
Y74926D01*
X189905Y75409D01*
X190413Y76636D01*
X190587Y77953D01*
X190413Y79269D01*
X189905Y80496D01*
X189534Y80979D01*
Y85832D01*
X189905Y86315D01*
X190413Y87542D01*
X190587Y88858D01*
X190413Y90175D01*
X189905Y91402D01*
X189097Y92455D01*
X188043Y93264D01*
X186817Y93772D01*
X185500Y93945D01*
X184183Y93772D01*
X182957Y93264D01*
X181903Y92455D01*
X181709Y92202D01*
X180399Y92959D01*
X180413Y92994D01*
X180587Y94311D01*
X180413Y95628D01*
X179905Y96854D01*
X179097Y97908D01*
X178043Y98716D01*
X176817Y99225D01*
X175500Y99398D01*
D02*
G37*
G36*
X36000Y24991D02*
X34838Y24838D01*
X33754Y24389D01*
X32824Y23676D01*
X32111Y22746D01*
X31777Y21941D01*
X31112Y21812D01*
X30888D01*
X30223Y21941D01*
X29890Y22746D01*
X29176Y23676D01*
X28246Y24389D01*
X27162Y24838D01*
X26000Y24991D01*
X24838Y24838D01*
X23754Y24389D01*
X22824Y23676D01*
X22110Y22746D01*
X21777Y21941D01*
X21112Y21812D01*
X20888D01*
X20223Y21941D01*
X19890Y22746D01*
X19176Y23676D01*
X18246Y24389D01*
X17162Y24838D01*
X16000Y24991D01*
X14838Y24838D01*
X13754Y24389D01*
X12824Y23676D01*
X12111Y22746D01*
X11662Y21662D01*
X11509Y20500D01*
X11662Y19338D01*
X12111Y18254D01*
X12824Y17324D01*
X13754Y16611D01*
X14135Y16453D01*
X13837Y14953D01*
X11547D01*
Y6047D01*
X20453D01*
Y8337D01*
X21953Y8635D01*
X22110Y8254D01*
X22824Y7324D01*
X23754Y6611D01*
X24838Y6162D01*
X26000Y6009D01*
X27162Y6162D01*
X28246Y6611D01*
X29176Y7324D01*
X29890Y8254D01*
X30223Y9059D01*
X30888Y9188D01*
X31112D01*
X31777Y9059D01*
X32111Y8254D01*
X32824Y7324D01*
X33754Y6611D01*
X34838Y6162D01*
X36000Y6009D01*
X37162Y6162D01*
X38246Y6611D01*
X39176Y7324D01*
X39889Y8254D01*
X40338Y9338D01*
X40491Y10500D01*
X40338Y11662D01*
X39889Y12746D01*
X39176Y13676D01*
X38246Y14390D01*
X37441Y14723D01*
X37312Y15388D01*
Y15612D01*
X37441Y16277D01*
X38246Y16611D01*
X39176Y17324D01*
X39889Y18254D01*
X40338Y19338D01*
X40491Y20500D01*
X40338Y21662D01*
X39889Y22746D01*
X39176Y23676D01*
X38246Y24389D01*
X37162Y24838D01*
X36000Y24991D01*
D02*
G37*
G36*
X56750Y23783D02*
Y21250D01*
X59283D01*
X59266Y21375D01*
X58929Y22191D01*
X58391Y22891D01*
X57691Y23429D01*
X56875Y23766D01*
X56750Y23783D01*
D02*
G37*
G36*
X55250D02*
X55125Y23766D01*
X54309Y23429D01*
X53609Y22891D01*
X53071Y22191D01*
X52734Y21375D01*
X52717Y21250D01*
X55250D01*
Y23783D01*
D02*
G37*
G36*
X46750D02*
Y21250D01*
X49283D01*
X49266Y21375D01*
X48929Y22191D01*
X48391Y22891D01*
X47691Y23429D01*
X46875Y23766D01*
X46750Y23783D01*
D02*
G37*
G36*
X45250D02*
X45125Y23766D01*
X44309Y23429D01*
X43609Y22891D01*
X43071Y22191D01*
X42734Y21375D01*
X42717Y21250D01*
X45250D01*
Y23783D01*
D02*
G37*
G36*
X59283Y19750D02*
X56750D01*
Y17217D01*
X56875Y17233D01*
X57691Y17571D01*
X58391Y18109D01*
X58929Y18809D01*
X59266Y19625D01*
X59283Y19750D01*
D02*
G37*
G36*
X55250D02*
X52717D01*
X52734Y19625D01*
X53071Y18809D01*
X53609Y18109D01*
X54309Y17571D01*
X55125Y17233D01*
X55250Y17217D01*
Y19750D01*
D02*
G37*
G36*
X49283D02*
X46750D01*
Y17217D01*
X46875Y17233D01*
X47691Y17571D01*
X48391Y18109D01*
X48929Y18809D01*
X49266Y19625D01*
X49283Y19750D01*
D02*
G37*
G36*
X45250D02*
X42717D01*
X42734Y19625D01*
X43071Y18809D01*
X43609Y18109D01*
X44309Y17571D01*
X45125Y17233D01*
X45250Y17217D01*
Y19750D01*
D02*
G37*
G36*
X56750Y13783D02*
Y11250D01*
X59283D01*
X59266Y11375D01*
X58929Y12191D01*
X58391Y12891D01*
X57691Y13429D01*
X56875Y13767D01*
X56750Y13783D01*
D02*
G37*
G36*
X55250D02*
X55125Y13767D01*
X54309Y13429D01*
X53609Y12891D01*
X53071Y12191D01*
X52734Y11375D01*
X52717Y11250D01*
X55250D01*
Y13783D01*
D02*
G37*
G36*
X46750D02*
Y11250D01*
X49283D01*
X49266Y11375D01*
X48929Y12191D01*
X48391Y12891D01*
X47691Y13429D01*
X46875Y13767D01*
X46750Y13783D01*
D02*
G37*
G36*
X45250D02*
X45125Y13767D01*
X44309Y13429D01*
X43609Y12891D01*
X43071Y12191D01*
X42734Y11375D01*
X42717Y11250D01*
X45250D01*
Y13783D01*
D02*
G37*
G36*
X59283Y9750D02*
X56750D01*
Y7217D01*
X56875Y7233D01*
X57691Y7571D01*
X58391Y8109D01*
X58929Y8809D01*
X59266Y9625D01*
X59283Y9750D01*
D02*
G37*
G36*
X55250D02*
X52717D01*
X52734Y9625D01*
X53071Y8809D01*
X53609Y8109D01*
X54309Y7571D01*
X55125Y7233D01*
X55250Y7217D01*
Y9750D01*
D02*
G37*
G36*
X49283D02*
X46750D01*
Y7217D01*
X46875Y7233D01*
X47691Y7571D01*
X48391Y8109D01*
X48929Y8809D01*
X49266Y9625D01*
X49283Y9750D01*
D02*
G37*
G36*
X45250D02*
X42717D01*
X42734Y9625D01*
X43071Y8809D01*
X43609Y8109D01*
X44309Y7571D01*
X45125Y7233D01*
X45250Y7217D01*
Y9750D01*
D02*
G37*
%LPD*%
G36*
X192642Y61152D02*
X192642Y61152D01*
X192965Y60829D01*
Y17171D01*
X186829Y11034D01*
X167671D01*
X167358Y11348D01*
X167358Y11348D01*
X146126Y32580D01*
X146700Y33966D01*
X178957D01*
X179031Y32465D01*
X178685Y32431D01*
X176940Y31902D01*
X175331Y31042D01*
X173922Y29885D01*
X172765Y28476D01*
X171905Y26867D01*
X171376Y25122D01*
X171271Y24057D01*
X180500D01*
X189729D01*
X189624Y25122D01*
X189095Y26867D01*
X188235Y28476D01*
X187078Y29885D01*
X185669Y31042D01*
X184060Y31902D01*
X183301Y32132D01*
X182849Y33837D01*
X182970Y33966D01*
X184014Y34103D01*
X184988Y34506D01*
X185823Y35147D01*
X188752Y38076D01*
X188752Y38076D01*
X189393Y38912D01*
X189796Y39885D01*
X189934Y40929D01*
X189934Y40929D01*
Y53667D01*
X190413Y54825D01*
X190587Y56142D01*
X190413Y57458D01*
X189905Y58685D01*
X189097Y59739D01*
X188481Y60211D01*
X188221Y61633D01*
X188292Y62068D01*
X188889Y62613D01*
X191181D01*
X192642Y61152D01*
D02*
G37*
%LPC*%
G36*
X179750Y22557D02*
X171271D01*
X171376Y21492D01*
X171905Y19747D01*
X172765Y18139D01*
X173922Y16729D01*
X175331Y15572D01*
X176940Y14712D01*
X178685Y14183D01*
X179750Y14078D01*
Y22557D01*
D02*
G37*
G36*
X189729D02*
X181250D01*
Y14078D01*
X182315Y14183D01*
X184060Y14712D01*
X185669Y15572D01*
X187078Y16729D01*
X188235Y18139D01*
X189095Y19747D01*
X189624Y21492D01*
X189729Y22557D01*
D02*
G37*
%LPD*%
D34*
X215000Y279500D02*
D03*
X12500D02*
D03*
D35*
X86500Y115500D02*
X90000D01*
X83000D02*
X86500D01*
X67000D02*
X83000D01*
X63000D02*
X67000D01*
X59500D02*
X63000D01*
D36*
X66000Y35071D02*
X68929Y38000D01*
X182970D01*
X185899Y40929D01*
Y55743D01*
X66000Y10500D02*
Y35071D01*
X80000Y32000D02*
X141000D01*
X76500D02*
X80000D01*
X73000D02*
X76500D01*
X164505Y8495D02*
X166000Y7000D01*
X141000Y32000D02*
X164505Y8495D01*
X166000Y7000D02*
X188500D01*
X197000Y15500D01*
X192852Y66648D02*
X195495Y64005D01*
X197000Y62500D01*
Y15500D02*
Y62500D01*
X185899Y66648D02*
X192852D01*
X185500Y67047D02*
X185899Y66648D01*
X185500Y77953D02*
Y88858D01*
Y67047D02*
Y77953D01*
Y56142D02*
X185899Y55743D01*
X202000Y166500D02*
Y172142D01*
Y163000D02*
Y166500D01*
Y159500D02*
Y163000D01*
X185500Y188642D02*
X202000Y172142D01*
D37*
X136000Y20500D02*
D03*
Y10500D02*
D03*
X126000Y20500D02*
D03*
Y10500D02*
D03*
X116000Y20500D02*
D03*
Y10500D02*
D03*
X86000Y20500D02*
D03*
X96000D02*
D03*
X106000D02*
D03*
Y10500D02*
D03*
X96000D02*
D03*
X86000D02*
D03*
X76000Y20500D02*
D03*
Y10500D02*
D03*
X56000D02*
D03*
Y20500D02*
D03*
X36000D02*
D03*
Y10500D02*
D03*
X26000Y20500D02*
D03*
Y10500D02*
D03*
X16000Y20500D02*
D03*
X46000Y10500D02*
D03*
Y20500D02*
D03*
X66000Y10500D02*
D03*
Y20500D02*
D03*
D38*
X16000Y10500D02*
D03*
D39*
X175500Y72500D02*
D03*
Y61594D02*
D03*
Y50689D02*
D03*
Y83406D02*
D03*
Y94311D02*
D03*
X185500Y77953D02*
D03*
Y88858D02*
D03*
Y67047D02*
D03*
Y56142D02*
D03*
X175500Y205000D02*
D03*
Y194095D02*
D03*
Y183189D02*
D03*
Y215905D02*
D03*
Y226811D02*
D03*
X185500Y210453D02*
D03*
Y221358D02*
D03*
Y199547D02*
D03*
Y188642D02*
D03*
D40*
X180500Y23307D02*
D03*
Y121693D02*
D03*
Y155807D02*
D03*
Y254193D02*
D03*
D41*
X224000Y266500D02*
D03*
X220000Y258500D02*
D03*
X224000Y250500D02*
D03*
X220000Y242500D02*
D03*
X224000Y234500D02*
D03*
X220000Y226500D02*
D03*
X224000Y218500D02*
D03*
X220000Y210500D02*
D03*
X224000Y202500D02*
D03*
X220000Y194500D02*
D03*
X224000Y186500D02*
D03*
X220000Y178500D02*
D03*
X224000Y170500D02*
D03*
X220000Y162500D02*
D03*
X224000Y154500D02*
D03*
X220000Y146500D02*
D03*
X224000Y138500D02*
D03*
X220000Y130500D02*
D03*
X224000Y122500D02*
D03*
X220000Y114500D02*
D03*
X224000Y106500D02*
D03*
X220000Y98500D02*
D03*
X224000Y90500D02*
D03*
X220000Y82500D02*
D03*
X224000Y74500D02*
D03*
X220000Y66500D02*
D03*
X224000Y58500D02*
D03*
X220000Y50500D02*
D03*
X224000Y42500D02*
D03*
X220000Y34500D02*
D03*
X224000Y26500D02*
D03*
X220000Y18500D02*
D03*
X224000Y10500D02*
D03*
X220000Y2500D02*
D03*
X212000Y258500D02*
D03*
X216000Y250500D02*
D03*
X212000Y242500D02*
D03*
X216000Y234500D02*
D03*
X212000Y226500D02*
D03*
X216000Y218500D02*
D03*
X212000Y210500D02*
D03*
X216000Y202500D02*
D03*
X212000Y194500D02*
D03*
X216000Y186500D02*
D03*
X212000Y178500D02*
D03*
X216000Y170500D02*
D03*
X212000Y162500D02*
D03*
X216000Y154500D02*
D03*
X212000Y146500D02*
D03*
X216000Y138500D02*
D03*
X212000Y130500D02*
D03*
X216000Y122500D02*
D03*
X212000Y114500D02*
D03*
X216000Y106500D02*
D03*
X212000Y98500D02*
D03*
X216000Y90500D02*
D03*
X212000Y82500D02*
D03*
X216000Y74500D02*
D03*
X212000Y66500D02*
D03*
X216000Y58500D02*
D03*
X212000Y50500D02*
D03*
X216000Y42500D02*
D03*
X212000Y34500D02*
D03*
X216000Y26500D02*
D03*
X212000Y18500D02*
D03*
X216000Y10500D02*
D03*
X212000Y2500D02*
D03*
X208000Y266500D02*
D03*
X204000Y258500D02*
D03*
X208000Y250500D02*
D03*
X204000Y242500D02*
D03*
X208000Y234500D02*
D03*
X204000Y226500D02*
D03*
X208000Y218500D02*
D03*
X204000Y210500D02*
D03*
X208000Y202500D02*
D03*
X204000Y194500D02*
D03*
X208000Y186500D02*
D03*
X204000Y178500D02*
D03*
X208000Y170500D02*
D03*
Y154500D02*
D03*
Y138500D02*
D03*
Y122500D02*
D03*
Y106500D02*
D03*
Y90500D02*
D03*
Y74500D02*
D03*
Y58500D02*
D03*
X204000Y50500D02*
D03*
X208000Y42500D02*
D03*
X204000Y34500D02*
D03*
X208000Y26500D02*
D03*
X204000Y18500D02*
D03*
X208000Y10500D02*
D03*
X204000Y2500D02*
D03*
X200000Y282500D02*
D03*
X196000Y274500D02*
D03*
X200000Y266500D02*
D03*
X196000Y258500D02*
D03*
X200000Y250500D02*
D03*
X196000Y242500D02*
D03*
X200000Y234500D02*
D03*
X196000Y226500D02*
D03*
X200000Y218500D02*
D03*
X196000Y210500D02*
D03*
X200000Y202500D02*
D03*
Y10500D02*
D03*
X196000Y2500D02*
D03*
X192000Y282500D02*
D03*
X188000Y274500D02*
D03*
X192000Y266500D02*
D03*
Y250500D02*
D03*
X188000Y242500D02*
D03*
X192000Y234500D02*
D03*
Y218500D02*
D03*
X188000Y178500D02*
D03*
Y146500D02*
D03*
Y130500D02*
D03*
Y98500D02*
D03*
Y34500D02*
D03*
X184000Y282500D02*
D03*
X180000Y274500D02*
D03*
X184000Y266500D02*
D03*
X180000Y242500D02*
D03*
X184000Y234500D02*
D03*
X180000Y178500D02*
D03*
X184000Y170500D02*
D03*
Y138500D02*
D03*
Y106500D02*
D03*
X176000Y282500D02*
D03*
X172000Y274500D02*
D03*
X176000Y266500D02*
D03*
X172000Y242500D02*
D03*
X176000Y234500D02*
D03*
X172000Y210500D02*
D03*
Y178500D02*
D03*
X176000Y170500D02*
D03*
X172000Y162500D02*
D03*
Y146500D02*
D03*
X176000Y138500D02*
D03*
X172000Y130500D02*
D03*
Y114500D02*
D03*
X176000Y106500D02*
D03*
X172000Y66500D02*
D03*
X168000Y282500D02*
D03*
X164000Y274500D02*
D03*
X168000Y266500D02*
D03*
X164000Y258500D02*
D03*
X168000Y250500D02*
D03*
X164000Y242500D02*
D03*
X168000Y202500D02*
D03*
X164000Y194500D02*
D03*
X168000Y186500D02*
D03*
X164000Y178500D02*
D03*
X168000Y170500D02*
D03*
X164000Y162500D02*
D03*
X168000Y154500D02*
D03*
X164000Y146500D02*
D03*
X168000Y138500D02*
D03*
X164000Y130500D02*
D03*
X168000Y122500D02*
D03*
X164000Y114500D02*
D03*
X168000Y106500D02*
D03*
X164000Y66500D02*
D03*
X168000Y58500D02*
D03*
X164000Y50500D02*
D03*
X168000Y26500D02*
D03*
X164000Y18500D02*
D03*
X160000Y282500D02*
D03*
X156000Y274500D02*
D03*
X160000Y266500D02*
D03*
X156000Y258500D02*
D03*
X160000Y250500D02*
D03*
X156000Y242500D02*
D03*
Y210500D02*
D03*
X160000Y202500D02*
D03*
X156000Y194500D02*
D03*
X160000Y186500D02*
D03*
X156000Y178500D02*
D03*
X160000Y170500D02*
D03*
X156000Y162500D02*
D03*
X160000Y154500D02*
D03*
X156000Y146500D02*
D03*
X160000Y138500D02*
D03*
X156000Y130500D02*
D03*
X160000Y122500D02*
D03*
X156000Y114500D02*
D03*
X160000Y106500D02*
D03*
X156000Y98500D02*
D03*
Y66500D02*
D03*
X160000Y58500D02*
D03*
X156000Y50500D02*
D03*
X160000Y26500D02*
D03*
X156000Y2500D02*
D03*
X152000Y282500D02*
D03*
X148000Y274500D02*
D03*
X152000Y266500D02*
D03*
X148000Y258500D02*
D03*
X152000Y250500D02*
D03*
X148000Y242500D02*
D03*
X152000Y202500D02*
D03*
X148000Y194500D02*
D03*
X152000Y186500D02*
D03*
X148000Y178500D02*
D03*
X152000Y170500D02*
D03*
X148000Y162500D02*
D03*
X152000Y154500D02*
D03*
X148000Y146500D02*
D03*
X152000Y138500D02*
D03*
X148000Y130500D02*
D03*
X152000Y122500D02*
D03*
X148000Y114500D02*
D03*
X152000Y106500D02*
D03*
X148000Y66500D02*
D03*
X152000Y58500D02*
D03*
X148000Y50500D02*
D03*
X152000Y10500D02*
D03*
X148000Y2500D02*
D03*
X144000Y282500D02*
D03*
X140000Y274500D02*
D03*
X144000Y266500D02*
D03*
X140000Y258500D02*
D03*
X144000Y250500D02*
D03*
X140000Y242500D02*
D03*
Y210500D02*
D03*
X144000Y202500D02*
D03*
X140000Y194500D02*
D03*
X144000Y186500D02*
D03*
X140000Y178500D02*
D03*
X144000Y170500D02*
D03*
X140000Y162500D02*
D03*
X144000Y154500D02*
D03*
X140000Y146500D02*
D03*
X144000Y138500D02*
D03*
X140000Y130500D02*
D03*
X144000Y122500D02*
D03*
X140000Y114500D02*
D03*
X144000Y106500D02*
D03*
X140000Y98500D02*
D03*
Y66500D02*
D03*
X144000Y58500D02*
D03*
X140000Y50500D02*
D03*
X144000Y10500D02*
D03*
X140000Y2500D02*
D03*
X136000Y282500D02*
D03*
X132000Y274500D02*
D03*
X136000Y266500D02*
D03*
X132000Y258500D02*
D03*
X136000Y250500D02*
D03*
X132000Y242500D02*
D03*
X136000Y234500D02*
D03*
X132000Y210500D02*
D03*
X136000Y202500D02*
D03*
X132000Y194500D02*
D03*
X136000Y186500D02*
D03*
X132000Y178500D02*
D03*
X136000Y170500D02*
D03*
X132000Y162500D02*
D03*
X136000Y154500D02*
D03*
X132000Y146500D02*
D03*
X136000Y138500D02*
D03*
X132000Y130500D02*
D03*
X136000Y122500D02*
D03*
X132000Y114500D02*
D03*
X136000Y106500D02*
D03*
X132000Y98500D02*
D03*
X136000Y74500D02*
D03*
X132000Y66500D02*
D03*
X136000Y58500D02*
D03*
X132000Y50500D02*
D03*
Y2500D02*
D03*
X128000Y282500D02*
D03*
X124000Y274500D02*
D03*
X128000Y266500D02*
D03*
X124000Y258500D02*
D03*
X128000Y250500D02*
D03*
X124000Y242500D02*
D03*
X128000Y234500D02*
D03*
Y202500D02*
D03*
X124000Y194500D02*
D03*
X128000Y186500D02*
D03*
X124000Y178500D02*
D03*
X128000Y170500D02*
D03*
X124000Y162500D02*
D03*
X128000Y154500D02*
D03*
X124000Y146500D02*
D03*
X128000Y138500D02*
D03*
X124000Y130500D02*
D03*
X128000Y122500D02*
D03*
X124000Y114500D02*
D03*
X128000Y106500D02*
D03*
Y74500D02*
D03*
X124000Y66500D02*
D03*
X128000Y58500D02*
D03*
X124000Y2500D02*
D03*
X120000Y282500D02*
D03*
X116000Y274500D02*
D03*
X120000Y266500D02*
D03*
X116000Y258500D02*
D03*
X120000Y250500D02*
D03*
Y202500D02*
D03*
X116000Y194500D02*
D03*
X120000Y186500D02*
D03*
X116000Y178500D02*
D03*
X120000Y170500D02*
D03*
X116000Y162500D02*
D03*
X120000Y154500D02*
D03*
X116000Y146500D02*
D03*
X120000Y138500D02*
D03*
X116000Y130500D02*
D03*
X120000Y122500D02*
D03*
X116000Y66500D02*
D03*
X120000Y58500D02*
D03*
X116000Y2500D02*
D03*
X112000Y282500D02*
D03*
X108000Y274500D02*
D03*
X112000Y266500D02*
D03*
X108000Y258500D02*
D03*
X112000Y202500D02*
D03*
X108000Y194500D02*
D03*
X112000Y186500D02*
D03*
X108000Y178500D02*
D03*
X112000Y170500D02*
D03*
X108000Y162500D02*
D03*
X112000Y154500D02*
D03*
X108000Y146500D02*
D03*
X112000Y138500D02*
D03*
X108000Y130500D02*
D03*
X112000Y122500D02*
D03*
X108000Y66500D02*
D03*
Y2500D02*
D03*
X104000Y282500D02*
D03*
X100000Y274500D02*
D03*
X104000Y266500D02*
D03*
X100000Y258500D02*
D03*
X104000Y250500D02*
D03*
Y74500D02*
D03*
X100000Y66500D02*
D03*
Y2500D02*
D03*
X96000Y282500D02*
D03*
X92000Y274500D02*
D03*
X96000Y266500D02*
D03*
X92000Y258500D02*
D03*
Y242500D02*
D03*
X96000Y202500D02*
D03*
X92000Y194500D02*
D03*
X96000Y186500D02*
D03*
X92000Y178500D02*
D03*
X96000Y170500D02*
D03*
X92000Y162500D02*
D03*
X96000Y154500D02*
D03*
X92000Y146500D02*
D03*
X96000Y138500D02*
D03*
X92000Y130500D02*
D03*
X96000Y122500D02*
D03*
X92000Y66500D02*
D03*
Y2500D02*
D03*
X88000Y282500D02*
D03*
X84000Y274500D02*
D03*
X88000Y266500D02*
D03*
X84000Y258500D02*
D03*
X88000Y250500D02*
D03*
X84000Y242500D02*
D03*
X88000Y202500D02*
D03*
X84000Y194500D02*
D03*
X88000Y186500D02*
D03*
X84000Y178500D02*
D03*
X88000Y170500D02*
D03*
X84000Y162500D02*
D03*
X88000Y154500D02*
D03*
X84000Y146500D02*
D03*
X88000Y138500D02*
D03*
X84000Y130500D02*
D03*
X88000Y122500D02*
D03*
X84000Y2500D02*
D03*
X80000Y282500D02*
D03*
X76000Y274500D02*
D03*
X80000Y266500D02*
D03*
X76000Y258500D02*
D03*
X80000Y250500D02*
D03*
X76000Y242500D02*
D03*
X80000Y26500D02*
D03*
X76000Y2500D02*
D03*
X72000Y282500D02*
D03*
X68000Y274500D02*
D03*
X72000Y266500D02*
D03*
X68000Y258500D02*
D03*
X72000Y250500D02*
D03*
X68000Y242500D02*
D03*
Y226500D02*
D03*
Y210500D02*
D03*
Y194500D02*
D03*
Y178500D02*
D03*
Y162500D02*
D03*
Y146500D02*
D03*
Y130500D02*
D03*
X72000Y26500D02*
D03*
X68000Y2500D02*
D03*
X64000Y282500D02*
D03*
X60000Y274500D02*
D03*
X64000Y266500D02*
D03*
X60000Y258500D02*
D03*
X64000Y250500D02*
D03*
X60000Y242500D02*
D03*
X64000Y234500D02*
D03*
X60000Y226500D02*
D03*
X64000Y218500D02*
D03*
X60000Y210500D02*
D03*
X64000Y202500D02*
D03*
X60000Y194500D02*
D03*
X64000Y186500D02*
D03*
X60000Y178500D02*
D03*
X64000Y170500D02*
D03*
X60000Y162500D02*
D03*
X64000Y154500D02*
D03*
X60000Y146500D02*
D03*
X64000Y138500D02*
D03*
X60000Y130500D02*
D03*
X64000Y122500D02*
D03*
X60000Y2500D02*
D03*
X56000Y282500D02*
D03*
X52000Y274500D02*
D03*
X56000Y266500D02*
D03*
X52000Y258500D02*
D03*
X56000Y250500D02*
D03*
X52000Y242500D02*
D03*
X56000Y234500D02*
D03*
X52000Y226500D02*
D03*
X56000Y218500D02*
D03*
X52000Y210500D02*
D03*
X56000Y202500D02*
D03*
X52000Y194500D02*
D03*
X56000Y186500D02*
D03*
X52000Y178500D02*
D03*
X56000Y170500D02*
D03*
X52000Y162500D02*
D03*
X56000Y154500D02*
D03*
X52000Y146500D02*
D03*
X56000Y138500D02*
D03*
X52000Y130500D02*
D03*
X56000Y122500D02*
D03*
X52000Y114500D02*
D03*
Y98500D02*
D03*
Y82500D02*
D03*
Y66500D02*
D03*
X56000Y26500D02*
D03*
X52000Y2500D02*
D03*
X48000Y282500D02*
D03*
X44000Y274500D02*
D03*
X48000Y266500D02*
D03*
X44000Y258500D02*
D03*
X48000Y250500D02*
D03*
X44000Y242500D02*
D03*
X48000Y234500D02*
D03*
X44000Y226500D02*
D03*
X48000Y218500D02*
D03*
X44000Y210500D02*
D03*
X48000Y202500D02*
D03*
X44000Y194500D02*
D03*
X48000Y186500D02*
D03*
X44000Y178500D02*
D03*
X48000Y170500D02*
D03*
X44000Y162500D02*
D03*
X48000Y154500D02*
D03*
X44000Y146500D02*
D03*
X48000Y138500D02*
D03*
X44000Y130500D02*
D03*
X48000Y122500D02*
D03*
X44000Y114500D02*
D03*
X48000Y106500D02*
D03*
X44000Y98500D02*
D03*
X48000Y90500D02*
D03*
X44000Y82500D02*
D03*
X48000Y74500D02*
D03*
X44000Y66500D02*
D03*
X48000Y58500D02*
D03*
X44000Y50500D02*
D03*
X48000Y26500D02*
D03*
X44000Y2500D02*
D03*
X40000Y282500D02*
D03*
X36000Y274500D02*
D03*
X40000Y266500D02*
D03*
X36000Y258500D02*
D03*
X40000Y250500D02*
D03*
X36000Y242500D02*
D03*
X40000Y234500D02*
D03*
X36000Y226500D02*
D03*
X40000Y218500D02*
D03*
X36000Y210500D02*
D03*
X40000Y202500D02*
D03*
X36000Y194500D02*
D03*
X40000Y186500D02*
D03*
X36000Y178500D02*
D03*
X40000Y170500D02*
D03*
X36000Y162500D02*
D03*
X40000Y154500D02*
D03*
X36000Y146500D02*
D03*
X40000Y138500D02*
D03*
X36000Y130500D02*
D03*
X40000Y122500D02*
D03*
X36000Y114500D02*
D03*
X40000Y106500D02*
D03*
X36000Y98500D02*
D03*
X40000Y90500D02*
D03*
X36000Y82500D02*
D03*
X40000Y74500D02*
D03*
X36000Y66500D02*
D03*
X40000Y58500D02*
D03*
X36000Y50500D02*
D03*
X40000Y26500D02*
D03*
X32000Y282500D02*
D03*
X28000Y274500D02*
D03*
X32000Y266500D02*
D03*
X28000Y258500D02*
D03*
X32000Y250500D02*
D03*
X28000Y242500D02*
D03*
X32000Y234500D02*
D03*
X28000Y226500D02*
D03*
X32000Y218500D02*
D03*
X28000Y210500D02*
D03*
X32000Y202500D02*
D03*
X28000Y194500D02*
D03*
X32000Y186500D02*
D03*
X28000Y178500D02*
D03*
X32000Y170500D02*
D03*
X28000Y162500D02*
D03*
X32000Y154500D02*
D03*
X28000Y146500D02*
D03*
X32000Y138500D02*
D03*
X28000Y130500D02*
D03*
X32000Y122500D02*
D03*
X28000Y114500D02*
D03*
X32000Y106500D02*
D03*
X28000Y98500D02*
D03*
X32000Y90500D02*
D03*
X28000Y82500D02*
D03*
X32000Y74500D02*
D03*
X28000Y66500D02*
D03*
X32000Y58500D02*
D03*
X28000Y50500D02*
D03*
X24000Y266500D02*
D03*
X20000Y258500D02*
D03*
X24000Y250500D02*
D03*
X20000Y242500D02*
D03*
X24000Y234500D02*
D03*
X20000Y226500D02*
D03*
X24000Y218500D02*
D03*
X20000Y210500D02*
D03*
X24000Y202500D02*
D03*
X20000Y194500D02*
D03*
X24000Y186500D02*
D03*
X20000Y178500D02*
D03*
X24000Y170500D02*
D03*
X20000Y162500D02*
D03*
X24000Y154500D02*
D03*
X20000Y146500D02*
D03*
X24000Y138500D02*
D03*
X20000Y130500D02*
D03*
X24000Y122500D02*
D03*
X20000Y114500D02*
D03*
X24000Y106500D02*
D03*
X20000Y98500D02*
D03*
X24000Y90500D02*
D03*
X20000Y82500D02*
D03*
X24000Y74500D02*
D03*
X20000Y66500D02*
D03*
X24000Y58500D02*
D03*
X20000Y50500D02*
D03*
X12000Y258500D02*
D03*
X16000Y250500D02*
D03*
X12000Y242500D02*
D03*
X16000Y234500D02*
D03*
X12000Y226500D02*
D03*
X16000Y218500D02*
D03*
X12000Y210500D02*
D03*
X16000Y202500D02*
D03*
X12000Y194500D02*
D03*
X16000Y186500D02*
D03*
X12000Y178500D02*
D03*
X16000Y170500D02*
D03*
X12000Y162500D02*
D03*
X16000Y154500D02*
D03*
X12000Y146500D02*
D03*
X16000Y138500D02*
D03*
X12000Y130500D02*
D03*
X16000Y122500D02*
D03*
X12000Y114500D02*
D03*
X16000Y106500D02*
D03*
X12000Y98500D02*
D03*
X16000Y90500D02*
D03*
X12000Y82500D02*
D03*
X16000Y74500D02*
D03*
X12000Y66500D02*
D03*
X16000Y58500D02*
D03*
X12000Y50500D02*
D03*
X16000Y42500D02*
D03*
X4000Y258500D02*
D03*
X8000Y250500D02*
D03*
X4000Y242500D02*
D03*
X8000Y234500D02*
D03*
X4000Y226500D02*
D03*
X8000Y218500D02*
D03*
X4000Y210500D02*
D03*
X8000Y202500D02*
D03*
X4000Y194500D02*
D03*
X8000Y186500D02*
D03*
X4000Y178500D02*
D03*
X8000Y170500D02*
D03*
X4000Y162500D02*
D03*
X8000Y154500D02*
D03*
X4000Y146500D02*
D03*
X8000Y138500D02*
D03*
X4000Y130500D02*
D03*
X8000Y122500D02*
D03*
X4000Y114500D02*
D03*
X8000Y106500D02*
D03*
X4000Y98500D02*
D03*
X8000Y90500D02*
D03*
X4000Y82500D02*
D03*
X8000Y74500D02*
D03*
X4000Y66500D02*
D03*
X8000Y58500D02*
D03*
X4000Y50500D02*
D03*
X8000Y42500D02*
D03*
X4000Y34500D02*
D03*
Y18500D02*
D03*
Y2500D02*
D03*
X67000Y115500D02*
D03*
X83000D02*
D03*
X86500D02*
D03*
X90000D02*
D03*
X59500D02*
D03*
X63000D02*
D03*
X80000Y32000D02*
D03*
X76500D02*
D03*
X73000D02*
D03*
X202000Y166500D02*
D03*
Y163000D02*
D03*
Y159500D02*
D03*
X83500Y74000D02*
D03*
X109000Y251000D02*
D03*
X113500D02*
D03*
X97500Y212000D02*
D03*
Y207000D02*
D03*
X83500D02*
D03*
X86500D02*
D03*
Y74000D02*
D03*
X97500D02*
D03*
X86500Y79000D02*
D03*
X83500D02*
D03*
X97500D02*
D03*
X83500Y212000D02*
D03*
X86500D02*
D03*
X106209Y248209D02*
D03*
X116291D02*
D03*
Y115209D02*
D03*
X113500Y118000D02*
D03*
X106209Y115209D02*
D03*
X109000Y118000D02*
D03*
X148500Y104500D02*
D03*
X145709Y101709D02*
D03*
X151291D02*
D03*
X165000Y104646D02*
D03*
X162209Y101854D02*
D03*
X167791D02*
D03*
X151291Y75146D02*
D03*
X145709D02*
D03*
X148500Y72354D02*
D03*
X165000D02*
D03*
X167804Y75106D02*
D03*
X162310Y75076D02*
D03*
X145500Y88500D02*
D03*
X138000D02*
D03*
Y221000D02*
D03*
X145500D02*
D03*
X162310Y207576D02*
D03*
X167804Y207606D02*
D03*
X165000Y204854D02*
D03*
X148500D02*
D03*
X145709Y207646D02*
D03*
X151291D02*
D03*
X167791Y234354D02*
D03*
X162209D02*
D03*
X165000Y237146D02*
D03*
X151291Y234209D02*
D03*
X145709D02*
D03*
X148500Y237000D02*
D03*
M02*
