G04*
G04 #@! TF.GenerationSoftware,Altium Limited,Altium Designer,20.0.13 (296)*
G04*
G04 Layer_Color=32896*
%FSLAX25Y25*%
%MOIN*%
G70*
G01*
G75*
%ADD73C,0.01500*%
%ADD84C,0.02500*%
D73*
X140000Y86164D02*
Y81166D01*
Y83665D01*
X139167Y84498D01*
X137501D01*
X136668Y83665D01*
Y81166D01*
X134169Y85331D02*
Y84498D01*
X135002D01*
X133335D01*
X134169D01*
Y81999D01*
X133335Y81166D01*
X130003Y85331D02*
Y84498D01*
X130836D01*
X129170D01*
X130003D01*
Y81999D01*
X129170Y81166D01*
X126671Y79500D02*
Y84498D01*
X124172D01*
X123339Y83665D01*
Y81999D01*
X124172Y81166D01*
X126671D01*
X121673D02*
X119173D01*
X118340Y81999D01*
X119173Y82832D01*
X120840D01*
X121673Y83665D01*
X120840Y84498D01*
X118340D01*
X116674D02*
X115841D01*
Y83665D01*
X116674D01*
Y84498D01*
Y81999D02*
X115841D01*
Y81166D01*
X116674D01*
Y81999D01*
X112509Y81166D02*
X109177Y84498D01*
X107510Y81166D02*
X104178Y84498D01*
X100846Y79500D02*
X100013D01*
X99180Y80333D01*
Y84498D01*
X101679D01*
X102512Y83665D01*
Y81999D01*
X101679Y81166D01*
X99180D01*
X97514D02*
X95848D01*
X96681D01*
Y84498D01*
X97514D01*
X92515Y85331D02*
Y84498D01*
X93348D01*
X91682D01*
X92515D01*
Y81999D01*
X91682Y81166D01*
X89183Y86164D02*
Y81166D01*
Y83665D01*
X88350Y84498D01*
X86684D01*
X85851Y83665D01*
Y81166D01*
X84185Y84498D02*
Y81999D01*
X83352Y81166D01*
X80853D01*
Y84498D01*
X79186Y86164D02*
Y81166D01*
X76687D01*
X75854Y81999D01*
Y82832D01*
Y83665D01*
X76687Y84498D01*
X79186D01*
X74188Y81166D02*
Y81999D01*
X73355D01*
Y81166D01*
X74188D01*
X66690Y84498D02*
X69190D01*
X70023Y83665D01*
Y81999D01*
X69190Y81166D01*
X66690D01*
X64191D02*
X62525D01*
X61692Y81999D01*
Y83665D01*
X62525Y84498D01*
X64191D01*
X65024Y83665D01*
Y81999D01*
X64191Y81166D01*
X60026D02*
Y84498D01*
X59193D01*
X58360Y83665D01*
Y81166D01*
Y83665D01*
X57527Y84498D01*
X56694Y83665D01*
Y81166D01*
X55028D02*
X51695Y84498D01*
X50029D02*
Y81999D01*
X49196Y81166D01*
X48363Y81999D01*
X47530Y81166D01*
X46697Y81999D01*
Y84498D01*
X45031Y81166D02*
X43365D01*
X44198D01*
Y84498D01*
X45031D01*
X40032Y85331D02*
Y84498D01*
X40865D01*
X39199D01*
X40032D01*
Y81999D01*
X39199Y81166D01*
X34201D02*
X35867D01*
X36700Y81999D01*
Y83665D01*
X35867Y84498D01*
X34201D01*
X33368Y83665D01*
Y82832D01*
X36700D01*
X31702Y81166D02*
Y86164D01*
Y82832D02*
X29203Y84498D01*
X31702Y82832D02*
X29203Y81166D01*
X26703D02*
X25037D01*
X25870D01*
Y86164D01*
X26703Y85331D01*
X22538Y81166D02*
X20872D01*
X21705D01*
Y86164D01*
X22538Y85331D01*
X18373Y86164D02*
X15041D01*
Y85331D01*
X18373Y81999D01*
Y81166D01*
D84*
X157335Y104497D02*
X159002Y106163D01*
X162334D01*
X164000Y104497D01*
Y102831D01*
X162334Y101164D01*
X159002D01*
X157335Y99498D01*
Y97832D01*
X159002Y96166D01*
X162334D01*
X164000Y97832D01*
X154003Y106163D02*
X147339D01*
X150671D01*
Y96166D01*
X137342Y106163D02*
X144007D01*
Y96166D01*
X137342D01*
X144007Y101164D02*
X140674D01*
X134010Y96166D02*
Y106163D01*
X129011D01*
X127345Y104497D01*
Y101164D01*
X129011Y99498D01*
X134010D01*
X124013Y96166D02*
Y106163D01*
X119015D01*
X117348Y104497D01*
Y101164D01*
X119015Y99498D01*
X124013D01*
X107352Y106163D02*
X114016D01*
Y96166D01*
X107352D01*
X114016Y101164D02*
X110684D01*
X104019Y96166D02*
Y106163D01*
X99021D01*
X97355Y104497D01*
Y101164D01*
X99021Y99498D01*
X104019D01*
X100687D02*
X97355Y96166D01*
X94023Y94500D02*
X87358D01*
X84026Y106163D02*
Y96166D01*
X79027D01*
X77361Y97832D01*
Y104497D01*
X79027Y106163D01*
X84026D01*
X74029Y96166D02*
Y106163D01*
X69031D01*
X67365Y104497D01*
Y101164D01*
X69031Y99498D01*
X74029D01*
X70697D02*
X67365Y96166D01*
X64032Y106163D02*
X60700D01*
X62366D01*
Y96166D01*
X64032D01*
X60700D01*
X55702Y106163D02*
Y99498D01*
X52369Y96166D01*
X49037Y99498D01*
Y106163D01*
X39040D02*
X45705D01*
Y96166D01*
X39040D01*
X45705Y101164D02*
X42373D01*
X35708Y96166D02*
Y106163D01*
X30710D01*
X29044Y104497D01*
Y101164D01*
X30710Y99498D01*
X35708D01*
X32376D02*
X29044Y96166D01*
X25711Y94500D02*
X19047D01*
X15715Y106163D02*
Y99498D01*
X12382Y96166D01*
X9050Y99498D01*
Y106163D01*
X5718Y96166D02*
X2386D01*
X4052D01*
Y106163D01*
X5718Y104497D01*
X139000Y123997D02*
Y114000D01*
Y117332D01*
X132335Y123997D01*
X137334Y118998D01*
X132335Y114000D01*
X129003D02*
Y123997D01*
X122339Y114000D01*
Y123997D01*
X112342D02*
X119007D01*
Y114000D01*
X112342D01*
X119007Y118998D02*
X115674D01*
X99013Y114000D02*
Y120665D01*
X95681Y123997D01*
X92348Y120665D01*
Y114000D01*
Y118998D01*
X99013D01*
X89016Y114000D02*
Y123997D01*
X82352Y114000D01*
Y123997D01*
X72355Y122331D02*
X74021Y123997D01*
X77353D01*
X79019Y122331D01*
Y115666D01*
X77353Y114000D01*
X74021D01*
X72355Y115666D01*
Y118998D01*
X75687D01*
X52361Y114000D02*
X59026D01*
X52361Y120665D01*
Y122331D01*
X54027Y123997D01*
X57360D01*
X59026Y122331D01*
X49029D02*
X47363Y123997D01*
X44031D01*
X42365Y122331D01*
Y115666D01*
X44031Y114000D01*
X47363D01*
X49029Y115666D01*
Y122331D01*
X32368Y114000D02*
X39032D01*
X32368Y120665D01*
Y122331D01*
X34034Y123997D01*
X37366D01*
X39032Y122331D01*
X29035D02*
X27369Y123997D01*
X24037D01*
X22371Y122331D01*
Y115666D01*
X24037Y114000D01*
X27369D01*
X29035Y115666D01*
Y122331D01*
M02*
