G04*
G04 #@! TF.GenerationSoftware,Altium Limited,Altium Designer,20.0.13 (296)*
G04*
G04 Layer_Color=65535*
%FSLAX25Y25*%
%MOIN*%
G70*
G01*
G75*
%ADD10C,0.00984*%
%ADD11C,0.01000*%
%ADD12C,0.02000*%
%ADD13C,0.02362*%
%ADD14C,0.00787*%
%ADD15C,0.00394*%
%ADD16C,0.00600*%
%ADD17C,0.00800*%
%ADD18R,0.01400X0.12000*%
D10*
X147988Y126347D02*
G03*
X147988Y126347I-492J0D01*
G01*
X103760Y147500D02*
G03*
X103760Y147500I-492J0D01*
G01*
X104639Y84938D02*
G03*
X104639Y84938I-492J0D01*
G01*
X107579Y41134D02*
G03*
X107579Y41134I-492J0D01*
G01*
D11*
X33378Y152411D02*
G03*
X34602Y138196I-11133J-8119D01*
G01*
X158071Y144291D02*
G03*
X158071Y144291I-13780J0D01*
G01*
X36024Y22244D02*
G03*
X36024Y22244I-13780J0D01*
G01*
X158071D02*
G03*
X158071Y22244I-13780J0D01*
G01*
X39500Y48000D02*
G03*
X39500Y48000I-500J0D01*
G01*
X119000Y33000D02*
X119500Y33500D01*
X121000Y23500D02*
Y26500D01*
X119000Y28500D02*
X121000Y26500D01*
X22768Y-45748D02*
Y8474D01*
X116500Y27000D02*
Y36000D01*
X119500Y39000D01*
X119000Y28500D02*
Y33000D01*
X125000Y21500D02*
Y26500D01*
X28768Y95000D02*
X37000D01*
X28768Y121000D02*
X37000D01*
X13500D02*
X21732D01*
X13500Y95000D02*
X21732D01*
X115413Y-71011D02*
Y-45748D01*
X51122Y-71011D02*
X115413D01*
X51122Y-70984D02*
Y-45748D01*
X143968D02*
Y8500D01*
X22768Y-45748D02*
X143968D01*
D12*
X137364Y72047D02*
G03*
X137364Y72047I-557J0D01*
G01*
D13*
X94192Y83268D02*
G03*
X94192Y83268I-1181J0D01*
G01*
D14*
X146906Y98689D02*
Y122311D01*
X135094Y98689D02*
Y122311D01*
X153740Y103803D02*
X154921D01*
X153740Y106165D02*
X154921D01*
X152681Y123909D02*
Y125091D01*
X150319Y123909D02*
Y125091D01*
X152681Y112409D02*
Y113591D01*
X150319Y112409D02*
Y113591D01*
X144181Y59409D02*
Y60590D01*
X141819Y59409D02*
Y60590D01*
X139181Y59409D02*
Y60590D01*
X136819Y59409D02*
Y60590D01*
X124409Y38319D02*
X125591D01*
X124409Y40681D02*
X125591D01*
X124409Y28319D02*
X125591D01*
X124409Y30681D02*
X125591D01*
X124409Y33319D02*
X125591D01*
X124409Y35681D02*
X125591D01*
X166000Y38000D02*
Y88000D01*
X146000Y38000D02*
Y88000D01*
Y38000D02*
X166000D01*
X146000Y88000D02*
X166000D01*
X124409Y93319D02*
X125591D01*
X124409Y95681D02*
X125591D01*
X124409Y116681D02*
X125591D01*
X124409Y114319D02*
X125591D01*
X32409Y92181D02*
X33591D01*
X32409Y89819D02*
X33591D01*
X109409Y84819D02*
X110591D01*
X109409Y87181D02*
X110591D01*
X109409Y79819D02*
X110591D01*
X109409Y82181D02*
X110591D01*
X42819Y70410D02*
Y71591D01*
X45181Y70410D02*
Y71591D01*
X132181Y123409D02*
Y124591D01*
X129819Y123409D02*
Y124591D01*
X81819Y58410D02*
Y59591D01*
X84181Y58410D02*
Y59591D01*
X47819Y70410D02*
Y71591D01*
X50181Y70410D02*
Y71591D01*
X37819Y70410D02*
Y71591D01*
X40181Y70410D02*
Y71591D01*
X106409Y71681D02*
X107591D01*
X106409Y69319D02*
X107591D01*
X63268Y127717D02*
Y142283D01*
X103268Y127717D02*
Y142283D01*
X63268Y127717D02*
X103268D01*
X63268Y142283D02*
X103268D01*
X23410Y45181D02*
X24590D01*
X23410Y42819D02*
X24590D01*
X23410Y40181D02*
X24590D01*
X23410Y37819D02*
X24590D01*
X28264Y60819D02*
X29445D01*
X28264Y63181D02*
X29445D01*
X28264Y65819D02*
X29445D01*
X28264Y68181D02*
X29445D01*
X42181Y31409D02*
Y32591D01*
X39819Y31409D02*
Y32591D01*
X38181Y41264D02*
Y42445D01*
X35819Y41264D02*
Y42445D01*
X53819Y54409D02*
Y55590D01*
X56181Y54409D02*
Y55590D01*
X43181Y41264D02*
Y42445D01*
X40819Y41264D02*
Y42445D01*
X61181Y54409D02*
Y55590D01*
X58819Y54409D02*
Y55590D01*
X63819Y54409D02*
Y55590D01*
X66181Y54409D02*
Y55590D01*
X41409Y132181D02*
X42591D01*
X41409Y129819D02*
X42591D01*
X61500Y120000D02*
Y124000D01*
X50500Y120000D02*
Y124000D01*
X111000Y134500D02*
X115000D01*
X111000Y123500D02*
X115000D01*
X114181Y143264D02*
Y144445D01*
X111819Y143264D02*
Y144445D01*
X51410Y105181D02*
X52591D01*
X51410Y102819D02*
X52591D01*
X51555Y110181D02*
X52736D01*
X51555Y107819D02*
X52736D01*
X48409Y100181D02*
X49591D01*
X48409Y97819D02*
X49591D01*
X48409Y95181D02*
X49591D01*
X48409Y92819D02*
X49591D01*
X106819Y143409D02*
Y144591D01*
X109181Y143409D02*
Y144591D01*
X52409Y160819D02*
X53591D01*
X52409Y163181D02*
X53591D01*
X106819Y155409D02*
Y156591D01*
X109181Y155409D02*
Y156591D01*
X63000Y155000D02*
Y165000D01*
X103000D01*
X63000Y155000D02*
X103000D01*
Y165000D01*
X83268Y98579D02*
X98579Y83268D01*
X67956D02*
X83268Y67956D01*
X98579Y83268D01*
X67956D02*
X83268Y98579D01*
X91181Y52409D02*
Y53591D01*
X88819Y52409D02*
Y53591D01*
X96181Y52409D02*
Y53591D01*
X93819Y52409D02*
Y53591D01*
X94095Y34244D02*
X97244D01*
X94095D02*
Y37000D01*
X102756Y34244D02*
X105905D01*
Y37000D01*
X89555Y20181D02*
X90736D01*
X89555Y17819D02*
X90736D01*
X109264Y17819D02*
X110445D01*
X109264Y20181D02*
X110445D01*
X94410Y12819D02*
X95591D01*
X94410Y15181D02*
X95591D01*
X88555Y34181D02*
X89736D01*
X88555Y31819D02*
X89736D01*
X99410Y20181D02*
X100591D01*
X99410Y17819D02*
X100591D01*
X87819Y40409D02*
Y41591D01*
X90181Y40409D02*
Y41591D01*
X104264Y15181D02*
X105445D01*
X104264Y12819D02*
X105445D01*
X110264Y31819D02*
X111445D01*
X110264Y34181D02*
X111445D01*
D15*
X160100Y120500D02*
X161100Y121500D01*
X160100Y122500D02*
X161100Y121500D01*
X159900D02*
X161000D01*
X160100Y114500D02*
X161100Y115500D01*
X160100Y116500D02*
X161100Y115500D01*
X159900D02*
X161000D01*
X160100Y108500D02*
X161100Y109500D01*
X160100Y110500D02*
X161100Y109500D01*
X159900D02*
X161000D01*
X48000Y52000D02*
X50000D01*
X101575Y49000D02*
Y51000D01*
D16*
X134681Y68453D02*
Y70421D01*
X132713D02*
X134681D01*
X118933D02*
X120902D01*
X118933Y68453D02*
Y70421D01*
Y54673D02*
Y56642D01*
Y54673D02*
X120902D01*
X132713D02*
X134681D01*
Y56642D01*
X132000Y97000D02*
Y101500D01*
X108000Y97000D02*
Y101500D01*
Y97000D02*
X132000D01*
X108000Y113000D02*
X132000D01*
Y108600D02*
Y113000D01*
X108000Y108600D02*
Y113000D01*
X37700Y26200D02*
X44300D01*
X37700Y13800D02*
Y26200D01*
X44300Y13800D02*
Y26200D01*
X37700Y13800D02*
X44300D01*
X35800Y134000D02*
X60900D01*
X35800D02*
Y146000D01*
X60900D01*
X35100Y159000D02*
X60200D01*
Y147000D02*
Y159000D01*
X35100Y147000D02*
X60200D01*
X58200Y46000D02*
X60700D01*
Y48500D01*
X58200D02*
X68200D01*
X58200Y13600D02*
Y48500D01*
Y13600D02*
X68200D01*
Y48500D01*
X25000Y47100D02*
X37000Y47200D01*
X25000Y58900D02*
X37000D01*
X102500Y30000D02*
X110400D01*
X89600D02*
X97000D01*
X110400Y22000D02*
Y30000D01*
X89600Y22000D02*
Y30000D01*
Y22000D02*
X110400D01*
D17*
X135300Y44299D02*
Y42300D01*
X136300Y41300D01*
X137299Y42300D01*
Y44299D01*
X140298Y43799D02*
X139799Y44299D01*
X138799D01*
X138299Y43799D01*
Y41800D01*
X138799Y41300D01*
X139799D01*
X140298Y41800D01*
X143297Y43799D02*
X142798Y44299D01*
X141798D01*
X141298Y43799D01*
Y41800D01*
X141798Y41300D01*
X142798D01*
X143297Y41800D01*
X159701Y28300D02*
X161700D01*
X162700Y29300D01*
X161700Y30299D01*
X159701D01*
X160201Y33298D02*
X159701Y32799D01*
Y31799D01*
X160201Y31299D01*
X162200D01*
X162700Y31799D01*
Y32799D01*
X162200Y33298D01*
X160201Y36297D02*
X159701Y35798D01*
Y34798D01*
X160201Y34298D01*
X162200D01*
X162700Y34798D01*
Y35798D01*
X162200Y36297D01*
X30799Y126299D02*
X30299Y126799D01*
X29300D01*
X28800Y126299D01*
Y124300D01*
X29300Y123800D01*
X30299D01*
X30799Y124300D01*
Y125300D01*
X29800D01*
X31799Y123800D02*
Y126799D01*
X33798Y123800D01*
Y126799D01*
X34798D02*
Y123800D01*
X36298D01*
X36797Y124300D01*
Y126299D01*
X36298Y126799D01*
X34798D01*
X160201Y92299D02*
X159701Y91799D01*
Y90800D01*
X160201Y90300D01*
X162200D01*
X162700Y90800D01*
Y91799D01*
X162200Y92299D01*
X161200D01*
Y91300D01*
X162700Y93299D02*
X159701D01*
X162700Y95298D01*
X159701D01*
Y96298D02*
X162700D01*
Y97798D01*
X162200Y98297D01*
X160201D01*
X159701Y97798D01*
Y96298D01*
X150201Y92299D02*
X149701Y91799D01*
Y90800D01*
X150201Y90300D01*
X152200D01*
X152700Y90800D01*
Y91799D01*
X152200Y92299D01*
X151200D01*
Y91300D01*
X152700Y93299D02*
X149701D01*
X152700Y95298D01*
X149701D01*
Y96298D02*
X152700D01*
Y97798D01*
X152200Y98297D01*
X150201D01*
X149701Y97798D01*
Y96298D01*
X122700Y14300D02*
Y15300D01*
Y14800D01*
X119701D01*
X120201Y14300D01*
X122700Y18799D02*
Y16799D01*
X120701Y18799D01*
X120201D01*
X119701Y18299D01*
Y17299D01*
X120201Y16799D01*
X119701Y19798D02*
X121700D01*
X122700Y20798D01*
X121700Y21798D01*
X119701D01*
X115701Y14300D02*
X115201Y14800D01*
Y15800D01*
X115701Y16299D01*
X116201D01*
X116700Y15800D01*
Y15300D01*
Y15800D01*
X117200Y16299D01*
X117700D01*
X118200Y15800D01*
Y14800D01*
X117700Y14300D01*
X118200Y17299D02*
X117700D01*
Y17799D01*
X118200D01*
Y17299D01*
X115701Y19798D02*
X115201Y20298D01*
Y21298D01*
X115701Y21798D01*
X116201D01*
X116700Y21298D01*
Y20798D01*
Y21298D01*
X117200Y21798D01*
X117700D01*
X118200Y21298D01*
Y20298D01*
X117700Y19798D01*
X115201Y22797D02*
X117200D01*
X118200Y23797D01*
X117200Y24797D01*
X115201D01*
X124201Y16299D02*
Y14300D01*
X125700D01*
X125201Y15300D01*
Y15800D01*
X125700Y16299D01*
X126700D01*
X127200Y15800D01*
Y14800D01*
X126700Y14300D01*
X124201Y17299D02*
X126200D01*
X127200Y18299D01*
X126200Y19298D01*
X124201D01*
D18*
X60600Y140000D02*
D03*
X35400Y153000D02*
D03*
M02*
