G04*
G04 #@! TF.GenerationSoftware,Altium Limited,Altium Designer,20.0.13 (296)*
G04*
G04 Layer_Color=8388736*
%FSLAX25Y25*%
%MOIN*%
G70*
G01*
G75*
%ADD43R,0.08674X0.07887*%
%ADD44R,0.03753X0.03950*%
%ADD45R,0.03950X0.03950*%
%ADD46R,0.03950X0.03753*%
%ADD47R,0.08674X0.08674*%
%ADD48O,0.04147X0.01981*%
%ADD49O,0.01981X0.04147*%
%ADD50R,0.07887X0.05524*%
%ADD51R,0.10249X0.03792*%
%ADD52R,0.22453X0.11824*%
%ADD53O,0.02572X0.06312*%
%ADD54R,0.06300X0.05000*%
%ADD55R,0.02572X0.02572*%
%ADD56R,0.06300X0.08800*%
%ADD57R,0.12800X0.06200*%
%ADD58R,0.06200X0.12800*%
G04:AMPARAMS|DCode=59|XSize=19.81mil|YSize=78.87mil|CornerRadius=0mil|HoleSize=0mil|Usage=FLASHONLY|Rotation=315.000|XOffset=0mil|YOffset=0mil|HoleType=Round|Shape=Round|*
%AMOVALD59*
21,1,0.05906,0.01981,0.00000,0.00000,45.0*
1,1,0.01981,-0.02088,-0.02088*
1,1,0.01981,0.02088,0.02088*
%
%ADD59OVALD59*%

G04:AMPARAMS|DCode=60|XSize=19.81mil|YSize=78.87mil|CornerRadius=0mil|HoleSize=0mil|Usage=FLASHONLY|Rotation=225.000|XOffset=0mil|YOffset=0mil|HoleType=Round|Shape=Round|*
%AMOVALD60*
21,1,0.05906,0.01981,0.00000,0.00000,315.0*
1,1,0.01981,-0.02088,0.02088*
1,1,0.01981,0.02088,-0.02088*
%
%ADD60OVALD60*%

%ADD61R,0.08800X0.03400*%
G04:AMPARAMS|DCode=62|XSize=76.9mil|YSize=106.42mil|CornerRadius=7.45mil|HoleSize=0mil|Usage=FLASHONLY|Rotation=180.000|XOffset=0mil|YOffset=0mil|HoleType=Round|Shape=RoundedRectangle|*
%AMROUNDEDRECTD62*
21,1,0.07690,0.09153,0,0,180.0*
21,1,0.06201,0.10642,0,0,180.0*
1,1,0.01489,-0.03100,0.04577*
1,1,0.01489,0.03100,0.04577*
1,1,0.01489,0.03100,-0.04577*
1,1,0.01489,-0.03100,-0.04577*
%
%ADD62ROUNDEDRECTD62*%
%ADD63R,0.02769X0.02572*%
%ADD64R,0.02572X0.02572*%
%ADD65R,0.03162X0.05918*%
%ADD66R,0.07200X0.07800*%
%ADD67C,0.06706*%
%ADD68R,0.06706X0.06706*%
%ADD69C,0.07887*%
%ADD70C,0.06800*%
%ADD71R,0.06706X0.06706*%
D43*
X141000Y125854D02*
D03*
Y95146D02*
D03*
D44*
X151476Y104984D02*
D03*
X157185D02*
D03*
X122146Y39500D02*
D03*
X127854D02*
D03*
X122146Y29500D02*
D03*
X127854D02*
D03*
X122146Y34500D02*
D03*
X127854D02*
D03*
X122146Y94500D02*
D03*
X127854D02*
D03*
Y115500D02*
D03*
X122146D02*
D03*
X35854Y91000D02*
D03*
X30146D02*
D03*
X107146Y86000D02*
D03*
X112854D02*
D03*
X107146Y81000D02*
D03*
X112854D02*
D03*
X109854Y70500D02*
D03*
X104146D02*
D03*
X26854Y44000D02*
D03*
X21146D02*
D03*
X26854Y39000D02*
D03*
X21146D02*
D03*
X26000Y62000D02*
D03*
X31709D02*
D03*
X26000Y67000D02*
D03*
X31709D02*
D03*
X44854Y131000D02*
D03*
X39146D02*
D03*
X54854Y104000D02*
D03*
X49146D02*
D03*
X55000Y109000D02*
D03*
X49291D02*
D03*
X51854Y99000D02*
D03*
X46146D02*
D03*
X51854Y94000D02*
D03*
X46146D02*
D03*
X50146Y162000D02*
D03*
X55854D02*
D03*
X93000Y19000D02*
D03*
X87291D02*
D03*
X107000D02*
D03*
X112709D02*
D03*
X92146Y14000D02*
D03*
X97854D02*
D03*
X92000Y33000D02*
D03*
X86291D02*
D03*
X102854Y19000D02*
D03*
X97146D02*
D03*
X107709Y14000D02*
D03*
X102000D02*
D03*
X108000Y33000D02*
D03*
X113709D02*
D03*
D45*
X157547Y121500D02*
D03*
X163453D02*
D03*
X157547Y115500D02*
D03*
X163453D02*
D03*
X157547Y109500D02*
D03*
X163453D02*
D03*
D46*
X151500Y121646D02*
D03*
Y127354D02*
D03*
Y110146D02*
D03*
Y115854D02*
D03*
X143000Y57146D02*
D03*
Y62854D02*
D03*
X138000Y57146D02*
D03*
Y62854D02*
D03*
X44000Y73854D02*
D03*
Y68146D02*
D03*
X131000Y121146D02*
D03*
Y126854D02*
D03*
X83000Y61854D02*
D03*
Y56146D02*
D03*
X49000Y73854D02*
D03*
Y68146D02*
D03*
X39000Y73854D02*
D03*
Y68146D02*
D03*
X41000Y29146D02*
D03*
Y34854D02*
D03*
X37000Y39000D02*
D03*
Y44709D02*
D03*
X55000Y57854D02*
D03*
Y52146D02*
D03*
X42000Y39000D02*
D03*
Y44709D02*
D03*
X60000Y52146D02*
D03*
Y57854D02*
D03*
X65000D02*
D03*
Y52146D02*
D03*
X113000Y141000D02*
D03*
Y146709D02*
D03*
X108000Y146854D02*
D03*
Y141146D02*
D03*
Y158854D02*
D03*
Y153146D02*
D03*
X90000Y50146D02*
D03*
Y55854D02*
D03*
X95000Y50146D02*
D03*
Y55854D02*
D03*
X89000Y43854D02*
D03*
Y38146D02*
D03*
D47*
X126807Y62547D02*
D03*
D48*
X133500Y59595D02*
D03*
Y65500D02*
D03*
X120114D02*
D03*
Y59595D02*
D03*
D49*
X130744Y69240D02*
D03*
X128776D02*
D03*
X126807D02*
D03*
X124839D02*
D03*
X122870D02*
D03*
Y55854D02*
D03*
X124839D02*
D03*
X126807D02*
D03*
X128776D02*
D03*
X130744D02*
D03*
D50*
X127874Y100276D02*
D03*
X112126D02*
D03*
X127874Y109724D02*
D03*
X112126D02*
D03*
D51*
X33000Y98000D02*
D03*
Y103000D02*
D03*
Y108000D02*
D03*
Y113000D02*
D03*
Y118000D02*
D03*
X17646D02*
D03*
Y113000D02*
D03*
Y108000D02*
D03*
Y103000D02*
D03*
Y98000D02*
D03*
D52*
X83268Y135000D02*
D03*
D53*
X74311Y123386D02*
D03*
X76870D02*
D03*
X79429D02*
D03*
X81988D02*
D03*
X84547D02*
D03*
X87106D02*
D03*
X89665D02*
D03*
X92224D02*
D03*
X74311Y146614D02*
D03*
X76870D02*
D03*
X79429D02*
D03*
X81988D02*
D03*
X84547D02*
D03*
X87106D02*
D03*
X89665D02*
D03*
X92224D02*
D03*
X94784D02*
D03*
X97342D02*
D03*
X99902D02*
D03*
X94784Y123386D02*
D03*
X97342D02*
D03*
X99902D02*
D03*
X71752Y146614D02*
D03*
X69193D02*
D03*
X66634D02*
D03*
X71752Y123386D02*
D03*
X69193D02*
D03*
X66634D02*
D03*
D54*
X41000Y23500D02*
D03*
Y16500D02*
D03*
D55*
X49000Y50425D02*
D03*
Y53575D02*
D03*
D56*
X39100Y140000D02*
D03*
X56900D02*
D03*
Y153000D02*
D03*
X39100D02*
D03*
D57*
X56000Y116000D02*
D03*
Y128000D02*
D03*
D58*
X119000Y129000D02*
D03*
X107000D02*
D03*
D59*
X102198Y86887D02*
D03*
X100806Y88279D02*
D03*
X99414Y89671D02*
D03*
X98022Y91063D02*
D03*
X96630Y92454D02*
D03*
X95238Y93846D02*
D03*
X93846Y95238D02*
D03*
X92454Y96630D02*
D03*
X91063Y98022D02*
D03*
X89671Y99414D02*
D03*
X88279Y100806D02*
D03*
X86887Y102198D02*
D03*
X64337Y79649D02*
D03*
X65729Y78257D02*
D03*
X67121Y76865D02*
D03*
X68513Y75473D02*
D03*
X69905Y74081D02*
D03*
X71297Y72689D02*
D03*
X72689Y71297D02*
D03*
X74081Y69905D02*
D03*
X75473Y68513D02*
D03*
X76865Y67121D02*
D03*
X78257Y65729D02*
D03*
X79649Y64337D02*
D03*
D60*
Y102198D02*
D03*
X78257Y100806D02*
D03*
X76865Y99414D02*
D03*
X75473Y98022D02*
D03*
X74081Y96630D02*
D03*
X72689Y95238D02*
D03*
X71297Y93846D02*
D03*
X69905Y92454D02*
D03*
X68513Y91063D02*
D03*
X67121Y89671D02*
D03*
X65729Y88279D02*
D03*
X64337Y86887D02*
D03*
X86887Y64337D02*
D03*
X88279Y65729D02*
D03*
X89671Y67121D02*
D03*
X91063Y68513D02*
D03*
X92454Y69905D02*
D03*
X93846Y71297D02*
D03*
X95238Y72689D02*
D03*
X96630Y74081D02*
D03*
X98022Y75473D02*
D03*
X99414Y76865D02*
D03*
X100806Y78257D02*
D03*
X102198Y79649D02*
D03*
D61*
X52000Y46000D02*
D03*
Y41000D02*
D03*
Y36000D02*
D03*
X74000Y46000D02*
D03*
Y41000D02*
D03*
Y36000D02*
D03*
X52000Y31000D02*
D03*
Y26000D02*
D03*
Y21000D02*
D03*
X74000Y26000D02*
D03*
Y21000D02*
D03*
Y16000D02*
D03*
X52000D02*
D03*
X74000Y31000D02*
D03*
D62*
X31000Y53000D02*
D03*
D63*
X25882Y49260D02*
D03*
X36118Y56740D02*
D03*
Y49260D02*
D03*
X25882Y56740D02*
D03*
Y53000D02*
D03*
X36118Y53000D02*
D03*
D64*
X100000Y50000D02*
D03*
X103150D02*
D03*
D65*
X100000Y32866D02*
D03*
X96260Y41134D02*
D03*
X103740D02*
D03*
D66*
X106700Y26000D02*
D03*
X93300D02*
D03*
D67*
X161000Y83000D02*
D03*
X151000D02*
D03*
Y63000D02*
D03*
X161000D02*
D03*
X151000Y53000D02*
D03*
X161000D02*
D03*
X151000Y43000D02*
D03*
X161000Y73000D02*
D03*
X151000D02*
D03*
X88000Y160000D02*
D03*
X78000D02*
D03*
X68000D02*
D03*
D68*
X161000Y43000D02*
D03*
D69*
X99668Y-5600D02*
D03*
X88768D02*
D03*
X66968D02*
D03*
X77868D02*
D03*
X61468Y5600D02*
D03*
X72368D02*
D03*
X104968D02*
D03*
X94168D02*
D03*
X83268D02*
D03*
D70*
X132468Y0D02*
D03*
X34068D02*
D03*
D71*
X98000Y160000D02*
D03*
M02*
