G04*
G04 #@! TF.GenerationSoftware,Altium Limited,Altium Designer,20.0.13 (296)*
G04*
G04 Layer_Physical_Order=2*
G04 Layer_Color=16711680*
%FSLAX25Y25*%
%MOIN*%
G70*
G01*
G75*
%ADD11C,0.01000*%
%ADD12C,0.02000*%
%ADD73C,0.01500*%
%ADD74C,0.04000*%
%ADD75C,0.01700*%
%ADD76C,0.05906*%
%ADD77R,0.05906X0.05906*%
%ADD78C,0.07087*%
%ADD79C,0.06000*%
%ADD80R,0.05906X0.05906*%
%ADD81C,0.02756*%
%ADD82C,0.03150*%
%ADD83C,0.12598*%
G36*
X166000Y146500D02*
Y85178D01*
X164500Y84879D01*
X164453Y84993D01*
X163819Y85819D01*
X162993Y86453D01*
X162032Y86851D01*
X162000Y86855D01*
Y83000D01*
Y79145D01*
X162032Y79149D01*
X162993Y79547D01*
X163819Y80181D01*
X164453Y81007D01*
X164500Y81121D01*
X166000Y80822D01*
Y76262D01*
X164500Y75753D01*
X164176Y76176D01*
X163246Y76889D01*
X162162Y77338D01*
X161000Y77491D01*
X159838Y77338D01*
X158754Y76889D01*
X157824Y76176D01*
X157111Y75246D01*
X156777Y74441D01*
X156112Y74312D01*
X155888D01*
X155223Y74441D01*
X154890Y75246D01*
X154176Y76176D01*
X153246Y76889D01*
X152162Y77338D01*
X151000Y77491D01*
X149838Y77338D01*
X148754Y76889D01*
X147824Y76176D01*
X147110Y75246D01*
X146662Y74162D01*
X146509Y73000D01*
X146662Y71838D01*
X147110Y70754D01*
X147824Y69824D01*
X148754Y69111D01*
X149559Y68777D01*
X149688Y68112D01*
Y67888D01*
X149559Y67223D01*
X148754Y66890D01*
X147824Y66176D01*
X147110Y65246D01*
X146662Y64162D01*
X146509Y63000D01*
X146662Y61838D01*
X147110Y60754D01*
X147824Y59824D01*
X148754Y59110D01*
X149559Y58777D01*
X149688Y58112D01*
Y57888D01*
X149559Y57223D01*
X148754Y56889D01*
X147824Y56176D01*
X147110Y55246D01*
X146662Y54162D01*
X146509Y53000D01*
X146662Y51838D01*
X147110Y50754D01*
X147824Y49824D01*
X148754Y49110D01*
X149559Y48777D01*
X149688Y48112D01*
Y47888D01*
X149559Y47223D01*
X148754Y46889D01*
X147824Y46176D01*
X147110Y45246D01*
X146662Y44162D01*
X146509Y43000D01*
X146662Y41838D01*
X147110Y40754D01*
X147824Y39824D01*
X148754Y39110D01*
X149838Y38662D01*
X151000Y38509D01*
X152162Y38662D01*
X153246Y39110D01*
X154176Y39824D01*
X154890Y40754D01*
X155047Y41135D01*
X156547Y40837D01*
Y38547D01*
X164500D01*
X165453Y38547D01*
X166000Y37274D01*
Y20000D01*
X146000Y0D01*
Y-45500D01*
X20500D01*
Y0D01*
X500Y20000D01*
Y146500D01*
X20000Y166000D01*
X57217D01*
X57539Y164558D01*
X57530Y164500D01*
X56947Y164053D01*
X56486Y163451D01*
X56196Y162751D01*
X56097Y162000D01*
X56196Y161249D01*
X56486Y160549D01*
X56947Y159947D01*
X57549Y159486D01*
X58164Y159231D01*
X61460Y155935D01*
X60886Y154549D01*
X49056D01*
X46769Y156836D01*
X46514Y157451D01*
X46053Y158053D01*
X45451Y158514D01*
X44751Y158804D01*
X44000Y158903D01*
X43249Y158804D01*
X42549Y158514D01*
X41947Y158053D01*
X41486Y157451D01*
X41196Y156751D01*
X41097Y156000D01*
X41196Y155249D01*
X41486Y154549D01*
X41947Y153947D01*
X42549Y153486D01*
X43164Y153231D01*
X46198Y150198D01*
X47025Y149645D01*
X48000Y149451D01*
X72633D01*
X73249Y149196D01*
X74000Y149097D01*
X74751Y149196D01*
X75451Y149486D01*
X75628Y149622D01*
X75805Y149486D01*
X76505Y149196D01*
X77256Y149097D01*
X78007Y149196D01*
X78707Y149486D01*
X79308Y149947D01*
X79770Y150549D01*
X80060Y151249D01*
X80159Y152000D01*
X80060Y152751D01*
X79770Y153451D01*
X79660Y153594D01*
Y154592D01*
X79466Y155567D01*
X79543Y155819D01*
X80246Y156111D01*
X81176Y156824D01*
X81889Y157754D01*
X82223Y158559D01*
X82888Y158688D01*
X83112D01*
X83777Y158559D01*
X84110Y157754D01*
X84824Y156824D01*
X85451Y156343D01*
X85304Y155114D01*
X85144Y154761D01*
X84549Y154514D01*
X83947Y154053D01*
X83486Y153451D01*
X83196Y152751D01*
X83097Y152000D01*
X83196Y151249D01*
X83486Y150549D01*
X83947Y149947D01*
X84549Y149486D01*
X85249Y149196D01*
X85607Y149149D01*
X88378Y146378D01*
X89122Y145880D01*
X90000Y145706D01*
X100050D01*
X108206Y137550D01*
Y118950D01*
X106550Y117294D01*
X104450D01*
X97622Y124122D01*
X96878Y124619D01*
X96000Y124794D01*
X76500D01*
X75622Y124619D01*
X74878Y124122D01*
X70607Y119851D01*
X70249Y119804D01*
X69549Y119514D01*
X68947Y119053D01*
X67393Y119491D01*
X62442Y124442D01*
X61780Y124884D01*
X61000Y125039D01*
X47000D01*
X46220Y124884D01*
X45558Y124442D01*
X42017Y120901D01*
X42000Y120903D01*
X41249Y120804D01*
X40549Y120514D01*
X39947Y120053D01*
X39486Y119451D01*
X39196Y118751D01*
X39097Y118000D01*
X39196Y117249D01*
X39486Y116549D01*
X39947Y115947D01*
X40549Y115486D01*
X41249Y115196D01*
X42000Y115097D01*
X42751Y115196D01*
X43451Y115486D01*
X44053Y115947D01*
X44514Y116549D01*
X44804Y117249D01*
X44903Y118000D01*
X44901Y118017D01*
X47690Y120807D01*
X48159Y120720D01*
X49097Y120000D01*
X49196Y119249D01*
X49486Y118549D01*
X49947Y117947D01*
X50549Y117486D01*
X51249Y117196D01*
X52000Y117097D01*
X52015Y117099D01*
X53330Y116092D01*
X53451Y115862D01*
Y111000D01*
X53645Y110025D01*
X52600Y108888D01*
X52107Y108777D01*
X49442Y111442D01*
X48780Y111884D01*
X48000Y112039D01*
X39000D01*
X38220Y111884D01*
X37558Y111442D01*
X36558Y110442D01*
X36116Y109780D01*
X35961Y109000D01*
Y104000D01*
X36116Y103220D01*
X36558Y102558D01*
X37523Y101593D01*
X38185Y101151D01*
X38900Y101009D01*
X38947Y100947D01*
X39549Y100486D01*
X40249Y100196D01*
X41000Y100097D01*
X41751Y100196D01*
X42451Y100486D01*
X43053Y100947D01*
X43514Y101549D01*
X43804Y102249D01*
X43903Y103000D01*
X43842Y103461D01*
X44261Y104243D01*
X44927Y104961D01*
X47155D01*
X49558Y102558D01*
X50220Y102116D01*
X51000Y101961D01*
X78937D01*
X78947Y101947D01*
X79549Y101486D01*
X80249Y101196D01*
X81000Y101097D01*
X81751Y101196D01*
X82451Y101486D01*
X83053Y101947D01*
X83580Y102537D01*
X85029Y102287D01*
X85249Y102196D01*
X86000Y102097D01*
X86751Y102196D01*
X87451Y102486D01*
X88053Y102947D01*
X88171Y103102D01*
X89610Y103402D01*
X90052Y103343D01*
X97451Y95944D01*
Y92000D01*
X97645Y91025D01*
X98198Y90198D01*
X101198Y87198D01*
X102024Y86645D01*
X103000Y86451D01*
X109000D01*
X109976Y86645D01*
X110802Y87198D01*
X112802Y89198D01*
X113355Y90025D01*
X113549Y91000D01*
Y110944D01*
X116707Y114102D01*
X117259Y114929D01*
X117453Y115904D01*
Y123470D01*
X117514Y123549D01*
X117804Y124249D01*
X117903Y125000D01*
X117804Y125751D01*
X117549Y126367D01*
Y127633D01*
X117804Y128249D01*
X117903Y129000D01*
X117804Y129751D01*
X117549Y130367D01*
Y131633D01*
X117804Y132249D01*
X117903Y133000D01*
X117804Y133751D01*
X117514Y134451D01*
X117053Y135053D01*
X116451Y135514D01*
X115751Y135804D01*
X115000Y135903D01*
X114539Y136307D01*
Y139500D01*
X114384Y140280D01*
X113942Y140942D01*
X109091Y145792D01*
X109080Y145839D01*
X109450Y147479D01*
X109490Y147515D01*
X110053Y147947D01*
X110514Y148549D01*
X110804Y149249D01*
X110903Y150000D01*
X110804Y150751D01*
X110514Y151451D01*
X110053Y152053D01*
X109451Y152514D01*
X108751Y152804D01*
X108559Y152829D01*
X104694Y156694D01*
X103917Y157214D01*
X103000Y157396D01*
X102453Y158697D01*
Y164453D01*
X93547D01*
Y162163D01*
X92047Y161865D01*
X91890Y162246D01*
X91176Y163176D01*
X90246Y163890D01*
X89162Y164338D01*
X88000Y164491D01*
X86838Y164338D01*
X85754Y163890D01*
X84824Y163176D01*
X84110Y162246D01*
X83777Y161441D01*
X83112Y161312D01*
X82888D01*
X82223Y161441D01*
X81889Y162246D01*
X81176Y163176D01*
X80246Y163890D01*
X79162Y164338D01*
X78000Y164491D01*
X76838Y164338D01*
X75754Y163890D01*
X74824Y163176D01*
X74111Y162246D01*
X73777Y161441D01*
X73112Y161312D01*
X72888D01*
X72223Y161441D01*
X71890Y162246D01*
X71176Y163176D01*
X70246Y163890D01*
X69162Y164338D01*
X68000Y164491D01*
X66838Y164338D01*
X65754Y163890D01*
X64824Y163176D01*
X64271Y162455D01*
X63625Y162219D01*
X62450Y162155D01*
X61769Y162836D01*
X61514Y163451D01*
X61053Y164053D01*
X60470Y164500D01*
X60461Y164558D01*
X60783Y166000D01*
X146500D01*
X166000Y146500D01*
D02*
G37*
G36*
X100971Y111146D02*
X102961Y109155D01*
Y99695D01*
X102809Y99578D01*
X101461Y99144D01*
X91144Y109461D01*
X91578Y110809D01*
X91695Y110961D01*
X94937D01*
X94947Y110947D01*
X95549Y110486D01*
X96249Y110196D01*
X97000Y110097D01*
X97751Y110196D01*
X98451Y110486D01*
X99053Y110947D01*
X100700Y111220D01*
X100971Y111146D01*
D02*
G37*
%LPC*%
G36*
X144291Y158935D02*
X142001Y158755D01*
X139766Y158218D01*
X137643Y157339D01*
X135684Y156138D01*
X133937Y154646D01*
X132444Y152899D01*
X131244Y150939D01*
X130365Y148817D01*
X129828Y146582D01*
X129648Y144291D01*
X129828Y142001D01*
X130365Y139766D01*
X131244Y137643D01*
X132444Y135684D01*
X133937Y133937D01*
X135684Y132444D01*
X137643Y131244D01*
X139766Y130365D01*
X142001Y129828D01*
X144291Y129648D01*
X146582Y129828D01*
X148817Y130365D01*
X150939Y131244D01*
X152899Y132444D01*
X154646Y133937D01*
X156138Y135684D01*
X157339Y137643D01*
X158218Y139766D01*
X158755Y142001D01*
X158935Y144291D01*
X158755Y146582D01*
X158218Y148817D01*
X157339Y150939D01*
X156138Y152899D01*
X154646Y154646D01*
X152899Y156138D01*
X150939Y157339D01*
X148817Y158218D01*
X146582Y158755D01*
X144291Y158935D01*
D02*
G37*
G36*
X22244D02*
X19953Y158755D01*
X17719Y158218D01*
X15596Y157339D01*
X13637Y156138D01*
X11890Y154646D01*
X10397Y152899D01*
X9197Y150939D01*
X8317Y148817D01*
X7781Y146582D01*
X7600Y144291D01*
X7781Y142001D01*
X8317Y139766D01*
X9197Y137643D01*
X10397Y135684D01*
X11890Y133937D01*
X13637Y132444D01*
X15596Y131244D01*
X17719Y130365D01*
X19953Y129828D01*
X22244Y129648D01*
X24535Y129828D01*
X26769Y130365D01*
X28892Y131244D01*
X30851Y132444D01*
X32599Y133937D01*
X34091Y135684D01*
X35292Y137643D01*
X36171Y139766D01*
X36707Y142001D01*
X36888Y144291D01*
X36707Y146582D01*
X36171Y148817D01*
X35292Y150939D01*
X34091Y152899D01*
X32599Y154646D01*
X30851Y156138D01*
X28892Y157339D01*
X26769Y158218D01*
X24535Y158755D01*
X22244Y158935D01*
D02*
G37*
G36*
X152000Y86855D02*
Y84000D01*
X154855D01*
X154851Y84032D01*
X154453Y84993D01*
X153819Y85819D01*
X152993Y86453D01*
X152032Y86851D01*
X152000Y86855D01*
D02*
G37*
G36*
X160000D02*
X159968Y86851D01*
X159007Y86453D01*
X158181Y85819D01*
X157547Y84993D01*
X157149Y84032D01*
X157145Y84000D01*
X160000D01*
Y86855D01*
D02*
G37*
G36*
X150000D02*
X149968Y86851D01*
X149007Y86453D01*
X148181Y85819D01*
X147547Y84993D01*
X147149Y84032D01*
X147145Y84000D01*
X150000D01*
Y86855D01*
D02*
G37*
G36*
X154855Y82000D02*
X152000D01*
Y79145D01*
X152032Y79149D01*
X152993Y79547D01*
X153819Y80181D01*
X154453Y81007D01*
X154851Y81968D01*
X154855Y82000D01*
D02*
G37*
G36*
X160000D02*
X157145D01*
X157149Y81968D01*
X157547Y81007D01*
X158181Y80181D01*
X159007Y79547D01*
X159968Y79149D01*
X160000Y79145D01*
Y82000D01*
D02*
G37*
G36*
X150000D02*
X147145D01*
X147149Y81968D01*
X147547Y81007D01*
X148181Y80181D01*
X149007Y79547D01*
X149968Y79149D01*
X150000Y79145D01*
Y82000D01*
D02*
G37*
G36*
X128000Y77403D02*
X127249Y77304D01*
X126549Y77014D01*
X125947Y76553D01*
X125486Y75951D01*
X125345Y75610D01*
X125282Y75583D01*
X124104Y75307D01*
X123693Y75328D01*
X123451Y75514D01*
X122751Y75804D01*
X122000Y75903D01*
X121249Y75804D01*
X120549Y75514D01*
X119947Y75053D01*
X119486Y74451D01*
X119196Y73751D01*
X119097Y73000D01*
X119196Y72249D01*
X119486Y71549D01*
X119947Y70947D01*
X120549Y70486D01*
X121249Y70196D01*
X122000Y70097D01*
X122751Y70196D01*
X123451Y70486D01*
X124053Y70947D01*
X124063Y70961D01*
X126500D01*
X127280Y71116D01*
X127942Y71558D01*
X127983Y71599D01*
X128000Y71597D01*
X128751Y71696D01*
X129451Y71986D01*
X130053Y72447D01*
X130514Y73049D01*
X130804Y73749D01*
X130903Y74500D01*
X130804Y75251D01*
X130514Y75951D01*
X130053Y76553D01*
X129451Y77014D01*
X128751Y77304D01*
X128000Y77403D01*
D02*
G37*
G36*
X48000Y87903D02*
X47249Y87804D01*
X46549Y87514D01*
X45947Y87053D01*
X45486Y86451D01*
X45196Y85751D01*
X45097Y85000D01*
X45196Y84249D01*
X45486Y83549D01*
X45907Y83000D01*
X45486Y82451D01*
X45196Y81751D01*
X45097Y81000D01*
X45196Y80249D01*
X45486Y79549D01*
X45947Y78947D01*
X46549Y78486D01*
X47249Y78196D01*
X47793Y78124D01*
X47805Y78116D01*
X48586Y77961D01*
X71085D01*
X71105Y77941D01*
X71196Y77249D01*
X71486Y76549D01*
X71947Y75947D01*
X72549Y75486D01*
X73249Y75196D01*
X74000Y75097D01*
X74751Y75196D01*
X75451Y75486D01*
X76053Y75947D01*
X76514Y76549D01*
X76804Y77249D01*
X76903Y78000D01*
X76804Y78751D01*
X76514Y79451D01*
X76093Y80000D01*
X76514Y80549D01*
X76804Y81249D01*
X76903Y82000D01*
X76804Y82751D01*
X76514Y83451D01*
X76053Y84053D01*
X75451Y84514D01*
X74751Y84804D01*
X74000Y84903D01*
X73249Y84804D01*
X72549Y84514D01*
X71947Y84053D01*
X71937Y84039D01*
X51956D01*
X50903Y85000D01*
X50804Y85751D01*
X50514Y86451D01*
X50053Y87053D01*
X49451Y87514D01*
X48751Y87804D01*
X48000Y87903D01*
D02*
G37*
G36*
X138000Y83903D02*
X137249Y83804D01*
X136549Y83514D01*
X135947Y83053D01*
X135486Y82451D01*
X135196Y81751D01*
X135097Y81000D01*
X135196Y80249D01*
X135486Y79549D01*
X135947Y78947D01*
X135961Y78937D01*
Y72312D01*
X135356Y72061D01*
X134755Y71600D01*
X134293Y70999D01*
X134003Y70298D01*
X133904Y69547D01*
X134003Y68796D01*
X134293Y68096D01*
X134755Y67495D01*
X135356Y67033D01*
X136056Y66743D01*
X136807Y66645D01*
X137558Y66743D01*
X138259Y67033D01*
X138860Y67495D01*
X139321Y68096D01*
X139611Y68796D01*
X139613Y68815D01*
X139884Y69220D01*
X140039Y70000D01*
Y78937D01*
X140053Y78947D01*
X140514Y79549D01*
X140804Y80249D01*
X140903Y81000D01*
X140804Y81751D01*
X140514Y82451D01*
X140053Y83053D01*
X139451Y83514D01*
X138751Y83804D01*
X138000Y83903D01*
D02*
G37*
G36*
X107000Y80903D02*
X106249Y80804D01*
X105549Y80514D01*
X104947Y80053D01*
X104486Y79451D01*
X104196Y78751D01*
X104097Y78000D01*
X104196Y77249D01*
X104486Y76549D01*
X104706Y76262D01*
Y63950D01*
X98607Y57851D01*
X98249Y57804D01*
X97549Y57514D01*
X97262Y57294D01*
X87950D01*
X82851Y62393D01*
X82804Y62751D01*
X82514Y63451D01*
X82053Y64053D01*
X81451Y64514D01*
X80751Y64804D01*
X80393Y64851D01*
X73622Y71622D01*
X72878Y72119D01*
X72000Y72294D01*
X65738D01*
X65451Y72514D01*
X64751Y72804D01*
X64000Y72903D01*
X63249Y72804D01*
X62549Y72514D01*
X61947Y72053D01*
X61486Y71451D01*
X61196Y70751D01*
X61097Y70000D01*
X61196Y69249D01*
X61486Y68549D01*
X61947Y67947D01*
X62549Y67486D01*
X63249Y67196D01*
X64000Y67097D01*
X64751Y67196D01*
X65451Y67486D01*
X65738Y67706D01*
X71050D01*
X77149Y61607D01*
X77196Y61249D01*
X77486Y60549D01*
X77947Y59947D01*
X78549Y59486D01*
X79249Y59196D01*
X79607Y59149D01*
X85378Y53378D01*
X86122Y52881D01*
X87000Y52706D01*
X97262D01*
X97549Y52486D01*
X98249Y52196D01*
X99000Y52097D01*
X99751Y52196D01*
X100451Y52486D01*
X101053Y52947D01*
X101514Y53549D01*
X101804Y54249D01*
X101851Y54607D01*
X108622Y61378D01*
X109119Y62122D01*
X109294Y63000D01*
Y76262D01*
X109514Y76549D01*
X109804Y77249D01*
X109903Y78000D01*
X109804Y78751D01*
X109514Y79451D01*
X109053Y80053D01*
X108451Y80514D01*
X107751Y80804D01*
X107000Y80903D01*
D02*
G37*
G36*
X140500Y60198D02*
X139749Y60099D01*
X139049Y59809D01*
X138447Y59347D01*
X137986Y58746D01*
X137696Y58046D01*
X137597Y57295D01*
X137696Y56543D01*
X137986Y55843D01*
X138206Y55557D01*
Y50450D01*
X132404Y44648D01*
X124831D01*
X124579Y44927D01*
X125000Y46180D01*
X125315Y46349D01*
X125560Y46248D01*
X126311Y46149D01*
X127063Y46248D01*
X127763Y46538D01*
X128364Y46999D01*
X128825Y47600D01*
X128962Y47929D01*
X129430Y48385D01*
X130684Y48723D01*
X130749Y48696D01*
X131500Y48597D01*
X132251Y48696D01*
X132951Y48986D01*
X133553Y49447D01*
X134014Y50049D01*
X134304Y50749D01*
X134403Y51500D01*
X134304Y52251D01*
X134014Y52951D01*
X133553Y53553D01*
X132951Y54014D01*
X132251Y54304D01*
X131500Y54403D01*
X130749Y54304D01*
X130110Y54039D01*
X119063D01*
X119053Y54053D01*
X118451Y54514D01*
X117751Y54804D01*
X117000Y54903D01*
X116249Y54804D01*
X115549Y54514D01*
X114947Y54053D01*
X114486Y53451D01*
X114196Y52751D01*
X114097Y52000D01*
X114196Y51249D01*
X114486Y50549D01*
X114947Y49947D01*
X115549Y49486D01*
X116249Y49196D01*
X116681Y49139D01*
X116597Y48500D01*
X116696Y47749D01*
X116986Y47049D01*
X117447Y46447D01*
X118049Y45986D01*
X118383Y45848D01*
X118922Y44765D01*
X119006Y44315D01*
X118126Y44156D01*
X117339Y44216D01*
X116951Y44514D01*
X116251Y44804D01*
X115500Y44903D01*
X114749Y44804D01*
X114049Y44514D01*
X113447Y44053D01*
X112986Y43451D01*
X112696Y42751D01*
X112597Y42000D01*
X112696Y41249D01*
X112986Y40549D01*
X113447Y39947D01*
X114049Y39486D01*
X114749Y39196D01*
X115107Y39149D01*
X119706Y34550D01*
Y27738D01*
X119486Y27451D01*
X119196Y26751D01*
X119097Y26000D01*
X119196Y25249D01*
X119486Y24549D01*
X119947Y23947D01*
X120549Y23486D01*
X121249Y23196D01*
X122000Y23097D01*
X122751Y23196D01*
X123451Y23486D01*
X124053Y23947D01*
X124514Y24549D01*
X124804Y25249D01*
X124903Y26000D01*
X124804Y26751D01*
X124514Y27451D01*
X124294Y27738D01*
Y35500D01*
X124119Y36378D01*
X123622Y37122D01*
X122729Y38015D01*
X122806Y38722D01*
X123193Y39673D01*
X123597Y39840D01*
X123883Y40060D01*
X133354D01*
X134232Y40235D01*
X134976Y40732D01*
X142122Y47878D01*
X142620Y48622D01*
X142794Y49500D01*
Y55557D01*
X143014Y55843D01*
X143304Y56543D01*
X143403Y57295D01*
X143304Y58046D01*
X143014Y58746D01*
X142553Y59347D01*
X141951Y59809D01*
X141251Y60099D01*
X140500Y60198D01*
D02*
G37*
G36*
X10000Y75530D02*
X9086Y75410D01*
X8235Y75057D01*
X7504Y74496D01*
X6943Y73765D01*
X6590Y72914D01*
X6470Y72000D01*
X6590Y71086D01*
X6943Y70235D01*
X7504Y69504D01*
X10254Y66754D01*
X12504Y64504D01*
X19504Y57504D01*
X19504Y57504D01*
X20235Y56943D01*
X21086Y56590D01*
X22000Y56470D01*
X37538D01*
X58470Y35538D01*
Y31000D01*
Y28000D01*
X58590Y27086D01*
X58943Y26235D01*
X59504Y25504D01*
X60235Y24943D01*
X61086Y24590D01*
X62000Y24470D01*
X62914Y24590D01*
X63765Y24943D01*
X64496Y25504D01*
X65057Y26235D01*
X65410Y27086D01*
X65530Y28000D01*
Y31000D01*
Y34000D01*
Y37000D01*
X65410Y37914D01*
X65057Y38765D01*
X64496Y39496D01*
X41496Y62496D01*
X40765Y63057D01*
X39914Y63410D01*
X39000Y63530D01*
X23462D01*
X17496Y69496D01*
X15246Y71746D01*
X12496Y74496D01*
X11765Y75057D01*
X10914Y75410D01*
X10000Y75530D01*
D02*
G37*
G36*
X104968Y10687D02*
X103651Y10514D01*
X102424Y10005D01*
X101371Y9197D01*
X100562Y8143D01*
X100380Y7702D01*
X98756D01*
X98573Y8143D01*
X97765Y9197D01*
X96711Y10005D01*
X95484Y10514D01*
X94168Y10687D01*
X92851Y10514D01*
X91624Y10005D01*
X90571Y9197D01*
X89762Y8143D01*
X89530Y7581D01*
X87906D01*
X87673Y8143D01*
X86865Y9197D01*
X85811Y10005D01*
X84584Y10514D01*
X83268Y10687D01*
X81951Y10514D01*
X80724Y10005D01*
X79671Y9197D01*
X78862Y8143D01*
X78629Y7581D01*
X77006D01*
X76773Y8143D01*
X75965Y9197D01*
X74911Y10005D01*
X73684Y10514D01*
X72368Y10687D01*
X71051Y10514D01*
X69824Y10005D01*
X68771Y9197D01*
X67962Y8143D01*
X67454Y6917D01*
X67422Y6672D01*
X65909Y6672D01*
X65894Y6786D01*
X65436Y7891D01*
X64708Y8840D01*
X63759Y9569D01*
X62654Y10026D01*
X62468Y10051D01*
Y5600D01*
Y1149D01*
X62654Y1174D01*
X63759Y1631D01*
X64708Y2360D01*
X65436Y3309D01*
X65894Y4414D01*
X65909Y4528D01*
X67422Y4528D01*
X67454Y4283D01*
X67962Y3057D01*
X68771Y2003D01*
X69824Y1195D01*
X71051Y686D01*
X72368Y513D01*
X73684Y686D01*
X74911Y1195D01*
X75965Y2003D01*
X76773Y3057D01*
X77006Y3619D01*
X78629D01*
X78862Y3057D01*
X79671Y2003D01*
X80724Y1195D01*
X81951Y686D01*
X83268Y513D01*
X84584Y686D01*
X85811Y1195D01*
X86865Y2003D01*
X87673Y3057D01*
X87906Y3619D01*
X89530D01*
X89762Y3057D01*
X90571Y2003D01*
X91624Y1195D01*
X92851Y686D01*
X94168Y513D01*
X95484Y686D01*
X96711Y1195D01*
X97765Y2003D01*
X98573Y3057D01*
X98756Y3498D01*
X100380D01*
X100562Y3057D01*
X101371Y2003D01*
X102424Y1195D01*
X103651Y686D01*
X104968Y513D01*
X106284Y686D01*
X107511Y1195D01*
X108565Y2003D01*
X109373Y3057D01*
X109881Y4283D01*
X110055Y5600D01*
X109881Y6917D01*
X109373Y8143D01*
X108565Y9197D01*
X107511Y10005D01*
X106284Y10514D01*
X104968Y10687D01*
D02*
G37*
G36*
X144291Y36888D02*
X142001Y36707D01*
X139766Y36171D01*
X137643Y35292D01*
X135684Y34091D01*
X133937Y32599D01*
X132444Y30851D01*
X131244Y28892D01*
X130365Y26769D01*
X129828Y24535D01*
X129648Y22244D01*
X129828Y19953D01*
X130365Y17719D01*
X131244Y15596D01*
X132444Y13637D01*
X133937Y11890D01*
X135684Y10397D01*
X137643Y9197D01*
X139766Y8317D01*
X142001Y7781D01*
X144291Y7600D01*
X146582Y7781D01*
X148817Y8317D01*
X150939Y9197D01*
X152899Y10397D01*
X154646Y11890D01*
X156138Y13637D01*
X157339Y15596D01*
X158218Y17719D01*
X158755Y19953D01*
X158935Y22244D01*
X158755Y24535D01*
X158218Y26769D01*
X157339Y28892D01*
X156138Y30851D01*
X154646Y32599D01*
X152899Y34091D01*
X150939Y35292D01*
X148817Y36171D01*
X146582Y36707D01*
X144291Y36888D01*
D02*
G37*
G36*
X22244D02*
X19953Y36707D01*
X17719Y36171D01*
X15596Y35292D01*
X13637Y34091D01*
X11890Y32599D01*
X10397Y30851D01*
X9197Y28892D01*
X8317Y26769D01*
X7781Y24535D01*
X7600Y22244D01*
X7781Y19953D01*
X8317Y17719D01*
X9197Y15596D01*
X10397Y13637D01*
X11890Y11890D01*
X13637Y10397D01*
X15596Y9197D01*
X17719Y8317D01*
X19953Y7781D01*
X22244Y7600D01*
X24535Y7781D01*
X26769Y8317D01*
X28892Y9197D01*
X30851Y10397D01*
X32599Y11890D01*
X34091Y13637D01*
X35292Y15596D01*
X36171Y17719D01*
X36707Y19953D01*
X36888Y22244D01*
X36707Y24535D01*
X36171Y26769D01*
X35292Y28892D01*
X34091Y30851D01*
X32599Y32599D01*
X30851Y34091D01*
X28892Y35292D01*
X26769Y36171D01*
X24535Y36707D01*
X22244Y36888D01*
D02*
G37*
G36*
X60468Y10051D02*
X60282Y10026D01*
X59176Y9569D01*
X58227Y8840D01*
X57499Y7891D01*
X57041Y6786D01*
X57017Y6600D01*
X60468D01*
Y10051D01*
D02*
G37*
G36*
Y4600D02*
X57017D01*
X57041Y4414D01*
X57499Y3309D01*
X58227Y2360D01*
X59176Y1631D01*
X60282Y1174D01*
X60468Y1149D01*
Y4600D01*
D02*
G37*
G36*
X99668Y-513D02*
X98351Y-686D01*
X97124Y-1195D01*
X96071Y-2003D01*
X95262Y-3057D01*
X95029Y-3619D01*
X93406D01*
X93173Y-3057D01*
X92365Y-2003D01*
X91311Y-1195D01*
X90084Y-686D01*
X88768Y-513D01*
X87451Y-686D01*
X86224Y-1195D01*
X85171Y-2003D01*
X84362Y-3057D01*
X83854Y-4283D01*
X83822Y-4528D01*
X82309Y-4528D01*
X82294Y-4414D01*
X81836Y-3309D01*
X81108Y-2360D01*
X80159Y-1631D01*
X79054Y-1174D01*
X78868Y-1149D01*
Y-5600D01*
Y-10051D01*
X79054Y-10026D01*
X80159Y-9569D01*
X81108Y-8840D01*
X81836Y-7891D01*
X82294Y-6786D01*
X82309Y-6672D01*
X83822Y-6672D01*
X83854Y-6917D01*
X84362Y-8143D01*
X85171Y-9197D01*
X86224Y-10005D01*
X87451Y-10514D01*
X88768Y-10687D01*
X90084Y-10514D01*
X91311Y-10005D01*
X92365Y-9197D01*
X93173Y-8143D01*
X93406Y-7581D01*
X95029D01*
X95262Y-8143D01*
X96071Y-9197D01*
X97124Y-10005D01*
X98351Y-10514D01*
X99668Y-10687D01*
X100984Y-10514D01*
X102211Y-10005D01*
X103265Y-9197D01*
X104073Y-8143D01*
X104581Y-6917D01*
X104754Y-5600D01*
X104581Y-4283D01*
X104073Y-3057D01*
X103265Y-2003D01*
X102211Y-1195D01*
X100984Y-686D01*
X99668Y-513D01*
D02*
G37*
G36*
X76868Y-1149D02*
X76682Y-1174D01*
X75577Y-1631D01*
X74627Y-2360D01*
X73899Y-3309D01*
X73441Y-4414D01*
X73417Y-4600D01*
X76868D01*
Y-1149D01*
D02*
G37*
G36*
X67968D02*
Y-4600D01*
X71419D01*
X71394Y-4414D01*
X70936Y-3309D01*
X70208Y-2360D01*
X69259Y-1631D01*
X68154Y-1174D01*
X67968Y-1149D01*
D02*
G37*
G36*
X65968D02*
X65782Y-1174D01*
X64676Y-1631D01*
X63727Y-2360D01*
X62999Y-3309D01*
X62541Y-4414D01*
X62517Y-4600D01*
X65968D01*
Y-1149D01*
D02*
G37*
G36*
X132468Y7134D02*
X131076Y6997D01*
X129737Y6591D01*
X128504Y5932D01*
X127423Y5045D01*
X126536Y3964D01*
X125876Y2730D01*
X125470Y1392D01*
X125333Y0D01*
X125470Y-1392D01*
X125876Y-2730D01*
X126536Y-3964D01*
X127423Y-5045D01*
X128504Y-5932D01*
X129737Y-6591D01*
X131076Y-6997D01*
X132468Y-7134D01*
X133860Y-6997D01*
X135198Y-6591D01*
X136431Y-5932D01*
X137513Y-5045D01*
X138400Y-3964D01*
X139059Y-2730D01*
X139465Y-1392D01*
X139602Y0D01*
X139465Y1392D01*
X139059Y2730D01*
X138400Y3964D01*
X137513Y5045D01*
X136431Y5932D01*
X135198Y6591D01*
X133860Y6997D01*
X132468Y7134D01*
D02*
G37*
G36*
X34068D02*
X32676Y6997D01*
X31337Y6591D01*
X30104Y5932D01*
X29023Y5045D01*
X28136Y3964D01*
X27476Y2730D01*
X27070Y1392D01*
X26933Y0D01*
X27070Y-1392D01*
X27476Y-2730D01*
X28136Y-3964D01*
X29023Y-5045D01*
X30104Y-5932D01*
X31337Y-6591D01*
X32676Y-6997D01*
X34068Y-7134D01*
X35460Y-6997D01*
X36798Y-6591D01*
X38031Y-5932D01*
X39112Y-5045D01*
X40000Y-3964D01*
X40659Y-2730D01*
X41065Y-1392D01*
X41202Y0D01*
X41065Y1392D01*
X40659Y2730D01*
X40000Y3964D01*
X39112Y5045D01*
X38031Y5932D01*
X36798Y6591D01*
X35460Y6997D01*
X34068Y7134D01*
D02*
G37*
G36*
X76868Y-6600D02*
X73417D01*
X73441Y-6786D01*
X73899Y-7891D01*
X74627Y-8840D01*
X75577Y-9569D01*
X76682Y-10026D01*
X76868Y-10051D01*
Y-6600D01*
D02*
G37*
G36*
X71419D02*
X67968D01*
Y-10051D01*
X68154Y-10026D01*
X69259Y-9569D01*
X70208Y-8840D01*
X70936Y-7891D01*
X71394Y-6786D01*
X71419Y-6600D01*
D02*
G37*
G36*
X65968D02*
X62517D01*
X62541Y-6786D01*
X62999Y-7891D01*
X63727Y-8840D01*
X64676Y-9569D01*
X65782Y-10026D01*
X65968Y-10051D01*
Y-6600D01*
D02*
G37*
%LPD*%
D11*
X126500Y73000D02*
X128000Y74500D01*
X122000Y73000D02*
X126500D01*
X100035Y151965D02*
X112500Y139500D01*
X107000Y111500D02*
X112500Y117000D01*
Y139500D01*
X107000Y93000D02*
Y111500D01*
X77250Y119250D02*
X83750D01*
X90000Y113000D01*
X79294Y116736D02*
X79429Y116872D01*
X74000Y112000D02*
X78736Y116736D01*
X79294D01*
X72622Y114622D02*
X77250Y119250D01*
X83000Y116000D02*
X87000Y112000D01*
X131000Y52000D02*
X131500Y51500D01*
X117000Y52000D02*
X131000D01*
X125760Y48500D02*
X126311Y49051D01*
X119500Y48500D02*
X125760D01*
X99000Y116000D02*
X105000Y110000D01*
X104000Y96000D02*
Y96464D01*
X105000Y97464D01*
Y110000D01*
X48000D02*
X52000Y106000D01*
X38000Y109000D02*
X39000Y110000D01*
X48000D01*
X38000Y104000D02*
Y109000D01*
X41000Y107000D02*
X48000D01*
X51000Y104000D01*
X138000Y70000D02*
Y81000D01*
X79318Y107318D02*
X82682D01*
X85664Y105336D02*
X86000Y105000D01*
X82682Y107318D02*
X84664Y105336D01*
X85664D01*
X78000Y106000D02*
X79318Y107318D01*
X52000Y106000D02*
X78000D01*
X71000Y112000D02*
X74000D01*
X90000Y113000D02*
X97000D01*
X92000Y116000D02*
X99000D01*
X51000Y104000D02*
X81000D01*
X69378Y114622D02*
X72622D01*
X61000Y123000D02*
X69378Y114622D01*
X47000Y123000D02*
X61000D01*
X42000Y118000D02*
X47000Y123000D01*
X95965Y151965D02*
X100035D01*
X48000Y80586D02*
Y81000D01*
Y80586D02*
X48586Y80000D01*
X48000Y85000D02*
X51000Y82000D01*
X74000D01*
X73930Y78000D02*
X74000D01*
X71930Y80000D02*
X73930Y78000D01*
X48586Y80000D02*
X71930D01*
X38000Y104000D02*
X38965Y103035D01*
X40965D02*
X41000Y103000D01*
X38965Y103035D02*
X40965D01*
D12*
X114904Y115904D02*
Y124904D01*
X111000Y91000D02*
Y112000D01*
X114904Y115904D01*
Y124904D02*
X115000Y125000D01*
X54000Y120000D02*
X56000Y118000D01*
X58000Y120000D01*
X115000Y125000D02*
Y129000D01*
X109000Y89000D02*
X111000Y91000D01*
X103000Y89000D02*
X109000D01*
X89000Y108000D02*
X100000Y97000D01*
X84000Y110000D02*
X86000Y108000D01*
X89000D01*
X100000Y92000D02*
Y97000D01*
Y92000D02*
X103000Y89000D01*
X78000Y110000D02*
X84000D01*
X59000Y108000D02*
X76000D01*
X78000Y110000D01*
X56000Y111000D02*
X59000Y108000D01*
X115000Y129000D02*
Y133000D01*
X54000Y120000D02*
X56000D01*
X52000D02*
X54000D01*
X56000Y118000D02*
Y120000D01*
Y111000D02*
Y118000D01*
X58000Y120000D02*
X60000D01*
X56000D02*
X58000D01*
X71000Y155000D02*
X72000Y156000D01*
X77111Y152145D02*
Y154592D01*
X72000Y156000D02*
X75703D01*
X77111Y154592D01*
X66000Y155000D02*
X71000D01*
X77111Y152145D02*
X77256Y152000D01*
X44000Y156000D02*
X48000Y152000D01*
X74000D01*
X59000Y162000D02*
X66000Y155000D01*
D73*
X107000Y63000D02*
Y78000D01*
X122000Y26000D02*
Y35500D01*
X115500Y42000D02*
X122000Y35500D01*
X101000Y148000D02*
X110500Y138500D01*
X107500Y115000D02*
X110500Y118000D01*
Y138500D01*
X96000Y122500D02*
X103500Y115000D01*
X76500Y122500D02*
X96000D01*
X103500Y115000D02*
X107500D01*
X71000Y117000D02*
X76500Y122500D01*
X133354Y42354D02*
X140500Y49500D01*
Y57295D01*
X122146Y42354D02*
X133354D01*
X66349Y141000D02*
X66468Y141119D01*
X99000Y55000D02*
X107000Y63000D01*
X87000Y55000D02*
X99000D01*
X80000Y62000D02*
X87000Y55000D01*
X64000Y70000D02*
X72000D01*
X80000Y62000D01*
X90000Y148000D02*
X101000D01*
X86000Y152000D02*
X90000Y148000D01*
D74*
X62000Y34000D02*
Y37000D01*
Y31000D02*
Y34000D01*
X39000Y60000D02*
X62000Y37000D01*
X22000Y60000D02*
X39000D01*
X12750Y69250D02*
X15000Y67000D01*
X22000Y60000D01*
X10000Y72000D02*
X12750Y69250D01*
X62000Y28000D02*
Y31000D01*
D75*
X92000Y152000D02*
X95000Y155000D01*
X103000D02*
X108000Y150000D01*
X95000Y155000D02*
X103000D01*
D76*
X161000Y83000D02*
D03*
X151000D02*
D03*
Y63000D02*
D03*
X161000D02*
D03*
X151000Y53000D02*
D03*
X161000D02*
D03*
X151000Y43000D02*
D03*
X161000Y73000D02*
D03*
X151000D02*
D03*
X88000Y160000D02*
D03*
X78000D02*
D03*
X68000D02*
D03*
D77*
X161000Y43000D02*
D03*
D78*
X99668Y-5600D02*
D03*
X88768D02*
D03*
X66968D02*
D03*
X77868D02*
D03*
X61468Y5600D02*
D03*
X72368D02*
D03*
X104968D02*
D03*
X94168D02*
D03*
X83268D02*
D03*
D79*
X132468Y0D02*
D03*
X34068D02*
D03*
D80*
X98000Y160000D02*
D03*
D81*
X128000Y74500D02*
D03*
X122000Y73000D02*
D03*
X154500Y98000D02*
D03*
X107000Y78000D02*
D03*
X112637Y70622D02*
D03*
X116000Y81000D02*
D03*
Y86000D02*
D03*
X154500Y88500D02*
D03*
X93423Y57695D02*
D03*
X122000Y26000D02*
D03*
X115500Y42000D02*
D03*
X135077Y-15731D02*
D03*
X125654D02*
D03*
X116231D02*
D03*
X106808D02*
D03*
X97385D02*
D03*
X59692D02*
D03*
X50269D02*
D03*
X40846D02*
D03*
X31423D02*
D03*
X22000D02*
D03*
X135077Y-25154D02*
D03*
X125654D02*
D03*
X116231D02*
D03*
X106808D02*
D03*
X97385D02*
D03*
X87962D02*
D03*
X78538D02*
D03*
X69115D02*
D03*
X59692D02*
D03*
X50269D02*
D03*
X40846D02*
D03*
X31423D02*
D03*
X22000D02*
D03*
X135077Y-34577D02*
D03*
X125654D02*
D03*
X116231D02*
D03*
X106808D02*
D03*
X97385D02*
D03*
X87962D02*
D03*
X78538D02*
D03*
X69115D02*
D03*
X59692D02*
D03*
X50269D02*
D03*
X40846D02*
D03*
X31423D02*
D03*
X22000D02*
D03*
X144500Y-15731D02*
D03*
Y-25154D02*
D03*
Y-34577D02*
D03*
X22000Y-44000D02*
D03*
X31423D02*
D03*
X40846D02*
D03*
X50269D02*
D03*
X59692D02*
D03*
X69115D02*
D03*
X78538D02*
D03*
X87962D02*
D03*
X97385D02*
D03*
X106808D02*
D03*
X116231D02*
D03*
X125654D02*
D03*
X135077D02*
D03*
X144500D02*
D03*
X164000Y88500D02*
D03*
X135500Y107500D02*
D03*
Y117000D02*
D03*
X164000Y98000D02*
D03*
Y136000D02*
D03*
Y145500D02*
D03*
X63000Y95000D02*
D03*
X68000Y100000D02*
D03*
X63000D02*
D03*
X57500D02*
D03*
X106000Y121500D02*
D03*
X79429Y116872D02*
D03*
X83000Y116000D02*
D03*
X106000Y136500D02*
D03*
X112535Y155500D02*
D03*
X129535D02*
D03*
X121035Y147000D02*
D03*
Y155500D02*
D03*
X112535Y164000D02*
D03*
X121035D02*
D03*
X129535D02*
D03*
X138035D02*
D03*
X146535D02*
D03*
X20000D02*
D03*
X28500D02*
D03*
X37000D02*
D03*
X45500D02*
D03*
X2500Y140500D02*
D03*
Y132000D02*
D03*
X11000D02*
D03*
X11500Y93000D02*
D03*
X25500Y78500D02*
D03*
X34500D02*
D03*
X44000D02*
D03*
X88500Y77500D02*
D03*
X78500Y88500D02*
D03*
X83500Y82000D02*
D03*
X83000Y96000D02*
D03*
X86500Y73500D02*
D03*
X58500Y21000D02*
D03*
Y16000D02*
D03*
X52000Y12500D02*
D03*
X159000Y32000D02*
D03*
X164000Y22000D02*
D03*
Y27000D02*
D03*
Y32000D02*
D03*
Y37000D02*
D03*
X155000Y38500D02*
D03*
X145000D02*
D03*
X139000D02*
D03*
X132500D02*
D03*
Y33500D02*
D03*
X127500Y10500D02*
D03*
Y17500D02*
D03*
Y25000D02*
D03*
X82500Y13000D02*
D03*
X82000Y19000D02*
D03*
X81000Y27000D02*
D03*
X75500Y11500D02*
D03*
X87500Y14500D02*
D03*
X100000Y23500D02*
D03*
Y16000D02*
D03*
Y11000D02*
D03*
X108142Y43086D02*
D03*
X111000Y40000D02*
D03*
X113500Y36500D02*
D03*
X100000Y37000D02*
D03*
X99862Y28262D02*
D03*
X86000Y29500D02*
D03*
X140500Y57295D02*
D03*
X122146Y42354D02*
D03*
X140500Y63000D02*
D03*
X135000D02*
D03*
X131500Y51500D02*
D03*
X119500Y48500D02*
D03*
X126311Y49051D02*
D03*
X124307Y60047D02*
D03*
X129307Y65047D02*
D03*
Y60047D02*
D03*
X124307Y65047D02*
D03*
X134000Y100500D02*
D03*
X128037Y104584D02*
D03*
X134500Y92500D02*
D03*
X132000Y95000D02*
D03*
X126500Y127000D02*
D03*
X131000Y131000D02*
D03*
X121500Y110000D02*
D03*
X101000Y105500D02*
D03*
X95000Y108000D02*
D03*
X101000Y109000D02*
D03*
X118000Y115000D02*
D03*
Y110000D02*
D03*
X95000Y81000D02*
D03*
X99000Y131000D02*
D03*
X66468Y141119D02*
D03*
X50000Y146000D02*
D03*
X60000Y133000D02*
D03*
X52000D02*
D03*
X56000D02*
D03*
X27000Y118000D02*
D03*
X72000Y86000D02*
D03*
X89000Y92000D02*
D03*
X99000Y55000D02*
D03*
X80000Y62000D02*
D03*
X64000Y70000D02*
D03*
X49000Y65000D02*
D03*
X75000Y56000D02*
D03*
X70000D02*
D03*
X79000Y51000D02*
D03*
X75000D02*
D03*
X73000Y62000D02*
D03*
X70000Y60000D02*
D03*
Y51000D02*
D03*
X79000Y56000D02*
D03*
X82000Y52000D02*
D03*
X90000Y58500D02*
D03*
X41000Y114000D02*
D03*
X45000D02*
D03*
X41000Y107000D02*
D03*
X45645Y103395D02*
D03*
X43000Y99000D02*
D03*
Y94000D02*
D03*
X35000Y67000D02*
D03*
X44000Y65000D02*
D03*
X39000D02*
D03*
Y53000D02*
D03*
X31000Y55000D02*
D03*
Y50000D02*
D03*
X21000Y48000D02*
D03*
X18000Y39000D02*
D03*
Y44000D02*
D03*
X4000Y48000D02*
D03*
X15000Y67000D02*
D03*
X12750Y69250D02*
D03*
X10000Y72000D02*
D03*
X117000Y52000D02*
D03*
X138000Y81000D02*
D03*
X136807Y69547D02*
D03*
X71000Y112000D02*
D03*
X87000D02*
D03*
X97000Y113000D02*
D03*
X92000Y116000D02*
D03*
X104000Y96000D02*
D03*
X107000Y93000D02*
D03*
X86000Y105000D02*
D03*
X81000Y104000D02*
D03*
X71000Y117000D02*
D03*
X115000Y125000D02*
D03*
Y133000D02*
D03*
X52000Y120000D02*
D03*
X60000D02*
D03*
X56000D02*
D03*
X115000Y129000D02*
D03*
X42000Y118000D02*
D03*
X92000Y152000D02*
D03*
X74000D02*
D03*
X62000Y28000D02*
D03*
Y31000D02*
D03*
Y34000D02*
D03*
X48000Y81000D02*
D03*
Y85000D02*
D03*
X74000Y78000D02*
D03*
Y82000D02*
D03*
X41000Y103000D02*
D03*
X86000Y152000D02*
D03*
X108000Y150000D02*
D03*
X77256Y152000D02*
D03*
X59000Y162000D02*
D03*
X44000Y156000D02*
D03*
X95965Y151965D02*
D03*
D82*
X78937Y132835D02*
D03*
Y137165D02*
D03*
X83268Y132835D02*
D03*
Y137165D02*
D03*
X87598Y132835D02*
D03*
Y137165D02*
D03*
X91929D02*
D03*
Y132835D02*
D03*
X74606Y137165D02*
D03*
Y132835D02*
D03*
D83*
X144291Y22244D02*
D03*
Y144291D02*
D03*
X22244D02*
D03*
Y22244D02*
D03*
M02*
