G04*
G04 #@! TF.GenerationSoftware,Altium Limited,Altium Designer,20.0.13 (296)*
G04*
G04 Layer_Color=8421504*
%FSLAX25Y25*%
%MOIN*%
G70*
G01*
G75*
%ADD19R,0.02500X0.02500*%
%ADD20R,0.07874X0.07087*%
%ADD21R,0.02953X0.03150*%
%ADD22R,0.03150X0.03150*%
%ADD23R,0.03150X0.02953*%
%ADD24O,0.03347X0.01181*%
%ADD25O,0.01181X0.03347*%
%ADD26R,0.07087X0.04724*%
%ADD27R,0.09449X0.02992*%
%ADD28R,0.21654X0.11024*%
%ADD29O,0.01772X0.05512*%
%ADD30R,0.05500X0.04200*%
%ADD31R,0.01772X0.01772*%
%ADD32R,0.05500X0.08000*%
%ADD33R,0.12000X0.05400*%
%ADD34R,0.05400X0.12000*%
G04:AMPARAMS|DCode=35|XSize=11.81mil|YSize=70.87mil|CornerRadius=0mil|HoleSize=0mil|Usage=FLASHONLY|Rotation=315.000|XOffset=0mil|YOffset=0mil|HoleType=Round|Shape=Round|*
%AMOVALD35*
21,1,0.05906,0.01181,0.00000,0.00000,45.0*
1,1,0.01181,-0.02088,-0.02088*
1,1,0.01181,0.02088,0.02088*
%
%ADD35OVALD35*%

G04:AMPARAMS|DCode=36|XSize=11.81mil|YSize=70.87mil|CornerRadius=0mil|HoleSize=0mil|Usage=FLASHONLY|Rotation=225.000|XOffset=0mil|YOffset=0mil|HoleType=Round|Shape=Round|*
%AMOVALD36*
21,1,0.05906,0.01181,0.00000,0.00000,315.0*
1,1,0.01181,-0.02088,0.02088*
1,1,0.01181,0.02088,-0.02088*
%
%ADD36OVALD36*%

%ADD37R,0.08000X0.02600*%
G04:AMPARAMS|DCode=38|XSize=68.9mil|YSize=98.43mil|CornerRadius=3.45mil|HoleSize=0mil|Usage=FLASHONLY|Rotation=180.000|XOffset=0mil|YOffset=0mil|HoleType=Round|Shape=RoundedRectangle|*
%AMROUNDEDRECTD38*
21,1,0.06890,0.09153,0,0,180.0*
21,1,0.06201,0.09843,0,0,180.0*
1,1,0.00689,-0.03100,0.04577*
1,1,0.00689,0.03100,0.04577*
1,1,0.00689,0.03100,-0.04577*
1,1,0.00689,-0.03100,-0.04577*
%
%ADD38ROUNDEDRECTD38*%
%ADD39R,0.01968X0.01772*%
%ADD40R,0.01772X0.01772*%
%ADD41R,0.02362X0.05118*%
%ADD42R,0.06400X0.07000*%
D19*
X128557Y60797D02*
D03*
X125057D02*
D03*
Y64297D02*
D03*
X128557D02*
D03*
D20*
X141000Y125854D02*
D03*
Y95146D02*
D03*
D21*
X151476Y104984D02*
D03*
X157185D02*
D03*
X122146Y39500D02*
D03*
X127854D02*
D03*
X122146Y29500D02*
D03*
X127854D02*
D03*
X122146Y34500D02*
D03*
X127854D02*
D03*
X122146Y94500D02*
D03*
X127854D02*
D03*
Y115500D02*
D03*
X122146D02*
D03*
X35854Y91000D02*
D03*
X30146D02*
D03*
X107146Y86000D02*
D03*
X112854D02*
D03*
X107146Y81000D02*
D03*
X112854D02*
D03*
X109854Y70500D02*
D03*
X104146D02*
D03*
X26854Y44000D02*
D03*
X21146D02*
D03*
X26854Y39000D02*
D03*
X21146D02*
D03*
X26000Y62000D02*
D03*
X31709D02*
D03*
X26000Y67000D02*
D03*
X31709D02*
D03*
X44854Y131000D02*
D03*
X39146D02*
D03*
X54854Y104000D02*
D03*
X49146D02*
D03*
X55000Y109000D02*
D03*
X49291D02*
D03*
X51854Y99000D02*
D03*
X46146D02*
D03*
X51854Y94000D02*
D03*
X46146D02*
D03*
X50146Y162000D02*
D03*
X55854D02*
D03*
X93000Y19000D02*
D03*
X87291D02*
D03*
X107000D02*
D03*
X112709D02*
D03*
X92146Y14000D02*
D03*
X97854D02*
D03*
X92000Y33000D02*
D03*
X86291D02*
D03*
X102854Y19000D02*
D03*
X97146D02*
D03*
X107709Y14000D02*
D03*
X102000D02*
D03*
X108000Y33000D02*
D03*
X113709D02*
D03*
D22*
X157547Y121500D02*
D03*
X163453D02*
D03*
X157547Y115500D02*
D03*
X163453D02*
D03*
X157547Y109500D02*
D03*
X163453D02*
D03*
D23*
X151500Y121646D02*
D03*
Y127354D02*
D03*
Y110146D02*
D03*
Y115854D02*
D03*
X143000Y57146D02*
D03*
Y62854D02*
D03*
X138000Y57146D02*
D03*
Y62854D02*
D03*
X44000Y73854D02*
D03*
Y68146D02*
D03*
X131000Y121146D02*
D03*
Y126854D02*
D03*
X83000Y61854D02*
D03*
Y56146D02*
D03*
X49000Y73854D02*
D03*
Y68146D02*
D03*
X39000Y73854D02*
D03*
Y68146D02*
D03*
X41000Y29146D02*
D03*
Y34854D02*
D03*
X37000Y39000D02*
D03*
Y44709D02*
D03*
X55000Y57854D02*
D03*
Y52146D02*
D03*
X42000Y39000D02*
D03*
Y44709D02*
D03*
X60000Y52146D02*
D03*
Y57854D02*
D03*
X65000D02*
D03*
Y52146D02*
D03*
X113000Y141000D02*
D03*
Y146709D02*
D03*
X108000Y146854D02*
D03*
Y141146D02*
D03*
Y158854D02*
D03*
Y153146D02*
D03*
X90000Y50146D02*
D03*
Y55854D02*
D03*
X95000Y50146D02*
D03*
Y55854D02*
D03*
X89000Y43854D02*
D03*
Y38146D02*
D03*
D24*
X133500Y59595D02*
D03*
Y65500D02*
D03*
X120114D02*
D03*
Y59595D02*
D03*
D25*
X130744Y69240D02*
D03*
X128776D02*
D03*
X126807D02*
D03*
X124839D02*
D03*
X122870D02*
D03*
Y55854D02*
D03*
X124839D02*
D03*
X126807D02*
D03*
X128776D02*
D03*
X130744D02*
D03*
D26*
X127874Y100276D02*
D03*
X112126D02*
D03*
X127874Y109724D02*
D03*
X112126D02*
D03*
D27*
X33000Y98000D02*
D03*
Y103000D02*
D03*
Y108000D02*
D03*
Y113000D02*
D03*
Y118000D02*
D03*
X17646D02*
D03*
Y113000D02*
D03*
Y108000D02*
D03*
Y103000D02*
D03*
Y98000D02*
D03*
D28*
X83268Y135000D02*
D03*
D29*
X74311Y123386D02*
D03*
X76870D02*
D03*
X79429D02*
D03*
X81988D02*
D03*
X84547D02*
D03*
X87106D02*
D03*
X89665D02*
D03*
X92224D02*
D03*
X74311Y146614D02*
D03*
X76870D02*
D03*
X79429D02*
D03*
X81988D02*
D03*
X84547D02*
D03*
X87106D02*
D03*
X89665D02*
D03*
X92224D02*
D03*
X94784D02*
D03*
X97342D02*
D03*
X99902D02*
D03*
X94784Y123386D02*
D03*
X97342D02*
D03*
X99902D02*
D03*
X71752Y146614D02*
D03*
X69193D02*
D03*
X66634D02*
D03*
X71752Y123386D02*
D03*
X69193D02*
D03*
X66634D02*
D03*
D30*
X41000Y23500D02*
D03*
Y16500D02*
D03*
D31*
X49000Y50425D02*
D03*
Y53575D02*
D03*
D32*
X39100Y140000D02*
D03*
X56900D02*
D03*
Y153000D02*
D03*
X39100D02*
D03*
D33*
X56000Y116000D02*
D03*
Y128000D02*
D03*
D34*
X119000Y129000D02*
D03*
X107000D02*
D03*
D35*
X102198Y86887D02*
D03*
X100806Y88279D02*
D03*
X99414Y89671D02*
D03*
X98022Y91063D02*
D03*
X96630Y92454D02*
D03*
X95238Y93846D02*
D03*
X93846Y95238D02*
D03*
X92454Y96630D02*
D03*
X91063Y98022D02*
D03*
X89671Y99414D02*
D03*
X88279Y100806D02*
D03*
X86887Y102198D02*
D03*
X64337Y79649D02*
D03*
X65729Y78257D02*
D03*
X67121Y76865D02*
D03*
X68513Y75473D02*
D03*
X69905Y74081D02*
D03*
X71297Y72689D02*
D03*
X72689Y71297D02*
D03*
X74081Y69905D02*
D03*
X75473Y68513D02*
D03*
X76865Y67121D02*
D03*
X78257Y65729D02*
D03*
X79649Y64337D02*
D03*
D36*
Y102198D02*
D03*
X78257Y100806D02*
D03*
X76865Y99414D02*
D03*
X75473Y98022D02*
D03*
X74081Y96630D02*
D03*
X72689Y95238D02*
D03*
X71297Y93846D02*
D03*
X69905Y92454D02*
D03*
X68513Y91063D02*
D03*
X67121Y89671D02*
D03*
X65729Y88279D02*
D03*
X64337Y86887D02*
D03*
X86887Y64337D02*
D03*
X88279Y65729D02*
D03*
X89671Y67121D02*
D03*
X91063Y68513D02*
D03*
X92454Y69905D02*
D03*
X93846Y71297D02*
D03*
X95238Y72689D02*
D03*
X96630Y74081D02*
D03*
X98022Y75473D02*
D03*
X99414Y76865D02*
D03*
X100806Y78257D02*
D03*
X102198Y79649D02*
D03*
D37*
X52000Y46000D02*
D03*
Y41000D02*
D03*
Y36000D02*
D03*
X74000Y46000D02*
D03*
Y41000D02*
D03*
Y36000D02*
D03*
X52000Y31000D02*
D03*
Y26000D02*
D03*
Y21000D02*
D03*
X74000Y26000D02*
D03*
Y21000D02*
D03*
Y16000D02*
D03*
X52000D02*
D03*
X74000Y31000D02*
D03*
D38*
X31000Y53000D02*
D03*
D39*
X25882Y49260D02*
D03*
X36118Y56740D02*
D03*
Y49260D02*
D03*
X25882Y56740D02*
D03*
Y53000D02*
D03*
X36118Y53000D02*
D03*
D40*
X100000Y50000D02*
D03*
X103150D02*
D03*
D41*
X100000Y32866D02*
D03*
X96260Y41134D02*
D03*
X103740D02*
D03*
D42*
X106700Y26000D02*
D03*
X93300D02*
D03*
M02*
