M48
;Layer_Color=9474304
;FILE_FORMAT=2:5
INCH,TZ
;TYPE=PLATED
T1F00S00C0.01181
T2F00S00C0.03543
T3F00S00C0.04331
T4F00S00C0.12598
%
T01
X648000Y176000
X656000
X664000
X660000Y184000
X652000
X656000Y192000
X664000
X660000Y200000
X652000
X656000Y208000
X664000
X660000Y216000
X652000
X656000Y224000
X664000
X660000Y232000
X664000Y240000
X656000
X647000
X646935Y243500
X647000Y247000
Y250500
X656000Y256000
X664000
X660000Y264000
X664000Y272000
X656000
X660000Y280000
X664000Y288000
X656000
X660000Y296000
X664000Y304000
X656000
X660000Y312000
X628000
X634000Y299000
X628000Y264000
X660000Y248000
X648000Y208000
Y192000
X613000Y183000
X609000Y181896
X593500Y180500
X589547Y183276
X599000Y191000
X601500Y210500
Y214000
X606082Y209121
X609000Y209128
X607500Y224389
X605000Y226389
X602500Y224389
X598000Y225189
X595500Y223189
X593000Y225189
X598000Y220500
X592000Y208000
X587000Y203500
X583000Y199000
X582500Y171500
X576000Y256000
X568000
X572000Y264000
X564000
X568000Y272000
X576000
X572000Y280000
X564000
X568000Y288000
X560000
X564000Y296000
X556000
X548000
X540000
X540002Y307579
X543382Y307600
X546741
X550141
X553520Y307579
X552000Y304000
X560000
X568000
X564000Y312000
X584865Y306800
X593500Y301000
X597603Y304250
X609000Y303080
X612500Y305500
X614500Y308500
X598500Y288920
X601424Y285465
X596000Y280000
X595500Y275000
X593000Y273000
X598000
X602500Y273800
X605000Y271800
X607500Y273800
X616000Y272000
X624000Y240000
X560000Y272000
X552000
X544000Y304000
X536000
X529500Y299500
X505000
X500500Y297500
X494333
X488167
Y291333
X494333
X500500
Y285167
X494333
X488167
Y279000
X494333
X500500
Y272833
X494333
X488167
Y266667
X494333
X500500
Y260500
X494333
X488167
X488000Y256000
X496000
X504000
X500000Y248000
X492000
X484000
X476000
X480000Y256000
X482000Y260500
Y266667
X475833
Y272833
Y279000
Y285167
Y291333
Y297500
X469667
Y291333
Y285167
Y279000
Y272833
Y266667
Y260500
X475833
X472000Y256000
Y240000
X476000Y232000
X480000Y224000
X488000
X496000
X504000
X500000Y232000
X504000Y240000
X500000Y216000
X492000
X484000
X476000
X480000Y208000
X488000
X496000
X492000Y200000
X492427Y192573
X482573
X484000Y200000
X476000
X472000Y208000
Y224000
Y192000
X472500Y173000
Y168500
X482427Y182427
X492427
X502427
X517500Y209000
X482000Y272833
Y279000
Y285167
Y291333
Y297500
X482200Y310447
X479700Y312447
X484700
X452000Y312000
X448000Y304000
X463500Y297500
Y291333
Y285167
Y279000
Y272833
Y266667
Y260500
X464000Y256000
X468000Y248000
Y232000
X464000Y224000
X468000Y216000
X464000Y208000
X468000Y200000
X443000Y168500
X448000Y320000
X456000
X456555Y324354
X453409Y327500
Y332681
X448000Y336000
X452000Y344000
X456000Y352000
X448000
X452000Y360000
X454553Y366000
X456553Y368500
X454553Y371000
X453500Y378000
X456646Y381146
X464000Y384000
X460000Y392000
X452000
X456000Y400000
X464000
X460000Y408000
X452000
X456000Y416000
X448000
X452000Y424000
X460000
X468000
X464000Y432000
X468000Y440000
X448000Y432000
Y400000
Y384000
X468000Y328000
X466300Y322553
X468800Y324553
X471300Y322553
X479700
X482200Y324553
X484700Y322553
X478153Y328000
X480153Y330500
X478153Y333000
X480000Y336000
X479000Y345065
X482500Y345000
X486000
X488000Y352000
X492000Y360000
X500000
X496000Y368000
X488000
X492000Y376000
X500000
X504000Y384000
X512000
X508000Y392000
X500000
X492000
X484000
X488000Y400000
X496000
X504000
X512000
X508000Y408000
X500000
X492000
X484000
X488000Y416000
X492000Y424000
X500000
X508000
X516000
X520000Y432000
X528000
X536000
X539982Y432100
X543361Y432121
X546721
X550120
X553500Y432100
X553479Y441921
X550100Y441900
X546700
X543341
X539961Y441921
X532000Y440000
X524000
X516000
X508000
X512000Y432000
X504000
X496000
Y448000
X488000
X480000
X472000
X476000Y440000
X484000
X480000Y432000
X472000
X480000Y400000
Y384000
X488000
X496000
X484000Y376000
Y360000
X475500Y345000
X496500Y336100
Y332967
Y329833
Y326700
Y323567
X506354Y318854
X509500Y322000
X512000Y320000
X507947Y329000
X505947Y331500
X507947Y334000
X536500Y330500
X540000Y330565
X543500Y330500
X547000
Y326500
X543500Y326435
X540000Y326500
X536500
X536000Y320000
X539982Y317400
X543361Y317379
X546721
X550120
X553500Y317400
X560000Y320000
X584765Y318100
X589500Y325500
X592500Y328500
X601500Y335000
Y338500
X608000Y336000
X612750Y334750
X609313Y330315
X606582Y330121
X604184Y323500
X598000Y345000
Y351000
X595500Y349000
X593000Y351000
X602500Y350200
X605000Y352200
X607500Y350200
X612000Y344000
X624000Y336000
Y400000
X620000Y408000
X612000
X608000Y416000
X600000
X598646Y413000
X601646Y410000
X602500Y399611
X605000Y397611
X607500Y399611
X598000Y398811
X595500Y400811
X593000Y398811
X576000Y400000
X568000
X560000
X552000
X556000Y392000
X564000
X572000
X576000Y384000
X568000
X572000Y376000
Y408000
X564000
X568000Y416000
X560000
X552000
X544000
X536000
X528000
X564000Y424000
Y440000
X596000
X604000
X612000
X620000
X616000Y432000
X608000
X600000
X592000
X596000Y424000
X604000
X588000
X548500Y336000
X632000
X636000Y344000
X628000
X640500Y350500
Y360363
X660000Y360000
X664000Y368000
X656000
X660000Y376000
X664000Y384000
X656000
X660000Y392000
X664000Y400000
X656000
X660000Y408000
X664000Y416000
X656000
X660000Y424000
X664000Y432000
X648000
X636000Y424000
X640000Y416000
X636000Y408000
X628000
X632000Y400000
X640000
X636000Y392000
Y376000
X656000Y352000
X664000
X660000Y344000
X664000Y336000
X656000
X660000Y328000
X664000Y320000
X656000
X636000Y328000
X640000Y448000
X632000
T02
X477500Y177500
X487500
Y187500
X477500
X497500
X507500
Y177500
X497500
X517500
Y187500
X527500
Y177500
X537500
X547500
Y187500
X537500
X557500
Y177500
X567500
Y187500
X577500
Y177500
X573500Y215500
Y225500
X563500
X553500
Y235500
X563500
X573500
X583500
Y245500
Y255500
Y265500
Y275500
Y285500
X553500
X543500
X533500
Y275500
Y265500
Y255500
Y245500
Y235500
X543500
Y225500
Y215500
X553500
X563500
X583500
Y225500
X533500
Y215500
X467500Y187500
X457500
Y177500
X467500
X533500Y340000
Y350000
Y360000
Y370000
Y380000
Y390000
Y400000
Y410000
X543500
X553500
X583500
Y400000
Y390000
Y380000
Y370000
Y360000
Y350000
Y340000
X573500
Y350000
X563500
X553500
Y360000
X563500
X573500
X543500
Y350000
Y340000
X553500
X563500
T03
X627591Y223335
Y234240
Y245146
Y256051
X616409Y261504
Y250598
Y239693
Y228787
Y217882
X616319Y350331
Y361236
Y372142
Y383047
Y393953
X627500Y388500
Y377594
Y366689
Y355784
T04
X622000Y190500
Y288886
X454000Y446500
X621910Y421335
Y322949
X656500Y446500
M30
