M48
;Layer_Color=9474304
;FILE_FORMAT=2:5
INCH,TZ
;TYPE=PLATED
T1F00S00C0.00787
T2F00S00C0.03543
T3F00S00C0.04331
%
T01
X630000Y180000
X640000
X645000Y190000
X635000
X625000
X630000Y200000
X640000
X645000Y210000
X635000
X640000Y220000
X630000
X635000Y230000
X645000
X640000Y240000
X630000
X635000Y250000
X645000
X640000Y260000
X630000
X635000Y270000
X645000
X640000Y280000
X630000
X625000Y270000
X615000
X605000
X595000
X585000
X575000
X565000
X555000
X545000
X535000
X525000
X515000
X505000
X510000Y280000
X520000
X530000
X540000
X550000
X560000
X570000
X580000
X590000
X592500Y261500
X589000Y257500
X580000Y260000
Y240000
X589000
X592500Y236000
X585000Y230000
X575000
X565000
X562000Y236500
X551500Y237500
Y232000
Y227000
X555000Y230000
X567447Y222053
X569500Y220000
X565000Y210000
X579500
X582053Y207447
X585000Y210000
X595000
X615000
Y190000
X620000Y180000
X590000
X595000Y190000
X575000
X580000Y200000
X570000
X555000Y190000
X539500Y188500
X529500
X526000Y198000
X515000
Y190000
X505000
Y198000
X500000Y200000
Y220000
X510000
X509500Y211500
X512500Y211555
X515000Y230000
X510000Y240000
X500000
X505000Y250000
X515000
X525000
X524500Y237500
X520000Y260000
X530000
X540000
X550000
X559500
X562000Y249000
X566500
X551500
X510000Y260000
X500000
Y280000
Y180000
X510000
X541000Y198000
X605000Y250000
X610000Y260000
X620000
Y280000
T02
X494500Y177000
X504500
X514500
X524500
X534500
X544500
X554500
X564500
X574500
X584500
T03
X600400Y210500
Y221400
Y232300
Y243200
Y254000
X611600Y248700
Y237800
Y226900
Y216000
M30
