G04*
G04 #@! TF.GenerationSoftware,Altium Limited,Altium Designer,20.0.13 (296)*
G04*
G04 Layer_Color=65535*
%FSLAX25Y25*%
%MOIN*%
G70*
G01*
G75*
%ADD10C,0.01600*%
%ADD11C,0.01000*%
%ADD12C,0.00984*%
%ADD13C,0.02362*%
%ADD14C,0.00787*%
%ADD15C,0.00600*%
%ADD16C,0.00394*%
%ADD17C,0.00900*%
%ADD18C,0.01500*%
%ADD19C,0.00800*%
D10*
X107100Y36200D02*
G03*
X107100Y36200I-400J0D01*
G01*
D11*
X91500Y65100D02*
G03*
X91500Y65100I-500J0D01*
G01*
X-958Y33447D02*
Y154647D01*
Y33447D02*
X55200D01*
X55200Y154647D02*
X55200Y33447D01*
X-958Y154647D02*
X54190D01*
X55200D01*
X158668Y100300D02*
X166900D01*
X158668Y126300D02*
X166900D01*
X143400D02*
X151632D01*
X143400Y100300D02*
X151632D01*
X231211Y168785D02*
X239085Y160911D01*
X199715Y168785D02*
X231211D01*
Y129415D02*
X239085Y137289D01*
X199715Y129415D02*
X231211D01*
X199715Y153600D02*
Y168785D01*
Y129415D02*
Y144600D01*
X239085Y137289D02*
Y144600D01*
Y153600D02*
Y160911D01*
X228000Y2850D02*
Y41850D01*
X218000Y14350D02*
X222000D01*
X218000D02*
Y28351D01*
X222000D01*
Y14350D02*
Y28351D01*
X212000Y14350D02*
Y28351D01*
X208000D02*
X212000D01*
X208000Y14350D02*
Y28351D01*
Y14350D02*
X212000D01*
X202000D02*
Y28351D01*
X198000D02*
X202000D01*
X198000Y14350D02*
Y28351D01*
Y14350D02*
X202000D01*
X192000D02*
Y28351D01*
X188000D02*
X192000D01*
X188000Y14350D02*
Y28351D01*
Y14350D02*
X192000D01*
X220500Y25650D02*
Y26650D01*
X219500Y25650D02*
X220500D01*
X219500D02*
Y26650D01*
X220500D01*
X210500Y25850D02*
Y26850D01*
X209500Y25850D02*
X210500D01*
X209500D02*
Y26850D01*
X210500D01*
X200500Y25950D02*
Y26950D01*
X199500Y25950D02*
X200500D01*
X199500D02*
Y26950D01*
X200500D01*
X190500Y25950D02*
Y26950D01*
X189500Y25950D02*
X190500D01*
X189500D02*
Y26950D01*
X190500D01*
X224000Y2900D02*
X228000D01*
X224000Y41850D02*
X228000D01*
X182000D02*
X186000D01*
X182000Y2900D02*
X186000D01*
X182000D02*
Y41850D01*
X185200Y45200D02*
X247200Y45200D01*
Y125200D01*
X185200D02*
X247200D01*
X220500Y33350D02*
X219334D01*
X219917D01*
Y29851D01*
X220500Y30434D01*
X209167Y33350D02*
X211500D01*
X209167Y31017D01*
Y30434D01*
X209751Y29851D01*
X210917D01*
X211500Y30434D01*
X201500D02*
X200917Y29851D01*
X199751D01*
X199167Y30434D01*
Y31017D01*
X199751Y31601D01*
X200334D01*
X199751D01*
X199167Y32184D01*
Y32767D01*
X199751Y33350D01*
X200917D01*
X201500Y32767D01*
X189751Y33350D02*
Y29851D01*
X191500Y31601D01*
X189167D01*
D12*
X166388Y38146D02*
G03*
X166388Y38146I-492J0D01*
G01*
X131809Y57255D02*
G03*
X131809Y57255I-492J0D01*
G01*
D13*
X139191Y66310D02*
G03*
X139191Y66310I-1181J0D01*
G01*
D14*
X233964Y43481D02*
X235145D01*
X233964Y41119D02*
X235145D01*
X253419Y49055D02*
Y50236D01*
X255781Y49055D02*
Y50236D01*
X248919Y49109D02*
Y50291D01*
X251281Y49109D02*
Y50291D01*
X125655Y153119D02*
X126836D01*
X125655Y155481D02*
X126836D01*
X125709Y148619D02*
X126891D01*
X125709Y150981D02*
X126891D01*
X125709Y144219D02*
X126891D01*
X125709Y146581D02*
X126891D01*
X117681Y84109D02*
Y85290D01*
X115319Y84109D02*
Y85290D01*
X110519Y73909D02*
Y75090D01*
X112881Y73909D02*
Y75090D01*
X148764Y52281D02*
X149945D01*
X148764Y49919D02*
X149945D01*
X105900Y132200D02*
X175900D01*
X105900Y182200D02*
X175900D01*
X105900Y132200D02*
Y182200D01*
X175900Y132200D02*
Y182200D01*
X80864Y119619D02*
X82045D01*
X80864Y121981D02*
X82045D01*
X85556Y105994D02*
Y109144D01*
X82800Y105994D02*
X85556D01*
Y114656D02*
Y117806D01*
X82800D02*
X85556D01*
X80864Y101819D02*
X82045D01*
X80864Y104181D02*
X82045D01*
X84710Y99081D02*
X85891D01*
X84710Y96719D02*
X85891D01*
X84710Y94581D02*
X85891D01*
X84710Y92219D02*
X85891D01*
X62775Y111309D02*
Y112491D01*
X65137Y111309D02*
Y112491D01*
X57119Y111309D02*
Y112491D01*
X59481Y111309D02*
Y112491D01*
X60610Y118019D02*
X61791D01*
X60610Y120381D02*
X61791D01*
X60610Y122519D02*
X61791D01*
X60610Y124881D02*
X61791D01*
X60510Y103419D02*
X61690D01*
X60510Y105781D02*
X61690D01*
X60510Y98919D02*
X61690D01*
X60510Y101281D02*
X61690D01*
X118555Y67719D02*
X119736D01*
X118555Y70081D02*
X119736D01*
X120381Y60955D02*
Y62136D01*
X118019Y60955D02*
Y62136D01*
X115881Y60955D02*
Y62136D01*
X113519Y60955D02*
Y62136D01*
X111381Y60955D02*
Y62136D01*
X109019Y60955D02*
Y62136D01*
X106019Y73909D02*
Y75090D01*
X108381Y73909D02*
Y75090D01*
X94681Y56910D02*
Y58091D01*
X92319Y56910D02*
Y58091D01*
X85919Y73809D02*
Y74990D01*
X88281Y73809D02*
Y74990D01*
X81419Y73809D02*
Y74990D01*
X83781Y73809D02*
Y74990D01*
X122181Y84109D02*
Y85290D01*
X119819Y84109D02*
Y85290D01*
X128364Y121719D02*
X129545D01*
X128364Y124081D02*
X129545D01*
X128364Y119081D02*
X129545D01*
X128364Y116719D02*
X129545D01*
X128364Y114081D02*
X129545D01*
X128364Y111719D02*
X129545D01*
X128364Y106719D02*
X129545D01*
X128364Y109081D02*
X129545D01*
X135009Y97719D02*
X136191D01*
X135009Y100081D02*
X136191D01*
X232519Y114709D02*
Y115891D01*
X234881Y114709D02*
Y115891D01*
X180609Y84019D02*
X181791D01*
X180609Y86381D02*
X181791D01*
X180609Y89019D02*
X181791D01*
X180609Y91381D02*
X181791D01*
X166619Y85555D02*
Y86736D01*
X168981Y85555D02*
Y86736D01*
X180609Y79019D02*
X181791D01*
X180609Y81381D02*
X181791D01*
X177419Y63364D02*
Y64545D01*
X179781Y63364D02*
Y64545D01*
X172719Y63364D02*
Y64545D01*
X175081Y63364D02*
Y64545D01*
X168119Y63364D02*
Y64545D01*
X170481Y63364D02*
Y64545D01*
X175109Y42519D02*
X176291D01*
X175109Y44881D02*
X176291D01*
X175109Y37519D02*
X176291D01*
X175109Y39881D02*
X176291D01*
X175109Y27519D02*
X176291D01*
X175109Y29881D02*
X176291D01*
X175109Y32519D02*
X176291D01*
X175109Y34881D02*
X176291D01*
X162781Y47664D02*
Y48845D01*
X160419Y47664D02*
Y48845D01*
X155719Y47555D02*
Y48736D01*
X158081Y47555D02*
Y48736D01*
X153495Y10489D02*
Y34111D01*
X165305Y10489D02*
Y34111D01*
X142964Y47981D02*
X144145D01*
X142964Y45619D02*
X144145D01*
X133109Y47981D02*
X134291D01*
X133109Y45619D02*
X134291D01*
X112309Y51319D02*
X113491D01*
X112309Y53681D02*
X113491D01*
X112309Y44319D02*
X113491D01*
X112309Y46681D02*
X113491D01*
X112109Y34519D02*
X113291D01*
X112109Y36881D02*
X113291D01*
X93809Y30319D02*
X94990D01*
X93809Y32681D02*
X94990D01*
X93809Y25819D02*
X94990D01*
X93809Y28181D02*
X94990D01*
X80255Y45881D02*
X81436D01*
X80255Y43519D02*
X81436D01*
X80309Y39681D02*
X81490D01*
X80309Y37319D02*
X81490D01*
X67519Y28609D02*
Y29791D01*
X69881Y28609D02*
Y29791D01*
X63019Y28609D02*
Y29791D01*
X65381Y28609D02*
Y29791D01*
X58519Y28609D02*
Y29791D01*
X60881Y28609D02*
Y29791D01*
X57900Y3000D02*
X107900D01*
X57900Y23000D02*
X107900D01*
X57900Y3000D02*
Y23000D01*
X107900Y3000D02*
Y23000D01*
X196700Y75200D02*
X236012D01*
Y55888D02*
Y75200D01*
X196700Y55200D02*
Y75200D01*
Y45200D02*
Y56700D01*
Y45200D02*
X236012D01*
Y55888D01*
X267200Y65300D02*
X277200D01*
X267200D02*
Y105300D01*
X277200Y65300D02*
Y105300D01*
X267200D02*
X277200D01*
X178755Y121381D02*
X179936D01*
X178755Y119019D02*
X179936D01*
X155727Y62373D02*
Y84027D01*
X134073Y62373D02*
Y84027D01*
X155727D01*
X134073Y62373D02*
X155727D01*
D15*
X265200Y101200D02*
Y106200D01*
X258200Y101200D02*
Y106200D01*
X256100Y94500D02*
Y99500D01*
X249100Y94500D02*
Y99500D01*
X265200Y64400D02*
Y69400D01*
X258200Y64400D02*
Y69400D01*
X256100Y71000D02*
Y76000D01*
X249100Y71000D02*
Y76000D01*
X102100Y91400D02*
Y126300D01*
X112100D01*
Y91400D02*
Y126300D01*
X102100Y91400D02*
X112100D01*
X109600D02*
Y93900D01*
X112100D01*
X66800Y108400D02*
Y122300D01*
Y101500D02*
Y108400D01*
Y122300D02*
X74800D01*
X66800Y101500D02*
X74800D01*
Y122300D01*
X102805Y34626D02*
X104774D01*
Y36595D01*
Y48406D02*
Y50374D01*
X102805D02*
X104774D01*
X89026D02*
X90995D01*
X89026Y48406D02*
Y50374D01*
Y34626D02*
Y36595D01*
Y34626D02*
X90995D01*
X92800Y78200D02*
X92900Y66200D01*
X104600D02*
Y78200D01*
X80200Y72300D02*
Y78900D01*
X67800D02*
X80200D01*
X67800Y72300D02*
X80200D01*
X67800D02*
Y78900D01*
X148500Y27900D02*
Y32400D01*
X124500Y27900D02*
Y32400D01*
Y27900D02*
X148500D01*
X124500Y43900D02*
X148500D01*
Y39500D02*
Y43900D01*
X124500Y39500D02*
Y43900D01*
D16*
X89800Y88400D02*
Y90400D01*
X110500Y82572D02*
X112900D01*
X177600Y54202D02*
X178600Y53202D01*
X179600Y54202D01*
X178600Y53302D02*
Y54402D01*
X172900Y54202D02*
X173900Y53202D01*
X174900Y54202D01*
X173900Y53302D02*
Y54402D01*
X168300Y54202D02*
X169300Y53202D01*
X170300Y54202D01*
X169300Y53302D02*
Y54402D01*
X240176Y143942D02*
X242012D01*
X241094Y144860D02*
Y143024D01*
X239900Y154478D02*
X241737D01*
X240818Y155396D02*
Y153559D01*
X198113Y143076D02*
Y144913D01*
X198022Y153600D02*
Y155437D01*
D17*
X68600Y35900D02*
Y37899D01*
X67601Y36900D02*
X69600D01*
X67601Y38899D02*
X67101Y39399D01*
Y40399D01*
X67601Y40898D01*
X68101D01*
X68600Y40399D01*
Y39899D01*
Y40399D01*
X69100Y40898D01*
X69600D01*
X70100Y40399D01*
Y39399D01*
X69600Y38899D01*
X70100Y41898D02*
X69600D01*
Y42398D01*
X70100D01*
Y41898D01*
X67601Y44397D02*
X67101Y44897D01*
Y45897D01*
X67601Y46397D01*
X68101D01*
X68600Y45897D01*
Y45397D01*
Y45897D01*
X69100Y46397D01*
X69600D01*
X70100Y45897D01*
Y44897D01*
X69600Y44397D01*
X67101Y47396D02*
X69100D01*
X70100Y48396D01*
X69100Y49396D01*
X67101D01*
X64100Y35900D02*
Y37899D01*
X63101Y36900D02*
X65100D01*
X62601Y40898D02*
Y38899D01*
X64100D01*
X63601Y39899D01*
Y40399D01*
X64100Y40898D01*
X65100D01*
X65600Y40399D01*
Y39399D01*
X65100Y38899D01*
X65600Y41898D02*
X65100D01*
Y42398D01*
X65600D01*
Y41898D01*
X63101Y44397D02*
X62601Y44897D01*
Y45897D01*
X63101Y46397D01*
X65100D01*
X65600Y45897D01*
Y44897D01*
X65100Y44397D01*
X63101D01*
X62601Y47396D02*
X64600D01*
X65600Y48396D01*
X64600Y49396D01*
X62601D01*
X59601Y35900D02*
Y37899D01*
X58601Y36900D02*
X60600D01*
X61100Y38899D02*
Y39899D01*
Y39399D01*
X58101D01*
X58601Y38899D01*
X61100Y43398D02*
Y41398D01*
X59101Y43398D01*
X58601D01*
X58101Y42898D01*
Y41898D01*
X58601Y41398D01*
X61100Y44397D02*
X60600D01*
Y44897D01*
X61100D01*
Y44397D01*
X58601Y46896D02*
X58101Y47396D01*
Y48396D01*
X58601Y48896D01*
X60600D01*
X61100Y48396D01*
Y47396D01*
X60600Y46896D01*
X58601D01*
X58101Y49896D02*
X60100D01*
X61100Y50895D01*
X60100Y51895D01*
X58101D01*
D18*
X36500Y168499D02*
X38499Y164500D01*
X40499Y168499D01*
X42498Y164500D02*
X44497D01*
X43498D01*
Y170498D01*
X42498Y169498D01*
X79999Y155500D02*
X76000D01*
X79999Y159499D01*
Y160498D01*
X78999Y161498D01*
X77000D01*
X76000Y160498D01*
X81998D02*
X82998Y161498D01*
X84997D01*
X85997Y160498D01*
Y156500D01*
X84997Y155500D01*
X82998D01*
X81998Y156500D01*
Y160498D01*
X91995Y155500D02*
X87996D01*
X91995Y159499D01*
Y160498D01*
X90995Y161498D01*
X88996D01*
X87996Y160498D01*
X93994D02*
X94994Y161498D01*
X96993D01*
X97993Y160498D01*
Y156500D01*
X96993Y155500D01*
X94994D01*
X93994Y156500D01*
Y160498D01*
X58000Y170498D02*
Y164500D01*
Y166499D01*
X61999Y170498D01*
X59000Y167499D01*
X61999Y164500D01*
X63998D02*
Y170498D01*
X67997Y164500D01*
Y170498D01*
X73995D02*
X69996D01*
Y164500D01*
X73995D01*
X69996Y167499D02*
X71996D01*
X81992Y164500D02*
Y168499D01*
X83992Y170498D01*
X85991Y168499D01*
Y164500D01*
Y167499D01*
X81992D01*
X91989Y169498D02*
X90989Y170498D01*
X88990D01*
X87990Y169498D01*
Y165500D01*
X88990Y164500D01*
X90989D01*
X91989Y165500D01*
Y167499D01*
X89990D01*
X93988Y170498D02*
Y164500D01*
Y167499D01*
X97987D01*
Y170498D01*
Y164500D01*
X36007Y179498D02*
Y173500D01*
X40006D01*
X42005Y179498D02*
X44004D01*
X43005D01*
Y173500D01*
X42005D01*
X44004D01*
X51002Y179498D02*
X47004D01*
Y176499D01*
X49003D01*
X47004D01*
Y173500D01*
X53002Y179498D02*
X57000D01*
X55001D01*
Y173500D01*
X59000Y172500D02*
X62998D01*
X64998Y179498D02*
Y173500D01*
X67997D01*
X68997Y174499D01*
Y178498D01*
X67997Y179498D01*
X64998D01*
X70996Y173500D02*
Y179498D01*
X73995D01*
X74994Y178498D01*
Y176499D01*
X73995Y175499D01*
X70996D01*
X72995D02*
X74994Y173500D01*
X76994Y179498D02*
X78993D01*
X77994D01*
Y173500D01*
X76994D01*
X78993D01*
X81992Y179498D02*
Y175499D01*
X83992Y173500D01*
X85991Y175499D01*
Y179498D01*
X91989D02*
X87990D01*
Y173500D01*
X91989D01*
X87990Y176499D02*
X89990D01*
X93988Y173500D02*
Y179498D01*
X96987D01*
X97987Y178498D01*
Y176499D01*
X96987Y175499D01*
X93988D01*
X95988D02*
X97987Y173500D01*
D19*
X56232Y16000D02*
X52900D01*
X56232Y19332D01*
Y20165D01*
X55399Y20998D01*
X53733D01*
X52900Y20165D01*
X54900Y6000D02*
X56566D01*
X55733D01*
Y10998D01*
X54900Y10165D01*
X108900Y16000D02*
X110566D01*
X109733D01*
Y20998D01*
X108900Y20165D01*
X113065D02*
X113898Y20998D01*
X115565D01*
X116398Y20165D01*
Y16833D01*
X115565Y16000D01*
X113898D01*
X113065Y16833D01*
Y20165D01*
X108900Y6833D02*
X109733Y6000D01*
X111399D01*
X112232Y6833D01*
Y10165D01*
X111399Y10998D01*
X109733D01*
X108900Y10165D01*
Y9332D01*
X109733Y8499D01*
X112232D01*
X171600Y7200D02*
Y10199D01*
X173100D01*
X173599Y9699D01*
Y8699D01*
X173100Y8200D01*
X171600D01*
X172600D02*
X173599Y7200D01*
X174599Y9699D02*
X175099Y10199D01*
X176099D01*
X176598Y9699D01*
Y9199D01*
X176099Y8699D01*
X175599D01*
X176099D01*
X176598Y8200D01*
Y7700D01*
X176099Y7200D01*
X175099D01*
X174599Y7700D01*
X177598Y9699D02*
X178098Y10199D01*
X179098D01*
X179597Y9699D01*
Y9199D01*
X179098Y8699D01*
X178598D01*
X179098D01*
X179597Y8200D01*
Y7700D01*
X179098Y7200D01*
X178098D01*
X177598Y7700D01*
X171600Y12200D02*
Y15199D01*
X173100D01*
X173599Y14699D01*
Y13700D01*
X173100Y13200D01*
X171600D01*
X172600D02*
X173599Y12200D01*
X174599D02*
X175599D01*
X175099D01*
Y15199D01*
X174599Y14699D01*
X177098D02*
X177598Y15199D01*
X178598D01*
X179098Y14699D01*
Y14199D01*
X178598Y13700D01*
X178098D01*
X178598D01*
X179098Y13200D01*
Y12700D01*
X178598Y12200D01*
X177598D01*
X177098Y12700D01*
X171600Y17200D02*
Y20199D01*
X173100D01*
X173599Y19699D01*
Y18699D01*
X173100Y18200D01*
X171600D01*
X172600D02*
X173599Y17200D01*
X174599D02*
X175599D01*
X175099D01*
Y20199D01*
X174599Y19699D01*
X178598Y17200D02*
Y20199D01*
X177098Y18699D01*
X179098D01*
X171600Y22200D02*
Y25199D01*
X173100D01*
X173599Y24699D01*
Y23699D01*
X173100Y23200D01*
X171600D01*
X172600D02*
X173599Y22200D01*
X174599Y24699D02*
X175099Y25199D01*
X176099D01*
X176598Y24699D01*
Y24199D01*
X176099Y23699D01*
X175599D01*
X176099D01*
X176598Y23200D01*
Y22700D01*
X176099Y22200D01*
X175099D01*
X174599Y22700D01*
X179597Y22200D02*
X177598D01*
X179597Y24199D01*
Y24699D01*
X179098Y25199D01*
X178098D01*
X177598Y24699D01*
X140200Y52200D02*
X139700Y52700D01*
X138701D01*
X138201Y52200D01*
Y50200D01*
X138701Y49700D01*
X139700D01*
X140200Y50200D01*
X141200Y52200D02*
X141700Y52700D01*
X142699D01*
X143199Y52200D01*
Y51700D01*
X142699Y51200D01*
X143199Y50700D01*
Y50200D01*
X142699Y49700D01*
X141700D01*
X141200Y50200D01*
Y50700D01*
X141700Y51200D01*
X141200Y51700D01*
Y52200D01*
X141700Y51200D02*
X142699D01*
X260201Y81700D02*
X259701Y82200D01*
X258701D01*
X258201Y81700D01*
Y79700D01*
X258701Y79201D01*
X259701D01*
X260201Y79700D01*
X261200Y81700D02*
X261700Y82200D01*
X262700D01*
X263200Y81700D01*
Y81200D01*
X262700Y80700D01*
X262200D01*
X262700D01*
X263200Y80200D01*
Y79700D01*
X262700Y79201D01*
X261700D01*
X261200Y79700D01*
X265699Y79201D02*
Y82200D01*
X264199Y80700D01*
X266199D01*
X250201Y59700D02*
X249701Y60199D01*
X248701D01*
X248201Y59700D01*
Y57700D01*
X248701Y57200D01*
X249701D01*
X250201Y57700D01*
X251200Y59700D02*
X251700Y60199D01*
X252700D01*
X253200Y59700D01*
Y59200D01*
X252700Y58700D01*
X252200D01*
X252700D01*
X253200Y58200D01*
Y57700D01*
X252700Y57200D01*
X251700D01*
X251200Y57700D01*
X254199Y59700D02*
X254699Y60199D01*
X255699D01*
X256199Y59700D01*
Y59200D01*
X255699Y58700D01*
X255199D01*
X255699D01*
X256199Y58200D01*
Y57700D01*
X255699Y57200D01*
X254699D01*
X254199Y57700D01*
X259701Y91200D02*
X259201Y91699D01*
X258201D01*
X257701Y91200D01*
Y89200D01*
X258201Y88700D01*
X259201D01*
X259701Y89200D01*
X260700Y91200D02*
X261200Y91699D01*
X262200D01*
X262700Y91200D01*
Y90700D01*
X262200Y90200D01*
X261700D01*
X262200D01*
X262700Y89700D01*
Y89200D01*
X262200Y88700D01*
X261200D01*
X260700Y89200D01*
X265699Y88700D02*
X263699D01*
X265699Y90700D01*
Y91200D01*
X265199Y91699D01*
X264199D01*
X263699Y91200D01*
X250201Y112700D02*
X249701Y113199D01*
X248701D01*
X248201Y112700D01*
Y110700D01*
X248701Y110201D01*
X249701D01*
X250201Y110700D01*
X253200Y110201D02*
X251200D01*
X253200Y112200D01*
Y112700D01*
X252700Y113199D01*
X251700D01*
X251200Y112700D01*
X254199D02*
X254699Y113199D01*
X255699D01*
X256199Y112700D01*
Y112200D01*
X255699Y111700D01*
X255199D01*
X255699D01*
X256199Y111200D01*
Y110700D01*
X255699Y110201D01*
X254699D01*
X254199Y110700D01*
X231200Y21200D02*
X230700Y20700D01*
Y19701D01*
X231200Y19201D01*
X231700D01*
X232200Y19701D01*
Y20700D01*
X232700Y21200D01*
X233200D01*
X233699Y20700D01*
Y19701D01*
X233200Y19201D01*
X233699Y24199D02*
Y22200D01*
X231700Y24199D01*
X231200D01*
X230700Y23699D01*
Y22700D01*
X231200Y22200D01*
X105451Y86700D02*
Y89700D01*
X106951D01*
X107451Y89200D01*
Y88200D01*
X106951Y87700D01*
X105451D01*
X106451D02*
X107451Y86700D01*
X108450D02*
X109450D01*
X108950D01*
Y89700D01*
X108450Y89200D01*
X112949Y86700D02*
X110949D01*
X112949Y88700D01*
Y89200D01*
X112449Y89700D01*
X111449D01*
X110949Y89200D01*
X92701Y82700D02*
Y80200D01*
X93201Y79700D01*
X94200D01*
X94700Y80200D01*
Y82700D01*
X97199Y79700D02*
Y82700D01*
X95700Y81200D01*
X97699D01*
X102701Y82700D02*
X102201Y83200D01*
X101201D01*
X100701Y82700D01*
Y80700D01*
X101201Y80200D01*
X102201D01*
X102701Y80700D01*
X105700Y80200D02*
X103700D01*
X105700Y82200D01*
Y82700D01*
X105200Y83200D01*
X104200D01*
X103700Y82700D01*
X108699Y80200D02*
X106699D01*
X108699Y82200D01*
Y82700D01*
X108199Y83200D01*
X107199D01*
X106699Y82700D01*
X81700Y81701D02*
X81200Y81201D01*
Y80201D01*
X81700Y79701D01*
X83700D01*
X84200Y80201D01*
Y81201D01*
X83700Y81701D01*
X84200Y84700D02*
Y82700D01*
X82200Y84700D01*
X81700D01*
X81200Y84200D01*
Y83200D01*
X81700Y82700D01*
Y85699D02*
X81200Y86199D01*
Y87199D01*
X81700Y87699D01*
X83700D01*
X84200Y87199D01*
Y86199D01*
X83700Y85699D01*
X81700D01*
X86200Y81951D02*
X85701Y81451D01*
Y80451D01*
X86200Y79951D01*
X88200D01*
X88700Y80451D01*
Y81451D01*
X88200Y81951D01*
X88700Y82950D02*
Y83950D01*
Y83450D01*
X85701D01*
X86200Y82950D01*
X88200Y85449D02*
X88700Y85949D01*
Y86949D01*
X88200Y87449D01*
X86200D01*
X85701Y86949D01*
Y85949D01*
X86200Y85449D01*
X86700D01*
X87200Y85949D01*
Y87449D01*
X85701Y54699D02*
Y52200D01*
X86201Y51701D01*
X87200D01*
X87700Y52200D01*
Y54699D01*
X88700Y54200D02*
X89200Y54699D01*
X90199D01*
X90699Y54200D01*
Y53700D01*
X90199Y53200D01*
X89700D01*
X90199D01*
X90699Y52700D01*
Y52200D01*
X90199Y51701D01*
X89200D01*
X88700Y52200D01*
X76701Y47701D02*
Y50700D01*
X78201D01*
X78701Y50200D01*
Y49200D01*
X78201Y48700D01*
X76701D01*
X77701D02*
X78701Y47701D01*
X79700Y50200D02*
X80200Y50700D01*
X81200D01*
X81700Y50200D01*
Y49700D01*
X81200Y49200D01*
X80700D01*
X81200D01*
X81700Y48700D01*
Y48200D01*
X81200Y47701D01*
X80200D01*
X79700Y48200D01*
X82699Y50200D02*
X83199Y50700D01*
X84199D01*
X84699Y50200D01*
Y48200D01*
X84199Y47701D01*
X83199D01*
X82699Y48200D01*
Y50200D01*
X82501Y58646D02*
Y61645D01*
X84001D01*
X84501Y61145D01*
Y60146D01*
X84001Y59646D01*
X82501D01*
X83501D02*
X84501Y58646D01*
X87500D02*
X85500D01*
X87500Y60646D01*
Y61145D01*
X87000Y61645D01*
X86000D01*
X85500Y61145D01*
X88499Y59146D02*
X88999Y58646D01*
X89999D01*
X90499Y59146D01*
Y61145D01*
X89999Y61645D01*
X88999D01*
X88499Y61145D01*
Y60646D01*
X88999Y60146D01*
X90499D01*
X110201Y30200D02*
Y33200D01*
X111701D01*
X112201Y32700D01*
Y31700D01*
X111701Y31200D01*
X110201D01*
X111201D02*
X112201Y30200D01*
X115200D02*
X113200D01*
X115200Y32200D01*
Y32700D01*
X114700Y33200D01*
X113700D01*
X113200Y32700D01*
X118199Y33200D02*
X116199D01*
Y31700D01*
X117199Y32200D01*
X117699D01*
X118199Y31700D01*
Y30700D01*
X117699Y30200D01*
X116699D01*
X116199Y30700D01*
X51700Y23201D02*
X48700D01*
Y24701D01*
X49200Y25201D01*
X50200D01*
X50700Y24701D01*
Y23201D01*
Y24201D02*
X51700Y25201D01*
Y28200D02*
Y26200D01*
X49700Y28200D01*
X49200D01*
X48700Y27700D01*
Y26700D01*
X49200Y26200D01*
X51700Y30699D02*
X48700D01*
X50200Y29199D01*
Y31199D01*
X77201Y32201D02*
Y35199D01*
X78701D01*
X79201Y34700D01*
Y33700D01*
X78701Y33200D01*
X77201D01*
X78201D02*
X79201Y32201D01*
X80200Y34700D02*
X80700Y35199D01*
X81700D01*
X82200Y34700D01*
Y34200D01*
X81700Y33700D01*
X81200D01*
X81700D01*
X82200Y33200D01*
Y32700D01*
X81700Y32201D01*
X80700D01*
X80200Y32700D01*
X83199Y32201D02*
X84199D01*
X83699D01*
Y35199D01*
X83199Y34700D01*
X74999Y25001D02*
X72000D01*
Y26501D01*
X72500Y27001D01*
X73500D01*
X74000Y26501D01*
Y25001D01*
Y26001D02*
X74999Y27001D01*
Y30000D02*
Y28000D01*
X73000Y30000D01*
X72500D01*
X72000Y29500D01*
Y28500D01*
X72500Y28000D01*
X74999Y32999D02*
Y30999D01*
X73000Y32999D01*
X72500D01*
X72000Y32499D01*
Y31499D01*
X72500Y30999D01*
X171200Y68951D02*
X168201D01*
Y70451D01*
X168700Y70951D01*
X169700D01*
X170200Y70451D01*
Y68951D01*
Y69951D02*
X171200Y70951D01*
Y71950D02*
Y72950D01*
Y72450D01*
X168201D01*
X168700Y71950D01*
X170700Y74449D02*
X171200Y74949D01*
Y75949D01*
X170700Y76449D01*
X168700D01*
X168201Y75949D01*
Y74949D01*
X168700Y74449D01*
X169200D01*
X169700Y74949D01*
Y76449D01*
X175699Y69201D02*
X172701D01*
Y70701D01*
X173200Y71201D01*
X174200D01*
X174700Y70701D01*
Y69201D01*
Y70201D02*
X175699Y71201D01*
Y74200D02*
Y72200D01*
X173700Y74200D01*
X173200D01*
X172701Y73700D01*
Y72700D01*
X173200Y72200D01*
Y75199D02*
X172701Y75699D01*
Y76699D01*
X173200Y77199D01*
X175200D01*
X175699Y76699D01*
Y75699D01*
X175200Y75199D01*
X173200D01*
X108701Y39700D02*
Y42700D01*
X110201D01*
X110701Y42200D01*
Y41200D01*
X110201Y40700D01*
X108701D01*
X109701D02*
X110701Y39700D01*
X113700D02*
X111700D01*
X113700Y41700D01*
Y42200D01*
X113200Y42700D01*
X112200D01*
X111700Y42200D01*
X116699Y42700D02*
X115699Y42200D01*
X114699Y41200D01*
Y40200D01*
X115199Y39700D01*
X116199D01*
X116699Y40200D01*
Y40700D01*
X116199Y41200D01*
X114699D01*
X119201Y48201D02*
Y51200D01*
X120701D01*
X121201Y50700D01*
Y49700D01*
X120701Y49200D01*
X119201D01*
X120201D02*
X121201Y48201D01*
X124200D02*
X122200D01*
X124200Y50200D01*
Y50700D01*
X123700Y51200D01*
X122700D01*
X122200Y50700D01*
X125199Y51200D02*
X127199D01*
Y50700D01*
X125199Y48700D01*
Y48201D01*
X180200Y69201D02*
X177200D01*
Y70701D01*
X177700Y71201D01*
X178700D01*
X179200Y70701D01*
Y69201D01*
Y70201D02*
X180200Y71201D01*
Y74199D02*
Y72200D01*
X178200Y74199D01*
X177700D01*
X177200Y73700D01*
Y72700D01*
X177700Y72200D01*
X180200Y75199D02*
Y76199D01*
Y75699D01*
X177200D01*
X177700Y75199D01*
X56200Y23201D02*
X53201D01*
Y24701D01*
X53700Y25201D01*
X54700D01*
X55200Y24701D01*
Y23201D01*
Y24201D02*
X56200Y25201D01*
Y28200D02*
Y26200D01*
X54200Y28200D01*
X53700D01*
X53201Y27700D01*
Y26700D01*
X53700Y26200D01*
Y29199D02*
X53201Y29699D01*
Y30699D01*
X53700Y31199D01*
X54200D01*
X54700Y30699D01*
Y30199D01*
Y30699D01*
X55200Y31199D01*
X55700D01*
X56200Y30699D01*
Y29699D01*
X55700Y29199D01*
X77201Y24701D02*
Y27700D01*
X78700D01*
X79200Y27200D01*
Y26200D01*
X78700Y25700D01*
X77201D01*
X82199Y27700D02*
X80200D01*
Y26200D01*
X81200Y26700D01*
X81699D01*
X82199Y26200D01*
Y25200D01*
X81699Y24701D01*
X80700D01*
X80200Y25200D01*
X162700Y55701D02*
X165700D01*
Y57200D01*
X165200Y57700D01*
X163200D01*
X162700Y57200D01*
Y55701D01*
X165700Y60699D02*
Y58700D01*
X163700Y60699D01*
X163200D01*
X162700Y60199D01*
Y59200D01*
X163200Y58700D01*
X158201Y55701D02*
X161199D01*
Y57200D01*
X160700Y57700D01*
X158700D01*
X158201Y57200D01*
Y55701D01*
X161199Y58700D02*
Y59699D01*
Y59200D01*
X158201D01*
X158700Y58700D01*
X181201Y44201D02*
X184200D01*
Y45700D01*
X183700Y46200D01*
X181700D01*
X181201Y45700D01*
Y44201D01*
X181700Y47200D02*
X181201Y47700D01*
Y48699D01*
X181700Y49199D01*
X182200D01*
X182700Y48699D01*
Y48199D01*
Y48699D01*
X183200Y49199D01*
X183700D01*
X184200Y48699D01*
Y47700D01*
X183700Y47200D01*
X102451Y32700D02*
X101951Y33200D01*
X100951D01*
X100451Y32700D01*
Y30700D01*
X100951Y30200D01*
X101951D01*
X102451Y30700D01*
X103450Y30200D02*
X104450D01*
X103950D01*
Y33200D01*
X103450Y32700D01*
X105949D02*
X106449Y33200D01*
X107449D01*
X107949Y32700D01*
Y32200D01*
X107449Y31700D01*
X107949Y31200D01*
Y30700D01*
X107449Y30200D01*
X106449D01*
X105949Y30700D01*
Y31200D01*
X106449Y31700D01*
X105949Y32200D01*
Y32700D01*
X106449Y31700D02*
X107449D01*
X102451Y27700D02*
X101951Y28199D01*
X100951D01*
X100451Y27700D01*
Y25700D01*
X100951Y25201D01*
X101951D01*
X102451Y25700D01*
X103450Y25201D02*
X104450D01*
X103950D01*
Y28199D01*
X103450Y27700D01*
X105949Y28199D02*
X107949D01*
Y27700D01*
X105949Y25700D01*
Y25201D01*
X124201Y26199D02*
X126200Y23201D01*
Y26199D02*
X124201Y23201D01*
X127200D02*
X128199D01*
X127699D01*
Y26199D01*
X127200Y25700D01*
X125100Y99599D02*
Y97100D01*
X125600Y96600D01*
X126600D01*
X127099Y97100D01*
Y99599D01*
X130098Y96600D02*
X128099D01*
X130098Y98599D01*
Y99099D01*
X129599Y99599D01*
X128599D01*
X128099Y99099D01*
X103701Y130700D02*
Y128200D01*
X104200Y127700D01*
X105200D01*
X105700Y128200D01*
Y130700D01*
X106700Y127700D02*
X107699D01*
X107200D01*
Y130700D01*
X106700Y130200D01*
X77202Y126699D02*
X79201D01*
X78202D01*
Y123700D01*
X80201Y126699D02*
Y124700D01*
X81200Y123700D01*
X82200Y124700D01*
Y126699D01*
X85199Y126200D02*
X84699Y126699D01*
X83700D01*
X83200Y126200D01*
Y125700D01*
X83700Y125200D01*
X84699D01*
X85199Y124700D01*
Y124200D01*
X84699Y123700D01*
X83700D01*
X83200Y124200D01*
X88198Y126699D02*
X86199D01*
Y125200D01*
X87199Y125700D01*
X87698D01*
X88198Y125200D01*
Y124200D01*
X87698Y123700D01*
X86699D01*
X86199Y124200D01*
X148200Y21700D02*
X147701Y21200D01*
Y20200D01*
X148200Y19701D01*
X148700D01*
X149200Y20200D01*
Y21200D01*
X149700Y21700D01*
X150200D01*
X150699Y21200D01*
Y20200D01*
X150200Y19701D01*
X150699Y22700D02*
Y23699D01*
Y23200D01*
X147701D01*
X148200Y22700D01*
X57201Y94200D02*
Y97199D01*
X58701D01*
X59201Y96700D01*
Y95700D01*
X58701Y95200D01*
X57201D01*
X58201D02*
X59201Y94200D01*
X62200D02*
X60200D01*
X62200Y96200D01*
Y96700D01*
X61700Y97199D01*
X60700D01*
X60200Y96700D01*
X63199D02*
X63699Y97199D01*
X64699D01*
X65199Y96700D01*
Y96200D01*
X64699Y95700D01*
X65199Y95200D01*
Y94700D01*
X64699Y94200D01*
X63699D01*
X63199Y94700D01*
Y95200D01*
X63699Y95700D01*
X63199Y96200D01*
Y96700D01*
X63699Y95700D02*
X64699D01*
X116451Y71701D02*
Y74699D01*
X117951D01*
X118451Y74200D01*
Y73200D01*
X117951Y72700D01*
X116451D01*
X117451D02*
X118451Y71701D01*
X119450D02*
X120450D01*
X119950D01*
Y74699D01*
X119450Y74200D01*
X121949D02*
X122449Y74699D01*
X123449D01*
X123949Y74200D01*
Y73700D01*
X123449Y73200D01*
X123949Y72700D01*
Y72200D01*
X123449Y71701D01*
X122449D01*
X121949Y72200D01*
Y72700D01*
X122449Y73200D01*
X121949Y73700D01*
Y74200D01*
X122449Y73200D02*
X123449D01*
X154200Y36451D02*
X151200D01*
Y37951D01*
X151700Y38451D01*
X152700D01*
X153200Y37951D01*
Y36451D01*
Y37451D02*
X154200Y38451D01*
Y39450D02*
Y40450D01*
Y39950D01*
X151200D01*
X151700Y39450D01*
X151200Y41949D02*
Y43949D01*
X151700D01*
X153700Y41949D01*
X154200D01*
X66951Y123700D02*
Y126699D01*
X68451D01*
X68951Y126200D01*
Y125200D01*
X68451Y124700D01*
X66951D01*
X67951D02*
X68951Y123700D01*
X69950D02*
X70950D01*
X70450D01*
Y126699D01*
X69950Y126200D01*
X74449Y126699D02*
X73449Y126200D01*
X72449Y125200D01*
Y124200D01*
X72949Y123700D01*
X73949D01*
X74449Y124200D01*
Y124700D01*
X73949Y125200D01*
X72449D01*
X57951Y136200D02*
Y139199D01*
X59451D01*
X59951Y138700D01*
Y137700D01*
X59451Y137200D01*
X57951D01*
X58951D02*
X59951Y136200D01*
X60950D02*
X61950D01*
X61450D01*
Y139199D01*
X60950Y138700D01*
X65449Y139199D02*
X63449D01*
Y137700D01*
X64449Y138200D01*
X64949D01*
X65449Y137700D01*
Y136700D01*
X64949Y136200D01*
X63949D01*
X63449Y136700D01*
X134451Y111200D02*
Y114199D01*
X135951D01*
X136450Y113700D01*
Y112700D01*
X135951Y112200D01*
X134451D01*
X135451D02*
X136450Y111200D01*
X137450D02*
X138450D01*
X137950D01*
Y114199D01*
X137450Y113700D01*
X139949Y111200D02*
X140949D01*
X140449D01*
Y114199D01*
X139949Y113700D01*
X134451Y106201D02*
Y109200D01*
X135951D01*
X136451Y108700D01*
Y107700D01*
X135951Y107200D01*
X134451D01*
X135451D02*
X136451Y106201D01*
X137450D02*
X138450D01*
X137950D01*
Y109200D01*
X137450Y108700D01*
X139949D02*
X140449Y109200D01*
X141449D01*
X141949Y108700D01*
Y106700D01*
X141449Y106201D01*
X140449D01*
X139949Y106700D01*
Y108700D01*
X134701Y116200D02*
Y119200D01*
X136200D01*
X136700Y118700D01*
Y117700D01*
X136200Y117200D01*
X134701D01*
X135701D02*
X136700Y116200D01*
X137700Y116700D02*
X138200Y116200D01*
X139199D01*
X139699Y116700D01*
Y118700D01*
X139199Y119200D01*
X138200D01*
X137700Y118700D01*
Y118200D01*
X138200Y117700D01*
X139699D01*
X134701Y121201D02*
Y124199D01*
X136200D01*
X136700Y123700D01*
Y122700D01*
X136200Y122200D01*
X134701D01*
X135701D02*
X136700Y121201D01*
X137700Y123700D02*
X138200Y124199D01*
X139199D01*
X139699Y123700D01*
Y123200D01*
X139199Y122700D01*
X139699Y122200D01*
Y121700D01*
X139199Y121201D01*
X138200D01*
X137700Y121700D01*
Y122200D01*
X138200Y122700D01*
X137700Y123200D01*
Y123700D01*
X138200Y122700D02*
X139199D01*
X179201Y102700D02*
Y105700D01*
X180700D01*
X181200Y105200D01*
Y104200D01*
X180700Y103700D01*
X179201D01*
X180201D02*
X181200Y102700D01*
X182200Y105700D02*
X184199D01*
Y105200D01*
X182200Y103200D01*
Y102700D01*
X179201Y93700D02*
Y96700D01*
X180700D01*
X181200Y96200D01*
Y95200D01*
X180700Y94700D01*
X179201D01*
X180201D02*
X181200Y93700D01*
X184199Y96700D02*
X183200Y96200D01*
X182200Y95200D01*
Y94200D01*
X182700Y93700D01*
X183699D01*
X184199Y94200D01*
Y94700D01*
X183699Y95200D01*
X182200D01*
X179201Y98201D02*
Y101199D01*
X180700D01*
X181200Y100700D01*
Y99700D01*
X180700Y99200D01*
X179201D01*
X180201D02*
X181200Y98201D01*
X184199Y101199D02*
X182200D01*
Y99700D01*
X183200Y100200D01*
X183699D01*
X184199Y99700D01*
Y98700D01*
X183699Y98201D01*
X182700D01*
X182200Y98700D01*
X131700Y86701D02*
X128700D01*
Y88200D01*
X129200Y88700D01*
X130200D01*
X130700Y88200D01*
Y86701D01*
Y87700D02*
X131700Y88700D01*
Y91199D02*
X128700D01*
X130200Y89700D01*
Y91699D01*
X127199Y86701D02*
X124200D01*
Y88200D01*
X124700Y88700D01*
X125700D01*
X126200Y88200D01*
Y86701D01*
Y87700D02*
X127199Y88700D01*
X124700Y89700D02*
X124200Y90200D01*
Y91199D01*
X124700Y91699D01*
X125200D01*
X125700Y91199D01*
Y90699D01*
Y91199D01*
X126200Y91699D01*
X126700D01*
X127199Y91199D01*
Y90200D01*
X126700Y89700D01*
X232701Y36200D02*
Y39200D01*
X234200D01*
X234700Y38700D01*
Y37700D01*
X234200Y37200D01*
X232701D01*
X233700D02*
X234700Y36200D01*
X237699D02*
X235700D01*
X237699Y38200D01*
Y38700D01*
X237199Y39200D01*
X236200D01*
X235700Y38700D01*
X175200Y125200D02*
Y128199D01*
X176699D01*
X177199Y127699D01*
Y126699D01*
X176699Y126200D01*
X175200D01*
X176200D02*
X177199Y125200D01*
X178199D02*
X179199D01*
X178699D01*
Y128199D01*
X178199Y127699D01*
X172699Y110701D02*
X169701D01*
Y112200D01*
X170200Y112700D01*
X171200D01*
X171700Y112200D01*
Y110701D01*
X172699Y115199D02*
X169701D01*
X171200Y113700D01*
Y115699D01*
X269701Y60701D02*
Y63700D01*
X271200D01*
X271700Y63200D01*
Y62200D01*
X271200Y61700D01*
X269701D01*
X274699Y60701D02*
X272700D01*
X274699Y62700D01*
Y63200D01*
X274199Y63700D01*
X273200D01*
X272700Y63200D01*
X184202Y126700D02*
Y129700D01*
X185201Y128700D01*
X186201Y129700D01*
Y126700D01*
X188700Y129700D02*
X187700D01*
X187201Y129200D01*
Y127200D01*
X187700Y126700D01*
X188700D01*
X189200Y127200D01*
Y129200D01*
X188700Y129700D01*
X190200D02*
Y126700D01*
X191699D01*
X192199Y127200D01*
Y129200D01*
X191699Y129700D01*
X190200D01*
X193199Y126700D02*
X194198D01*
X193699D01*
Y129700D01*
X193199Y129200D01*
X48200Y159699D02*
X47200D01*
X47700D01*
Y157200D01*
X47200Y156701D01*
X46701D01*
X46201Y157200D01*
X49200Y156701D02*
X50199D01*
X49700D01*
Y159699D01*
X49200Y159200D01*
X95701Y90200D02*
X93701D01*
Y88700D01*
X94701D01*
X93701D01*
Y87200D01*
X96700Y90200D02*
Y87200D01*
X98200D01*
X98700Y87700D01*
Y88200D01*
X98200Y88700D01*
X96700D01*
X98200D01*
X98700Y89200D01*
Y89700D01*
X98200Y90200D01*
X96700D01*
X99699Y89700D02*
X100199Y90200D01*
X101199D01*
X101699Y89700D01*
Y89200D01*
X101199Y88700D01*
X100699D01*
X101199D01*
X101699Y88200D01*
Y87700D01*
X101199Y87200D01*
X100199D01*
X99699Y87700D01*
X72201Y83200D02*
X70201D01*
Y81700D01*
X71201D01*
X70201D01*
Y80200D01*
X73200Y83200D02*
Y80200D01*
X74700D01*
X75200Y80700D01*
Y81200D01*
X74700Y81700D01*
X73200D01*
X74700D01*
X75200Y82200D01*
Y82700D01*
X74700Y83200D01*
X73200D01*
X76199Y80200D02*
X77199D01*
X76699D01*
Y83200D01*
X76199Y82700D01*
X59701Y92200D02*
X59201Y92699D01*
X58201D01*
X57701Y92200D01*
Y90200D01*
X58201Y89701D01*
X59201D01*
X59701Y90200D01*
X60700Y92200D02*
X61200Y92699D01*
X62200D01*
X62700Y92200D01*
Y91700D01*
X62200Y91200D01*
X61700D01*
X62200D01*
X62700Y90700D01*
Y90200D01*
X62200Y89701D01*
X61200D01*
X60700Y90200D01*
X63699Y89701D02*
X64699D01*
X64199D01*
Y92699D01*
X63699Y92200D01*
X71701Y99700D02*
X71201Y100199D01*
X70201D01*
X69701Y99700D01*
Y97700D01*
X70201Y97201D01*
X71201D01*
X71701Y97700D01*
X72700Y99700D02*
X73200Y100199D01*
X74200D01*
X74700Y99700D01*
Y99200D01*
X74200Y98700D01*
X73700D01*
X74200D01*
X74700Y98200D01*
Y97700D01*
X74200Y97201D01*
X73200D01*
X72700Y97700D01*
X75699Y99700D02*
X76199Y100199D01*
X77199D01*
X77699Y99700D01*
Y97700D01*
X77199Y97201D01*
X76199D01*
X75699Y97700D01*
Y99700D01*
X57200Y128701D02*
X56700Y128201D01*
Y127201D01*
X57200Y126701D01*
X59200D01*
X59699Y127201D01*
Y128201D01*
X59200Y128701D01*
X59699Y131700D02*
Y129700D01*
X57700Y131700D01*
X57200D01*
X56700Y131200D01*
Y130200D01*
X57200Y129700D01*
X59200Y132699D02*
X59699Y133199D01*
Y134199D01*
X59200Y134699D01*
X57200D01*
X56700Y134199D01*
Y133199D01*
X57200Y132699D01*
X57700D01*
X58200Y133199D01*
Y134699D01*
X63200Y128701D02*
X62700Y128201D01*
Y127201D01*
X63200Y126701D01*
X65200D01*
X65699Y127201D01*
Y128201D01*
X65200Y128701D01*
X65699Y131700D02*
Y129700D01*
X63700Y131700D01*
X63200D01*
X62700Y131200D01*
Y130200D01*
X63200Y129700D01*
Y132699D02*
X62700Y133199D01*
Y134199D01*
X63200Y134699D01*
X63700D01*
X64200Y134199D01*
X64700Y134699D01*
X65200D01*
X65699Y134199D01*
Y133199D01*
X65200Y132699D01*
X64700D01*
X64200Y133199D01*
X63700Y132699D01*
X63200D01*
X64200Y133199D02*
Y134199D01*
X60201Y143200D02*
X59701Y143700D01*
X58701D01*
X58201Y143200D01*
Y141200D01*
X58701Y140700D01*
X59701D01*
X60201Y141200D01*
X63200Y140700D02*
X61200D01*
X63200Y142700D01*
Y143200D01*
X62700Y143700D01*
X61700D01*
X61200Y143200D01*
X64199Y143700D02*
X66199D01*
Y143200D01*
X64199Y141200D01*
Y140700D01*
X79201Y130700D02*
X78701Y131200D01*
X77701D01*
X77201Y130700D01*
Y128700D01*
X77701Y128200D01*
X78701D01*
X79201Y128700D01*
X82200Y128200D02*
X80200D01*
X82200Y130200D01*
Y130700D01*
X81700Y131200D01*
X80700D01*
X80200Y130700D01*
X85199Y131200D02*
X84199Y130700D01*
X83199Y129700D01*
Y128700D01*
X83699Y128200D01*
X84699D01*
X85199Y128700D01*
Y129200D01*
X84699Y129700D01*
X83199D01*
X73201Y91200D02*
X72701Y91699D01*
X71701D01*
X71201Y91200D01*
Y89200D01*
X71701Y88700D01*
X72701D01*
X73201Y89200D01*
X76200Y88700D02*
X74200D01*
X76200Y90700D01*
Y91200D01*
X75700Y91699D01*
X74700D01*
X74200Y91200D01*
X79199Y91699D02*
X77199D01*
Y90200D01*
X78199Y90700D01*
X78699D01*
X79199Y90200D01*
Y89200D01*
X78699Y88700D01*
X77699D01*
X77199Y89200D01*
X73201Y95200D02*
X72701Y95700D01*
X71701D01*
X71201Y95200D01*
Y93200D01*
X71701Y92700D01*
X72701D01*
X73201Y93200D01*
X76200Y92700D02*
X74200D01*
X76200Y94700D01*
Y95200D01*
X75700Y95700D01*
X74700D01*
X74200Y95200D01*
X78699Y92700D02*
Y95700D01*
X77199Y94200D01*
X79199D01*
X100200Y58451D02*
X99700Y57951D01*
Y56951D01*
X100200Y56451D01*
X102200D01*
X102699Y56951D01*
Y57951D01*
X102200Y58451D01*
X102699Y59450D02*
Y60450D01*
Y59950D01*
X99700D01*
X100200Y59450D01*
X99700Y63949D02*
X100200Y62949D01*
X101200Y61949D01*
X102200D01*
X102699Y62449D01*
Y63449D01*
X102200Y63949D01*
X101700D01*
X101200Y63449D01*
Y61949D01*
X162200Y88451D02*
X161700Y87951D01*
Y86951D01*
X162200Y86451D01*
X164200D01*
X164699Y86951D01*
Y87951D01*
X164200Y88451D01*
X164699Y89450D02*
Y90450D01*
Y89950D01*
X161700D01*
X162200Y89450D01*
X161700Y93949D02*
Y91949D01*
X163200D01*
X162700Y92949D01*
Y93449D01*
X163200Y93949D01*
X164200D01*
X164699Y93449D01*
Y92449D01*
X164200Y91949D01*
X122700Y55451D02*
X122201Y54951D01*
Y53951D01*
X122700Y53451D01*
X124700D01*
X125199Y53951D01*
Y54951D01*
X124700Y55451D01*
X125199Y56450D02*
Y57450D01*
Y56950D01*
X122201D01*
X122700Y56450D01*
X125199Y60449D02*
X122201D01*
X123700Y58949D01*
Y60949D01*
X164700Y42451D02*
X164200Y41951D01*
Y40951D01*
X164700Y40451D01*
X166700D01*
X167200Y40951D01*
Y41951D01*
X166700Y42451D01*
X167200Y43450D02*
Y44450D01*
Y43950D01*
X164200D01*
X164700Y43450D01*
Y45949D02*
X164200Y46449D01*
Y47449D01*
X164700Y47949D01*
X165200D01*
X165700Y47449D01*
Y46949D01*
Y47449D01*
X166200Y47949D01*
X166700D01*
X167200Y47449D01*
Y46449D01*
X166700Y45949D01*
X143451Y97200D02*
X142951Y97699D01*
X141951D01*
X141451Y97200D01*
Y95200D01*
X141951Y94700D01*
X142951D01*
X143451Y95200D01*
X144450Y94700D02*
X145450D01*
X144950D01*
Y97699D01*
X144450Y97200D01*
X148949Y94700D02*
X146949D01*
X148949Y96700D01*
Y97200D01*
X148449Y97699D01*
X147449D01*
X146949Y97200D01*
X104700Y58451D02*
X104200Y57951D01*
Y56951D01*
X104700Y56451D01*
X106700D01*
X107200Y56951D01*
Y57951D01*
X106700Y58451D01*
X107200Y59450D02*
Y60450D01*
Y59950D01*
X104200D01*
X104700Y59450D01*
Y61949D02*
X104200Y62449D01*
Y63449D01*
X104700Y63949D01*
X106700D01*
X107200Y63449D01*
Y62449D01*
X106700Y61949D01*
X104700D01*
X133700Y52200D02*
X133200Y52700D01*
X132201D01*
X131701Y52200D01*
Y50200D01*
X132201Y49700D01*
X133200D01*
X133700Y50200D01*
X134700D02*
X135200Y49700D01*
X136199D01*
X136699Y50200D01*
Y52200D01*
X136199Y52700D01*
X135200D01*
X134700Y52200D01*
Y51700D01*
X135200Y51200D01*
X136699D01*
X117200Y146200D02*
X116700Y146700D01*
X115701D01*
X115201Y146200D01*
Y144200D01*
X115701Y143701D01*
X116700D01*
X117200Y144200D01*
X118200Y146700D02*
X120199D01*
Y146200D01*
X118200Y144200D01*
Y143701D01*
X117200Y150700D02*
X116700Y151199D01*
X115701D01*
X115201Y150700D01*
Y148700D01*
X115701Y148201D01*
X116700D01*
X117200Y148700D01*
X120199Y151199D02*
X119200Y150700D01*
X118200Y149700D01*
Y148700D01*
X118700Y148201D01*
X119699D01*
X120199Y148700D01*
Y149200D01*
X119699Y149700D01*
X118200D01*
X117200Y155200D02*
X116700Y155700D01*
X115701D01*
X115201Y155200D01*
Y153200D01*
X115701Y152700D01*
X116700D01*
X117200Y153200D01*
X120199Y155700D02*
X118200D01*
Y154200D01*
X119200Y154700D01*
X119699D01*
X120199Y154200D01*
Y153200D01*
X119699Y152700D01*
X118700D01*
X118200Y153200D01*
X253700Y40700D02*
X253201Y40200D01*
Y39201D01*
X253700Y38701D01*
X255700D01*
X256200Y39201D01*
Y40200D01*
X255700Y40700D01*
X256200Y43199D02*
X253201D01*
X254700Y41700D01*
Y43699D01*
X249200Y40200D02*
X248700Y39700D01*
Y38701D01*
X249200Y38201D01*
X251200D01*
X251699Y38701D01*
Y39700D01*
X251200Y40200D01*
X249200Y41200D02*
X248700Y41700D01*
Y42699D01*
X249200Y43199D01*
X249700D01*
X250200Y42699D01*
Y42200D01*
Y42699D01*
X250700Y43199D01*
X251200D01*
X251699Y42699D01*
Y41700D01*
X251200Y41200D01*
X227700Y114700D02*
X227201Y114200D01*
Y113201D01*
X227700Y112701D01*
X229700D01*
X230200Y113201D01*
Y114200D01*
X229700Y114700D01*
X230200Y117699D02*
Y115700D01*
X228200Y117699D01*
X227700D01*
X227201Y117199D01*
Y116200D01*
X227700Y115700D01*
X204700Y173200D02*
X204200Y173699D01*
X203201D01*
X202701Y173200D01*
Y171200D01*
X203201Y170701D01*
X204200D01*
X204700Y171200D01*
X205700Y170701D02*
X206699D01*
X206200D01*
Y173699D01*
X205700Y173200D01*
X103700Y139702D02*
X100700D01*
X101700Y140701D01*
X100700Y141701D01*
X103700D01*
X100700Y144200D02*
Y143201D01*
X101200Y142701D01*
X103200D01*
X103700Y143201D01*
Y144200D01*
X103200Y144700D01*
X101200D01*
X100700Y144200D01*
Y145700D02*
X103700D01*
Y147199D01*
X103200Y147699D01*
X101200D01*
X100700Y147199D01*
Y145700D01*
X103700Y150698D02*
Y148699D01*
X101700Y150698D01*
X101200D01*
X100700Y150198D01*
Y149199D01*
X101200Y148699D01*
M02*
