G04*
G04 #@! TF.GenerationSoftware,Altium Limited,Altium Designer,20.0.13 (296)*
G04*
G04 Layer_Color=8421504*
%FSLAX25Y25*%
%MOIN*%
G70*
G01*
G75*
%ADD20R,0.02500X0.02500*%
%ADD21R,0.02953X0.03150*%
%ADD22R,0.07000X0.06400*%
%ADD23R,0.03150X0.02953*%
%ADD24R,0.08000X0.02600*%
%ADD25R,0.05118X0.02362*%
%ADD26R,0.01772X0.01772*%
%ADD27O,0.01181X0.03347*%
%ADD28O,0.03347X0.01181*%
G04:AMPARAMS|DCode=29|XSize=68.9mil|YSize=98.43mil|CornerRadius=3.45mil|HoleSize=0mil|Usage=FLASHONLY|Rotation=90.000|XOffset=0mil|YOffset=0mil|HoleType=Round|Shape=RoundedRectangle|*
%AMROUNDEDRECTD29*
21,1,0.06890,0.09153,0,0,90.0*
21,1,0.06201,0.09843,0,0,90.0*
1,1,0.00689,0.04577,0.03100*
1,1,0.00689,0.04577,-0.03100*
1,1,0.00689,-0.04577,-0.03100*
1,1,0.00689,-0.04577,0.03100*
%
%ADD29ROUNDEDRECTD29*%
%ADD30R,0.01772X0.01968*%
%ADD31R,0.04200X0.05500*%
%ADD32R,0.02165X0.01772*%
%ADD33R,0.09449X0.02992*%
%ADD34R,0.16535X0.05906*%
%ADD35R,0.03150X0.03150*%
%ADD36R,0.04331X0.05906*%
%ADD37R,0.07874X0.07087*%
%ADD38R,0.07087X0.04724*%
%ADD39O,0.07087X0.01181*%
%ADD40O,0.01181X0.07087*%
D20*
X95150Y40750D02*
D03*
Y44250D02*
D03*
X98650D02*
D03*
Y40750D02*
D03*
D21*
X237409Y42300D02*
D03*
X231700D02*
D03*
X123391Y154300D02*
D03*
X129100D02*
D03*
X123446Y149800D02*
D03*
X129154D02*
D03*
X123446Y145400D02*
D03*
X129154D02*
D03*
X152209Y51100D02*
D03*
X146500D02*
D03*
X78600Y120800D02*
D03*
X84309D02*
D03*
X78600Y103000D02*
D03*
X84309D02*
D03*
X88154Y97900D02*
D03*
X82446D02*
D03*
X88154Y93400D02*
D03*
X82446D02*
D03*
X58346Y119200D02*
D03*
X64054D02*
D03*
X58346Y123700D02*
D03*
X64054D02*
D03*
X58246Y104600D02*
D03*
X63954D02*
D03*
X58246Y100100D02*
D03*
X63954D02*
D03*
X116291Y68900D02*
D03*
X122000D02*
D03*
X126100Y122900D02*
D03*
X131809D02*
D03*
Y117900D02*
D03*
X126100D02*
D03*
X131809Y112900D02*
D03*
X126100D02*
D03*
Y107900D02*
D03*
X131809D02*
D03*
X132746Y98900D02*
D03*
X138454D02*
D03*
X178346Y85200D02*
D03*
X184054D02*
D03*
X178346Y90200D02*
D03*
X184054D02*
D03*
X178346Y80200D02*
D03*
X184054D02*
D03*
X172846Y43700D02*
D03*
X178554D02*
D03*
X172846Y38700D02*
D03*
X178554D02*
D03*
X172846Y28700D02*
D03*
X178554D02*
D03*
X172846Y33700D02*
D03*
X178554D02*
D03*
X146409Y46800D02*
D03*
X140700D02*
D03*
X136554D02*
D03*
X130846D02*
D03*
X110046Y52500D02*
D03*
X115754D02*
D03*
X110046Y45500D02*
D03*
X115754D02*
D03*
X109846Y35700D02*
D03*
X115554D02*
D03*
X91546Y31500D02*
D03*
X97254D02*
D03*
X91546Y27000D02*
D03*
X97254D02*
D03*
X83700Y44700D02*
D03*
X77991D02*
D03*
X83754Y38500D02*
D03*
X78046D02*
D03*
X182200Y120200D02*
D03*
X176491D02*
D03*
D22*
X261700Y110400D02*
D03*
Y97000D02*
D03*
X252600Y103700D02*
D03*
Y90300D02*
D03*
X261700Y73600D02*
D03*
Y60200D02*
D03*
X252600Y80200D02*
D03*
Y66800D02*
D03*
X70800Y118600D02*
D03*
Y105200D02*
D03*
D23*
X254600Y52500D02*
D03*
Y46791D02*
D03*
X250100Y52554D02*
D03*
Y46846D02*
D03*
X116500Y81846D02*
D03*
Y87554D02*
D03*
X111700Y77354D02*
D03*
Y71646D02*
D03*
X63956Y114754D02*
D03*
Y109046D02*
D03*
X58300Y114754D02*
D03*
Y109046D02*
D03*
X119200Y58691D02*
D03*
Y64400D02*
D03*
X114700Y58691D02*
D03*
Y64400D02*
D03*
X110200Y58691D02*
D03*
Y64400D02*
D03*
X107200Y77354D02*
D03*
Y71646D02*
D03*
X93500Y54646D02*
D03*
Y60354D02*
D03*
X87100Y77254D02*
D03*
Y71546D02*
D03*
X82600Y77254D02*
D03*
Y71546D02*
D03*
X121000Y81846D02*
D03*
Y87554D02*
D03*
X233700Y118154D02*
D03*
Y112446D02*
D03*
X167800Y89000D02*
D03*
Y83291D02*
D03*
X178600Y66809D02*
D03*
Y61100D02*
D03*
X173900Y66809D02*
D03*
Y61100D02*
D03*
X169300Y66809D02*
D03*
Y61100D02*
D03*
X161600Y45400D02*
D03*
Y51109D02*
D03*
X156900Y51000D02*
D03*
Y45291D02*
D03*
X68700Y32054D02*
D03*
Y26346D02*
D03*
X64200Y32054D02*
D03*
Y26346D02*
D03*
X59700Y32054D02*
D03*
Y26346D02*
D03*
D24*
X96300Y108900D02*
D03*
X118300Y123900D02*
D03*
X96300D02*
D03*
Y118900D02*
D03*
Y113900D02*
D03*
X118300Y118900D02*
D03*
Y113900D02*
D03*
Y108900D02*
D03*
X96300Y103900D02*
D03*
Y98900D02*
D03*
Y93900D02*
D03*
X118300Y103900D02*
D03*
Y98900D02*
D03*
Y93900D02*
D03*
D25*
X86934Y111900D02*
D03*
X78666Y108160D02*
D03*
Y115640D02*
D03*
D26*
X88225Y89400D02*
D03*
X91375D02*
D03*
D27*
X93947Y35807D02*
D03*
X99853D02*
D03*
Y49193D02*
D03*
X93947D02*
D03*
D28*
X103593Y38563D02*
D03*
Y40532D02*
D03*
Y42500D02*
D03*
Y44469D02*
D03*
Y46437D02*
D03*
X90207D02*
D03*
Y44469D02*
D03*
Y42500D02*
D03*
Y40532D02*
D03*
Y38563D02*
D03*
D29*
X98700Y72200D02*
D03*
D30*
X94960Y77318D02*
D03*
X102440Y67082D02*
D03*
X94960D02*
D03*
X102440Y77318D02*
D03*
X98700D02*
D03*
X98700Y67082D02*
D03*
D31*
X77500Y75600D02*
D03*
X70500D02*
D03*
D32*
X111700Y84343D02*
D03*
Y80800D02*
D03*
D33*
X162900Y103300D02*
D03*
Y108300D02*
D03*
Y113300D02*
D03*
Y118300D02*
D03*
Y123300D02*
D03*
X147546D02*
D03*
Y118300D02*
D03*
Y113300D02*
D03*
Y108300D02*
D03*
Y103300D02*
D03*
D34*
X202621Y149100D02*
D03*
X236179D02*
D03*
D35*
X178600Y56754D02*
D03*
Y50849D02*
D03*
X173900Y56754D02*
D03*
Y50849D02*
D03*
X169300Y56754D02*
D03*
Y50849D02*
D03*
D36*
X220000Y40420D02*
D03*
Y5380D02*
D03*
X210000Y40420D02*
D03*
Y5380D02*
D03*
X200000Y40420D02*
D03*
Y5380D02*
D03*
X190000Y40420D02*
D03*
Y5380D02*
D03*
D37*
X159400Y6946D02*
D03*
Y37654D02*
D03*
D38*
X144374Y31176D02*
D03*
X128626D02*
D03*
X144374Y40624D02*
D03*
X128626D02*
D03*
D39*
X128955Y62373D02*
D03*
Y64342D02*
D03*
Y66310D02*
D03*
Y68279D02*
D03*
Y70247D02*
D03*
Y72216D02*
D03*
Y74184D02*
D03*
Y76153D02*
D03*
Y78121D02*
D03*
Y80090D02*
D03*
Y82058D02*
D03*
Y84027D02*
D03*
X160845D02*
D03*
Y82058D02*
D03*
Y80090D02*
D03*
Y78121D02*
D03*
Y76153D02*
D03*
Y74184D02*
D03*
Y72216D02*
D03*
Y70247D02*
D03*
Y68279D02*
D03*
Y66310D02*
D03*
Y64342D02*
D03*
Y62373D02*
D03*
D40*
X134073Y89145D02*
D03*
X136042D02*
D03*
X138010D02*
D03*
X139979D02*
D03*
X141947D02*
D03*
X143916D02*
D03*
X145884D02*
D03*
X147853D02*
D03*
X149821D02*
D03*
X151790D02*
D03*
X153758D02*
D03*
X155727D02*
D03*
Y57255D02*
D03*
X153758D02*
D03*
X151790D02*
D03*
X149821D02*
D03*
X147853D02*
D03*
X145884D02*
D03*
X143916D02*
D03*
X141947D02*
D03*
X139979D02*
D03*
X138010D02*
D03*
X136042D02*
D03*
X134073D02*
D03*
M02*
