G04*
G04 #@! TF.GenerationSoftware,Altium Limited,Altium Designer,20.0.13 (296)*
G04*
G04 Layer_Color=16711935*
%FSLAX25Y25*%
%MOIN*%
G70*
G01*
G75*
%ADD62C,0.18307*%
%ADD63C,0.07677*%
%ADD64C,0.06496*%
%ADD65R,0.06496X0.06496*%
%ADD66C,0.12402*%
%ADD67C,0.24213*%
%ADD68O,0.08465X0.06496*%
%ADD69O,0.08465X0.06496*%
%ADD70R,0.06496X0.06496*%
D62*
X44791Y143340D02*
D03*
Y44954D02*
D03*
D63*
X50381Y94147D02*
D03*
Y83242D02*
D03*
Y72336D02*
D03*
Y105053D02*
D03*
Y115958D02*
D03*
X39200Y99600D02*
D03*
Y110505D02*
D03*
Y88695D02*
D03*
Y77789D02*
D03*
D64*
X160900Y137200D02*
D03*
X150900D02*
D03*
X140900D02*
D03*
X130900D02*
D03*
X120900D02*
D03*
X170900D02*
D03*
X102900Y8000D02*
D03*
Y18000D02*
D03*
X82900D02*
D03*
Y8000D02*
D03*
X72900Y18000D02*
D03*
Y8000D02*
D03*
X62900Y18000D02*
D03*
X92900Y8000D02*
D03*
Y18000D02*
D03*
X211700Y60200D02*
D03*
Y70200D02*
D03*
X221700Y60200D02*
D03*
Y70200D02*
D03*
X231700Y60200D02*
D03*
X201700Y70200D02*
D03*
Y60200D02*
D03*
X221700Y50200D02*
D03*
X211700D02*
D03*
X201700D02*
D03*
X272200Y90300D02*
D03*
Y80300D02*
D03*
Y70300D02*
D03*
D65*
X110900Y137200D02*
D03*
X62900Y8000D02*
D03*
X231700Y70200D02*
D03*
Y50200D02*
D03*
D66*
X115900Y172200D02*
D03*
X165900D02*
D03*
D67*
X263779Y169291D02*
D03*
X15748D02*
D03*
X263779Y15748D02*
D03*
X15748D02*
D03*
D68*
X241200Y90200D02*
D03*
Y80200D02*
D03*
Y70200D02*
D03*
Y60200D02*
D03*
Y50200D02*
D03*
Y100200D02*
D03*
Y110200D02*
D03*
Y120200D02*
D03*
X191200D02*
D03*
Y110200D02*
D03*
Y100200D02*
D03*
Y50200D02*
D03*
Y60200D02*
D03*
Y70200D02*
D03*
Y80200D02*
D03*
Y90200D02*
D03*
D69*
X201200Y120200D02*
D03*
X211200D02*
D03*
D70*
X272200Y100300D02*
D03*
M02*
