G04*
G04 #@! TF.GenerationSoftware,Altium Limited,Altium Designer,20.0.13 (296)*
G04*
G04 Layer_Color=8388736*
%FSLAX25Y25*%
%MOIN*%
G70*
G01*
G75*
%ADD41R,0.03543X0.03740*%
%ADD42R,0.07591X0.06991*%
%ADD43R,0.03740X0.03543*%
%ADD44R,0.08591X0.03191*%
%ADD45R,0.05709X0.02953*%
%ADD46R,0.02362X0.02362*%
%ADD47R,0.08465X0.08465*%
%ADD48O,0.01772X0.03937*%
%ADD49O,0.03937X0.01772*%
G04:AMPARAMS|DCode=50|XSize=74.8mil|YSize=104.33mil|CornerRadius=6.4mil|HoleSize=0mil|Usage=FLASHONLY|Rotation=90.000|XOffset=0mil|YOffset=0mil|HoleType=Round|Shape=RoundedRectangle|*
%AMROUNDEDRECTD50*
21,1,0.07480,0.09153,0,0,90.0*
21,1,0.06201,0.10433,0,0,90.0*
1,1,0.01280,0.04577,0.03100*
1,1,0.01280,0.04577,-0.03100*
1,1,0.01280,-0.04577,-0.03100*
1,1,0.01280,-0.04577,0.03100*
%
%ADD50ROUNDEDRECTD50*%
%ADD51R,0.02362X0.02559*%
%ADD52R,0.04791X0.06091*%
%ADD53R,0.02756X0.02362*%
%ADD54R,0.10039X0.03583*%
%ADD55R,0.17126X0.06496*%
%ADD56R,0.03740X0.03740*%
%ADD57R,0.04921X0.06496*%
%ADD58R,0.08465X0.07677*%
%ADD59R,0.07677X0.05315*%
%ADD60O,0.07677X0.01772*%
%ADD61O,0.01772X0.07677*%
%ADD62C,0.18307*%
%ADD63C,0.07677*%
%ADD64C,0.06496*%
%ADD65R,0.06496X0.06496*%
%ADD66C,0.12402*%
%ADD67C,0.24213*%
%ADD68O,0.08465X0.06496*%
%ADD69O,0.08465X0.06496*%
%ADD70R,0.06496X0.06496*%
D41*
X237409Y42300D02*
D03*
X231700D02*
D03*
X123391Y154300D02*
D03*
X129100D02*
D03*
X123446Y149800D02*
D03*
X129154D02*
D03*
X123446Y145400D02*
D03*
X129154D02*
D03*
X152209Y51100D02*
D03*
X146500D02*
D03*
X78600Y120800D02*
D03*
X84309D02*
D03*
X78600Y103000D02*
D03*
X84309D02*
D03*
X88154Y97900D02*
D03*
X82446D02*
D03*
X88154Y93400D02*
D03*
X82446D02*
D03*
X58346Y119200D02*
D03*
X64054D02*
D03*
X58346Y123700D02*
D03*
X64054D02*
D03*
X58246Y104600D02*
D03*
X63954D02*
D03*
X58246Y100100D02*
D03*
X63954D02*
D03*
X116291Y68900D02*
D03*
X122000D02*
D03*
X126100Y122900D02*
D03*
X131809D02*
D03*
Y117900D02*
D03*
X126100D02*
D03*
X131809Y112900D02*
D03*
X126100D02*
D03*
Y107900D02*
D03*
X131809D02*
D03*
X132746Y98900D02*
D03*
X138454D02*
D03*
X178346Y85200D02*
D03*
X184054D02*
D03*
X178346Y90200D02*
D03*
X184054D02*
D03*
X178346Y80200D02*
D03*
X184054D02*
D03*
X172846Y43700D02*
D03*
X178554D02*
D03*
X172846Y38700D02*
D03*
X178554D02*
D03*
X172846Y28700D02*
D03*
X178554D02*
D03*
X172846Y33700D02*
D03*
X178554D02*
D03*
X146409Y46800D02*
D03*
X140700D02*
D03*
X136554D02*
D03*
X130846D02*
D03*
X110046Y52500D02*
D03*
X115754D02*
D03*
X110046Y45500D02*
D03*
X115754D02*
D03*
X109846Y35700D02*
D03*
X115554D02*
D03*
X91546Y31500D02*
D03*
X97254D02*
D03*
X91546Y27000D02*
D03*
X97254D02*
D03*
X83700Y44700D02*
D03*
X77991D02*
D03*
X83754Y38500D02*
D03*
X78046D02*
D03*
X182200Y120200D02*
D03*
X176491D02*
D03*
D42*
X261700Y110400D02*
D03*
Y97000D02*
D03*
X252600Y103700D02*
D03*
Y90300D02*
D03*
X261700Y73600D02*
D03*
Y60200D02*
D03*
X252600Y80200D02*
D03*
Y66800D02*
D03*
X70800Y118600D02*
D03*
Y105200D02*
D03*
D43*
X254600Y52500D02*
D03*
Y46791D02*
D03*
X250100Y52554D02*
D03*
Y46846D02*
D03*
X116500Y81846D02*
D03*
Y87554D02*
D03*
X111700Y77354D02*
D03*
Y71646D02*
D03*
X63956Y114754D02*
D03*
Y109046D02*
D03*
X58300Y114754D02*
D03*
Y109046D02*
D03*
X119200Y58691D02*
D03*
Y64400D02*
D03*
X114700Y58691D02*
D03*
Y64400D02*
D03*
X110200Y58691D02*
D03*
Y64400D02*
D03*
X107200Y77354D02*
D03*
Y71646D02*
D03*
X93500Y54646D02*
D03*
Y60354D02*
D03*
X87100Y77254D02*
D03*
Y71546D02*
D03*
X82600Y77254D02*
D03*
Y71546D02*
D03*
X121000Y81846D02*
D03*
Y87554D02*
D03*
X233700Y118154D02*
D03*
Y112446D02*
D03*
X167800Y89000D02*
D03*
Y83291D02*
D03*
X178600Y66809D02*
D03*
Y61100D02*
D03*
X173900Y66809D02*
D03*
Y61100D02*
D03*
X169300Y66809D02*
D03*
Y61100D02*
D03*
X161600Y45400D02*
D03*
Y51109D02*
D03*
X156900Y51000D02*
D03*
Y45291D02*
D03*
X68700Y32054D02*
D03*
Y26346D02*
D03*
X64200Y32054D02*
D03*
Y26346D02*
D03*
X59700Y32054D02*
D03*
Y26346D02*
D03*
D44*
X96300Y108900D02*
D03*
X118300Y123900D02*
D03*
X96300D02*
D03*
Y118900D02*
D03*
Y113900D02*
D03*
X118300Y118900D02*
D03*
Y113900D02*
D03*
Y108900D02*
D03*
X96300Y103900D02*
D03*
Y98900D02*
D03*
Y93900D02*
D03*
X118300Y103900D02*
D03*
Y98900D02*
D03*
Y93900D02*
D03*
D45*
X86934Y111900D02*
D03*
X78666Y108160D02*
D03*
Y115640D02*
D03*
D46*
X88225Y89400D02*
D03*
X91375D02*
D03*
D47*
X96900Y42500D02*
D03*
D48*
X93947Y35807D02*
D03*
X99853D02*
D03*
Y49193D02*
D03*
X93947D02*
D03*
D49*
X103593Y38563D02*
D03*
Y40532D02*
D03*
Y42500D02*
D03*
Y44469D02*
D03*
Y46437D02*
D03*
X90207D02*
D03*
Y44469D02*
D03*
Y42500D02*
D03*
Y40532D02*
D03*
Y38563D02*
D03*
D50*
X98700Y72200D02*
D03*
D51*
X94960Y77318D02*
D03*
X102440Y67082D02*
D03*
X94960D02*
D03*
X102440Y77318D02*
D03*
X98700D02*
D03*
X98700Y67082D02*
D03*
D52*
X77500Y75600D02*
D03*
X70500D02*
D03*
D53*
X111700Y84343D02*
D03*
Y80800D02*
D03*
D54*
X162900Y103300D02*
D03*
Y108300D02*
D03*
Y113300D02*
D03*
Y118300D02*
D03*
Y123300D02*
D03*
X147546D02*
D03*
Y118300D02*
D03*
Y113300D02*
D03*
Y108300D02*
D03*
Y103300D02*
D03*
D55*
X202621Y149100D02*
D03*
X236179D02*
D03*
D56*
X178600Y56754D02*
D03*
Y50849D02*
D03*
X173900Y56754D02*
D03*
Y50849D02*
D03*
X169300Y56754D02*
D03*
Y50849D02*
D03*
D57*
X220000Y40420D02*
D03*
Y5380D02*
D03*
X210000Y40420D02*
D03*
Y5380D02*
D03*
X200000Y40420D02*
D03*
Y5380D02*
D03*
X190000Y40420D02*
D03*
Y5380D02*
D03*
D58*
X159400Y6946D02*
D03*
Y37654D02*
D03*
D59*
X144374Y31176D02*
D03*
X128626D02*
D03*
X144374Y40624D02*
D03*
X128626D02*
D03*
D60*
X128955Y62373D02*
D03*
Y64342D02*
D03*
Y66310D02*
D03*
Y68279D02*
D03*
Y70247D02*
D03*
Y72216D02*
D03*
Y74184D02*
D03*
Y76153D02*
D03*
Y78121D02*
D03*
Y80090D02*
D03*
Y82058D02*
D03*
Y84027D02*
D03*
X160845D02*
D03*
Y82058D02*
D03*
Y80090D02*
D03*
Y78121D02*
D03*
Y76153D02*
D03*
Y74184D02*
D03*
Y72216D02*
D03*
Y70247D02*
D03*
Y68279D02*
D03*
Y66310D02*
D03*
Y64342D02*
D03*
Y62373D02*
D03*
D61*
X134073Y89145D02*
D03*
X136042D02*
D03*
X138010D02*
D03*
X139979D02*
D03*
X141947D02*
D03*
X143916D02*
D03*
X145884D02*
D03*
X147853D02*
D03*
X149821D02*
D03*
X151790D02*
D03*
X153758D02*
D03*
X155727D02*
D03*
Y57255D02*
D03*
X153758D02*
D03*
X151790D02*
D03*
X149821D02*
D03*
X147853D02*
D03*
X145884D02*
D03*
X143916D02*
D03*
X141947D02*
D03*
X139979D02*
D03*
X138010D02*
D03*
X136042D02*
D03*
X134073D02*
D03*
D62*
X44791Y143340D02*
D03*
Y44954D02*
D03*
D63*
X50381Y94147D02*
D03*
Y83242D02*
D03*
Y72336D02*
D03*
Y105053D02*
D03*
Y115958D02*
D03*
X39200Y99600D02*
D03*
Y110505D02*
D03*
Y88695D02*
D03*
Y77789D02*
D03*
D64*
X160900Y137200D02*
D03*
X150900D02*
D03*
X140900D02*
D03*
X130900D02*
D03*
X120900D02*
D03*
X170900D02*
D03*
X102900Y8000D02*
D03*
Y18000D02*
D03*
X82900D02*
D03*
Y8000D02*
D03*
X72900Y18000D02*
D03*
Y8000D02*
D03*
X62900Y18000D02*
D03*
X92900Y8000D02*
D03*
Y18000D02*
D03*
X211700Y60200D02*
D03*
Y70200D02*
D03*
X221700Y60200D02*
D03*
Y70200D02*
D03*
X231700Y60200D02*
D03*
X201700Y70200D02*
D03*
Y60200D02*
D03*
X221700Y50200D02*
D03*
X211700D02*
D03*
X201700D02*
D03*
X272200Y90300D02*
D03*
Y80300D02*
D03*
Y70300D02*
D03*
D65*
X110900Y137200D02*
D03*
X62900Y8000D02*
D03*
X231700Y70200D02*
D03*
Y50200D02*
D03*
D66*
X115900Y172200D02*
D03*
X165900D02*
D03*
D67*
X263779Y169291D02*
D03*
X15748D02*
D03*
X263779Y15748D02*
D03*
X15748D02*
D03*
D68*
X241200Y90200D02*
D03*
Y80200D02*
D03*
Y70200D02*
D03*
Y60200D02*
D03*
Y50200D02*
D03*
Y100200D02*
D03*
Y110200D02*
D03*
Y120200D02*
D03*
X191200D02*
D03*
Y110200D02*
D03*
Y100200D02*
D03*
Y50200D02*
D03*
Y60200D02*
D03*
Y70200D02*
D03*
Y80200D02*
D03*
Y90200D02*
D03*
D69*
X201200Y120200D02*
D03*
X211200D02*
D03*
D70*
X272200Y100300D02*
D03*
M02*
