G04*
G04 #@! TF.GenerationSoftware,Altium Limited,Altium Designer,20.0.13 (296)*
G04*
G04 Layer_Physical_Order=1*
G04 Layer_Color=255*
%FSLAX25Y25*%
%MOIN*%
G70*
G01*
G75*
%ADD11C,0.01000*%
%ADD18C,0.01500*%
%ADD21R,0.02953X0.03150*%
%ADD22R,0.07000X0.06400*%
%ADD23R,0.03150X0.02953*%
%ADD24R,0.08000X0.02600*%
%ADD25R,0.05118X0.02362*%
%ADD26R,0.01772X0.01772*%
%ADD27O,0.01181X0.03347*%
%ADD28O,0.03347X0.01181*%
G04:AMPARAMS|DCode=29|XSize=68.9mil|YSize=98.43mil|CornerRadius=3.45mil|HoleSize=0mil|Usage=FLASHONLY|Rotation=90.000|XOffset=0mil|YOffset=0mil|HoleType=Round|Shape=RoundedRectangle|*
%AMROUNDEDRECTD29*
21,1,0.06890,0.09153,0,0,90.0*
21,1,0.06201,0.09843,0,0,90.0*
1,1,0.00689,0.04577,0.03100*
1,1,0.00689,0.04577,-0.03100*
1,1,0.00689,-0.04577,-0.03100*
1,1,0.00689,-0.04577,0.03100*
%
%ADD29ROUNDEDRECTD29*%
%ADD30R,0.01772X0.01968*%
%ADD31R,0.04200X0.05500*%
%ADD32R,0.02165X0.01772*%
%ADD33R,0.09449X0.02992*%
%ADD34R,0.16535X0.05906*%
%ADD35R,0.03150X0.03150*%
%ADD36R,0.04331X0.05906*%
%ADD37R,0.07874X0.07087*%
%ADD38R,0.07087X0.04724*%
%ADD39O,0.07087X0.01181*%
%ADD40O,0.01181X0.07087*%
%ADD71R,0.07874X0.07874*%
%ADD72C,0.02500*%
%ADD73C,0.01900*%
%ADD74C,0.02000*%
%ADD75C,0.03000*%
%ADD76C,0.06000*%
%ADD77C,0.01400*%
%ADD78C,0.17717*%
%ADD79C,0.07087*%
%ADD80C,0.05906*%
%ADD81R,0.05906X0.05906*%
%ADD82C,0.11811*%
%ADD83C,0.23622*%
%ADD84O,0.07874X0.05906*%
%ADD85O,0.07874X0.05906*%
%ADD86R,0.05906X0.05906*%
%ADD87C,0.01968*%
G36*
X278725Y803D02*
X-697D01*
X-697Y184237D01*
X278725D01*
Y803D01*
D02*
G37*
%LPC*%
G36*
X165900Y179641D02*
X164448Y179498D01*
X163052Y179075D01*
X161766Y178387D01*
X160638Y177462D01*
X159713Y176334D01*
X159025Y175048D01*
X158602Y173652D01*
X158459Y172200D01*
X158602Y170748D01*
X159025Y169352D01*
X159713Y168066D01*
X160638Y166938D01*
X160881Y166739D01*
X160523Y165739D01*
X121277D01*
X120919Y166739D01*
X121162Y166938D01*
X122087Y168066D01*
X122775Y169352D01*
X123198Y170748D01*
X123341Y172200D01*
X123198Y173652D01*
X122775Y175048D01*
X122087Y176334D01*
X121162Y177462D01*
X120034Y178387D01*
X118748Y179075D01*
X117352Y179498D01*
X115900Y179641D01*
X114448Y179498D01*
X113052Y179075D01*
X111766Y178387D01*
X110638Y177462D01*
X109713Y176334D01*
X109025Y175048D01*
X108602Y173652D01*
X108459Y172200D01*
X108602Y170748D01*
X109025Y169352D01*
X109713Y168066D01*
X110638Y166938D01*
X110881Y166739D01*
X110523Y165739D01*
X83100D01*
X81925Y165584D01*
X80831Y165131D01*
X79891Y164409D01*
X55729Y140248D01*
X54823Y140756D01*
X55053Y141715D01*
X55181Y143340D01*
X55053Y144966D01*
X54672Y146551D01*
X54048Y148057D01*
X53197Y149447D01*
X52138Y150687D01*
X50898Y151746D01*
X49508Y152598D01*
X48001Y153222D01*
X46416Y153603D01*
X44791Y153730D01*
X43165Y153603D01*
X41580Y153222D01*
X40073Y152598D01*
X38683Y151746D01*
X37444Y150687D01*
X36385Y149447D01*
X35533Y148057D01*
X34909Y146551D01*
X34528Y144966D01*
X34400Y143340D01*
X34528Y141715D01*
X34909Y140129D01*
X35533Y138623D01*
X36385Y137233D01*
X37444Y135993D01*
X38683Y134934D01*
X40073Y134082D01*
X41580Y133458D01*
X43165Y133078D01*
X44791Y132950D01*
X46416Y133078D01*
X47375Y133308D01*
X47883Y132402D01*
X36117Y120636D01*
X35396Y119696D01*
X34942Y118601D01*
X34788Y117427D01*
Y113032D01*
X34286Y111822D01*
X34113Y110505D01*
X34286Y109189D01*
X34788Y107979D01*
Y102127D01*
X34286Y100917D01*
X34113Y99600D01*
X34286Y98283D01*
X34788Y97073D01*
Y91226D01*
X34257D01*
X33474Y91123D01*
X32744Y90820D01*
X32118Y90340D01*
X30360Y88582D01*
X29880Y87956D01*
X29577Y87226D01*
X29474Y86443D01*
Y69000D01*
X29577Y68217D01*
X29880Y67487D01*
X30360Y66860D01*
X38860Y58360D01*
X38860Y58360D01*
X39487Y57880D01*
X40217Y57577D01*
X41000Y57474D01*
X41000Y57474D01*
X56674D01*
Y35031D01*
X56625D01*
Y29078D01*
Y23369D01*
X58852D01*
X59854Y22368D01*
X59797Y21232D01*
X59724Y21176D01*
X59010Y20246D01*
X58562Y19162D01*
X58409Y18000D01*
X58562Y16838D01*
X59010Y15754D01*
X59724Y14824D01*
X60126Y14516D01*
Y12453D01*
X58447D01*
Y3547D01*
X67353D01*
Y12453D01*
X65674D01*
Y14516D01*
X66076Y14824D01*
X66790Y15754D01*
X67238Y16838D01*
X67391Y18000D01*
X67238Y19162D01*
X66790Y20246D01*
X66076Y21176D01*
X66003Y21232D01*
X65946Y22368D01*
X66948Y23369D01*
X71775D01*
Y29281D01*
X75054D01*
X75772Y29375D01*
X76441Y29652D01*
X76517Y29710D01*
X78689Y27539D01*
X78700Y27530D01*
X78660Y27469D01*
X78467Y26500D01*
X78660Y25531D01*
X78961Y25080D01*
Y21039D01*
X79096Y20357D01*
X79010Y20246D01*
X78562Y19162D01*
X78409Y18000D01*
X78562Y16838D01*
X79010Y15754D01*
X79724Y14824D01*
X80654Y14110D01*
X81738Y13662D01*
X82900Y13509D01*
X84062Y13662D01*
X84406Y13804D01*
X84973Y12957D01*
X84269Y12253D01*
X84062Y12338D01*
X82900Y12491D01*
X81738Y12338D01*
X80654Y11890D01*
X79724Y11176D01*
X79010Y10246D01*
X78562Y9162D01*
X78409Y8000D01*
X78562Y6838D01*
X79010Y5754D01*
X79724Y4824D01*
X80654Y4110D01*
X81738Y3662D01*
X82900Y3509D01*
X84062Y3662D01*
X85146Y4110D01*
X86076Y4824D01*
X86790Y5754D01*
X87238Y6838D01*
X87391Y8000D01*
X87238Y9162D01*
X87153Y9369D01*
X87857Y10073D01*
X88704Y9506D01*
X88562Y9162D01*
X88409Y8000D01*
X88562Y6838D01*
X89011Y5754D01*
X89724Y4824D01*
X90654Y4110D01*
X91738Y3662D01*
X92900Y3509D01*
X94062Y3662D01*
X95146Y4110D01*
X96076Y4824D01*
X96789Y5754D01*
X97238Y6838D01*
X97391Y8000D01*
X97238Y9162D01*
X96789Y10246D01*
X96076Y11176D01*
X95146Y11890D01*
X94062Y12338D01*
X92900Y12491D01*
X91738Y12338D01*
X90654Y11890D01*
X90518Y11785D01*
X89611Y12349D01*
X89691Y12752D01*
Y13589D01*
X90654Y14110D01*
X91738Y13662D01*
X92900Y13509D01*
X94062Y13662D01*
X95146Y14110D01*
X96076Y14824D01*
X96789Y15754D01*
X97238Y16838D01*
X97391Y18000D01*
X97238Y19162D01*
X97147Y19382D01*
X97703Y20213D01*
X98752D01*
X99177Y20298D01*
X99478Y20068D01*
X99891Y19497D01*
X99634Y18875D01*
X99617Y18750D01*
X102150D01*
Y21283D01*
X102070Y21272D01*
X101994Y21336D01*
X101555Y22171D01*
X103642Y24258D01*
X104084Y24920D01*
X104239Y25700D01*
X104239Y25700D01*
Y32377D01*
X104084Y33158D01*
X103642Y33819D01*
X102327Y35134D01*
X102412Y35446D01*
X103528Y35744D01*
X105014Y34258D01*
X105676Y33816D01*
X106456Y33661D01*
X106869D01*
Y32625D01*
X112926D01*
Y26300D01*
X113021Y25582D01*
X113298Y24913D01*
X113739Y24339D01*
X118339Y19739D01*
X118913Y19298D01*
X119582Y19021D01*
X120300Y18926D01*
X223700D01*
X224418Y19021D01*
X225087Y19298D01*
X225661Y19739D01*
X239370Y33447D01*
X239811Y34022D01*
X240088Y34691D01*
X240182Y35409D01*
Y39225D01*
X240385D01*
Y39526D01*
X243951D01*
X245739Y37739D01*
X246313Y37298D01*
X246982Y37021D01*
X247700Y36926D01*
X259200D01*
X259918Y37021D01*
X260587Y37298D01*
X261161Y37739D01*
X263161Y39739D01*
X263602Y40313D01*
X263879Y40982D01*
X263974Y41700D01*
Y51328D01*
X263879Y52046D01*
X263602Y52715D01*
X263161Y53290D01*
X261990Y54461D01*
X261415Y54902D01*
X260746Y55179D01*
X260028Y55274D01*
X257675D01*
Y55476D01*
X253175D01*
Y55531D01*
X250292D01*
X246553Y59270D01*
X246675Y60200D01*
X246522Y61362D01*
X246074Y62446D01*
X245360Y63376D01*
X244430Y64090D01*
X243347Y64538D01*
X242184Y64691D01*
X240216D01*
X239053Y64538D01*
X237970Y64090D01*
X237040Y63376D01*
X236551Y62738D01*
X236287Y62658D01*
X235629D01*
X235365Y62738D01*
X234876Y63376D01*
X233946Y64090D01*
X232862Y64538D01*
X231700Y64691D01*
X230538Y64538D01*
X229454Y64090D01*
X228524Y63376D01*
X227811Y62446D01*
X227362Y61362D01*
X227209Y60200D01*
X227362Y59038D01*
X227811Y57954D01*
X228524Y57024D01*
X229454Y56310D01*
X230538Y55862D01*
X231700Y55709D01*
X232862Y55862D01*
X233946Y56310D01*
X234876Y57024D01*
X235365Y57662D01*
X235629Y57742D01*
X236287D01*
X236551Y57662D01*
X237040Y57024D01*
X237970Y56310D01*
X239053Y55862D01*
X240216Y55709D01*
X242184D01*
X242259Y55719D01*
X243689Y54288D01*
X243123Y53440D01*
X243059Y53466D01*
X242184Y53582D01*
X241950D01*
Y50950D01*
X245467D01*
X245451Y51075D01*
X245424Y51139D01*
X246272Y51705D01*
X247025Y50952D01*
Y49578D01*
X247777D01*
X248125Y48722D01*
X248125Y48578D01*
Y47596D01*
X250100D01*
Y46846D01*
X250850D01*
Y44969D01*
X251648D01*
X252625Y44915D01*
X253052Y44915D01*
X253850D01*
Y46791D01*
X254600D01*
Y47541D01*
X256575D01*
Y48524D01*
X256575Y48668D01*
X256794Y49207D01*
X257600Y49344D01*
X258426Y48658D01*
Y42849D01*
X258051Y42474D01*
X248849D01*
X247061Y44261D01*
X246487Y44702D01*
X245818Y44979D01*
X245100Y45074D01*
X240385D01*
Y45375D01*
X236999D01*
X236153Y45747D01*
Y48635D01*
X237153Y48834D01*
X237287Y48509D01*
X237825Y47809D01*
X238525Y47271D01*
X239340Y46934D01*
X240216Y46818D01*
X240450D01*
Y50200D01*
Y53582D01*
X240216D01*
X239340Y53466D01*
X238525Y53129D01*
X237825Y52591D01*
X237287Y51891D01*
X237153Y51566D01*
X236153Y51765D01*
Y54653D01*
X227247D01*
Y52749D01*
X225357D01*
X224876Y53376D01*
X223946Y54089D01*
X222862Y54538D01*
X221700Y54691D01*
X220538Y54538D01*
X219454Y54089D01*
X218524Y53376D01*
X218043Y52749D01*
X215357D01*
X214876Y53376D01*
X213946Y54089D01*
X212862Y54538D01*
X211700Y54691D01*
X210538Y54538D01*
X209454Y54089D01*
X208524Y53376D01*
X208043Y52749D01*
X205357D01*
X204876Y53376D01*
X203946Y54089D01*
X202862Y54538D01*
X201700Y54691D01*
X200538Y54538D01*
X199454Y54089D01*
X198524Y53376D01*
X197810Y52446D01*
X197457Y51592D01*
X197353Y51566D01*
X196531D01*
X196427Y51592D01*
X196074Y52446D01*
X195360Y53376D01*
X194430Y54089D01*
X193347Y54538D01*
X192184Y54691D01*
X190216D01*
X189053Y54538D01*
X188847Y54453D01*
X188143Y55156D01*
X188709Y56004D01*
X189053Y55862D01*
X190216Y55709D01*
X192184D01*
X193347Y55862D01*
X194430Y56310D01*
X195360Y57024D01*
X196074Y57954D01*
X196427Y58808D01*
X196531Y58834D01*
X197353D01*
X197457Y58808D01*
X197810Y57954D01*
X198524Y57024D01*
X199454Y56310D01*
X200538Y55862D01*
X201700Y55709D01*
X202862Y55862D01*
X203946Y56310D01*
X204876Y57024D01*
X205590Y57954D01*
X206038Y59038D01*
X206191Y60200D01*
X206107Y60839D01*
X206304Y60987D01*
X207241Y60442D01*
X207209Y60200D01*
X207362Y59038D01*
X207810Y57954D01*
X208524Y57024D01*
X209454Y56310D01*
X210538Y55862D01*
X211700Y55709D01*
X212862Y55862D01*
X213946Y56310D01*
X214876Y57024D01*
X215589Y57954D01*
X216038Y59038D01*
X216191Y60200D01*
X216159Y60442D01*
X217096Y60987D01*
X217293Y60839D01*
X217209Y60200D01*
X217362Y59038D01*
X217811Y57954D01*
X218524Y57024D01*
X219454Y56310D01*
X220538Y55862D01*
X221700Y55709D01*
X222862Y55862D01*
X223946Y56310D01*
X224876Y57024D01*
X225589Y57954D01*
X226038Y59038D01*
X226191Y60200D01*
X226038Y61362D01*
X225589Y62446D01*
X224876Y63376D01*
X223946Y64090D01*
X222862Y64538D01*
X221700Y64691D01*
X220538Y64538D01*
X220535Y64537D01*
X219192Y65880D01*
X219279Y66671D01*
X219353Y66732D01*
X220201Y67192D01*
X220825Y66934D01*
X220950Y66917D01*
Y70200D01*
Y73483D01*
X220825Y73466D01*
X220009Y73129D01*
X219990Y73114D01*
X218990Y73607D01*
Y74653D01*
X218820Y75511D01*
X218333Y76239D01*
X196233Y98339D01*
X196522Y99038D01*
X196675Y100200D01*
X196522Y101362D01*
X196074Y102446D01*
X195360Y103376D01*
X194430Y104089D01*
X193347Y104538D01*
X192184Y104691D01*
X190216D01*
X189053Y104538D01*
X187970Y104089D01*
X187040Y103376D01*
X186326Y102446D01*
X185878Y101362D01*
X185725Y100200D01*
X185878Y99038D01*
X186326Y97954D01*
X187040Y97024D01*
X187970Y96311D01*
X189053Y95862D01*
X190216Y95709D01*
X191523D01*
X191537Y95691D01*
X191060Y94691D01*
X190216D01*
X189053Y94538D01*
X187970Y94090D01*
X187040Y93376D01*
X186963Y93275D01*
X175369D01*
Y90684D01*
X175160Y90544D01*
X175160Y90544D01*
X172558Y87942D01*
X172116Y87280D01*
X171961Y86500D01*
Y82179D01*
X169775D01*
Y82541D01*
X167800D01*
Y84041D01*
X169775D01*
Y85168D01*
X169775D01*
X170123Y86024D01*
X170875D01*
Y91976D01*
X164725D01*
Y91976D01*
X163725Y91483D01*
X163475Y91533D01*
X162506Y91340D01*
X161684Y90791D01*
X161135Y89969D01*
X161029Y89438D01*
X160407Y88816D01*
X159876Y88710D01*
X159576Y88510D01*
X158677Y89112D01*
X158694Y89200D01*
Y91450D01*
X162450Y95206D01*
X177500D01*
X178378Y95381D01*
X179122Y95878D01*
X184122Y100878D01*
X184619Y101622D01*
X184794Y102500D01*
Y109607D01*
X185794Y109672D01*
X185878Y109038D01*
X186326Y107954D01*
X187040Y107024D01*
X187970Y106310D01*
X189053Y105862D01*
X190216Y105709D01*
X192184D01*
X193347Y105862D01*
X194430Y106310D01*
X195360Y107024D01*
X196074Y107954D01*
X196522Y109038D01*
X196675Y110200D01*
X196522Y111362D01*
X196300Y111898D01*
X196928Y112898D01*
X205208D01*
X206086Y113073D01*
X206830Y113570D01*
X209114Y115854D01*
X210216Y115709D01*
X212184D01*
X213347Y115862D01*
X214430Y116311D01*
X215360Y117024D01*
X216074Y117954D01*
X216522Y119038D01*
X216675Y120200D01*
X216522Y121362D01*
X216074Y122446D01*
X215360Y123376D01*
X214430Y124090D01*
X213347Y124538D01*
X212184Y124691D01*
X210216D01*
X209053Y124538D01*
X207970Y124090D01*
X207040Y123376D01*
X206830Y123102D01*
X205570D01*
X205360Y123376D01*
X204430Y124090D01*
X203347Y124538D01*
X202184Y124691D01*
X200216D01*
X199053Y124538D01*
X197970Y124090D01*
X197040Y123376D01*
X196830Y123102D01*
X195570D01*
X195360Y123376D01*
X194430Y124090D01*
X193347Y124538D01*
X192184Y124691D01*
X190216D01*
X189053Y124538D01*
X187970Y124090D01*
X187040Y123376D01*
X186363Y122494D01*
X185176D01*
Y123275D01*
X173515D01*
Y117125D01*
X173826D01*
Y106268D01*
X173532Y105974D01*
X169124D01*
Y110304D01*
Y115304D01*
Y121296D01*
X168980D01*
X168024Y121404D01*
Y122550D01*
X162900D01*
Y123300D01*
X162150D01*
Y125196D01*
X159387D01*
X159004Y126120D01*
X159796Y126912D01*
X160136D01*
X160587Y126611D01*
X161556Y126418D01*
X162525Y126611D01*
X163347Y127160D01*
X163896Y127982D01*
X164089Y128951D01*
X163896Y129920D01*
X163347Y130742D01*
X162525Y131291D01*
X161556Y131484D01*
X160587Y131291D01*
X160136Y130990D01*
X158951D01*
X158171Y130835D01*
X157509Y130393D01*
X153412Y126296D01*
X141321D01*
Y120304D01*
Y115304D01*
Y113188D01*
X136546Y108412D01*
X135461Y108741D01*
X135457Y108762D01*
X135942Y109248D01*
X136384Y109909D01*
X136539Y110690D01*
Y111655D01*
X138179Y113295D01*
X138621Y113957D01*
X138776Y114737D01*
X138776Y114737D01*
Y118624D01*
X139077Y119074D01*
X139270Y120043D01*
X139077Y121013D01*
X138528Y121834D01*
X137706Y122383D01*
X136737Y122576D01*
X135768Y122383D01*
X134785Y122929D01*
Y125975D01*
X134315D01*
X134262Y126382D01*
X133984Y127050D01*
X133544Y127625D01*
X131178Y129990D01*
X130604Y130431D01*
X129935Y130708D01*
X129217Y130803D01*
X124218D01*
Y134209D01*
X124790Y134954D01*
X125238Y136038D01*
X125391Y137200D01*
X125238Y138362D01*
X125187Y138486D01*
X125353Y138652D01*
X125793Y139226D01*
X126070Y139895D01*
X126165Y140613D01*
Y142325D01*
X126422D01*
Y143077D01*
X127278Y143425D01*
X127422Y143425D01*
X128404D01*
Y145400D01*
X129154D01*
Y146150D01*
X131031D01*
Y146825D01*
X131031Y147375D01*
X131031Y148375D01*
Y149050D01*
X129154D01*
Y150550D01*
X131031D01*
Y151348D01*
X131031Y151775D01*
X130976Y152752D01*
Y153550D01*
X129100D01*
Y155050D01*
X130976D01*
Y156275D01*
X131816Y156661D01*
X230785D01*
X231641Y155805D01*
Y153729D01*
X227700D01*
X227115Y153613D01*
X227025Y153553D01*
X226412D01*
Y152972D01*
X226287Y152785D01*
X226171Y152200D01*
Y121200D01*
X226287Y120615D01*
X226619Y120119D01*
X230625Y116112D01*
Y115178D01*
X231377D01*
X231725Y114322D01*
X231725Y114178D01*
Y113196D01*
X235675D01*
Y114171D01*
X235675Y114322D01*
X236040Y115171D01*
X248200D01*
X248785Y115287D01*
X249281Y115619D01*
X249781Y116119D01*
X250113Y116615D01*
X250229Y117200D01*
Y124700D01*
X250113Y125285D01*
X249781Y125781D01*
X246229Y129333D01*
Y152200D01*
X246113Y152785D01*
X245947Y153033D01*
Y153553D01*
X245375D01*
X245285Y153613D01*
X244700Y153729D01*
X240718D01*
Y157685D01*
X240564Y158860D01*
X240110Y159955D01*
X239389Y160895D01*
X239389Y160895D01*
X235874Y164409D01*
X234934Y165131D01*
X233840Y165584D01*
X232665Y165739D01*
X171277D01*
X170919Y166739D01*
X171162Y166938D01*
X172087Y168066D01*
X172775Y169352D01*
X173198Y170748D01*
X173341Y172200D01*
X173198Y173652D01*
X172775Y175048D01*
X172087Y176334D01*
X171162Y177462D01*
X170034Y178387D01*
X168748Y179075D01*
X167352Y179498D01*
X165900Y179641D01*
D02*
G37*
G36*
X263779Y182643D02*
X261691Y182479D01*
X259653Y181990D01*
X257718Y181188D01*
X255931Y180094D01*
X254338Y178733D01*
X252977Y177140D01*
X251883Y175353D01*
X251081Y173417D01*
X250592Y171380D01*
X250427Y169291D01*
X250592Y167203D01*
X251081Y165165D01*
X251883Y163230D01*
X252977Y161443D01*
X254338Y159850D01*
X255931Y158489D01*
X257718Y157395D01*
X259653Y156593D01*
X261691Y156104D01*
X263779Y155939D01*
X265868Y156104D01*
X267906Y156593D01*
X269841Y157395D01*
X271628Y158489D01*
X273221Y159850D01*
X274582Y161443D01*
X275676Y163230D01*
X276478Y165165D01*
X276967Y167203D01*
X277132Y169291D01*
X276967Y171380D01*
X276478Y173417D01*
X275676Y175353D01*
X274582Y177140D01*
X273221Y178733D01*
X271628Y180094D01*
X269841Y181188D01*
X267906Y181990D01*
X265868Y182479D01*
X263779Y182643D01*
D02*
G37*
G36*
X15748D02*
X13659Y182479D01*
X11622Y181990D01*
X9686Y181188D01*
X7900Y180094D01*
X6307Y178733D01*
X4946Y177140D01*
X3851Y175353D01*
X3049Y173417D01*
X2560Y171380D01*
X2396Y169291D01*
X2560Y167203D01*
X3049Y165165D01*
X3851Y163230D01*
X4946Y161443D01*
X6307Y159850D01*
X7900Y158489D01*
X9686Y157395D01*
X11622Y156593D01*
X13659Y156104D01*
X15748Y155939D01*
X17837Y156104D01*
X19874Y156593D01*
X21810Y157395D01*
X23596Y158489D01*
X25189Y159850D01*
X26550Y161443D01*
X27645Y163230D01*
X28447Y165165D01*
X28936Y167203D01*
X29100Y169291D01*
X28936Y171380D01*
X28447Y173417D01*
X27645Y175353D01*
X26550Y177140D01*
X25189Y178733D01*
X23596Y180094D01*
X21810Y181188D01*
X19874Y181990D01*
X17837Y182479D01*
X15748Y182643D01*
D02*
G37*
G36*
X211288Y152453D02*
X203370D01*
Y149850D01*
X211288D01*
Y152453D01*
D02*
G37*
G36*
X201870D02*
X193953D01*
Y149850D01*
X201870D01*
Y152453D01*
D02*
G37*
G36*
X211288Y148350D02*
X203370D01*
Y145747D01*
X211288D01*
Y148350D01*
D02*
G37*
G36*
X201870D02*
X193953D01*
Y145747D01*
X201870D01*
Y148350D01*
D02*
G37*
G36*
X131031Y144650D02*
X129904D01*
Y143425D01*
X131031D01*
Y144650D01*
D02*
G37*
G36*
X131650Y140483D02*
Y137950D01*
X134183D01*
X134167Y138075D01*
X133829Y138891D01*
X133291Y139591D01*
X132591Y140129D01*
X131775Y140466D01*
X131650Y140483D01*
D02*
G37*
G36*
X130150D02*
X130025Y140466D01*
X129209Y140129D01*
X128509Y139591D01*
X127971Y138891D01*
X127634Y138075D01*
X127617Y137950D01*
X130150D01*
Y140483D01*
D02*
G37*
G36*
X134183Y136450D02*
X131650D01*
Y133917D01*
X131775Y133933D01*
X132591Y134271D01*
X133291Y134809D01*
X133829Y135509D01*
X134167Y136325D01*
X134183Y136450D01*
D02*
G37*
G36*
X130150D02*
X127617D01*
X127634Y136325D01*
X127971Y135509D01*
X128509Y134809D01*
X129209Y134271D01*
X130025Y133933D01*
X130150Y133917D01*
Y136450D01*
D02*
G37*
G36*
X170900Y141691D02*
X169738Y141538D01*
X168654Y141089D01*
X167724Y140376D01*
X167010Y139446D01*
X166562Y138362D01*
X166409Y137200D01*
X166562Y136038D01*
X167010Y134954D01*
X167724Y134024D01*
X168654Y133310D01*
X169738Y132862D01*
X170900Y132709D01*
X172062Y132862D01*
X173146Y133310D01*
X174076Y134024D01*
X174790Y134954D01*
X175238Y136038D01*
X175391Y137200D01*
X175238Y138362D01*
X174790Y139446D01*
X174076Y140376D01*
X173146Y141089D01*
X172062Y141538D01*
X170900Y141691D01*
D02*
G37*
G36*
X160900D02*
X159738Y141538D01*
X158654Y141089D01*
X157724Y140376D01*
X157010Y139446D01*
X156562Y138362D01*
X156409Y137200D01*
X156562Y136038D01*
X157010Y134954D01*
X157724Y134024D01*
X158654Y133310D01*
X159738Y132862D01*
X160900Y132709D01*
X162062Y132862D01*
X163146Y133310D01*
X164076Y134024D01*
X164789Y134954D01*
X165238Y136038D01*
X165391Y137200D01*
X165238Y138362D01*
X164789Y139446D01*
X164076Y140376D01*
X163146Y141089D01*
X162062Y141538D01*
X160900Y141691D01*
D02*
G37*
G36*
X150900D02*
X149738Y141538D01*
X148654Y141089D01*
X147724Y140376D01*
X147011Y139446D01*
X146562Y138362D01*
X146409Y137200D01*
X146562Y136038D01*
X147011Y134954D01*
X147724Y134024D01*
X148654Y133310D01*
X149738Y132862D01*
X150900Y132709D01*
X152062Y132862D01*
X153146Y133310D01*
X154076Y134024D01*
X154789Y134954D01*
X155238Y136038D01*
X155391Y137200D01*
X155238Y138362D01*
X154789Y139446D01*
X154076Y140376D01*
X153146Y141089D01*
X152062Y141538D01*
X150900Y141691D01*
D02*
G37*
G36*
X140900D02*
X139738Y141538D01*
X138654Y141089D01*
X137724Y140376D01*
X137011Y139446D01*
X136562Y138362D01*
X136409Y137200D01*
X136562Y136038D01*
X137011Y134954D01*
X137724Y134024D01*
X138654Y133310D01*
X139738Y132862D01*
X140900Y132709D01*
X142062Y132862D01*
X143146Y133310D01*
X144076Y134024D01*
X144790Y134954D01*
X145238Y136038D01*
X145391Y137200D01*
X145238Y138362D01*
X144790Y139446D01*
X144076Y140376D01*
X143146Y141089D01*
X142062Y141538D01*
X140900Y141691D01*
D02*
G37*
G36*
X168024Y125196D02*
X163650D01*
Y124050D01*
X168024D01*
Y125196D01*
D02*
G37*
G36*
X265600Y114000D02*
X262450D01*
Y111150D01*
X265600D01*
Y114000D01*
D02*
G37*
G36*
X260950D02*
X257800D01*
Y111150D01*
X260950D01*
Y114000D01*
D02*
G37*
G36*
X242184Y113582D02*
X241950D01*
Y110950D01*
X245467D01*
X245451Y111075D01*
X245113Y111891D01*
X244576Y112591D01*
X243875Y113129D01*
X243059Y113467D01*
X242184Y113582D01*
D02*
G37*
G36*
X240450D02*
X240216D01*
X239340Y113467D01*
X238525Y113129D01*
X237825Y112591D01*
X237287Y111891D01*
X236949Y111075D01*
X236933Y110950D01*
X240450D01*
Y113582D01*
D02*
G37*
G36*
X235675Y111696D02*
X234450D01*
Y110569D01*
X235675D01*
Y111696D01*
D02*
G37*
G36*
X232950D02*
X231725D01*
Y110569D01*
X232950D01*
Y111696D01*
D02*
G37*
G36*
X245467Y109450D02*
X241950D01*
Y106818D01*
X242184D01*
X243059Y106933D01*
X243875Y107271D01*
X244576Y107809D01*
X245113Y108509D01*
X245451Y109325D01*
X245467Y109450D01*
D02*
G37*
G36*
X240450D02*
X236933D01*
X236949Y109325D01*
X237287Y108509D01*
X237825Y107809D01*
X238525Y107271D01*
X239340Y106933D01*
X240216Y106818D01*
X240450D01*
Y109450D01*
D02*
G37*
G36*
X265600Y109650D02*
X262450D01*
Y106800D01*
X265600D01*
Y109650D01*
D02*
G37*
G36*
X260950D02*
X257800D01*
Y106800D01*
X260950D01*
Y109650D01*
D02*
G37*
G36*
X256500Y107300D02*
X253350D01*
Y104450D01*
X256500D01*
Y107300D01*
D02*
G37*
G36*
X251850D02*
X248700D01*
Y104450D01*
X251850D01*
Y107300D01*
D02*
G37*
G36*
X276653Y104753D02*
X267747D01*
Y101078D01*
X267700Y101035D01*
X266700Y101471D01*
Y101700D01*
X257500D01*
X256700Y101700D01*
X256500Y102617D01*
Y102950D01*
X252600D01*
X248700D01*
Y101026D01*
X248700Y100100D01*
X247731Y100026D01*
X247424D01*
X246588Y100861D01*
X246522Y101362D01*
X246074Y102446D01*
X245360Y103376D01*
X244430Y104089D01*
X243347Y104538D01*
X242184Y104691D01*
X240216D01*
X239053Y104538D01*
X237970Y104089D01*
X237040Y103376D01*
X236326Y102446D01*
X235878Y101362D01*
X235725Y100200D01*
X235878Y99038D01*
X236326Y97954D01*
X237040Y97024D01*
X237970Y96311D01*
X239053Y95862D01*
X240216Y95709D01*
X242184D01*
X242318Y95726D01*
X242352Y95678D01*
X242313Y95447D01*
X241829Y94691D01*
X240216D01*
X239053Y94538D01*
X237970Y94090D01*
X237040Y93376D01*
X236326Y92446D01*
X235878Y91362D01*
X235725Y90200D01*
X235878Y89038D01*
X236326Y87954D01*
X237040Y87024D01*
X237970Y86310D01*
X239053Y85862D01*
X240216Y85709D01*
X242184D01*
X243347Y85862D01*
X244430Y86310D01*
X245360Y87024D01*
X245513Y87224D01*
X247600D01*
X247600Y84900D01*
X247600Y84600D01*
Y83276D01*
X245437D01*
X245360Y83376D01*
X244430Y84089D01*
X243347Y84538D01*
X242184Y84691D01*
X240216D01*
X239053Y84538D01*
X237970Y84089D01*
X237040Y83376D01*
X236326Y82446D01*
X235878Y81362D01*
X235725Y80200D01*
X235878Y79038D01*
X236326Y77954D01*
X237040Y77024D01*
X237970Y76310D01*
X239053Y75862D01*
X240216Y75709D01*
X241829D01*
X242313Y74953D01*
X242352Y74722D01*
X242318Y74674D01*
X242184Y74691D01*
X240216D01*
X239053Y74538D01*
X237970Y74089D01*
X237040Y73376D01*
X236326Y72446D01*
X236053Y71785D01*
X235053Y71984D01*
Y73553D01*
X232450D01*
Y70200D01*
Y66847D01*
X235053D01*
Y68416D01*
X236053Y68615D01*
X236326Y67954D01*
X237040Y67024D01*
X237970Y66311D01*
X239053Y65862D01*
X240216Y65709D01*
X242184D01*
X243347Y65862D01*
X244430Y66311D01*
X245360Y67024D01*
X246074Y67954D01*
X246522Y69038D01*
X246588Y69539D01*
X247624Y70574D01*
X247772D01*
X248700Y70400D01*
X248700Y69574D01*
Y67550D01*
X252600D01*
X256500D01*
Y67983D01*
X256700Y68900D01*
X257500Y68900D01*
X266700D01*
Y69605D01*
X266784Y69664D01*
X267855Y69191D01*
X267862Y69138D01*
X268310Y68054D01*
X269024Y67124D01*
X269954Y66410D01*
X271038Y65962D01*
X272200Y65809D01*
X273362Y65962D01*
X274446Y66410D01*
X275376Y67124D01*
X276090Y68054D01*
X276538Y69138D01*
X276691Y70300D01*
X276538Y71462D01*
X276090Y72546D01*
X275376Y73476D01*
X274446Y74190D01*
X273362Y74638D01*
X272942Y74693D01*
X272724Y74869D01*
X272718Y74975D01*
X273339Y75959D01*
X273362Y75962D01*
X274446Y76411D01*
X275376Y77124D01*
X276090Y78054D01*
X276538Y79138D01*
X276691Y80300D01*
X276538Y81462D01*
X276090Y82546D01*
X275376Y83476D01*
X274446Y84189D01*
X273362Y84638D01*
X272200Y84791D01*
X271038Y84638D01*
X269954Y84189D01*
X269024Y83476D01*
X268871Y83276D01*
X257600D01*
X257600Y85600D01*
X257600Y85900D01*
Y87224D01*
X268948D01*
X269024Y87124D01*
X269954Y86410D01*
X271038Y85962D01*
X272200Y85809D01*
X273362Y85962D01*
X274446Y86410D01*
X275376Y87124D01*
X276090Y88054D01*
X276538Y89138D01*
X276691Y90300D01*
X276538Y91462D01*
X276090Y92546D01*
X275376Y93476D01*
X274446Y94190D01*
X273362Y94638D01*
X273327Y94643D01*
X272775Y95561D01*
X272785Y95723D01*
X272958Y95847D01*
X276653D01*
Y104753D01*
D02*
G37*
G36*
X222450Y73483D02*
Y70950D01*
X224983D01*
X224966Y71075D01*
X224629Y71891D01*
X224091Y72591D01*
X223391Y73129D01*
X222575Y73466D01*
X222450Y73483D01*
D02*
G37*
G36*
X230950Y73553D02*
X228347D01*
Y70950D01*
X230950D01*
Y73553D01*
D02*
G37*
G36*
X224983Y69450D02*
X222450D01*
Y66917D01*
X222575Y66934D01*
X223391Y67271D01*
X224091Y67809D01*
X224629Y68509D01*
X224966Y69325D01*
X224983Y69450D01*
D02*
G37*
G36*
X230950D02*
X228347D01*
Y66847D01*
X230950D01*
Y69450D01*
D02*
G37*
G36*
X256500Y66050D02*
X253350D01*
Y63200D01*
X256500D01*
Y66050D01*
D02*
G37*
G36*
X251850D02*
X248700D01*
Y63200D01*
X251850D01*
Y66050D01*
D02*
G37*
G36*
X265600Y63800D02*
X262450D01*
Y60950D01*
X265600D01*
Y63800D01*
D02*
G37*
G36*
X260950D02*
X257800D01*
Y60950D01*
X260950D01*
Y63800D01*
D02*
G37*
G36*
X265600Y59450D02*
X262450D01*
Y56600D01*
X265600D01*
Y59450D01*
D02*
G37*
G36*
X260950D02*
X257800D01*
Y56600D01*
X260950D01*
Y59450D01*
D02*
G37*
G36*
X245467Y49450D02*
X241950D01*
Y46818D01*
X242184D01*
X243059Y46934D01*
X243875Y47271D01*
X244576Y47809D01*
X245113Y48509D01*
X245451Y49325D01*
X245467Y49450D01*
D02*
G37*
G36*
X249350Y46096D02*
X248125D01*
Y44969D01*
X249350D01*
Y46096D01*
D02*
G37*
G36*
X256575Y46041D02*
X255350D01*
Y44915D01*
X256575D01*
Y46041D01*
D02*
G37*
G36*
X44791Y55345D02*
X43165Y55217D01*
X41580Y54836D01*
X40073Y54212D01*
X38683Y53360D01*
X37444Y52301D01*
X36385Y51062D01*
X35533Y49671D01*
X34909Y48165D01*
X34528Y46580D01*
X34400Y44954D01*
X34528Y43329D01*
X34909Y41743D01*
X35533Y40237D01*
X36385Y38847D01*
X37444Y37607D01*
X38683Y36548D01*
X40073Y35697D01*
X41580Y35073D01*
X43165Y34692D01*
X44791Y34564D01*
X46416Y34692D01*
X48001Y35073D01*
X49508Y35697D01*
X50898Y36548D01*
X52138Y37607D01*
X53197Y38847D01*
X54048Y40237D01*
X54672Y41743D01*
X55053Y43329D01*
X55181Y44954D01*
X55053Y46580D01*
X54672Y48165D01*
X54048Y49671D01*
X53197Y51062D01*
X52138Y52301D01*
X50898Y53360D01*
X49508Y54212D01*
X48001Y54836D01*
X46416Y55217D01*
X44791Y55345D01*
D02*
G37*
G36*
X103650Y21283D02*
Y18750D01*
X106183D01*
X106167Y18875D01*
X105829Y19691D01*
X105291Y20391D01*
X104591Y20929D01*
X103775Y21267D01*
X103650Y21283D01*
D02*
G37*
G36*
X106183Y17250D02*
X103650D01*
Y14717D01*
X103775Y14733D01*
X104591Y15071D01*
X105291Y15609D01*
X105829Y16309D01*
X106167Y17125D01*
X106183Y17250D01*
D02*
G37*
G36*
X102150D02*
X99617D01*
X99634Y17125D01*
X99971Y16309D01*
X100509Y15609D01*
X101209Y15071D01*
X102025Y14733D01*
X102150Y14717D01*
Y17250D01*
D02*
G37*
G36*
X72900Y22491D02*
X71738Y22338D01*
X70654Y21890D01*
X69724Y21176D01*
X69011Y20246D01*
X68562Y19162D01*
X68409Y18000D01*
X68562Y16838D01*
X69011Y15754D01*
X69724Y14824D01*
X70654Y14110D01*
X71738Y13662D01*
X72900Y13509D01*
X74062Y13662D01*
X75146Y14110D01*
X76076Y14824D01*
X76789Y15754D01*
X77238Y16838D01*
X77391Y18000D01*
X77238Y19162D01*
X76789Y20246D01*
X76076Y21176D01*
X75146Y21890D01*
X74062Y22338D01*
X72900Y22491D01*
D02*
G37*
G36*
X103650Y11283D02*
Y8750D01*
X106183D01*
X106167Y8875D01*
X105829Y9691D01*
X105291Y10391D01*
X104591Y10929D01*
X103775Y11266D01*
X103650Y11283D01*
D02*
G37*
G36*
X102150D02*
X102025Y11266D01*
X101209Y10929D01*
X100509Y10391D01*
X99971Y9691D01*
X99634Y8875D01*
X99617Y8750D01*
X102150D01*
Y11283D01*
D02*
G37*
G36*
X163737Y10889D02*
X160150D01*
Y7696D01*
X163737D01*
Y10889D01*
D02*
G37*
G36*
X158650D02*
X155063D01*
Y7696D01*
X158650D01*
Y10889D01*
D02*
G37*
G36*
X222565Y8733D02*
X220750D01*
Y6130D01*
X222565D01*
Y8733D01*
D02*
G37*
G36*
X212565D02*
X210750D01*
Y6130D01*
X212565D01*
Y8733D01*
D02*
G37*
G36*
X202565D02*
X200750D01*
Y6130D01*
X202565D01*
Y8733D01*
D02*
G37*
G36*
X192565D02*
X190750D01*
Y6130D01*
X192565D01*
Y8733D01*
D02*
G37*
G36*
X219250D02*
X217435D01*
Y6130D01*
X219250D01*
Y8733D01*
D02*
G37*
G36*
X199250D02*
X197435D01*
Y6130D01*
X199250D01*
Y8733D01*
D02*
G37*
G36*
X209250D02*
X207435D01*
Y6130D01*
X209250D01*
Y8733D01*
D02*
G37*
G36*
X189250D02*
X187435D01*
Y6130D01*
X189250D01*
Y8733D01*
D02*
G37*
G36*
X106183Y7250D02*
X103650D01*
Y4717D01*
X103775Y4734D01*
X104591Y5071D01*
X105291Y5609D01*
X105829Y6309D01*
X106167Y7125D01*
X106183Y7250D01*
D02*
G37*
G36*
X102150D02*
X99617D01*
X99634Y7125D01*
X99971Y6309D01*
X100509Y5609D01*
X101209Y5071D01*
X102025Y4734D01*
X102150Y4717D01*
Y7250D01*
D02*
G37*
G36*
X72900Y12491D02*
X71738Y12338D01*
X70654Y11890D01*
X69724Y11176D01*
X69011Y10246D01*
X68562Y9162D01*
X68409Y8000D01*
X68562Y6838D01*
X69011Y5754D01*
X69724Y4824D01*
X70654Y4110D01*
X71738Y3662D01*
X72900Y3509D01*
X74062Y3662D01*
X75146Y4110D01*
X76076Y4824D01*
X76789Y5754D01*
X77238Y6838D01*
X77391Y8000D01*
X77238Y9162D01*
X76789Y10246D01*
X76076Y11176D01*
X75146Y11890D01*
X74062Y12338D01*
X72900Y12491D01*
D02*
G37*
G36*
X163737Y6196D02*
X160150D01*
Y3002D01*
X163737D01*
Y6196D01*
D02*
G37*
G36*
X158650D02*
X155063D01*
Y3002D01*
X158650D01*
Y6196D01*
D02*
G37*
G36*
X263779Y29100D02*
X261691Y28936D01*
X259653Y28447D01*
X257718Y27645D01*
X255931Y26550D01*
X254338Y25189D01*
X252977Y23596D01*
X251883Y21810D01*
X251081Y19874D01*
X250592Y17837D01*
X250427Y15748D01*
X250592Y13659D01*
X251081Y11622D01*
X251883Y9686D01*
X252977Y7900D01*
X254338Y6307D01*
X255931Y4946D01*
X257718Y3851D01*
X259653Y3049D01*
X261691Y2560D01*
X263779Y2396D01*
X265868Y2560D01*
X267906Y3049D01*
X269841Y3851D01*
X271628Y4946D01*
X273221Y6307D01*
X274582Y7900D01*
X275676Y9686D01*
X276478Y11622D01*
X276967Y13659D01*
X277132Y15748D01*
X276967Y17837D01*
X276478Y19874D01*
X275676Y21810D01*
X274582Y23596D01*
X273221Y25189D01*
X271628Y26550D01*
X269841Y27645D01*
X267906Y28447D01*
X265868Y28936D01*
X263779Y29100D01*
D02*
G37*
G36*
X15748D02*
X13659Y28936D01*
X11622Y28447D01*
X9686Y27645D01*
X7900Y26550D01*
X6307Y25189D01*
X4946Y23596D01*
X3851Y21810D01*
X3049Y19874D01*
X2560Y17837D01*
X2396Y15748D01*
X2560Y13659D01*
X3049Y11622D01*
X3851Y9686D01*
X4946Y7900D01*
X6307Y6307D01*
X7900Y4946D01*
X9686Y3851D01*
X11622Y3049D01*
X13659Y2560D01*
X15748Y2396D01*
X17837Y2560D01*
X19874Y3049D01*
X21810Y3851D01*
X23596Y4946D01*
X25189Y6307D01*
X26550Y7900D01*
X27645Y9686D01*
X28447Y11622D01*
X28936Y13659D01*
X29100Y15748D01*
X28936Y17837D01*
X28447Y19874D01*
X27645Y21810D01*
X26550Y23596D01*
X25189Y25189D01*
X23596Y26550D01*
X21810Y27645D01*
X19874Y28447D01*
X17837Y28936D01*
X15748Y29100D01*
D02*
G37*
G36*
X222565Y4630D02*
X220750D01*
Y2028D01*
X222565D01*
Y4630D01*
D02*
G37*
G36*
X219250D02*
X217435D01*
Y2028D01*
X219250D01*
Y4630D01*
D02*
G37*
G36*
X212565D02*
X210750D01*
Y2028D01*
X212565D01*
Y4630D01*
D02*
G37*
G36*
X209250D02*
X207435D01*
Y2028D01*
X209250D01*
Y4630D01*
D02*
G37*
G36*
X202565D02*
X200750D01*
Y2028D01*
X202565D01*
Y4630D01*
D02*
G37*
G36*
X199250D02*
X197435D01*
Y2028D01*
X199250D01*
Y4630D01*
D02*
G37*
G36*
X192565D02*
X190750D01*
Y2028D01*
X192565D01*
Y4630D01*
D02*
G37*
G36*
X189250D02*
X187435D01*
Y2028D01*
X189250D01*
Y4630D01*
D02*
G37*
%LPD*%
G36*
X244700Y128700D02*
X248700Y124700D01*
Y117200D01*
X248200Y116700D01*
X232200D01*
X227700Y121200D01*
Y152200D01*
X244700D01*
Y128700D01*
D02*
G37*
G36*
X74607Y112959D02*
X82725D01*
Y113091D01*
X83740D01*
X83975Y112899D01*
Y112650D01*
X86934D01*
Y111150D01*
X83975D01*
Y110709D01*
X82725D01*
Y110841D01*
X74607D01*
Y109900D01*
X67031D01*
Y113900D01*
X74607D01*
Y112959D01*
D02*
G37*
G36*
X120415Y151225D02*
X120469D01*
Y146725D01*
Y142325D01*
X119903Y141560D01*
X119738Y141538D01*
X118654Y141089D01*
X117724Y140376D01*
X117010Y139446D01*
X116562Y138362D01*
X116409Y137200D01*
X116562Y136038D01*
X117010Y134954D01*
X117724Y134024D01*
X118654Y133310D01*
X118670Y133304D01*
Y129494D01*
X118765Y128776D01*
X119042Y128107D01*
X119483Y127532D01*
X120415Y126600D01*
X120001Y125600D01*
X119050D01*
Y123900D01*
Y122200D01*
X122592D01*
X123047Y121400D01*
X122592Y120600D01*
X119050D01*
Y118900D01*
X118300D01*
Y118150D01*
X113900D01*
Y117200D01*
X113107Y116700D01*
X112800D01*
Y111100D01*
Y106100D01*
Y101100D01*
Y96100D01*
Y91100D01*
X112800D01*
X112672Y90153D01*
X101928D01*
X101800Y91100D01*
X101800D01*
Y96100D01*
Y101651D01*
X102776Y101845D01*
X103602Y102398D01*
X105302Y104098D01*
X105855Y104924D01*
X106049Y105900D01*
Y117700D01*
X105855Y118675D01*
X105302Y119502D01*
X104102Y120702D01*
X103276Y121255D01*
X102300Y121449D01*
X101800D01*
Y126700D01*
X90800D01*
Y121449D01*
X89300D01*
X88324Y121255D01*
X87498Y120702D01*
X87185Y120390D01*
X86185Y120804D01*
Y122775D01*
X85059D01*
Y120800D01*
X83559D01*
Y122775D01*
X82432D01*
Y122775D01*
X81576Y123123D01*
Y123875D01*
X75624D01*
Y123300D01*
X65931D01*
Y125675D01*
X64804D01*
Y123700D01*
X63304D01*
Y125675D01*
X62178D01*
Y125675D01*
X61322Y126023D01*
Y126775D01*
X56508D01*
X56094Y127775D01*
X84980Y156661D01*
X120415D01*
Y151225D01*
D02*
G37*
G36*
X213884Y74344D02*
X213827Y73999D01*
X212716Y73408D01*
X212575Y73466D01*
X212450Y73483D01*
Y70200D01*
X210950D01*
Y73483D01*
X210825Y73466D01*
X210009Y73129D01*
X209943Y73078D01*
X208943Y73571D01*
Y74700D01*
X208772Y75558D01*
X208286Y76286D01*
X202786Y81786D01*
X202058Y82272D01*
X201200Y82443D01*
X196075D01*
X196074Y82446D01*
X195360Y83376D01*
X194430Y84089D01*
X193347Y84538D01*
X192184Y84691D01*
X190216D01*
X189053Y84538D01*
X187970Y84089D01*
X187031Y84629D01*
Y85771D01*
X187970Y86310D01*
X189053Y85862D01*
X190216Y85709D01*
X192184D01*
X193347Y85862D01*
X194430Y86310D01*
X195360Y87024D01*
X196074Y87954D01*
X196522Y89038D01*
X196668Y90145D01*
X196833Y90265D01*
X197632Y90596D01*
X213884Y74344D01*
D02*
G37*
G36*
X45396Y115189D02*
X45468Y114642D01*
X45976Y113415D01*
X46784Y112361D01*
X47838Y111553D01*
X49064Y111045D01*
X49330Y111010D01*
Y110001D01*
X49064Y109966D01*
X47838Y109458D01*
X46784Y108650D01*
X45976Y107596D01*
X45468Y106369D01*
X45294Y105053D01*
X45468Y103736D01*
X45976Y102509D01*
X46784Y101456D01*
X47838Y100647D01*
X49064Y100139D01*
X50381Y99966D01*
X51698Y100139D01*
X52925Y100647D01*
X53978Y101456D01*
X54269Y101835D01*
X55225Y101539D01*
X55269Y101496D01*
Y97025D01*
X61222D01*
Y97777D01*
X62078Y98125D01*
Y98125D01*
X63204D01*
Y100100D01*
X64704D01*
Y98125D01*
X65831D01*
Y100500D01*
X75624D01*
Y99925D01*
X79590D01*
X80569Y99875D01*
X80569Y98925D01*
Y98650D01*
X82446D01*
Y97150D01*
X80569D01*
X80569Y95650D01*
X80569Y94925D01*
Y94150D01*
X82446D01*
Y93400D01*
X83196D01*
Y91425D01*
X84178D01*
X84322Y91425D01*
X85178Y91077D01*
Y90325D01*
X85605D01*
Y89471D01*
X85799Y88495D01*
X85839Y88436D01*
Y87014D01*
X87405D01*
X88225Y86851D01*
X89046Y87014D01*
X90156D01*
X91369Y85802D01*
X92195Y85249D01*
X93171Y85055D01*
X109117D01*
Y81958D01*
X110117D01*
Y79711D01*
X109304Y79344D01*
X109152Y79331D01*
X105125D01*
Y78833D01*
X102534D01*
X102381Y78802D01*
X101086D01*
Y79802D01*
X96314D01*
Y78802D01*
X93574D01*
Y78796D01*
X89175D01*
Y79231D01*
X85025D01*
Y79231D01*
X84675D01*
Y79231D01*
X80525D01*
Y79231D01*
X80100Y78850D01*
X74900D01*
X74100Y79333D01*
Y79850D01*
X66900D01*
Y71350D01*
X66900D01*
X67054Y70977D01*
X63051Y66974D01*
X44349D01*
X41974Y69349D01*
Y73560D01*
X42797Y74192D01*
X43605Y75246D01*
X44113Y76472D01*
X44287Y77789D01*
X44113Y79106D01*
X43605Y80332D01*
X42797Y81386D01*
X41743Y82194D01*
X40517Y82702D01*
X40251Y82737D01*
Y83746D01*
X40517Y83781D01*
X41743Y84289D01*
X42797Y85098D01*
X43605Y86151D01*
X44113Y87378D01*
X44287Y88695D01*
X44113Y90011D01*
X43865Y90610D01*
Y97685D01*
X44113Y98283D01*
X44287Y99600D01*
X44113Y100917D01*
X43865Y101515D01*
Y108590D01*
X44113Y109189D01*
X44287Y110505D01*
X44113Y111822D01*
X43865Y112421D01*
Y115221D01*
X44387Y115619D01*
X45396Y115189D01*
D02*
G37*
G36*
X113775Y75378D02*
X114750Y75319D01*
X115058Y74858D01*
X118041Y71875D01*
X117627Y70875D01*
X117041D01*
Y68900D01*
X116291D01*
Y68150D01*
X114415D01*
X114415Y66925D01*
X113684Y66276D01*
X112450Y66276D01*
X111725Y66276D01*
X110950D01*
Y64400D01*
X110200D01*
Y63650D01*
X108225D01*
Y63274D01*
X105000D01*
X104306Y63182D01*
X96575D01*
Y63331D01*
X90425D01*
Y63182D01*
X88409D01*
X87691Y63088D01*
X87022Y62811D01*
X86447Y62370D01*
X76084Y52007D01*
X75643Y51433D01*
X75366Y50763D01*
X75272Y50046D01*
Y47775D01*
X75015D01*
Y41625D01*
X75015D01*
X75069Y41575D01*
Y35992D01*
X74614Y35536D01*
X74614Y35536D01*
X73905Y34828D01*
X71775D01*
Y35031D01*
X66974D01*
Y61700D01*
Y63051D01*
X72461Y68539D01*
X72902Y69113D01*
X73179Y69782D01*
X73274Y70500D01*
Y71350D01*
X74100D01*
Y71867D01*
X74900Y72350D01*
X79625D01*
X80100Y72350D01*
X80137Y72296D01*
X82600D01*
Y71546D01*
X83350D01*
Y69669D01*
X84850D01*
X85575Y69669D01*
X86350D01*
Y71546D01*
X87850D01*
Y69669D01*
X88622D01*
X89075Y69669D01*
X89622Y68896D01*
Y68400D01*
X89734Y67834D01*
X90055Y67355D01*
X91373Y66037D01*
X91852Y65716D01*
X92418Y65604D01*
X93574D01*
Y65598D01*
X96346D01*
Y66939D01*
X96374Y67082D01*
X96346Y67225D01*
Y68341D01*
X97414D01*
Y67832D01*
X98700D01*
Y67082D01*
X99450D01*
Y65698D01*
X99986D01*
X100054Y64726D01*
Y64598D01*
X104826D01*
Y68935D01*
X105164Y69641D01*
X105742Y69769D01*
X106450D01*
Y70896D01*
X105136D01*
X104662Y70406D01*
X104132Y70411D01*
X104036Y70503D01*
Y71450D01*
X98700D01*
Y72950D01*
X104036D01*
Y75300D01*
X104131Y75364D01*
X105125Y75378D01*
Y75378D01*
X109275D01*
Y75378D01*
X109625D01*
Y75378D01*
X113775D01*
X113775Y75378D01*
D02*
G37*
G36*
X137195Y84223D02*
X138010Y84061D01*
X138826Y84223D01*
X138995Y84336D01*
X139163Y84223D01*
X139979Y84061D01*
X140794Y84223D01*
X140963Y84336D01*
X141132Y84223D01*
X141947Y84061D01*
X142763Y84223D01*
X142931Y84336D01*
X143100Y84223D01*
X143916Y84061D01*
X144731Y84223D01*
X144900Y84336D01*
X145069Y84223D01*
X145884Y84061D01*
X146700Y84223D01*
X146869Y84336D01*
X147037Y84223D01*
X147853Y84061D01*
X148669Y84223D01*
X148837Y84336D01*
X149006Y84223D01*
X149751Y84075D01*
Y80105D01*
X149660Y79969D01*
X149467Y79000D01*
X149660Y78031D01*
X150209Y77209D01*
X151031Y76660D01*
X152000Y76467D01*
X152969Y76660D01*
X153791Y77209D01*
X154340Y78031D01*
X154533Y79000D01*
X154340Y79969D01*
X153829Y80734D01*
Y84075D01*
X154574Y84223D01*
X154743Y84336D01*
X154911Y84223D01*
X155733Y84033D01*
X155923Y83211D01*
X156385Y82520D01*
Y81597D01*
X155923Y80905D01*
X155761Y80090D01*
X155923Y79274D01*
X156035Y79106D01*
X155923Y78937D01*
X155761Y78121D01*
X155923Y77306D01*
X156035Y77137D01*
X155923Y76968D01*
X155761Y76153D01*
X155923Y75337D01*
X156035Y75169D01*
X155923Y75000D01*
X155761Y74184D01*
X155923Y73369D01*
X156035Y73200D01*
X155923Y73031D01*
X155761Y72216D01*
X155923Y71400D01*
X156035Y71232D01*
X155923Y71063D01*
X155761Y70247D01*
X155886Y69616D01*
X155484Y69007D01*
X155200Y68733D01*
X154231Y68540D01*
X153409Y67991D01*
X152860Y67169D01*
X152667Y66200D01*
X152721Y65927D01*
X151871Y65076D01*
X151853Y65080D01*
X150884Y64887D01*
X150062Y64338D01*
X149716Y63821D01*
X149704Y63816D01*
X148691Y63792D01*
X148605Y63821D01*
X148291Y64291D01*
X147469Y64840D01*
X146500Y65033D01*
X145531Y64840D01*
X144709Y64291D01*
X144160Y63469D01*
X143967Y62500D01*
X143100Y62177D01*
X142931Y62064D01*
X142763Y62177D01*
X142023Y62324D01*
Y64822D01*
X141868Y65602D01*
X141426Y66264D01*
X140446Y67244D01*
X140340Y67775D01*
X139791Y68597D01*
X138969Y69146D01*
X138000Y69339D01*
X137501Y69240D01*
X136832Y69420D01*
X136442Y69956D01*
X136340Y70469D01*
X135791Y71291D01*
X134969Y71840D01*
X134003Y72032D01*
X134039Y72216D01*
X133877Y73031D01*
X133765Y73200D01*
X133877Y73369D01*
X134039Y74184D01*
X134010Y74332D01*
X134629Y74746D01*
X135438Y75554D01*
X135969Y75660D01*
X136791Y76209D01*
X137340Y77031D01*
X137533Y78000D01*
X137340Y78969D01*
X136986Y79500D01*
X137340Y80031D01*
X137533Y81000D01*
X137340Y81969D01*
X136791Y82791D01*
X136360Y83079D01*
X136035Y84159D01*
X136049Y84344D01*
X136281Y84659D01*
X136503Y84685D01*
X137195Y84223D01*
D02*
G37*
G36*
X107125Y56552D02*
X107069Y55575D01*
X107069Y55575D01*
X107069D01*
Y51904D01*
X106253Y51088D01*
X105722Y50983D01*
X105272Y50682D01*
X104179D01*
X103398Y50526D01*
X102737Y50084D01*
X102151Y49499D01*
X101863Y49067D01*
X100863Y49319D01*
Y50276D01*
X100786Y50662D01*
X100603Y50936D01*
Y49193D01*
X99853D01*
Y48443D01*
X98843D01*
Y48110D01*
X98897Y47837D01*
X98838Y47604D01*
X98312Y46837D01*
X96722D01*
X96024Y47837D01*
X96079Y48110D01*
Y50276D01*
X96000Y50669D01*
X96049Y51669D01*
X96575D01*
Y57635D01*
X104909D01*
X105602Y57726D01*
X107125D01*
Y56552D01*
D02*
G37*
G36*
X164231Y54860D02*
X165200Y54667D01*
X165225Y54672D01*
X166225Y53851D01*
Y53680D01*
X166977D01*
X167325Y52824D01*
X167325Y52680D01*
Y51599D01*
X169300D01*
Y50849D01*
X170050D01*
Y48874D01*
X170925D01*
X171925Y48874D01*
X172275Y48874D01*
X173150D01*
Y50849D01*
X174650D01*
Y48874D01*
X175625D01*
X175875Y48874D01*
X176625D01*
X176875Y48874D01*
X177850D01*
Y50849D01*
X178600D01*
Y51599D01*
X180575D01*
Y52680D01*
X180575Y52824D01*
X180923Y53680D01*
X181675D01*
Y54550D01*
X182599Y54933D01*
X185963Y51569D01*
X185878Y51362D01*
X185725Y50200D01*
X185878Y49038D01*
X186326Y47954D01*
X186868Y47249D01*
X186617Y46494D01*
X186421Y46249D01*
X181531D01*
Y46775D01*
X169869D01*
Y46183D01*
X169225Y46055D01*
X168398Y45502D01*
X167845Y44675D01*
X167651Y43700D01*
X167845Y42724D01*
X168398Y41898D01*
X168542Y41801D01*
Y40599D01*
X168398Y40502D01*
X167845Y39676D01*
X167651Y38700D01*
X167845Y37725D01*
X168398Y36898D01*
X168542Y36801D01*
Y35599D01*
X168398Y35502D01*
X167845Y34675D01*
X167651Y33700D01*
X167845Y32724D01*
X168398Y31898D01*
X168542Y31801D01*
Y30599D01*
X168398Y30502D01*
X167845Y29675D01*
X167651Y28700D01*
X167845Y27724D01*
X168398Y26898D01*
X169225Y26345D01*
X169869Y26217D01*
Y25625D01*
X178046D01*
X178183Y25474D01*
X177738Y24474D01*
X154249D01*
Y32611D01*
X164837D01*
Y42698D01*
X164675D01*
Y48376D01*
X163923D01*
X163575Y49232D01*
X163575D01*
Y50359D01*
X161600D01*
Y51109D01*
X160850D01*
Y52985D01*
X159975D01*
Y53976D01*
X158958D01*
X158168Y54976D01*
X158212Y55161D01*
X163780D01*
X164231Y54860D01*
D02*
G37*
G36*
X197457Y48808D02*
X197810Y47954D01*
X198524Y47024D01*
X199454Y46310D01*
X200538Y45862D01*
X200404Y44872D01*
X196335D01*
Y39572D01*
X194665Y37902D01*
X193665Y38317D01*
Y44872D01*
X193481D01*
X193347Y45862D01*
X194430Y46310D01*
X195360Y47024D01*
X196074Y47954D01*
X196427Y48808D01*
X196531Y48834D01*
X197353D01*
X197457Y48808D01*
D02*
G37*
G36*
X128239Y55539D02*
X128813Y55098D01*
X129482Y54821D01*
X130200Y54726D01*
X131942D01*
Y54302D01*
X132104Y53487D01*
X132566Y52795D01*
X133257Y52333D01*
X133787Y52228D01*
X134096Y52125D01*
X134533Y51243D01*
X134515Y51154D01*
Y49875D01*
X133578D01*
Y49123D01*
X132722Y48775D01*
X132578Y48775D01*
X131596D01*
Y46800D01*
Y44825D01*
X132578D01*
X132722Y44825D01*
X133578Y44477D01*
Y43725D01*
X134661D01*
Y38913D01*
X133541Y37793D01*
X132569Y38236D01*
X132569Y38707D01*
Y39874D01*
X129376D01*
Y37862D01*
X131655D01*
X132196Y37862D01*
X132639Y36891D01*
X130786Y35038D01*
X123583D01*
Y27313D01*
X133669D01*
Y32154D01*
X138142Y36627D01*
X138331Y36909D01*
X139331Y36762D01*
Y36762D01*
X149151D01*
Y34339D01*
X148317Y33938D01*
X148151Y33938D01*
X145124D01*
Y31176D01*
Y28413D01*
X148151D01*
X148317Y28413D01*
X149151Y28012D01*
Y24474D01*
X121449D01*
X118474Y27449D01*
Y32625D01*
X118531D01*
Y38775D01*
X118474D01*
Y42425D01*
X118731D01*
Y48575D01*
X118731D01*
Y49425D01*
X118731D01*
Y54398D01*
X120048Y55715D01*
X122275D01*
Y55918D01*
X127860D01*
X128239Y55539D01*
D02*
G37*
G36*
X227247Y45747D02*
X227878D01*
X228724Y45375D01*
Y39225D01*
X234635D01*
Y36558D01*
X222551Y24474D01*
X209402D01*
X209396Y24488D01*
X209236Y25474D01*
X209870Y25898D01*
X219939Y35967D01*
X223665D01*
Y44872D01*
X222996D01*
X222862Y45862D01*
X223946Y46310D01*
X224876Y47024D01*
X225357Y47651D01*
X227247D01*
Y45747D01*
D02*
G37*
%LPC*%
G36*
X115353Y141653D02*
X106447D01*
Y132747D01*
X115353D01*
Y141653D01*
D02*
G37*
G36*
X117550Y125600D02*
X113900D01*
Y124650D01*
X117550D01*
Y125600D01*
D02*
G37*
G36*
Y123150D02*
X113900D01*
Y122200D01*
X117550D01*
Y123150D01*
D02*
G37*
G36*
Y120600D02*
X113900D01*
Y119650D01*
X117550D01*
Y120600D01*
D02*
G37*
G36*
X51131Y98026D02*
Y94897D01*
X54260D01*
X54223Y95177D01*
X53826Y96136D01*
X53193Y96960D01*
X52370Y97592D01*
X51411Y97989D01*
X51131Y98026D01*
D02*
G37*
G36*
X49631Y98026D02*
X49352Y97989D01*
X48392Y97592D01*
X47569Y96960D01*
X46937Y96136D01*
X46539Y95177D01*
X46503Y94897D01*
X49631D01*
Y98026D01*
D02*
G37*
G36*
X81696Y92650D02*
X80569D01*
Y91425D01*
X81696D01*
Y92650D01*
D02*
G37*
G36*
X54260Y93397D02*
X51131D01*
Y90269D01*
X51411Y90305D01*
X52370Y90703D01*
X53193Y91335D01*
X53826Y92159D01*
X54223Y93118D01*
X54260Y93397D01*
D02*
G37*
G36*
X49631D02*
X46503D01*
X46539Y93118D01*
X46937Y92159D01*
X47569Y91335D01*
X48392Y90703D01*
X49352Y90305D01*
X49631Y90269D01*
Y93397D01*
D02*
G37*
G36*
X51131Y87120D02*
Y83992D01*
X54260D01*
X54223Y84271D01*
X53826Y85230D01*
X53193Y86054D01*
X52370Y86686D01*
X51411Y87084D01*
X51131Y87120D01*
D02*
G37*
G36*
X49631Y87120D02*
X49352Y87084D01*
X48392Y86686D01*
X47569Y86054D01*
X46937Y85230D01*
X46539Y84271D01*
X46503Y83992D01*
X49631D01*
Y87120D01*
D02*
G37*
G36*
X54260Y82492D02*
X51131D01*
Y79363D01*
X51411Y79400D01*
X52370Y79797D01*
X53193Y80429D01*
X53826Y81253D01*
X54223Y82212D01*
X54260Y82492D01*
D02*
G37*
G36*
X49631D02*
X46503D01*
X46539Y82212D01*
X46937Y81253D01*
X47569Y80429D01*
X48392Y79797D01*
X49352Y79400D01*
X49631Y79363D01*
Y82492D01*
D02*
G37*
G36*
X51131Y76215D02*
Y73086D01*
X54260D01*
X54223Y73366D01*
X53826Y74325D01*
X53193Y75149D01*
X52370Y75781D01*
X51411Y76178D01*
X51131Y76215D01*
D02*
G37*
G36*
X49631Y76215D02*
X49352Y76178D01*
X48392Y75781D01*
X47569Y75149D01*
X46937Y74325D01*
X46539Y73366D01*
X46503Y73086D01*
X49631D01*
Y76215D01*
D02*
G37*
G36*
X54260Y71586D02*
X51131D01*
Y68458D01*
X51411Y68494D01*
X52370Y68892D01*
X53193Y69524D01*
X53826Y70348D01*
X54223Y71307D01*
X54260Y71586D01*
D02*
G37*
G36*
X49631D02*
X46503D01*
X46539Y71307D01*
X46937Y70348D01*
X47569Y69524D01*
X48392Y68892D01*
X49352Y68494D01*
X49631Y68458D01*
Y71586D01*
D02*
G37*
G36*
X112450Y73522D02*
Y72396D01*
X113675D01*
Y73522D01*
X112450D01*
D02*
G37*
G36*
X106450D02*
X105225D01*
Y72396D01*
X106450D01*
Y73522D01*
D02*
G37*
G36*
X109450Y73522D02*
X108725Y73522D01*
X107950D01*
Y71646D01*
Y69769D01*
X109450D01*
X110175Y69769D01*
X110950D01*
Y71646D01*
Y73522D01*
X109450D01*
D02*
G37*
G36*
X81850Y70796D02*
X80625D01*
Y69669D01*
X81850D01*
Y70796D01*
D02*
G37*
G36*
X114390Y70896D02*
X112450D01*
Y69769D01*
X113415D01*
X113675Y69769D01*
X113815Y69650D01*
X115541D01*
Y70875D01*
X114675D01*
X114415Y70875D01*
X114390Y70896D01*
D02*
G37*
G36*
X97950Y66332D02*
X97414D01*
Y65698D01*
X97950D01*
Y66332D01*
D02*
G37*
G36*
X109450Y66276D02*
X108225D01*
Y65150D01*
X109450D01*
Y66276D01*
D02*
G37*
G36*
X99103Y50936D02*
X98920Y50662D01*
X98843Y50276D01*
Y49943D01*
X99103D01*
Y50936D01*
D02*
G37*
G36*
X163575Y52985D02*
X162350D01*
Y51859D01*
X163575D01*
Y52985D01*
D02*
G37*
G36*
X180575Y50099D02*
X179350D01*
Y48874D01*
X180575D01*
Y50099D01*
D02*
G37*
G36*
X168550D02*
X167325D01*
Y48874D01*
X168550D01*
Y50099D01*
D02*
G37*
G36*
X130096Y48775D02*
X128969D01*
Y47550D01*
X130096D01*
Y48775D01*
D02*
G37*
G36*
Y46050D02*
X128969D01*
Y44825D01*
X130096D01*
Y46050D01*
D02*
G37*
G36*
X132569Y43387D02*
X129376D01*
Y41374D01*
X132569D01*
Y43387D01*
D02*
G37*
G36*
X127876D02*
X124683D01*
Y41374D01*
X127876D01*
Y43387D01*
D02*
G37*
G36*
Y39874D02*
X124683D01*
Y37862D01*
X127876D01*
Y39874D01*
D02*
G37*
G36*
X143624Y33938D02*
X140431D01*
Y31926D01*
X143624D01*
Y33938D01*
D02*
G37*
G36*
Y30426D02*
X140431D01*
Y28413D01*
X143624D01*
Y30426D01*
D02*
G37*
%LPD*%
D11*
X153300Y123300D02*
X158951Y128951D01*
X161556D01*
X89500Y38294D02*
X89769Y38563D01*
X89500Y36000D02*
Y38294D01*
X89769Y38563D02*
X90207D01*
X90302Y51540D02*
X91000Y50841D01*
X90207Y46437D02*
X90916D01*
X91000Y46521D01*
Y50841D01*
X90302Y51540D02*
Y51802D01*
X86500Y49500D02*
X89000D01*
X84189Y47189D02*
X86500Y49500D01*
X81500Y48500D02*
X87430Y54430D01*
X93284D01*
X133817Y69500D02*
X134000D01*
X132630Y68313D02*
X133817Y69500D01*
X103593Y42500D02*
X108702D01*
X109069Y51524D02*
X110046Y52500D01*
X109069Y51020D02*
Y51524D01*
X107000Y48951D02*
X109069Y51020D01*
X103593Y46437D02*
Y48057D01*
X104179Y48643D02*
X106691D01*
X103593Y48057D02*
X104179Y48643D01*
X111531Y40532D02*
X112500Y41500D01*
X103593Y40532D02*
X111531D01*
X128990Y76187D02*
X133187D01*
X135000Y78000D02*
Y78000D01*
X133187Y76187D02*
X135000Y78000D01*
X132350Y78156D02*
X135000Y80806D01*
X128990Y78156D02*
X132350D01*
X135000Y80806D02*
Y81000D01*
X124080Y64500D02*
X124099Y64482D01*
X125813D01*
X125895Y64400D01*
X119200D02*
X119300Y64500D01*
X138411Y98857D02*
X138454Y98900D01*
X138411Y96411D02*
Y98857D01*
X137000Y95000D02*
X138411Y96411D01*
X136076Y89179D02*
Y93930D01*
X137000Y94854D01*
Y95000D01*
X96900Y42500D02*
X97500Y43100D01*
Y48500D01*
X93284Y54430D02*
X93500Y54646D01*
X86750Y42000D02*
X87250Y42500D01*
X81000Y42000D02*
X86750D01*
X128955Y76153D02*
X128990Y76187D01*
X151790Y79210D02*
Y89145D01*
Y79210D02*
X152000Y79000D01*
X149000Y62000D02*
Y65000D01*
X147853Y57255D02*
X147887Y57290D01*
Y60887D01*
X149000Y62000D01*
X145884Y57255D02*
Y61622D01*
X145884Y57255D02*
X145884Y57255D01*
Y61622D02*
X146500Y62238D01*
Y62500D01*
X155332Y80832D02*
X155500Y81000D01*
X155332Y78516D02*
Y80832D01*
X154823Y78007D02*
X155332Y78516D01*
X136042Y83458D02*
Y89145D01*
Y83458D02*
X136500Y83000D01*
X153837Y57334D02*
Y61837D01*
X153758Y57255D02*
X153837Y57334D01*
Y61837D02*
X154700Y62700D01*
X151821Y57287D02*
Y62515D01*
X151790Y57255D02*
X151821Y57287D01*
Y62515D02*
X151853Y62547D01*
X138000Y66806D02*
X139984Y64822D01*
Y57261D02*
Y64822D01*
X139979Y57255D02*
X139984Y57261D01*
X138000Y64000D02*
X138010Y63990D01*
Y57255D02*
Y63990D01*
X131809Y107998D02*
X134500Y110690D01*
Y112500D02*
X136737Y114737D01*
X134500Y110690D02*
Y112500D01*
X136737Y114737D02*
Y120043D01*
X131809Y107900D02*
Y107998D01*
X134753Y115943D02*
Y116105D01*
X131809Y112900D02*
Y112998D01*
X134753Y115943D01*
X132909Y119000D02*
X134500D01*
X131809Y117900D02*
X132909Y119000D01*
X178346Y80200D02*
Y80298D01*
X181000Y82953D01*
X178346Y90102D02*
Y90200D01*
Y90102D02*
X181000Y87447D01*
Y82953D02*
Y87447D01*
X174000Y80726D02*
Y86500D01*
X163976Y80140D02*
X173414D01*
X175503Y80003D02*
Y82259D01*
X178346Y85102D01*
X173414Y80140D02*
X174000Y80726D01*
Y86500D02*
X176602Y89102D01*
X178346Y85102D02*
Y85200D01*
X173637Y78137D02*
X175503Y80003D01*
X176602Y89102D02*
X177346D01*
X160845Y78137D02*
X173637D01*
X163960Y80124D02*
X163976Y80140D01*
X163719Y80124D02*
X163960D01*
X163700Y80106D02*
X163719Y80124D01*
X185200Y115200D02*
X194700D01*
X155500Y81000D02*
Y81235D01*
X156302Y82037D01*
X160824D01*
X160845Y82058D01*
X166469D01*
X87652Y22152D02*
X89200Y23700D01*
X87652Y12752D02*
Y22152D01*
X89200Y23700D02*
X94700D01*
X136600Y102500D02*
X141907Y107807D01*
X147053D02*
X147546Y108300D01*
X141907Y107807D02*
X147053D01*
X87131Y39575D02*
X88053Y40497D01*
X84731Y39575D02*
X87131D01*
X88053Y40497D02*
X90172D01*
X83754Y38598D02*
X84731Y39575D01*
X81076Y34655D02*
Y35723D01*
X108702Y42500D02*
X109287Y43086D01*
Y44742D02*
X110046Y45500D01*
X109287Y43086D02*
Y44742D01*
X106003Y44503D02*
X107000Y45500D01*
X103628Y44503D02*
X106003D01*
X87250Y42500D02*
X90207D01*
X82900Y18000D02*
Y19139D01*
X81000Y21039D02*
Y26500D01*
Y21039D02*
X82900Y19139D01*
X81076Y35723D02*
X83754Y38402D01*
Y38500D01*
X90172Y40497D02*
X90207Y40532D01*
X83754Y38500D02*
Y38598D01*
X83700Y44700D02*
X84189Y45189D01*
Y47189D01*
X93947Y49193D02*
Y54474D01*
X129807Y31176D02*
X136700Y38069D01*
X136554Y46800D02*
X136700Y46654D01*
Y38069D02*
Y46654D01*
X140700Y46800D02*
X141676Y45824D01*
Y45163D02*
Y45824D01*
Y45163D02*
X141700Y45139D01*
Y42487D02*
Y45139D01*
Y42487D02*
X143562Y40624D01*
X144374D01*
X140700Y46800D02*
Y50200D01*
X103593Y44469D02*
X103628Y44503D01*
X106456Y35700D02*
X109846D01*
X103593Y38563D02*
X106456Y35700D01*
X94700Y23700D02*
X96148Y22252D01*
X98752D02*
X102200Y25700D01*
X96148Y22252D02*
X98752D01*
X102200Y25700D02*
Y32377D01*
X82900Y8000D02*
X87652Y12752D01*
X99853Y34724D02*
Y35807D01*
Y34724D02*
X102200Y32377D01*
X99853Y45353D02*
Y49193D01*
X99700Y45200D02*
X99853Y45353D01*
X83931Y44469D02*
X90207D01*
X83700Y44700D02*
X83931Y44469D01*
X125895Y64400D02*
X128955D01*
X155276Y66276D02*
X160810D01*
X160845Y66310D01*
X155200Y66200D02*
X155276Y66276D01*
X160845Y62373D02*
X163567D01*
X163651Y62290D01*
Y61270D02*
Y62290D01*
Y61270D02*
X164536Y60385D01*
X165015D01*
X165200Y60200D01*
X165100Y57300D02*
X165200Y57200D01*
X156170D02*
X165200D01*
X155976Y57394D02*
X156170Y57200D01*
X155782D02*
X155976Y57394D01*
X155727Y57255D02*
X155782Y57200D01*
X167687Y83291D02*
Y85687D01*
X147546Y123300D02*
X153300D01*
X135200Y62700D02*
Y64200D01*
Y62700D02*
X136042Y61858D01*
Y57255D02*
Y61858D01*
X134310Y66310D02*
X135200Y67200D01*
X128955Y68279D02*
X128990Y68313D01*
X132630D01*
X128955Y66310D02*
X134310D01*
X116500Y76300D02*
Y81846D01*
X160845Y64342D02*
X160874Y64371D01*
X165671D01*
X165700Y64400D01*
X123900Y80710D02*
Y85000D01*
X127200Y88300D02*
Y101200D01*
X123900Y85000D02*
X127200Y88300D01*
X130700Y102500D02*
X136600D01*
X130500Y104500D02*
X135517D01*
X144317Y113300D01*
X140776Y93976D02*
X143321Y96521D01*
X138101Y92875D02*
X139201Y93976D01*
X140776D01*
X138010Y89145D02*
Y92147D01*
X138101Y92237D01*
X143321Y96521D02*
Y102304D01*
X138101Y92237D02*
Y92875D01*
X136042Y89145D02*
X136076Y89179D01*
X140700Y50200D02*
X143881Y53381D01*
X141913Y53580D02*
Y57221D01*
X140757Y52424D02*
X141913Y53580D01*
X137824Y52424D02*
X140757D01*
X178600Y56754D02*
Y61100D01*
X173900Y56754D02*
Y61100D01*
X169300Y56754D02*
Y61100D01*
X160845Y68279D02*
X167731D01*
X169202Y66809D01*
X169300D01*
X173900D02*
Y68900D01*
X160845Y70247D02*
X172553D01*
X173900Y68900D01*
X178600Y66809D02*
X178700Y66909D01*
Y70600D01*
X160845Y72216D02*
X177084D01*
X178700Y70600D01*
X128955Y78121D02*
X128990Y78156D01*
X127200Y101200D02*
X130500Y104500D01*
X128626Y31176D02*
X129807D01*
X149821Y57255D02*
X149856Y57221D01*
Y53551D02*
Y57221D01*
Y53551D02*
X152209Y51198D01*
Y51100D02*
Y51198D01*
X147853Y52551D02*
Y57255D01*
X146500Y51198D02*
X147853Y52551D01*
X146500Y51100D02*
Y51198D01*
X143881Y57221D02*
X143916Y57255D01*
X143881Y53381D02*
Y57221D01*
X136554Y46800D02*
Y51154D01*
X137824Y52424D01*
X141913Y57221D02*
X141947Y57255D01*
X145919Y89179D02*
Y93919D01*
X148400Y96400D02*
X152800D01*
X145919Y93919D02*
X148400Y96400D01*
X143916Y94816D02*
X147700Y98600D01*
X152300D01*
X143916Y89145D02*
Y94816D01*
X156300Y107300D02*
X157300Y108300D01*
X162900D01*
X156200Y113300D02*
X162900D01*
X154400Y111500D02*
X156200Y113300D01*
X152300Y98600D02*
X154400Y100700D01*
Y111500D01*
X156300Y99900D02*
Y107300D01*
X152800Y96400D02*
X156300Y99900D01*
X145884Y89145D02*
X145919Y89179D01*
X128955Y84110D02*
Y100755D01*
X130700Y102500D01*
X128955Y84027D02*
Y84110D01*
X128955Y84110D01*
X124486Y80124D02*
X128920D01*
X123900Y80710D02*
X124486Y80124D01*
X128920D02*
X128955Y80090D01*
X144317Y113300D02*
X147546D01*
X144317Y103300D02*
X147546D01*
X143321Y102304D02*
X144317Y103300D01*
X121000Y77100D02*
X123916Y74184D01*
X121000Y77100D02*
Y81846D01*
X123916Y74184D02*
X128955D01*
X120584Y72216D02*
X128955D01*
X116500Y76300D02*
X120584Y72216D01*
X123249Y70247D02*
X128955D01*
X122000Y68998D02*
X123249Y70247D01*
X122000Y68900D02*
Y68998D01*
X125895Y64400D02*
X125953Y64342D01*
X128955D01*
X110200Y64400D02*
X110229Y64371D01*
X153758Y89145D02*
Y94458D01*
X163475Y89000D02*
X167800D01*
X160845Y86370D02*
X163475Y89000D01*
X160845Y84027D02*
Y86370D01*
X166469Y82058D02*
X167702Y83291D01*
X167800D01*
X160845Y74200D02*
X179200D01*
X160845Y76169D02*
X180231D01*
X194700Y115200D02*
X194706Y115194D01*
X183700Y62786D02*
Y72700D01*
X180231Y76169D02*
X183700Y72700D01*
X181700Y58716D02*
Y71700D01*
X179200Y74200D02*
X181700Y71700D01*
Y58716D02*
X190216Y50200D01*
X191200D01*
X183700Y62786D02*
X185763Y60723D01*
X190677D02*
X191200Y60200D01*
X185763Y60723D02*
X190677D01*
D18*
X92681Y35781D02*
X93551D01*
X91546Y34646D02*
X92681Y35781D01*
X91546Y31500D02*
Y34646D01*
X113875Y65126D02*
Y66625D01*
X113000Y67500D02*
X113875Y66625D01*
X114602Y64400D02*
X114700D01*
X113875Y65126D02*
X114602Y64400D01*
X154058Y94758D02*
X159300Y100000D01*
X176000D01*
X180000Y104000D01*
X156400Y92400D02*
X161500Y97500D01*
X177500D02*
X182500Y102500D01*
X161500Y97500D02*
X177500D01*
X155900Y89200D02*
X156400D01*
Y92400D01*
X182500Y102500D02*
Y112500D01*
X185200Y115200D01*
X180000Y104000D02*
Y118000D01*
X182200Y120102D02*
Y120200D01*
X181474Y119375D02*
X182200Y120102D01*
X181375Y119375D02*
X181474D01*
X180000Y118000D02*
X181375Y119375D01*
X91546Y27000D02*
Y31500D01*
X98700Y67082D02*
X98700Y67082D01*
Y64700D02*
Y67082D01*
X98700Y67082D02*
X98700Y67082D01*
Y72200D01*
X126100Y117900D02*
Y122900D01*
X118300Y113900D02*
X121000D01*
X124175Y117075D01*
X125374D01*
X126100Y117802D01*
Y117900D01*
X118300Y108900D02*
X121000D01*
X124175Y112075D01*
X125374D01*
X126100Y112802D01*
Y112900D01*
X118300Y103900D02*
Y108900D01*
X125900Y107700D02*
X126100Y107900D01*
X125900Y105000D02*
Y107700D01*
X118850Y99450D02*
X123721D01*
X124600Y100329D01*
Y103700D01*
X125900Y105000D01*
X118300Y98900D02*
X118850Y99450D01*
X194708Y115192D02*
X205208D01*
X194706Y115194D02*
X194708Y115192D01*
X205208D02*
X210216Y120200D01*
X182200D02*
X191200D01*
X210216D02*
X211200D01*
D21*
X237409Y42300D02*
D03*
X231700D02*
D03*
X123391Y154300D02*
D03*
X129100D02*
D03*
X123446Y149800D02*
D03*
X129154D02*
D03*
X123446Y145400D02*
D03*
X129154D02*
D03*
X152209Y51100D02*
D03*
X146500D02*
D03*
X78600Y120800D02*
D03*
X84309D02*
D03*
X78600Y103000D02*
D03*
X84309D02*
D03*
X88154Y97900D02*
D03*
X82446D02*
D03*
X88154Y93400D02*
D03*
X82446D02*
D03*
X58346Y119200D02*
D03*
X64054D02*
D03*
X58346Y123700D02*
D03*
X64054D02*
D03*
X58246Y104600D02*
D03*
X63954D02*
D03*
X58246Y100100D02*
D03*
X63954D02*
D03*
X116291Y68900D02*
D03*
X122000D02*
D03*
X126100Y122900D02*
D03*
X131809D02*
D03*
Y117900D02*
D03*
X126100D02*
D03*
X131809Y112900D02*
D03*
X126100D02*
D03*
Y107900D02*
D03*
X131809D02*
D03*
X132746Y98900D02*
D03*
X138454D02*
D03*
X178346Y85200D02*
D03*
X184054D02*
D03*
X178346Y90200D02*
D03*
X184054D02*
D03*
X178346Y80200D02*
D03*
X184054D02*
D03*
X172846Y43700D02*
D03*
X178554D02*
D03*
X172846Y38700D02*
D03*
X178554D02*
D03*
X172846Y28700D02*
D03*
X178554D02*
D03*
X172846Y33700D02*
D03*
X178554D02*
D03*
X146409Y46800D02*
D03*
X140700D02*
D03*
X136554D02*
D03*
X130846D02*
D03*
X110046Y52500D02*
D03*
X115754D02*
D03*
X110046Y45500D02*
D03*
X115754D02*
D03*
X109846Y35700D02*
D03*
X115554D02*
D03*
X91546Y31500D02*
D03*
X97254D02*
D03*
X91546Y27000D02*
D03*
X97254D02*
D03*
X83700Y44700D02*
D03*
X77991D02*
D03*
X83754Y38500D02*
D03*
X78046D02*
D03*
X182200Y120200D02*
D03*
X176491D02*
D03*
D22*
X261700Y110400D02*
D03*
Y97000D02*
D03*
X252600Y103700D02*
D03*
Y90300D02*
D03*
X261700Y73600D02*
D03*
Y60200D02*
D03*
X252600Y80200D02*
D03*
Y66800D02*
D03*
X70800Y118600D02*
D03*
Y105200D02*
D03*
D23*
X254600Y52500D02*
D03*
Y46791D02*
D03*
X250100Y52554D02*
D03*
Y46846D02*
D03*
X116500Y81846D02*
D03*
Y87554D02*
D03*
X111700Y77354D02*
D03*
Y71646D02*
D03*
X63956Y114754D02*
D03*
Y109046D02*
D03*
X58300Y114754D02*
D03*
Y109046D02*
D03*
X119200Y58691D02*
D03*
Y64400D02*
D03*
X114700Y58691D02*
D03*
Y64400D02*
D03*
X110200Y58691D02*
D03*
Y64400D02*
D03*
X107200Y77354D02*
D03*
Y71646D02*
D03*
X93500Y54646D02*
D03*
Y60354D02*
D03*
X87100Y77254D02*
D03*
Y71546D02*
D03*
X82600Y77254D02*
D03*
Y71546D02*
D03*
X121000Y81846D02*
D03*
Y87554D02*
D03*
X233700Y118154D02*
D03*
Y112446D02*
D03*
X167800Y89000D02*
D03*
Y83291D02*
D03*
X178600Y66809D02*
D03*
Y61100D02*
D03*
X173900Y66809D02*
D03*
Y61100D02*
D03*
X169300Y66809D02*
D03*
Y61100D02*
D03*
X161600Y45400D02*
D03*
Y51109D02*
D03*
X156900Y51000D02*
D03*
Y45291D02*
D03*
X68700Y32054D02*
D03*
Y26346D02*
D03*
X64200Y32054D02*
D03*
Y26346D02*
D03*
X59700Y32054D02*
D03*
Y26346D02*
D03*
D24*
X96300Y108900D02*
D03*
X118300Y123900D02*
D03*
X96300D02*
D03*
Y118900D02*
D03*
Y113900D02*
D03*
X118300Y118900D02*
D03*
Y113900D02*
D03*
Y108900D02*
D03*
X96300Y103900D02*
D03*
Y98900D02*
D03*
Y93900D02*
D03*
X118300Y103900D02*
D03*
Y98900D02*
D03*
Y93900D02*
D03*
D25*
X86934Y111900D02*
D03*
X78666Y108160D02*
D03*
Y115640D02*
D03*
D26*
X88225Y89400D02*
D03*
X91375D02*
D03*
D27*
X93947Y35807D02*
D03*
X99853D02*
D03*
Y49193D02*
D03*
X93947D02*
D03*
D28*
X103593Y38563D02*
D03*
Y40532D02*
D03*
Y42500D02*
D03*
Y44469D02*
D03*
Y46437D02*
D03*
X90207D02*
D03*
Y44469D02*
D03*
Y42500D02*
D03*
Y40532D02*
D03*
Y38563D02*
D03*
D29*
X98700Y72200D02*
D03*
D30*
X94960Y77318D02*
D03*
X102440Y67082D02*
D03*
X94960D02*
D03*
X102440Y77318D02*
D03*
X98700D02*
D03*
X98700Y67082D02*
D03*
D31*
X77500Y75600D02*
D03*
X70500D02*
D03*
D32*
X111700Y84343D02*
D03*
Y80800D02*
D03*
D33*
X162900Y103300D02*
D03*
Y108300D02*
D03*
Y113300D02*
D03*
Y118300D02*
D03*
Y123300D02*
D03*
X147546D02*
D03*
Y118300D02*
D03*
Y113300D02*
D03*
Y108300D02*
D03*
Y103300D02*
D03*
D34*
X202621Y149100D02*
D03*
X236179D02*
D03*
D35*
X178600Y56754D02*
D03*
Y50849D02*
D03*
X173900Y56754D02*
D03*
Y50849D02*
D03*
X169300Y56754D02*
D03*
Y50849D02*
D03*
D36*
X220000Y40420D02*
D03*
Y5380D02*
D03*
X210000Y40420D02*
D03*
Y5380D02*
D03*
X200000Y40420D02*
D03*
Y5380D02*
D03*
X190000Y40420D02*
D03*
Y5380D02*
D03*
D37*
X159400Y6946D02*
D03*
Y37654D02*
D03*
D38*
X144374Y31176D02*
D03*
X128626D02*
D03*
X144374Y40624D02*
D03*
X128626D02*
D03*
D39*
X128955Y62373D02*
D03*
Y64342D02*
D03*
Y66310D02*
D03*
Y68279D02*
D03*
Y70247D02*
D03*
Y72216D02*
D03*
Y74184D02*
D03*
Y76153D02*
D03*
Y78121D02*
D03*
Y80090D02*
D03*
Y82058D02*
D03*
Y84027D02*
D03*
X160845D02*
D03*
Y82058D02*
D03*
Y80090D02*
D03*
Y78121D02*
D03*
Y76153D02*
D03*
Y74184D02*
D03*
Y72216D02*
D03*
Y70247D02*
D03*
Y68279D02*
D03*
Y66310D02*
D03*
Y64342D02*
D03*
Y62373D02*
D03*
D40*
X134073Y89145D02*
D03*
X136042D02*
D03*
X138010D02*
D03*
X139979D02*
D03*
X141947D02*
D03*
X143916D02*
D03*
X145884D02*
D03*
X147853D02*
D03*
X149821D02*
D03*
X151790D02*
D03*
X153758D02*
D03*
X155727D02*
D03*
Y57255D02*
D03*
X153758D02*
D03*
X151790D02*
D03*
X149821D02*
D03*
X147853D02*
D03*
X145884D02*
D03*
X143916D02*
D03*
X141947D02*
D03*
X139979D02*
D03*
X138010D02*
D03*
X136042D02*
D03*
X134073D02*
D03*
D71*
X96900Y42500D02*
D03*
D72*
X128900Y60700D02*
Y61714D01*
X78046Y38500D02*
Y50046D01*
X88409Y60409D01*
X120300Y21700D02*
X151700D01*
X115700Y26300D02*
X120300Y21700D01*
X115700Y26300D02*
Y45446D01*
X114798Y58691D02*
X119102D01*
X88409Y60409D02*
X102909D01*
X115700Y45500D02*
Y52446D01*
X123391Y140613D02*
Y154300D01*
X249400Y52500D02*
X254600D01*
X122908Y128029D02*
X129217D01*
X115754Y55344D02*
X119102Y58691D01*
X112450D02*
X115754Y55387D01*
X105000Y60500D02*
X107500D01*
X108391D02*
X110200Y58691D01*
X107500Y60500D02*
X108391D01*
X102909Y60409D02*
X104909D01*
X105000Y60500D01*
X78096Y35096D02*
Y38450D01*
X76575Y33575D02*
X78096Y35096D01*
X88825Y31325D02*
X91370D01*
X80650Y29500D02*
X87000D01*
X91370Y31325D02*
X91546Y31500D01*
X87000Y29500D02*
X88825Y31325D01*
X76575Y33575D02*
X80650Y29500D01*
X75054Y32054D02*
X76575Y33575D01*
X59798Y26346D02*
X62900Y23244D01*
X66002Y26346D01*
X68700D01*
X64200D02*
X66002D01*
X66450D01*
X59798D02*
X64102D01*
X62900Y23244D02*
Y25144D01*
Y18000D02*
Y23244D01*
X59700Y26346D02*
X59798D01*
X64102D02*
X64200D01*
X62900Y8000D02*
Y18000D01*
Y25144D02*
X64102Y26346D01*
X115700Y45446D02*
X115754Y45500D01*
X151700Y21700D02*
X223700D01*
X68700Y32054D02*
X75054D01*
X78046Y38500D02*
X78096Y38450D01*
X64200Y61700D02*
Y64200D01*
Y32054D02*
Y61700D01*
X61700Y64200D02*
X64200D01*
X43200D02*
X61700D01*
X64200Y61700D01*
X70500Y70500D02*
Y75600D01*
X64200Y64200D02*
X70500Y70500D01*
X39200Y68200D02*
Y77789D01*
Y68200D02*
X43200Y64200D01*
X112450Y58691D02*
X114700D01*
X110200D02*
X112450D01*
X115754Y55387D02*
Y57735D01*
Y55344D02*
Y55387D01*
X119102Y58691D02*
X119200D01*
X115754Y52500D02*
Y55344D01*
X114700Y58691D02*
X114798D01*
X115754Y57735D01*
X115700Y52446D02*
X115754Y52500D01*
X223700Y21700D02*
X237409Y35409D01*
Y42300D01*
X130200Y57500D02*
X133329D01*
X260028Y52500D02*
X261200Y51328D01*
X254600Y52500D02*
X260028D01*
X261200Y41700D02*
Y51328D01*
X259200Y39700D02*
X261200Y41700D01*
X247700Y39700D02*
X259200D01*
X237409Y42300D02*
X245100D01*
X247700Y39700D01*
X174681Y103200D02*
X176600Y105119D01*
X172200Y103200D02*
X174681D01*
X163000D02*
X172200D01*
X176600Y105119D02*
Y120091D01*
X162900Y103300D02*
X163000Y103200D01*
X241200Y60200D02*
X241700D01*
X249400Y52500D01*
X176491Y120200D02*
X176600Y120091D01*
X129217Y128029D02*
X131582Y125664D01*
X121444Y129494D02*
X122908Y128029D01*
X121444Y129494D02*
Y136656D01*
X131582Y123126D02*
Y125664D01*
Y123126D02*
X131809Y122900D01*
X120900Y137200D02*
X121444Y136656D01*
X120900Y137200D02*
Y138121D01*
X123391Y140613D01*
X126891Y58691D02*
X128791D01*
X119200D02*
X126891D01*
X128791D02*
X128900Y58800D01*
Y60700D01*
Y58800D02*
X130200Y57500D01*
X126891Y58691D02*
X128900Y60700D01*
D73*
X91100Y68400D02*
X92418Y67082D01*
X91100Y68400D02*
Y77188D01*
X92418Y67082D02*
X94896D01*
X107200Y77354D02*
X111700D01*
X102534D02*
X107200D01*
X111700D02*
Y80568D01*
X87100Y77318D02*
X90969D01*
X94839D01*
X90969D02*
X91100Y77188D01*
X82074Y76728D02*
X82600Y77254D01*
X78628Y76728D02*
X82074D01*
X77500Y75600D02*
X78628Y76728D01*
X82600Y77254D02*
X87100D01*
D74*
X112600Y68800D02*
Y70746D01*
X110229Y64371D02*
X116500D01*
X119200D01*
X115391Y69800D02*
Y71716D01*
X116500Y64371D02*
Y68691D01*
X116291Y68900D02*
X116500Y68691D01*
X119300Y64500D02*
X124080D01*
X107500D02*
Y66500D01*
Y64500D02*
X108591D01*
X107500Y66500D02*
X108391D01*
X109446Y65446D01*
X184054Y80200D02*
X191200D01*
X184054D02*
Y85508D01*
X97254Y24354D02*
Y27000D01*
X146630Y46700D02*
X148700D01*
X146569Y46760D02*
X146630Y46700D01*
X97254Y27000D02*
X99900D01*
X97254Y31500D02*
Y34146D01*
Y31500D02*
X99900D01*
X151700Y21700D02*
Y46200D01*
X112156Y87604D02*
X116450D01*
X110008D02*
X112156D01*
X107981D02*
X110008D01*
X111679Y87134D02*
X112100Y87554D01*
X111679Y84507D02*
Y87134D01*
X93171Y87604D02*
X107981D01*
X116450D02*
X116500Y87554D01*
X121000D01*
X91375Y89400D02*
X93171Y87604D01*
X210075Y5455D02*
Y9575D01*
X209925Y5305D02*
X210075Y5455D01*
X205955D02*
X210075D01*
X199925Y5305D02*
X200075Y5455D01*
Y9575D01*
X131700Y47654D02*
Y49700D01*
X130946Y46900D02*
X131700Y47654D01*
X146509Y46700D02*
X146569Y46760D01*
X154700Y43091D02*
X156900Y45291D01*
X151700Y50591D02*
X152209Y51100D01*
X151700Y48200D02*
Y50591D01*
Y46200D02*
Y48200D01*
X161700Y51209D02*
X161798D01*
X162175Y51585D01*
Y54045D01*
X162184Y54054D01*
X161700Y51009D02*
X164546D01*
X247454Y46846D02*
X250100D01*
X254600Y46791D02*
X257246D01*
X254600Y44146D02*
Y46791D01*
X250100Y44200D02*
Y46846D01*
X219925Y5305D02*
X220075Y5455D01*
Y9575D01*
X215955Y5455D02*
X220075D01*
X195955D02*
X200075D01*
X186080Y5580D02*
X190200D01*
Y9700D01*
X190050Y5430D02*
X190200Y5580D01*
X170200Y33700D02*
X172846D01*
X170200Y43700D02*
X172846D01*
X170200Y28700D02*
X172846D01*
X170200Y38700D02*
X172846D01*
X208068Y27700D02*
X220000Y39632D01*
X178554Y28602D02*
Y28700D01*
Y28602D02*
X179031Y28125D01*
X179777D01*
X180202Y27700D01*
X208068D01*
X220000Y39632D02*
Y40420D01*
X210000Y39632D02*
Y40420D01*
X201568Y31200D02*
X210000Y39632D01*
X184200Y31200D02*
X201568D01*
X178554Y33602D02*
Y33700D01*
Y33602D02*
X179031Y33125D01*
X182275D01*
X184200Y31200D01*
X200000Y39632D02*
Y40420D01*
X195068Y34700D02*
X200000Y39632D01*
X186700Y34700D02*
X195068D01*
X178554Y38700D02*
X182700D01*
X186700Y34700D01*
X178554Y43700D02*
X187507D01*
X190000Y41207D01*
Y40420D02*
Y41207D01*
X129077Y154323D02*
X131923D01*
X129131Y149823D02*
X131977D01*
X129131Y145423D02*
X131977D01*
X129100Y140057D02*
Y154300D01*
Y140057D02*
X130900Y138257D01*
Y137200D02*
Y138257D01*
X166935Y123213D02*
Y123408D01*
Y123213D02*
X169187D01*
X164683D02*
X166935D01*
Y123408D02*
X169213Y125687D01*
Y123187D02*
Y125687D01*
X162900Y123300D02*
X165313Y125713D01*
X169187D01*
X264100Y114900D02*
X265300Y113700D01*
X264000D02*
X265300D01*
X261575Y114625D02*
X262800Y113400D01*
X260300Y113350D02*
X261575Y114625D01*
X254900Y107000D02*
X256200D01*
X255000Y108200D02*
X256200Y107000D01*
X252475Y107925D02*
X253700Y106700D01*
X251200Y106650D02*
X252475Y107925D01*
X255000Y62300D02*
X256200Y63500D01*
X254900D02*
X256200D01*
X252475Y62575D02*
X253700Y63800D01*
X264100Y55700D02*
X265300Y56900D01*
X264000D02*
X265300D01*
X261575Y55975D02*
X262800Y57200D01*
X260300Y57250D02*
X261575Y55975D01*
X251200Y63850D02*
X252475Y62575D01*
X159536Y7082D02*
X159718Y6900D01*
X138554Y98800D02*
X139354Y99600D01*
X118277Y123877D02*
Y126723D01*
X118246Y123800D02*
X118323Y123877D01*
X118146Y118700D02*
X118323Y118877D01*
X115391Y71746D02*
X117141D01*
X115391Y71716D02*
Y71746D01*
X82446Y97877D02*
X82468D01*
Y93377D02*
Y93423D01*
X79623Y97877D02*
X82446D01*
X79623Y93377D02*
X82468D01*
X110800Y68800D02*
Y70746D01*
X108100Y68800D02*
Y70746D01*
X106300Y68800D02*
Y70746D01*
X88000Y68700D02*
Y70646D01*
X86200Y68700D02*
Y70646D01*
X83500Y68700D02*
Y70646D01*
X81700Y68700D02*
Y70646D01*
X117141Y71746D02*
X117181Y71706D01*
X115391Y69800D02*
X116146Y69046D01*
X265300Y55700D02*
Y56900D01*
X262000Y60200D02*
X265300Y56900D01*
X261700Y60200D02*
X262000D01*
X261700D02*
X262800Y59100D01*
X260300Y58800D02*
X261700Y60200D01*
X257800Y55700D02*
Y56600D01*
X261400Y60200D01*
X261700D01*
X264100Y55700D02*
X265300D01*
X262800D02*
X264100D01*
X257800D02*
X260300D01*
X261850D02*
X262800D01*
X260300Y57250D02*
Y58800D01*
Y55700D02*
Y57250D01*
Y55700D02*
X261300D01*
X261850D01*
X262800Y57200D02*
Y59100D01*
Y55700D02*
Y57200D01*
X261575Y55975D02*
X261850Y55700D01*
X261300D02*
X261575Y55975D01*
X262800Y55700D02*
X264000Y56900D01*
X256200Y62300D02*
Y63500D01*
X252900Y66800D02*
X256200Y63500D01*
X252600Y66800D02*
X252900D01*
X252600D02*
X253700Y65700D01*
X251200Y65400D02*
X252600Y66800D01*
X248700Y62300D02*
Y63200D01*
X252300Y66800D01*
X252600D01*
X255000Y62300D02*
X256200D01*
X253700D02*
X255000D01*
X248700D02*
X251200D01*
X252750D02*
X253700D01*
X251200Y63850D02*
Y65400D01*
Y62300D02*
Y63850D01*
Y62300D02*
X252200D01*
X252750D01*
X253700Y63800D02*
Y65700D01*
Y62300D02*
Y63800D01*
X252475Y62575D02*
X252750Y62300D01*
X252200D02*
X252475Y62575D01*
X253700Y62300D02*
X254900Y63500D01*
X265300Y113700D02*
Y114900D01*
X262000Y110400D02*
X265300Y113700D01*
X261700Y110400D02*
X262000D01*
X261700D02*
X262800Y111500D01*
X260300Y111800D02*
X261700Y110400D01*
X257800Y114000D02*
Y114900D01*
Y114000D02*
X261400Y110400D01*
X261700D01*
X264100Y114900D02*
X265300D01*
X262800D02*
X264100D01*
X257800D02*
X260300D01*
X261850D02*
X262800D01*
X260300Y111800D02*
Y113350D01*
Y114900D01*
X261300D01*
X261850D01*
X262800Y111500D02*
Y113400D01*
Y114900D01*
X261575Y114625D02*
X261850Y114900D01*
X261300D02*
X261575Y114625D01*
X262800Y114900D02*
X264000Y113700D01*
X253700Y108200D02*
X254900Y107000D01*
X252200Y108200D02*
X252475Y107925D01*
X252750Y108200D01*
X253700Y106700D02*
Y108200D01*
Y104800D02*
Y106700D01*
X252200Y108200D02*
X252750D01*
X251200D02*
X252200D01*
X251200Y106650D02*
Y108200D01*
Y105100D02*
Y106650D01*
X252750Y108200D02*
X253700D01*
X248700D02*
X251200D01*
X253700D02*
X255000D01*
X256200D01*
X252300Y103700D02*
X252600D01*
X248700Y107300D02*
X252300Y103700D01*
X248700Y107300D02*
Y108200D01*
X251200Y105100D02*
X252600Y103700D01*
X253700Y104800D01*
X252600Y103700D02*
X252900D01*
X256200Y107000D01*
Y108200D01*
X240453Y110947D02*
X241200Y110200D01*
X233700Y112446D02*
X233798D01*
X202621Y149100D02*
Y153920D01*
X205200Y149179D02*
Y154000D01*
X207700Y149179D02*
Y154000D01*
X200200Y149179D02*
Y154000D01*
X197700Y149179D02*
Y154000D01*
Y144200D02*
Y149021D01*
X200200Y144200D02*
Y149021D01*
X207700Y144200D02*
Y149021D01*
X205200Y144200D02*
Y149021D01*
X202621Y144280D02*
Y149100D01*
X132700Y96827D02*
Y98854D01*
Y94800D02*
Y96827D01*
Y98854D02*
X132746Y98900D01*
X132700Y92652D02*
Y94800D01*
Y92652D02*
X133664Y91688D01*
X139354Y99600D02*
X141300D01*
X139400Y99846D02*
Y101800D01*
X138554Y99000D02*
X139400Y99846D01*
X146976Y50913D02*
X148638D01*
X146500Y51100D02*
X146789D01*
X146976Y50913D01*
X144000Y50600D02*
X145288D01*
X146024Y51336D01*
X152209Y51100D02*
X152259Y51050D01*
X156850D01*
X156900Y51000D01*
X161546Y45346D02*
X161600Y45400D01*
X156954Y45346D02*
X161546D01*
X156900Y45291D02*
X156954Y45346D01*
X161600Y39854D02*
Y45400D01*
X159400Y37654D02*
X161600Y39854D01*
X159718Y6900D02*
X164100D01*
X159400Y7270D02*
Y11200D01*
Y7270D02*
X159426Y7244D01*
X154699Y6809D02*
X159264D01*
X144510Y31312D02*
X149075D01*
X144400Y31474D02*
Y34300D01*
X139673Y31039D02*
X144238D01*
X128762Y40761D02*
X133327D01*
X128600Y37500D02*
Y40326D01*
X123925Y40488D02*
X128490D01*
X144169Y46772D02*
X146380D01*
X146409Y46800D01*
X127900Y46900D02*
X130746D01*
X178500Y47903D02*
Y50749D01*
X173800Y47903D02*
Y50749D01*
X169200Y47903D02*
Y50749D01*
X169300Y50849D01*
X64054Y123700D02*
X64143Y123789D01*
X64043Y123689D02*
X64054Y123700D01*
X110800Y68800D02*
X112600D01*
X106300D02*
X108100D01*
X86200Y68700D02*
X88000D01*
X82746Y71400D02*
X83500Y70646D01*
X81700Y68700D02*
X83500D01*
X85176Y108160D02*
X85191Y108144D01*
X88744D02*
X89200Y108600D01*
X85191Y108144D02*
X88744D01*
X78666Y108160D02*
X85176D01*
X89200Y108600D02*
X96000D01*
X64189Y123834D02*
Y126389D01*
X64143Y123789D02*
X66989D01*
X64143D02*
X64189Y123834D01*
X88154Y93424D02*
Y97900D01*
Y93400D02*
Y93424D01*
X93600Y93900D02*
X96300D01*
X88631D02*
X93600D01*
X88154Y93424D02*
X88631Y93900D01*
X88154Y89471D02*
Y93400D01*
Y89471D02*
X88225Y89400D01*
X82468Y90577D02*
Y93377D01*
X82446Y97877D02*
Y97900D01*
Y93400D02*
Y97877D01*
X113100Y118700D02*
X118146D01*
X113100Y123800D02*
X118246D01*
X96300Y103900D02*
X96600Y104200D01*
X101800D01*
X103500Y105900D02*
Y117700D01*
X101800Y104200D02*
X103500Y105900D01*
X96300Y118900D02*
X102300D01*
X103500Y117700D01*
X87800Y117400D02*
X89300Y118900D01*
X96300D01*
X86895Y120800D02*
X87478Y121382D01*
X84309Y120800D02*
X86895D01*
X85500Y117400D02*
X87800D01*
X78666Y115640D02*
X83740D01*
X85500Y117400D01*
X96300Y108900D02*
Y113900D01*
X96000Y108600D02*
X96300Y108900D01*
X86900Y110644D02*
Y111866D01*
Y111934D02*
X86934Y111900D01*
X86900Y111866D02*
X86934Y111900D01*
X84300Y103009D02*
X84309Y103000D01*
X84300Y103009D02*
Y105500D01*
X86900Y111934D02*
Y114200D01*
X84309Y103000D02*
X87500D01*
X84309Y120800D02*
Y123991D01*
X78633Y119400D02*
Y120767D01*
Y115673D02*
Y119400D01*
X71600D02*
X78633D01*
X70800Y118600D02*
X71600Y119400D01*
X78600Y120800D02*
X78633Y120767D01*
Y115673D02*
X78666Y115640D01*
X78633Y104600D02*
Y108127D01*
Y103033D02*
Y104600D01*
X71400D02*
X78633D01*
X70800Y105200D02*
X71400Y104600D01*
X78633Y108127D02*
X78666Y108160D01*
X78600Y103000D02*
X78633Y103033D01*
X64054Y100000D02*
X64100Y99954D01*
X63954Y100100D02*
X64054Y100000D01*
X66900D01*
X64100Y97400D02*
Y99954D01*
X63954Y104600D02*
X70200D01*
X70800Y105200D01*
X63955Y109045D02*
X63956Y109046D01*
X63955Y104601D02*
Y109045D01*
X63954Y104600D02*
X63955Y104601D01*
X64054Y119200D02*
X70200D01*
X70800Y118600D01*
X64005Y119151D02*
X64054Y119200D01*
X64005Y114804D02*
Y119151D01*
X63956Y114754D02*
X64005Y114804D01*
X58273Y100127D02*
Y109019D01*
X58300Y109046D01*
X57824Y108569D02*
X58273Y109019D01*
X50381Y105053D02*
X51758D01*
X55274Y108569D01*
X57824D01*
X58246Y100100D02*
X58273Y100127D01*
X58323Y114777D02*
Y123677D01*
X50381Y115958D02*
X51109Y115231D01*
X57824D01*
X58300Y114754D01*
X58323Y123677D02*
X58346Y123700D01*
X58300Y114754D02*
X58323Y114777D01*
X231700Y42300D02*
Y50200D01*
X184054Y90200D02*
X191200D01*
X221700Y50200D02*
X231700D01*
X211700D02*
X221700D01*
X201700D02*
X211700D01*
X191200Y70200D02*
X201700D01*
D75*
X41000Y60500D02*
X57943D01*
X59700Y32054D02*
Y58743D01*
X57943Y60500D02*
X59700Y58743D01*
X32500Y86443D02*
X34257Y88200D01*
X32500Y69000D02*
X41000Y60500D01*
X34257Y88200D02*
X38706D01*
X32500Y69000D02*
Y86443D01*
X38706Y88200D02*
X39200Y88695D01*
X261700Y97000D02*
X268900D01*
X272200Y100300D01*
X246170Y97000D02*
X261700D01*
X242970Y100200D02*
X246170Y97000D01*
X241200Y100200D02*
X242970D01*
X261700Y73600D02*
X268900D01*
X272200Y70300D01*
X246371Y73600D02*
X261700D01*
X242970Y70200D02*
X246371Y73600D01*
X241200Y70200D02*
X242970D01*
X241250Y80250D02*
X272150D01*
X241200Y80200D02*
X241250Y80250D01*
X272150D02*
X272200Y80300D01*
X241250Y90250D02*
X272150D01*
X272200Y90300D01*
X241200Y90200D02*
X241250Y90250D01*
D76*
X236179Y124331D02*
Y149100D01*
Y124331D02*
X240310Y120200D01*
X241200D01*
X236179Y149100D02*
Y157685D01*
X232665Y161200D02*
X236179Y157685D01*
X83100Y161200D02*
X232665D01*
X39327Y117427D02*
X83100Y161200D01*
X39327Y110632D02*
Y117427D01*
X39200Y110505D02*
X39327Y110632D01*
X39200Y88695D02*
X39327Y88821D01*
Y99473D01*
X39200Y110505D02*
X39327Y110379D01*
Y99727D02*
Y110379D01*
X39200Y99600D02*
X39327Y99473D01*
X39200Y99600D02*
X39327Y99727D01*
D77*
X191200Y80200D02*
X201200D01*
X206700Y65200D02*
Y74700D01*
X201200Y80200D02*
X206700Y74700D01*
X216747Y65153D02*
Y74653D01*
X191200Y100200D02*
X216747Y74653D01*
Y65153D02*
X221700Y60200D01*
X201700D02*
X206700Y65200D01*
D78*
X44791Y143340D02*
D03*
Y44954D02*
D03*
D79*
X50381Y94147D02*
D03*
Y83242D02*
D03*
Y72336D02*
D03*
Y105053D02*
D03*
Y115958D02*
D03*
X39200Y99600D02*
D03*
Y110505D02*
D03*
Y88695D02*
D03*
Y77789D02*
D03*
D80*
X160900Y137200D02*
D03*
X150900D02*
D03*
X140900D02*
D03*
X130900D02*
D03*
X120900D02*
D03*
X170900D02*
D03*
X102900Y8000D02*
D03*
Y18000D02*
D03*
X82900D02*
D03*
Y8000D02*
D03*
X72900Y18000D02*
D03*
Y8000D02*
D03*
X62900Y18000D02*
D03*
X92900Y8000D02*
D03*
Y18000D02*
D03*
X211700Y60200D02*
D03*
Y70200D02*
D03*
X221700Y60200D02*
D03*
Y70200D02*
D03*
X231700Y60200D02*
D03*
X201700Y70200D02*
D03*
Y60200D02*
D03*
X221700Y50200D02*
D03*
X211700D02*
D03*
X201700D02*
D03*
X272200Y90300D02*
D03*
Y80300D02*
D03*
Y70300D02*
D03*
D81*
X110900Y137200D02*
D03*
X62900Y8000D02*
D03*
X231700Y70200D02*
D03*
Y50200D02*
D03*
D82*
X115900Y172200D02*
D03*
X165900D02*
D03*
D83*
X263779Y169291D02*
D03*
X15748D02*
D03*
X263779Y15748D02*
D03*
X15748D02*
D03*
D84*
X241200Y90200D02*
D03*
Y80200D02*
D03*
Y70200D02*
D03*
Y60200D02*
D03*
Y50200D02*
D03*
Y100200D02*
D03*
Y110200D02*
D03*
Y120200D02*
D03*
X191200D02*
D03*
Y110200D02*
D03*
Y100200D02*
D03*
Y50200D02*
D03*
Y60200D02*
D03*
Y70200D02*
D03*
Y80200D02*
D03*
Y90200D02*
D03*
D85*
X201200Y120200D02*
D03*
X211200D02*
D03*
D86*
X272200Y100300D02*
D03*
D87*
X200500Y83500D02*
D03*
X197500Y85500D02*
D03*
X171500Y116000D02*
D03*
Y107000D02*
D03*
X161556Y128951D02*
D03*
X89500Y36000D02*
D03*
X89000Y49500D02*
D03*
X90302Y51802D02*
D03*
X81500Y48500D02*
D03*
X134000Y69500D02*
D03*
X68000Y13500D02*
D03*
X73000Y24000D02*
D03*
Y28000D02*
D03*
X111000Y25500D02*
D03*
Y28500D02*
D03*
Y31500D02*
D03*
X121000Y29000D02*
D03*
X124000Y26000D02*
D03*
X123000Y54000D02*
D03*
X120500D02*
D03*
X106691Y48643D02*
D03*
X112500Y41500D02*
D03*
X143627Y63986D02*
D03*
X90500Y64500D02*
D03*
X68000Y62500D02*
D03*
X75000Y71000D02*
D03*
X68000Y36000D02*
D03*
X73500D02*
D03*
X135000Y81000D02*
D03*
Y78000D02*
D03*
X124099Y64482D02*
D03*
X122000D02*
D03*
X107500Y64500D02*
D03*
Y66500D02*
D03*
Y60500D02*
D03*
X102909Y60409D02*
D03*
X105000Y60500D02*
D03*
X137000Y95000D02*
D03*
X103000Y91500D02*
D03*
X111500D02*
D03*
X58500Y128000D02*
D03*
X54000Y99000D02*
D03*
X46000D02*
D03*
Y110500D02*
D03*
X55000Y52500D02*
D03*
X51000Y56000D02*
D03*
X55000D02*
D03*
X100502Y55564D02*
D03*
X97603Y56615D02*
D03*
X81000Y42000D02*
D03*
X155093Y75073D02*
D03*
X152000Y79000D02*
D03*
X147000Y67500D02*
D03*
X146500Y62500D02*
D03*
X139000Y70500D02*
D03*
X147000Y76000D02*
D03*
X151853Y62547D02*
D03*
X138000Y66806D02*
D03*
Y64000D02*
D03*
X139500Y113500D02*
D03*
X137500Y111000D02*
D03*
X134753Y116105D02*
D03*
X136737Y120043D02*
D03*
X134500Y119000D02*
D03*
X142500Y127500D02*
D03*
Y130000D02*
D03*
X139500Y131500D02*
D03*
X177000Y94500D02*
D03*
X173500Y91500D02*
D03*
X163000Y94000D02*
D03*
X160000Y91000D02*
D03*
X155500Y81000D02*
D03*
X81076Y34655D02*
D03*
X107000Y42516D02*
D03*
X97254Y24354D02*
D03*
X107000Y45500D02*
D03*
X81000Y26500D02*
D03*
X275200Y154200D02*
D03*
X271200Y146200D02*
D03*
X275200Y138200D02*
D03*
X271200Y130200D02*
D03*
X275200Y122200D02*
D03*
X271200Y114200D02*
D03*
X275200Y106200D02*
D03*
Y58200D02*
D03*
X271200Y50200D02*
D03*
X275200Y42200D02*
D03*
X271200Y34200D02*
D03*
X275200Y26200D02*
D03*
X267200Y154200D02*
D03*
X263200Y146200D02*
D03*
X267200Y138200D02*
D03*
X263200Y130200D02*
D03*
X267200Y122200D02*
D03*
Y106200D02*
D03*
X263200Y66200D02*
D03*
X267200Y58200D02*
D03*
Y42200D02*
D03*
X263200Y34200D02*
D03*
X259200Y154200D02*
D03*
X255200Y146200D02*
D03*
X259200Y138200D02*
D03*
X255200Y130200D02*
D03*
X259200Y122200D02*
D03*
X255200Y34200D02*
D03*
X247200Y178200D02*
D03*
Y162200D02*
D03*
X251200Y154200D02*
D03*
Y138200D02*
D03*
X247200Y66200D02*
D03*
X251200Y58200D02*
D03*
X247200Y34200D02*
D03*
X251200Y26200D02*
D03*
X247200Y18200D02*
D03*
X239200Y178200D02*
D03*
X243200Y170200D02*
D03*
Y26200D02*
D03*
X239200Y18200D02*
D03*
X243200Y10200D02*
D03*
X231200Y178200D02*
D03*
X235200Y170200D02*
D03*
Y106200D02*
D03*
X231200Y98200D02*
D03*
Y82200D02*
D03*
Y34200D02*
D03*
X235200Y26200D02*
D03*
X231200Y18200D02*
D03*
X235200Y10200D02*
D03*
X223200Y178200D02*
D03*
X227200Y170200D02*
D03*
X223200Y146200D02*
D03*
Y130200D02*
D03*
Y114200D02*
D03*
X227200Y106200D02*
D03*
X223200Y98200D02*
D03*
X227200Y90200D02*
D03*
X223200Y82200D02*
D03*
X227200Y74200D02*
D03*
Y42200D02*
D03*
X223200Y34200D02*
D03*
X227200Y10200D02*
D03*
X215200Y178200D02*
D03*
X219200Y170200D02*
D03*
Y154200D02*
D03*
X215200Y146200D02*
D03*
X219200Y138200D02*
D03*
X215200Y130200D02*
D03*
X219200Y122200D02*
D03*
X215200Y114200D02*
D03*
X219200Y106200D02*
D03*
X215200Y98200D02*
D03*
X219200Y90200D02*
D03*
X215200Y82200D02*
D03*
X219200Y26200D02*
D03*
X207200Y178200D02*
D03*
X211200Y170200D02*
D03*
Y154200D02*
D03*
Y138200D02*
D03*
X207200Y130200D02*
D03*
X211200Y106200D02*
D03*
X207200Y98200D02*
D03*
X211200Y90200D02*
D03*
Y26200D02*
D03*
X199200Y178200D02*
D03*
X203200Y170200D02*
D03*
Y138200D02*
D03*
X199200Y130200D02*
D03*
X203200Y106200D02*
D03*
X199200Y34200D02*
D03*
X203200Y10200D02*
D03*
X191200Y178200D02*
D03*
X195200Y170200D02*
D03*
X191200Y146200D02*
D03*
X195200Y138200D02*
D03*
X191200Y130200D02*
D03*
X195200Y42200D02*
D03*
Y10200D02*
D03*
X183200Y178200D02*
D03*
X187200Y170200D02*
D03*
Y154200D02*
D03*
X183200Y146200D02*
D03*
Y50200D02*
D03*
X187200Y10200D02*
D03*
X175200Y178200D02*
D03*
X179200Y170200D02*
D03*
Y154200D02*
D03*
Y10200D02*
D03*
X171200Y154200D02*
D03*
Y10200D02*
D03*
X159200Y178200D02*
D03*
X163200Y154200D02*
D03*
Y26200D02*
D03*
X151200Y178200D02*
D03*
X155200Y170200D02*
D03*
Y154200D02*
D03*
X143200Y178200D02*
D03*
X147200Y170200D02*
D03*
Y154200D02*
D03*
Y26200D02*
D03*
Y10200D02*
D03*
X135200Y178200D02*
D03*
X139200Y170200D02*
D03*
Y154200D02*
D03*
Y26200D02*
D03*
Y10200D02*
D03*
X127200Y178200D02*
D03*
X131200Y170200D02*
D03*
Y10200D02*
D03*
X119200Y18200D02*
D03*
X123200Y10200D02*
D03*
X115200Y154200D02*
D03*
X111200Y146200D02*
D03*
Y130200D02*
D03*
Y114200D02*
D03*
Y98200D02*
D03*
X115200Y10200D02*
D03*
X103200Y178200D02*
D03*
X107200Y170200D02*
D03*
Y154200D02*
D03*
X103200Y146200D02*
D03*
Y130200D02*
D03*
X107200Y122200D02*
D03*
X103200Y98200D02*
D03*
Y82200D02*
D03*
X95200Y178200D02*
D03*
X99200Y170200D02*
D03*
Y154200D02*
D03*
X95200Y146200D02*
D03*
X99200Y138200D02*
D03*
X95200Y130200D02*
D03*
Y82200D02*
D03*
X87200Y178200D02*
D03*
X91200Y170200D02*
D03*
Y154200D02*
D03*
X87200Y146200D02*
D03*
X91200Y138200D02*
D03*
X87200Y130200D02*
D03*
Y82200D02*
D03*
X79200Y178200D02*
D03*
X83200Y170200D02*
D03*
X79200Y146200D02*
D03*
X83200Y138200D02*
D03*
X79200Y130200D02*
D03*
Y82200D02*
D03*
Y66200D02*
D03*
X71200Y178200D02*
D03*
X75200Y170200D02*
D03*
X71200Y162200D02*
D03*
X75200Y138200D02*
D03*
X71200Y130200D02*
D03*
Y98200D02*
D03*
X75200Y90200D02*
D03*
X71200Y82200D02*
D03*
Y50200D02*
D03*
X63200Y178200D02*
D03*
X67200Y170200D02*
D03*
X63200Y162200D02*
D03*
X67200Y154200D02*
D03*
X63200Y130200D02*
D03*
X67200Y90200D02*
D03*
X63200Y82200D02*
D03*
X55200Y178200D02*
D03*
X59200Y170200D02*
D03*
X55200Y162200D02*
D03*
X59200Y154200D02*
D03*
Y90200D02*
D03*
Y74200D02*
D03*
X55200Y34200D02*
D03*
Y18200D02*
D03*
X47200Y178200D02*
D03*
X51200Y170200D02*
D03*
X47200Y162200D02*
D03*
X51200Y154200D02*
D03*
Y26200D02*
D03*
X47200Y18200D02*
D03*
X51200Y10200D02*
D03*
X39200Y178200D02*
D03*
X43200Y170200D02*
D03*
X39200Y162200D02*
D03*
Y130200D02*
D03*
Y34200D02*
D03*
X43200Y26200D02*
D03*
X39200Y18200D02*
D03*
X43200Y10200D02*
D03*
X31200Y178200D02*
D03*
X35200Y170200D02*
D03*
X31200Y162200D02*
D03*
X35200Y154200D02*
D03*
X31200Y146200D02*
D03*
Y130200D02*
D03*
X35200Y122200D02*
D03*
X31200Y114200D02*
D03*
Y98200D02*
D03*
Y50200D02*
D03*
Y34200D02*
D03*
X35200Y26200D02*
D03*
X31200Y18200D02*
D03*
X35200Y10200D02*
D03*
X27200Y154200D02*
D03*
X23200Y146200D02*
D03*
X27200Y138200D02*
D03*
X23200Y130200D02*
D03*
X27200Y122200D02*
D03*
X23200Y114200D02*
D03*
X27200Y106200D02*
D03*
X23200Y98200D02*
D03*
X27200Y90200D02*
D03*
X23200Y82200D02*
D03*
Y66200D02*
D03*
X27200Y58200D02*
D03*
X23200Y50200D02*
D03*
X27200Y42200D02*
D03*
X23200Y34200D02*
D03*
X27200Y26200D02*
D03*
X19200Y154200D02*
D03*
X15200Y146200D02*
D03*
X19200Y138200D02*
D03*
X15200Y130200D02*
D03*
X19200Y122200D02*
D03*
X15200Y114200D02*
D03*
X19200Y106200D02*
D03*
X15200Y98200D02*
D03*
X19200Y90200D02*
D03*
X15200Y82200D02*
D03*
X19200Y74200D02*
D03*
X15200Y66200D02*
D03*
X19200Y58200D02*
D03*
X15200Y50200D02*
D03*
X19200Y42200D02*
D03*
X15200Y34200D02*
D03*
X11200Y154200D02*
D03*
X7200Y146200D02*
D03*
X11200Y138200D02*
D03*
X7200Y130200D02*
D03*
X11200Y122200D02*
D03*
X7200Y114200D02*
D03*
X11200Y106200D02*
D03*
X7200Y98200D02*
D03*
X11200Y90200D02*
D03*
X7200Y82200D02*
D03*
X11200Y74200D02*
D03*
X7200Y66200D02*
D03*
X11200Y58200D02*
D03*
X7200Y50200D02*
D03*
X11200Y42200D02*
D03*
X7200Y34200D02*
D03*
X148700Y46700D02*
D03*
X99900Y27000D02*
D03*
X99700Y45200D02*
D03*
Y39700D02*
D03*
X94200Y45200D02*
D03*
Y39700D02*
D03*
X96900Y42500D02*
D03*
X97254Y34146D02*
D03*
X99900Y31500D02*
D03*
X210075Y9575D02*
D03*
X205955Y5455D02*
D03*
X200075Y9575D02*
D03*
X154700Y43091D02*
D03*
X151700Y48200D02*
D03*
Y46200D02*
D03*
X162184Y54054D02*
D03*
X164546Y51009D02*
D03*
X247454Y46846D02*
D03*
X257246Y46791D02*
D03*
X254600Y44146D02*
D03*
X250100Y44200D02*
D03*
X220075Y9575D02*
D03*
X215955Y5455D02*
D03*
X195955D02*
D03*
X186080Y5580D02*
D03*
X190200Y9700D02*
D03*
X154700Y62700D02*
D03*
X170200Y33700D02*
D03*
X155200Y66200D02*
D03*
X170200Y43700D02*
D03*
Y28700D02*
D03*
Y38700D02*
D03*
X165200Y57200D02*
D03*
Y60200D02*
D03*
X131923Y154323D02*
D03*
X131977Y149823D02*
D03*
Y145423D02*
D03*
X166740Y125713D02*
D03*
X169213Y125687D02*
D03*
Y123187D02*
D03*
X167713Y85713D02*
D03*
X135200Y64200D02*
D03*
Y67200D02*
D03*
X117181Y71706D02*
D03*
X176600Y105119D02*
D03*
X174681Y103200D02*
D03*
X172200D02*
D03*
X115391Y71716D02*
D03*
X120700Y78200D02*
D03*
X116700Y78700D02*
D03*
X163475Y89000D02*
D03*
X160845Y86370D02*
D03*
X260300Y55700D02*
D03*
X262800D02*
D03*
X265300D02*
D03*
X257800D02*
D03*
X251200Y62300D02*
D03*
X253700D02*
D03*
X256200D02*
D03*
X248700D02*
D03*
X260300Y114900D02*
D03*
X262800D02*
D03*
X265300D02*
D03*
X257800D02*
D03*
X248700Y108200D02*
D03*
X256200D02*
D03*
X253700D02*
D03*
X251200D02*
D03*
X202621Y153920D02*
D03*
X205200Y154000D02*
D03*
X207700D02*
D03*
X200200D02*
D03*
X197700D02*
D03*
Y144200D02*
D03*
X200200D02*
D03*
X207700D02*
D03*
X205200D02*
D03*
X202621Y144280D02*
D03*
X129217Y128029D02*
D03*
X126585Y128092D02*
D03*
X124100Y128000D02*
D03*
X165700Y64400D02*
D03*
X110008Y87604D02*
D03*
X107981D02*
D03*
X112156D02*
D03*
X132700Y92652D02*
D03*
Y96827D02*
D03*
Y94800D02*
D03*
X141300Y99600D02*
D03*
X139400Y101800D02*
D03*
X148638Y50913D02*
D03*
X144000Y50600D02*
D03*
X164100Y6900D02*
D03*
X159400Y11200D02*
D03*
X154699Y6809D02*
D03*
X149075Y31312D02*
D03*
X144400Y34300D02*
D03*
X139673Y31039D02*
D03*
X133327Y40761D02*
D03*
X128600Y37500D02*
D03*
X123925Y40488D02*
D03*
X144169Y46772D02*
D03*
X178500Y47903D02*
D03*
X173800D02*
D03*
X169200D02*
D03*
X98700Y64700D02*
D03*
X102600Y74600D02*
D03*
Y69800D02*
D03*
X94800D02*
D03*
Y74600D02*
D03*
X98700Y72200D02*
D03*
X112600Y68800D02*
D03*
X110800D02*
D03*
X108100D02*
D03*
X106300D02*
D03*
X88000Y68700D02*
D03*
X86200D02*
D03*
X81700D02*
D03*
X83500D02*
D03*
X64189Y126389D02*
D03*
X66989Y123789D02*
D03*
X82468Y90577D02*
D03*
X79623Y93377D02*
D03*
Y97877D02*
D03*
X113100Y118700D02*
D03*
Y123800D02*
D03*
X118277Y126723D02*
D03*
X87478Y121382D02*
D03*
X86900Y110644D02*
D03*
X84300Y105500D02*
D03*
X86900Y114200D02*
D03*
X87500Y103000D02*
D03*
X84309Y123991D02*
D03*
X66900Y100000D02*
D03*
X64100Y97400D02*
D03*
M02*
