M48
;Layer_Color=9474304
;FILE_FORMAT=2:5
INCH,TZ
;TYPE=PLATED
T1F00S00C0.00787
T2F00S00C0.03543
T3F00S00C0.04331
T4F00S00C0.08600
T5F00S00C0.12598
T6F00S00C0.12992
%
T01
X275200Y26200
Y42200
Y58200
Y106200
Y122200
X267200
X259200
X260300Y114900
X262800
X265300
X271200Y114200
X267200Y106200
X256200Y108200
X253700
X251200
X248700
X235200Y106200
X227200
X219200
X211200
X203200
X207200Y98200
X215200
X223200
X231200
X227200Y90200
X219200
X211200
X215200Y82200
X223200
X231200
X227200Y74200
X247200Y66200
X248700Y62300
X251200
X253700
X256200
X257800Y55700
X260300
X262800
X265300
X267200Y58200
X271200Y50200
X267200Y42200
X271200Y34200
X263200
X255200
X247200
X251200Y26200
X243200
X235200
X239200Y18200
X247200
X243200Y10200
X235200
X227200
X220075Y9575
X215955Y5455
X210075Y9575
X203200Y10200
X200075Y9575
X195200Y10200
X195955Y5455
X205955
X186080Y5580
X187200Y10200
X190200Y9700
X179200Y10200
X171200
X164100Y6900
X159400Y11200
X154699Y6809
X147200Y10200
X139200
X131200
X123200
X119200Y18200
X121000Y29000
X124000Y26000
X123925Y40488
X128600Y37500
X133327Y40761
X139673Y31039
X139200Y26200
X147200
X149075Y31312
X144400Y34300
X144169Y46772
X144000Y50600
X148638Y50913
X148700Y46700
X151700Y46200
Y48200
X154700Y43091
X170200Y43700
Y38700
Y33700
Y28700
X163200Y26200
X164546Y51009
X162184Y54054
X165200Y57200
Y60200
X165700Y64400
X155200Y66200
X154700Y62700
X151853Y62547
X146500Y62500
X143627Y63986
X138000Y64000
Y66806
X135200Y67200
Y64200
X134000Y69500
X139000Y70500
X147000Y67500
Y76000
X152000Y79000
X155500Y81000
X155093Y75073
X160845Y86370
X163475Y89000
X163000Y94000
X160000Y91000
X167713Y85713
X173500Y91500
X177000Y94500
X176600Y105119
X174681Y103200
X172200
X171500Y107000
Y116000
X139500Y113500
X137500Y111000
X134753Y116105
X134500Y119000
X136737Y120043
X139400Y101800
X141300Y99600
X137000Y95000
X132700Y94800
Y96827
Y92652
X135000Y81000
Y78000
X120700Y78200
X116700Y78700
X117181Y71706
X122000Y64482
X124099
X123000Y54000
X120500
X169200Y47903
X173800
X178500
X183200Y50200
X195200Y42200
X199200Y34200
X211200Y26200
X219200
X223200Y34200
X231200
X227200Y42200
X247454Y46846
X250100Y44200
X254600Y44146
X257246Y46791
X251200Y58200
X263200Y66200
X257800Y114900
X223200Y114200
X215200
X219200Y122200
X200500Y83500
X197500Y85500
X231200Y18200
X115200Y10200
X111000Y25500
Y28500
Y31500
X99900
Y27000
X97254Y24354
Y34146
X99700Y39700
Y45200
X96900Y42500
X94200Y45200
Y39700
X89500Y36000
X81076Y34655
X81000Y42000
X81500Y48500
X89000Y49500
X90302Y51802
X97603Y56615
X100502Y55564
X102909Y60409
X105000Y60500
X107500
Y64500
Y66500
X108100Y68800
X106300
X110800
X112600
X115391Y71716
X102600Y69800
Y74600
X98700Y72200
X94800Y69800
Y74600
X95200Y82200
X103200
X103000Y91500
X103200Y98200
X111200
X111500Y91500
X112156Y87604
X110008
X107981
X87200Y82200
X79200
X71200
X63200
X67200Y90200
X75200
X79623Y93377
Y97877
X71200Y98200
X66900Y100000
X64100Y97400
X54000Y99000
X46000
Y110500
X31200Y114200
X23200
X15200
X7200
X11200Y122200
X19200
X27200
X35200
X27200Y106200
X19200
X11200
X15200Y98200
X23200
X31200
X27200Y90200
X19200
X11200
X15200Y82200
X23200
X19200Y74200
X11200
X15200Y66200
X23200
X27200Y58200
X19200
X11200
X15200Y50200
X23200
X31200
X27200Y42200
X19200
X11200
X15200Y34200
X23200
X31200
X39200
X43200Y26200
X51200
X55200Y34200
X68000Y36000
X73500
X73000Y28000
Y24000
X81000Y26500
X68000Y13500
X55200Y18200
X47200
X39200
X31200
X35200Y26200
X27200
X35200Y10200
X43200
X51200
X51000Y56000
X55000
Y52500
X71200Y50200
X68000Y62500
X79200Y66200
X81700Y68700
X83500
X86200
X88000
X90500Y64500
X98700Y64700
X106691Y48643
X107000Y45500
Y42516
X112500Y41500
X75000Y71000
X59200Y74200
Y90200
X82468Y90577
X84300Y105500
X87500Y103000
X86900Y110644
Y114200
X87478Y121382
X107200Y122200
X113100Y118700
X111200Y114200
X7200Y98200
Y82200
Y66200
Y50200
Y34200
Y130200
X15200
X23200
X31200
X39200
X27200Y138200
X19200
X11200
X15200Y146200
X23200
X31200
X35200Y154200
X27200
X19200
X11200
X7200Y146200
X31200Y162200
X39200
X47200
X55200
X63200
X71200
X75200Y170200
X83200
X91200
X99200
X107200
X103200Y178200
X95200
X87200
X79200
X71200
X63200
X55200
X47200
X39200
X31200
X35200Y170200
X43200
X51200
X59200
X67200
Y154200
X59200
X51200
X58500Y128000
X63200Y130200
X64189Y126389
X66989Y123789
X71200Y130200
X79200
X87200
X95200
X103200
X111200
X113100Y123800
X111200Y146200
X103200
X95200
X87200
X79200
X83200Y138200
X91200
X99200
Y154200
X107200
X115200
X91200
X75200Y138200
X84309Y123991
X118277Y126723
X124100Y128000
X126585Y128092
X129217Y128029
X139500Y131500
X142500Y130000
Y127500
X161556Y128951
X166740Y125713
X169213Y125687
Y123187
X191200Y130200
X199200
X207200
X215200
X223200
X219200Y138200
X211200
X203200
X202621Y144280
X200200Y144200
X197700
X205200
X207700
X215200Y146200
X223200
X219200Y154200
X211200
X207700Y154000
X205200
X202621Y153920
X200200Y154000
X197700
X187200Y154200
X179200
X171200
X163200
X155200
X147200
X139200
X131923Y154323
X131977Y149823
Y145423
X131200Y170200
X139200
X147200
X155200
X159200Y178200
X151200
X143200
X135200
X127200
X175200
X183200
X191200
X199200
X207200
X215200
X223200
X231200
X239200
X247200
X243200Y170200
X235200
X227200
X219200
X211200
X203200
X195200
X187200
X179200
X183200Y146200
X191200
X195200Y138200
X251200
X259200
X267200
X271200Y146200
X263200
X255200
X259200Y154200
X267200
X251200
X247200Y162200
X255200Y130200
X263200
X271200
X275200Y138200
Y154200
T02
X272200Y70300
Y80300
Y90300
Y100300
X241200Y100200
Y90200
Y80200
Y70200
X231700
X221700
X211700
Y60200
X221700
X231700
X241200
Y50200
X231700
X221700
X211700
X201700
Y60200
Y70200
X191200
Y60200
Y50200
Y80200
Y90200
Y100200
Y110200
Y120200
X201200
X211200
X241200
Y110200
X102900Y18000
Y8000
X92900
X82900
Y18000
X72900
Y8000
X62900
Y18000
X92900
X110900Y137200
X120900
X130900
X140900
X150900
X160900
X170900
T03
X39200Y77789
Y88695
Y99600
Y110505
X50381Y115958
Y105053
Y94147
Y83242
Y72336
T04
X115900Y172200
X165900
T05
X44791Y44954
Y143340
T06
X263779Y15748
X15748
Y169291
X263779
M30
