G04*
G04 #@! TF.GenerationSoftware,Altium Limited,Altium Designer,20.0.13 (296)*
G04*
G04 Layer_Color=32896*
%FSLAX25Y25*%
%MOIN*%
G70*
G01*
G75*
%ADD11C,0.02000*%
%ADD13C,0.01000*%
%ADD41C,0.02500*%
D11*
X642168Y201497D02*
X643501Y202830D01*
X646167D01*
X647500Y201497D01*
Y200165D01*
X646167Y198832D01*
X643501D01*
X642168Y197499D01*
Y196166D01*
X643501Y194833D01*
X646167D01*
X647500Y196166D01*
X639503Y202830D02*
X634171D01*
X636837D01*
Y194833D01*
X626174Y202830D02*
X631505D01*
Y194833D01*
X626174D01*
X631505Y198832D02*
X628839D01*
X623508Y194833D02*
Y202830D01*
X619509D01*
X618176Y201497D01*
Y198832D01*
X619509Y197499D01*
X623508D01*
X615510Y194833D02*
Y202830D01*
X611512D01*
X610179Y201497D01*
Y198832D01*
X611512Y197499D01*
X615510D01*
X602181Y202830D02*
X607513D01*
Y194833D01*
X602181D01*
X607513Y198832D02*
X604847D01*
X599515Y194833D02*
Y202830D01*
X595517D01*
X594184Y201497D01*
Y198832D01*
X595517Y197499D01*
X599515D01*
X596850D02*
X594184Y194833D01*
X591518Y193500D02*
X586187D01*
X578189Y201497D02*
X579522Y202830D01*
X582188D01*
X583521Y201497D01*
Y196166D01*
X582188Y194833D01*
X579522D01*
X578189Y196166D01*
X571525Y202830D02*
X574190D01*
X575523Y201497D01*
Y196166D01*
X574190Y194833D01*
X571525D01*
X570192Y196166D01*
Y201497D01*
X571525Y202830D01*
X567526Y194833D02*
Y202830D01*
X562194Y194833D01*
Y202830D01*
X559528Y194833D02*
Y202830D01*
X554197Y194833D01*
Y202830D01*
X546200D02*
X551531D01*
Y194833D01*
X546200D01*
X551531Y198832D02*
X548865D01*
X538202Y201497D02*
X539535Y202830D01*
X542201D01*
X543534Y201497D01*
Y196166D01*
X542201Y194833D01*
X539535D01*
X538202Y196166D01*
X535536Y202830D02*
X530205D01*
X532870D01*
Y194833D01*
X523540Y202830D02*
X526206D01*
X527539Y201497D01*
Y196166D01*
X526206Y194833D01*
X523540D01*
X522207Y196166D01*
Y201497D01*
X523540Y202830D01*
X519541Y194833D02*
Y202830D01*
X515543D01*
X514210Y201497D01*
Y198832D01*
X515543Y197499D01*
X519541D01*
X516876D02*
X514210Y194833D01*
X511544Y193500D02*
X506212D01*
X503547Y202830D02*
Y197499D01*
X500881Y194833D01*
X498215Y197499D01*
Y202830D01*
X495549Y194833D02*
X492883D01*
X494216D01*
Y202830D01*
X495549Y201497D01*
D13*
X592500Y213332D02*
Y209333D01*
Y211332D01*
X591834Y211999D01*
X590501D01*
X589834Y211332D01*
Y209333D01*
X587835Y212665D02*
Y211999D01*
X588501D01*
X587168D01*
X587835D01*
Y209999D01*
X587168Y209333D01*
X584503Y212665D02*
Y211999D01*
X585169D01*
X583836D01*
X584503D01*
Y209999D01*
X583836Y209333D01*
X581837Y208000D02*
Y211999D01*
X579837D01*
X579171Y211332D01*
Y209999D01*
X579837Y209333D01*
X581837D01*
X577838D02*
X575839D01*
X575172Y209999D01*
X575839Y210666D01*
X577172D01*
X577838Y211332D01*
X577172Y211999D01*
X575172D01*
X573839D02*
X573173D01*
Y211332D01*
X573839D01*
Y211999D01*
Y209999D02*
X573173D01*
Y209333D01*
X573839D01*
Y209999D01*
X570507Y209333D02*
X567841Y211999D01*
X566508Y209333D02*
X563843Y211999D01*
X561177Y208000D02*
X560510D01*
X559844Y208666D01*
Y211999D01*
X561843D01*
X562510Y211332D01*
Y209999D01*
X561843Y209333D01*
X559844D01*
X558511D02*
X557178D01*
X557844D01*
Y211999D01*
X558511D01*
X554512Y212665D02*
Y211999D01*
X555179D01*
X553846D01*
X554512D01*
Y209999D01*
X553846Y209333D01*
X551846Y213332D02*
Y209333D01*
Y211332D01*
X551180Y211999D01*
X549847D01*
X549181Y211332D01*
Y209333D01*
X547848Y211999D02*
Y209999D01*
X547181Y209333D01*
X545182D01*
Y211999D01*
X543849Y213332D02*
Y209333D01*
X541850D01*
X541183Y209999D01*
Y210666D01*
Y211332D01*
X541850Y211999D01*
X543849D01*
X539850Y209333D02*
Y209999D01*
X539184D01*
Y209333D01*
X539850D01*
X533852Y211999D02*
X535852D01*
X536518Y211332D01*
Y209999D01*
X535852Y209333D01*
X533852D01*
X531853D02*
X530520D01*
X529853Y209999D01*
Y211332D01*
X530520Y211999D01*
X531853D01*
X532519Y211332D01*
Y209999D01*
X531853Y209333D01*
X528521D02*
Y211999D01*
X527854D01*
X527188Y211332D01*
Y209333D01*
Y211332D01*
X526521Y211999D01*
X525855Y211332D01*
Y209333D01*
X524522D02*
X521856Y211999D01*
X520523D02*
Y209999D01*
X519857Y209333D01*
X519190Y209999D01*
X518524Y209333D01*
X517857Y209999D01*
Y211999D01*
X516525Y209333D02*
X515192D01*
X515858D01*
Y211999D01*
X516525D01*
X512526Y212665D02*
Y211999D01*
X513192D01*
X511859D01*
X512526D01*
Y209999D01*
X511859Y209333D01*
X507861D02*
X509194D01*
X509860Y209999D01*
Y211332D01*
X509194Y211999D01*
X507861D01*
X507194Y211332D01*
Y210666D01*
X509860D01*
X505861Y209333D02*
Y213332D01*
Y210666D02*
X503862Y211999D01*
X505861Y210666D02*
X503862Y209333D01*
X501863D02*
X500530D01*
X501196D01*
Y213332D01*
X501863Y212665D01*
X498530Y209333D02*
X497197D01*
X497864D01*
Y213332D01*
X498530Y212665D01*
X495198Y213332D02*
X492532D01*
Y212665D01*
X495198Y209999D01*
Y209333D01*
D41*
X624500Y271997D02*
Y262000D01*
Y265332D01*
X617836Y271997D01*
X622834Y266998D01*
X617836Y262000D01*
X614503D02*
Y271997D01*
X607839Y262000D01*
Y271997D01*
X597842D02*
X604506D01*
Y262000D01*
X597842D01*
X604506Y266998D02*
X601174D01*
X584513Y262000D02*
Y268665D01*
X581181Y271997D01*
X577848Y268665D01*
Y262000D01*
Y266998D01*
X584513D01*
X574516Y262000D02*
Y271997D01*
X567852Y262000D01*
Y271997D01*
X557855Y270331D02*
X559521Y271997D01*
X562853D01*
X564519Y270331D01*
Y263666D01*
X562853Y262000D01*
X559521D01*
X557855Y263666D01*
Y266998D01*
X561187D01*
X537861Y262000D02*
X544526D01*
X537861Y268665D01*
Y270331D01*
X539528Y271997D01*
X542860D01*
X544526Y270331D01*
X534529D02*
X532863Y271997D01*
X529531D01*
X527865Y270331D01*
Y263666D01*
X529531Y262000D01*
X532863D01*
X534529Y263666D01*
Y270331D01*
X517868Y262000D02*
X524532D01*
X517868Y268665D01*
Y270331D01*
X519534Y271997D01*
X522866D01*
X524532Y270331D01*
X514536D02*
X512869Y271997D01*
X509537D01*
X507871Y270331D01*
Y263666D01*
X509537Y262000D01*
X512869D01*
X514536Y263666D01*
Y270331D01*
M02*
