G04*
G04 #@! TF.GenerationSoftware,Altium Limited,Altium Designer,20.0.13 (296)*
G04*
G04 Layer_Physical_Order=1*
G04 Layer_Color=255*
%FSLAX25Y25*%
%MOIN*%
G70*
G01*
G75*
%ADD11C,0.02000*%
%ADD18R,0.02953X0.03150*%
%ADD19R,0.03150X0.02953*%
%ADD20R,0.05118X0.02362*%
%ADD21R,0.07000X0.06400*%
%ADD22R,0.08000X0.02600*%
%ADD23R,0.01772X0.01772*%
%ADD34C,0.01500*%
%ADD35C,0.05000*%
%ADD36C,0.07087*%
%ADD37C,0.06000*%
%ADD38C,0.05906*%
%ADD39R,0.05906X0.05906*%
%ADD40C,0.01968*%
G36*
X651500Y172000D02*
X489500D01*
Y292500D01*
X651500D01*
Y172000D01*
D02*
G37*
%LPC*%
G36*
X606000Y288634D02*
X604608Y288497D01*
X603270Y288091D01*
X602036Y287432D01*
X600955Y286545D01*
X600068Y285464D01*
X599409Y284230D01*
X599003Y282892D01*
X598866Y281500D01*
X599003Y280108D01*
X599409Y278770D01*
X600068Y277536D01*
X600955Y276455D01*
X602036Y275568D01*
X603270Y274909D01*
X604608Y274503D01*
X606000Y274366D01*
X607392Y274503D01*
X608730Y274909D01*
X609964Y275568D01*
X611045Y276455D01*
X611932Y277536D01*
X612591Y278770D01*
X612997Y280108D01*
X613134Y281500D01*
X612997Y282892D01*
X612591Y284230D01*
X611932Y285464D01*
X611045Y286545D01*
X609964Y287432D01*
X608730Y288091D01*
X607392Y288497D01*
X606000Y288634D01*
D02*
G37*
G36*
X595075Y260185D02*
X593500D01*
Y258709D01*
X595075D01*
Y260185D01*
D02*
G37*
G36*
X591500D02*
X589925D01*
Y258709D01*
X591500D01*
Y260185D01*
D02*
G37*
G36*
X575075Y259685D02*
X573500D01*
Y258209D01*
X575075D01*
Y259685D01*
D02*
G37*
G36*
X570500Y260400D02*
X560500D01*
Y258249D01*
X553204D01*
X552228Y258055D01*
X551402Y257502D01*
X549320Y255421D01*
X544807D01*
Y254831D01*
X539425D01*
Y254403D01*
X534854D01*
X533879Y254209D01*
X533052Y253657D01*
X527698Y248302D01*
X527145Y247476D01*
X526951Y246500D01*
Y239786D01*
X526451Y239631D01*
X525951Y240014D01*
X525251Y240304D01*
X524500Y240403D01*
X523749Y240304D01*
X523049Y240014D01*
X522762Y239794D01*
X513500D01*
X512622Y239619D01*
X511878Y239122D01*
X504378Y231622D01*
X503881Y230878D01*
X503706Y230000D01*
Y208886D01*
X503614D01*
Y204171D01*
X503451Y203350D01*
X503614Y202530D01*
Y200965D01*
X504781D01*
X505548Y200198D01*
X506375Y199645D01*
X507350Y199451D01*
X507425D01*
Y199169D01*
X512425D01*
Y199024D01*
X518575D01*
Y199200D01*
X528098D01*
X528249Y199200D01*
X528456Y198700D01*
X524232Y194476D01*
X521425D01*
Y188524D01*
Y182815D01*
X522206D01*
Y180852D01*
X521324Y180176D01*
X520611Y179246D01*
X520162Y178162D01*
X520009Y177000D01*
X520162Y175838D01*
X520611Y174754D01*
X521324Y173824D01*
X522254Y173110D01*
X523338Y172662D01*
X524500Y172509D01*
X525662Y172662D01*
X526746Y173110D01*
X527676Y173824D01*
X528390Y174754D01*
X528838Y175838D01*
X528991Y177000D01*
X528838Y178162D01*
X528390Y179246D01*
X527676Y180176D01*
X526794Y180852D01*
Y182815D01*
X527575D01*
Y188524D01*
Y191331D01*
X531706Y195462D01*
X532206Y195255D01*
Y194331D01*
X531425D01*
Y188378D01*
Y182669D01*
X532206D01*
Y180852D01*
X531324Y180176D01*
X530611Y179246D01*
X530162Y178162D01*
X530009Y177000D01*
X530162Y175838D01*
X530611Y174754D01*
X531324Y173824D01*
X532254Y173110D01*
X533338Y172662D01*
X534500Y172509D01*
X535662Y172662D01*
X536746Y173110D01*
X537676Y173824D01*
X538389Y174754D01*
X538838Y175838D01*
X538991Y177000D01*
X538838Y178162D01*
X538389Y179246D01*
X537676Y180176D01*
X536794Y180852D01*
Y182669D01*
X537575D01*
Y188378D01*
Y194331D01*
X537282D01*
X537075Y194831D01*
X538622Y196378D01*
X539119Y197122D01*
X539294Y198000D01*
Y198785D01*
X539500Y199200D01*
X549802D01*
X549994Y198738D01*
X549550Y198294D01*
X546000D01*
X545122Y198119D01*
X544378Y197622D01*
X542878Y196122D01*
X542381Y195378D01*
X542206Y194500D01*
Y194331D01*
X541425D01*
Y188378D01*
Y182669D01*
X542206D01*
Y180852D01*
X541324Y180176D01*
X540611Y179246D01*
X540162Y178162D01*
X540009Y177000D01*
X540162Y175838D01*
X540611Y174754D01*
X541324Y173824D01*
X542254Y173110D01*
X543338Y172662D01*
X544500Y172509D01*
X545662Y172662D01*
X546746Y173110D01*
X547676Y173824D01*
X548389Y174754D01*
X548838Y175838D01*
X548991Y177000D01*
X548838Y178162D01*
X548389Y179246D01*
X547676Y180176D01*
X546794Y180852D01*
Y182669D01*
X547575D01*
Y188378D01*
Y193706D01*
X550500D01*
X551378Y193880D01*
X552122Y194378D01*
X555622Y197878D01*
X556119Y198622D01*
X556294Y199500D01*
Y218925D01*
X562331D01*
Y219706D01*
X565778D01*
X565996Y219539D01*
X566696Y219249D01*
X566986Y218549D01*
X567447Y217947D01*
X568049Y217486D01*
X568749Y217196D01*
X569500Y217097D01*
X570251Y217196D01*
X570951Y217486D01*
X571553Y217947D01*
X572014Y218549D01*
X572304Y219249D01*
X572403Y220000D01*
X572304Y220751D01*
X572014Y221451D01*
X571553Y222053D01*
X570951Y222514D01*
X570251Y222804D01*
X569961Y223504D01*
X569500Y224105D01*
X568899Y224567D01*
X568199Y224856D01*
X567447Y224955D01*
X566696Y224856D01*
X565996Y224567D01*
X565641Y224294D01*
X562331D01*
Y225075D01*
X561294D01*
Y235500D01*
X561120Y236378D01*
X560637Y237100D01*
X560656Y237192D01*
X560851Y237600D01*
X560854Y237600D01*
X570500D01*
Y237815D01*
X571500D01*
Y240291D01*
X572500D01*
Y241291D01*
X575075D01*
Y242768D01*
X575510Y242925D01*
X584425D01*
Y242815D01*
X589425D01*
Y242378D01*
X589531D01*
X589925Y242122D01*
X589925Y241878D01*
Y240646D01*
X595075D01*
Y241571D01*
X595575Y241670D01*
X595995Y240657D01*
X596803Y239603D01*
X597857Y238795D01*
X599083Y238286D01*
X600400Y238113D01*
X601717Y238286D01*
X602943Y238795D01*
X603997Y239603D01*
X604805Y240657D01*
X605313Y241883D01*
X605487Y243200D01*
X605313Y244517D01*
X604805Y245743D01*
X603997Y246797D01*
X602943Y247605D01*
X601717Y248113D01*
X600400Y248287D01*
X599083Y248113D01*
X598116Y247713D01*
X598026Y247802D01*
X597199Y248355D01*
X596644Y248465D01*
Y248975D01*
X597499Y249145D01*
X598051Y249514D01*
X599083Y249086D01*
X600400Y248913D01*
X601717Y249086D01*
X602943Y249595D01*
X603997Y250403D01*
X604805Y251457D01*
X605313Y252683D01*
X605487Y254000D01*
X605313Y255317D01*
X604805Y256543D01*
X603997Y257597D01*
X602943Y258405D01*
X601717Y258913D01*
X600400Y259087D01*
X599083Y258913D01*
X597857Y258405D01*
X596803Y257597D01*
X595995Y256543D01*
X595575Y255530D01*
X595075Y255629D01*
Y256709D01*
X592500D01*
X589925D01*
Y255476D01*
X589925Y255232D01*
X589531Y254976D01*
X589425D01*
Y254476D01*
X585831D01*
Y254575D01*
X575510D01*
X575075Y254732D01*
Y256209D01*
X572500D01*
Y257209D01*
X571500D01*
Y259685D01*
X570500D01*
Y260400D01*
D02*
G37*
G36*
X575075Y239291D02*
X573500D01*
Y237815D01*
X575075D01*
Y239291D01*
D02*
G37*
G36*
X595075Y238646D02*
X593500D01*
Y237169D01*
X595075D01*
Y238646D01*
D02*
G37*
G36*
X591500D02*
X589925D01*
Y237169D01*
X591500D01*
Y238646D01*
D02*
G37*
G36*
X611600Y242887D02*
X610283Y242713D01*
X609057Y242205D01*
X608003Y241397D01*
X607195Y240343D01*
X606686Y239117D01*
X606513Y237800D01*
X606686Y236483D01*
X607195Y235257D01*
X608003Y234203D01*
X609057Y233395D01*
X610283Y232887D01*
X611600Y232713D01*
X612917Y232887D01*
X614143Y233395D01*
X615197Y234203D01*
X616005Y235257D01*
X616513Y236483D01*
X616687Y237800D01*
X616513Y239117D01*
X616005Y240343D01*
X615197Y241397D01*
X614143Y242205D01*
X612917Y242713D01*
X611600Y242887D01*
D02*
G37*
G36*
X612600Y231351D02*
Y227900D01*
X616051D01*
X616026Y228086D01*
X615569Y229191D01*
X614840Y230140D01*
X613891Y230869D01*
X612786Y231326D01*
X612600Y231351D01*
D02*
G37*
G36*
X610600D02*
X610414Y231326D01*
X609309Y230869D01*
X608360Y230140D01*
X607631Y229191D01*
X607174Y228086D01*
X607149Y227900D01*
X610600D01*
Y231351D01*
D02*
G37*
G36*
X616051Y225900D02*
X612600D01*
Y222449D01*
X612786Y222474D01*
X613891Y222931D01*
X614840Y223660D01*
X615569Y224609D01*
X616026Y225714D01*
X616051Y225900D01*
D02*
G37*
G36*
X610600D02*
X607149D01*
X607174Y225714D01*
X607631Y224609D01*
X608360Y223660D01*
X609309Y222931D01*
X610414Y222474D01*
X610600Y222449D01*
Y225900D01*
D02*
G37*
G36*
X612600Y220451D02*
Y217000D01*
X616051D01*
X616026Y217186D01*
X615569Y218291D01*
X614840Y219240D01*
X613891Y219969D01*
X612786Y220426D01*
X612600Y220451D01*
D02*
G37*
G36*
X610600D02*
X610414Y220426D01*
X609309Y219969D01*
X608360Y219240D01*
X607631Y218291D01*
X607174Y217186D01*
X607149Y217000D01*
X610600D01*
Y220451D01*
D02*
G37*
G36*
X611600Y253787D02*
X610283Y253613D01*
X609057Y253105D01*
X608003Y252297D01*
X607195Y251243D01*
X606686Y250017D01*
X606513Y248700D01*
X606686Y247383D01*
X607195Y246157D01*
X608003Y245103D01*
X609057Y244295D01*
X610283Y243787D01*
X611600Y243613D01*
X612917Y243787D01*
X614143Y244295D01*
X614366Y244465D01*
X618829D01*
X620466Y242829D01*
Y210171D01*
X615829Y205535D01*
X601322D01*
X601289Y206034D01*
X601586Y206074D01*
X602691Y206531D01*
X603640Y207260D01*
X604369Y208209D01*
X604826Y209314D01*
X604851Y209500D01*
X600400D01*
X595949D01*
X595974Y209314D01*
X596431Y208209D01*
X597160Y207260D01*
X598109Y206531D01*
X599214Y206074D01*
X599511Y206034D01*
X599478Y205535D01*
X591500D01*
X591500Y205535D01*
X590456Y205397D01*
X589483Y204994D01*
X588647Y204353D01*
X588216Y204528D01*
X584904Y207841D01*
X584857Y208199D01*
X584566Y208899D01*
X584105Y209500D01*
X583504Y209961D01*
X582804Y210251D01*
X582446Y210298D01*
X582351Y210393D01*
X582304Y210751D01*
X582014Y211451D01*
X581553Y212053D01*
X581220Y212308D01*
X581146Y212940D01*
X585571Y217366D01*
X597373D01*
X597857Y216995D01*
X599083Y216487D01*
X600400Y216313D01*
X601717Y216487D01*
X602943Y216995D01*
X603997Y217803D01*
X604805Y218857D01*
X605313Y220083D01*
X605487Y221400D01*
X605313Y222717D01*
X604805Y223943D01*
X604434Y224427D01*
Y229273D01*
X604805Y229757D01*
X605313Y230983D01*
X605487Y232300D01*
X605313Y233617D01*
X604805Y234843D01*
X603997Y235897D01*
X602943Y236705D01*
X601717Y237213D01*
X600400Y237387D01*
X599083Y237213D01*
X597857Y236705D01*
X596803Y235897D01*
X595995Y234843D01*
X595486Y233617D01*
X595313Y232300D01*
X595486Y230983D01*
X595995Y229757D01*
X596365Y229273D01*
Y225434D01*
X583900D01*
X582856Y225297D01*
X581883Y224894D01*
X581047Y224253D01*
X581047Y224253D01*
X561647Y204853D01*
X561006Y204017D01*
X560603Y203044D01*
X560465Y202000D01*
X560465Y202000D01*
Y181035D01*
X556395D01*
X555662Y181338D01*
X554500Y181491D01*
X553338Y181338D01*
X552254Y180889D01*
X551324Y180176D01*
X550610Y179246D01*
X550162Y178162D01*
X550009Y177000D01*
X550162Y175838D01*
X550610Y174754D01*
X551324Y173824D01*
X552254Y173110D01*
X553338Y172662D01*
X554500Y172509D01*
X555662Y172662D01*
X556395Y172966D01*
X562605D01*
X563338Y172662D01*
X564500Y172509D01*
X565662Y172662D01*
X566746Y173110D01*
X567676Y173824D01*
X568390Y174754D01*
X568838Y175838D01*
X568991Y177000D01*
X568838Y178162D01*
X568535Y178895D01*
Y200329D01*
X576560Y208354D01*
X577192Y208280D01*
X577447Y207947D01*
X578049Y207486D01*
X578749Y207196D01*
X579107Y207149D01*
X579202Y207054D01*
X579249Y206696D01*
X579539Y205996D01*
X580000Y205395D01*
X580601Y204934D01*
X581301Y204644D01*
X581659Y204596D01*
X585275Y200981D01*
X581647Y197353D01*
X581006Y196517D01*
X580603Y195544D01*
X580466Y194500D01*
X580466Y194500D01*
Y181453D01*
X580047D01*
Y181035D01*
X576395D01*
X575662Y181338D01*
X574500Y181491D01*
X573338Y181338D01*
X572254Y180889D01*
X571324Y180176D01*
X570611Y179246D01*
X570162Y178162D01*
X570009Y177000D01*
X570162Y175838D01*
X570611Y174754D01*
X571324Y173824D01*
X572254Y173110D01*
X573338Y172662D01*
X574500Y172509D01*
X575662Y172662D01*
X576395Y172966D01*
X580047D01*
Y172547D01*
X588953D01*
Y181453D01*
X588534D01*
Y192829D01*
X592353Y196647D01*
X592353Y196647D01*
X593171Y197466D01*
X617500D01*
X617500Y197466D01*
X618544Y197603D01*
X619517Y198006D01*
X620353Y198647D01*
X627353Y205647D01*
X627353Y205647D01*
X627994Y206483D01*
X628397Y207456D01*
X628535Y208500D01*
Y244500D01*
X628397Y245544D01*
X627994Y246517D01*
X627353Y247353D01*
X627353Y247353D01*
X623353Y251353D01*
X622517Y251994D01*
X621544Y252397D01*
X620500Y252535D01*
X620500Y252535D01*
X614887D01*
X614143Y253105D01*
X612917Y253613D01*
X611600Y253787D01*
D02*
G37*
G36*
X616051Y215000D02*
X612600D01*
Y211549D01*
X612786Y211574D01*
X613891Y212031D01*
X614840Y212760D01*
X615569Y213709D01*
X616026Y214814D01*
X616051Y215000D01*
D02*
G37*
G36*
X610600D02*
X607149D01*
X607174Y214814D01*
X607631Y213709D01*
X608360Y212760D01*
X609309Y212031D01*
X610414Y211574D01*
X610600Y211549D01*
Y215000D01*
D02*
G37*
G36*
X601400Y214951D02*
Y211500D01*
X604851D01*
X604826Y211686D01*
X604369Y212791D01*
X603640Y213740D01*
X602691Y214469D01*
X601586Y214926D01*
X601400Y214951D01*
D02*
G37*
G36*
X599400D02*
X599214Y214926D01*
X598109Y214469D01*
X597160Y213740D01*
X596431Y212791D01*
X595974Y211686D01*
X595949Y211500D01*
X599400D01*
Y214951D01*
D02*
G37*
G36*
X515500Y180855D02*
Y178000D01*
X518355D01*
X518351Y178032D01*
X517953Y178993D01*
X517319Y179819D01*
X516493Y180453D01*
X515532Y180851D01*
X515500Y180855D01*
D02*
G37*
G36*
X505500D02*
Y178000D01*
X508355D01*
X508351Y178032D01*
X507953Y178993D01*
X507319Y179819D01*
X506493Y180453D01*
X505532Y180851D01*
X505500Y180855D01*
D02*
G37*
G36*
X495500D02*
Y178000D01*
X498355D01*
X498351Y178032D01*
X497953Y178993D01*
X497319Y179819D01*
X496493Y180453D01*
X495532Y180851D01*
X495500Y180855D01*
D02*
G37*
G36*
X503500D02*
X503468Y180851D01*
X502507Y180453D01*
X501681Y179819D01*
X501047Y178993D01*
X500649Y178032D01*
X500645Y178000D01*
X503500D01*
Y180855D01*
D02*
G37*
G36*
X513500D02*
X513468Y180851D01*
X512507Y180453D01*
X511681Y179819D01*
X511047Y178993D01*
X510649Y178032D01*
X510645Y178000D01*
X513500D01*
Y180855D01*
D02*
G37*
G36*
X493500D02*
X493468Y180851D01*
X492507Y180453D01*
X491681Y179819D01*
X491047Y178993D01*
X490649Y178032D01*
X490645Y178000D01*
X493500D01*
Y180855D01*
D02*
G37*
G36*
X606000Y190234D02*
X604608Y190097D01*
X603270Y189691D01*
X602036Y189032D01*
X600955Y188145D01*
X600068Y187064D01*
X599409Y185830D01*
X599003Y184492D01*
X598866Y183100D01*
X599003Y181708D01*
X599409Y180370D01*
X600068Y179136D01*
X600955Y178055D01*
X602036Y177168D01*
X603270Y176509D01*
X604608Y176103D01*
X606000Y175966D01*
X607392Y176103D01*
X608730Y176509D01*
X609964Y177168D01*
X611045Y178055D01*
X611932Y179136D01*
X612591Y180370D01*
X612997Y181708D01*
X613134Y183100D01*
X612997Y184492D01*
X612591Y185830D01*
X611932Y187064D01*
X611045Y188145D01*
X609964Y189032D01*
X608730Y189691D01*
X607392Y190097D01*
X606000Y190234D01*
D02*
G37*
G36*
X518355Y176000D02*
X515500D01*
Y173145D01*
X515532Y173149D01*
X516493Y173547D01*
X517319Y174181D01*
X517953Y175007D01*
X518351Y175968D01*
X518355Y176000D01*
D02*
G37*
G36*
X508355D02*
X505500D01*
Y173145D01*
X505532Y173149D01*
X506493Y173547D01*
X507319Y174181D01*
X507953Y175007D01*
X508351Y175968D01*
X508355Y176000D01*
D02*
G37*
G36*
X498355D02*
X495500D01*
Y173145D01*
X495532Y173149D01*
X496493Y173547D01*
X497319Y174181D01*
X497953Y175007D01*
X498351Y175968D01*
X498355Y176000D01*
D02*
G37*
G36*
X513500D02*
X510645D01*
X510649Y175968D01*
X511047Y175007D01*
X511681Y174181D01*
X512507Y173547D01*
X513468Y173149D01*
X513500Y173145D01*
Y176000D01*
D02*
G37*
G36*
X503500D02*
X500645D01*
X500649Y175968D01*
X501047Y175007D01*
X501681Y174181D01*
X502507Y173547D01*
X503468Y173149D01*
X503500Y173145D01*
Y176000D01*
D02*
G37*
G36*
X493500D02*
X490645D01*
X490649Y175968D01*
X491047Y175007D01*
X491681Y174181D01*
X492507Y173547D01*
X493468Y173149D01*
X493500Y173145D01*
Y176000D01*
D02*
G37*
%LPD*%
G36*
X560500Y251181D02*
X558134D01*
Y250000D01*
X560693D01*
Y251000D01*
X566895D01*
X568198Y249698D01*
X569025Y249145D01*
X569425Y249065D01*
Y248534D01*
X568525Y248355D01*
X567698Y247802D01*
X566895Y247000D01*
X560693D01*
Y248000D01*
X558134D01*
Y246819D01*
X560500D01*
Y244849D01*
X554260D01*
X552925Y246184D01*
Y247941D01*
X548412D01*
X548405Y247948D01*
X547578Y248501D01*
X546602Y248695D01*
X545575D01*
Y248878D01*
Y249305D01*
X546602D01*
X547578Y249499D01*
X548405Y250052D01*
X548412Y250059D01*
X552925D01*
Y251816D01*
X554260Y253151D01*
X560500D01*
Y251181D01*
D02*
G37*
G36*
X556706Y234550D02*
Y225075D01*
X550669D01*
Y225075D01*
X550500Y224800D01*
X550000D01*
Y226000D01*
X545000D01*
Y228000D01*
X550000D01*
Y229200D01*
X550000Y229300D01*
Y229700D01*
X550000Y229800D01*
Y231000D01*
X545000D01*
Y233000D01*
X550000D01*
Y234300D01*
X550343Y234396D01*
X550831Y234425D01*
D01*
X551244Y234631D01*
X551500Y234597D01*
X552251Y234696D01*
X552951Y234986D01*
X553238Y235206D01*
X556050D01*
X556706Y234550D01*
D02*
G37*
G36*
X517500Y234800D02*
Y229549D01*
X516525Y229355D01*
X515698Y228802D01*
X514198Y227302D01*
X513645Y226476D01*
X513451Y225500D01*
Y213500D01*
X513645Y212525D01*
X514198Y211698D01*
X515210Y210685D01*
X515003Y210185D01*
X513075D01*
Y210331D01*
X511500D01*
Y207854D01*
X509500D01*
Y210331D01*
X508294D01*
Y229050D01*
X514450Y235206D01*
X517273D01*
X517500Y234800D01*
D02*
G37*
%LPC*%
G36*
X556134Y251181D02*
X553575D01*
Y250000D01*
X556134D01*
Y251181D01*
D02*
G37*
G36*
Y248000D02*
X553575D01*
Y246819D01*
X556134D01*
Y248000D01*
D02*
G37*
%LPD*%
D11*
X533500Y245328D02*
X534672Y246500D01*
X542146D01*
X530500Y222000D02*
X533500Y225000D01*
Y245328D01*
X529500Y246500D02*
X534854Y251854D01*
X517500Y227000D02*
X523000D01*
X534854Y251854D02*
X542500D01*
X523214Y227214D02*
X528328D01*
X529500Y228386D01*
Y246500D01*
X523000Y227000D02*
X523214Y227214D01*
X515500Y202000D02*
X523000D01*
X507350D02*
X515500D01*
X506000Y203350D02*
X507350Y202000D01*
X516000Y213500D02*
Y225500D01*
X517500Y227000D01*
X522700Y212300D02*
X523000Y212000D01*
X517200Y212300D02*
X522700D01*
X516000Y213500D02*
X517200Y212300D01*
X523000Y217000D02*
Y222000D01*
X542146Y246500D02*
X542500Y246146D01*
X523000Y222000D02*
X530500D01*
X547488Y252740D02*
X548866D01*
X546602Y251854D02*
X547488Y252740D01*
X542500Y251854D02*
X546602D01*
X547488Y245260D02*
X548866D01*
X546602Y246146D02*
X547488Y245260D01*
X542500Y246146D02*
X546602D01*
X553204Y242300D02*
X565500D01*
X550244Y245260D02*
X553204Y242300D01*
X548866Y245260D02*
X550244D01*
X553204Y255700D02*
X565500D01*
X550244Y252740D02*
X553204Y255700D01*
X548866Y252740D02*
X550244D01*
X572500Y246000D02*
X577146D01*
X569500D02*
X572500D01*
X565800Y242300D02*
X569500Y246000D01*
X565500Y242300D02*
X565800D01*
X572500Y251500D02*
X577146D01*
X570000D02*
X572500D01*
X565800Y255700D02*
X570000Y251500D01*
X565500Y255700D02*
X565800D01*
X582854Y246000D02*
X596224D01*
X599024Y243200D01*
X600400D01*
X587500Y251500D02*
X596524D01*
X582854D02*
X587500D01*
X596524D02*
X599024Y254000D01*
X600400D01*
D18*
X553646Y222000D02*
D03*
X559354D02*
D03*
X547854Y237500D02*
D03*
X542146D02*
D03*
X582854Y251500D02*
D03*
X577146D02*
D03*
X582854Y246000D02*
D03*
X577146D02*
D03*
D19*
X544500Y185646D02*
D03*
Y191354D02*
D03*
X534500D02*
D03*
Y185646D02*
D03*
X524500Y185791D02*
D03*
Y191500D02*
D03*
X592500Y252000D02*
D03*
Y257709D02*
D03*
X572500Y251500D02*
D03*
Y257209D02*
D03*
X587500Y251500D02*
D03*
Y245791D02*
D03*
X542500Y251854D02*
D03*
Y246146D02*
D03*
X592500Y245354D02*
D03*
Y239646D02*
D03*
X572500Y246000D02*
D03*
Y240291D02*
D03*
X515500Y202000D02*
D03*
Y207709D02*
D03*
X510500Y202146D02*
D03*
Y207854D02*
D03*
D20*
X557134Y249000D02*
D03*
X548866Y245260D02*
D03*
Y252740D02*
D03*
D21*
X565500Y255700D02*
D03*
Y242300D02*
D03*
D22*
X545000Y202000D02*
D03*
Y207000D02*
D03*
Y212000D02*
D03*
X523000Y202000D02*
D03*
Y207000D02*
D03*
Y212000D02*
D03*
X545000Y217000D02*
D03*
Y222000D02*
D03*
Y227000D02*
D03*
X523000Y222000D02*
D03*
Y227000D02*
D03*
Y232000D02*
D03*
X545000D02*
D03*
X523000Y217000D02*
D03*
D23*
X506000Y203350D02*
D03*
Y206500D02*
D03*
D34*
X515329Y207782D02*
X515427D01*
X510573D02*
X515329D01*
X515402Y207709D01*
X512500Y210610D02*
X515329Y207782D01*
X515402Y207709D02*
X515500D01*
X512500Y210610D02*
Y212500D01*
X515427Y207782D02*
X515500Y207709D01*
X510500Y207854D02*
X510573Y207782D01*
X513500Y237500D02*
X524500D01*
X506000Y230000D02*
X513500Y237500D01*
X551500D02*
X557000D01*
X547854D02*
X551500D01*
X506000Y206500D02*
Y230000D01*
X559354Y222000D02*
X567500D01*
X579500Y210000D02*
X589500Y200000D01*
Y199500D02*
Y200000D01*
X567500Y222000D02*
X569500Y220000D01*
X559000Y222354D02*
X559354Y222000D01*
X559000Y222354D02*
Y235500D01*
X557000Y237500D02*
X559000Y235500D01*
X537000Y217000D02*
Y235000D01*
X538925Y236925D01*
X541669D01*
X542146Y237402D02*
Y237500D01*
X541669Y236925D02*
X542146Y237402D01*
X552500Y222000D02*
X554000Y220500D01*
X545000Y222000D02*
X552500D01*
X554000Y199500D02*
Y220500D01*
X550500Y196000D02*
X554000Y199500D01*
X546000Y196000D02*
X550500D01*
X544500Y191354D02*
Y194500D01*
X546000Y196000D01*
X524500Y177000D02*
Y185791D01*
X534500Y177000D02*
Y185646D01*
X544500Y177000D02*
Y185646D01*
X538500Y207000D02*
X545000D01*
X537000Y198000D02*
Y205500D01*
X538500Y207000D01*
X534500Y191354D02*
Y195500D01*
X537000Y198000D01*
X525325Y192325D02*
X533000Y200000D01*
X524598Y191500D02*
X525325Y192226D01*
Y192325D01*
X533000Y200000D02*
Y213000D01*
X545000Y212000D02*
Y217000D01*
X537000D02*
X545000D01*
X533000Y213000D02*
X537000Y217000D01*
X524500Y191500D02*
X524598D01*
D35*
X589500Y199500D02*
X591500Y201500D01*
X584500Y194500D02*
X589500Y199500D01*
X564500Y202000D02*
X583900Y221400D01*
X600400D01*
Y232300D01*
X564500Y177000D02*
Y202000D01*
X611600Y248700D02*
X611800Y248500D01*
X620500D01*
X624500Y208500D02*
Y244500D01*
X620500Y248500D02*
X624500Y244500D01*
X617500Y201500D02*
X624500Y208500D01*
X591500Y201500D02*
X617500D01*
X584500Y177000D02*
Y194500D01*
X574500Y177000D02*
X584500D01*
X554500D02*
X564500D01*
D36*
X611600Y248700D02*
D03*
Y237800D02*
D03*
Y216000D02*
D03*
Y226900D02*
D03*
X600400Y210500D02*
D03*
Y221400D02*
D03*
Y254000D02*
D03*
Y243200D02*
D03*
Y232300D02*
D03*
D37*
X606000Y281500D02*
D03*
Y183100D02*
D03*
D38*
X564500Y177000D02*
D03*
X494500D02*
D03*
X504500D02*
D03*
X514500D02*
D03*
X524500D02*
D03*
X534500D02*
D03*
X544500D02*
D03*
X554500D02*
D03*
X574500D02*
D03*
D39*
X584500D02*
D03*
D40*
X505000Y198000D02*
D03*
X515000D02*
D03*
X529500Y188500D02*
D03*
X539500D02*
D03*
X541000Y198000D02*
D03*
X526000D02*
D03*
X559500Y260000D02*
D03*
X562000Y236500D02*
D03*
X566500Y249000D02*
D03*
X512500Y211555D02*
D03*
X509500Y211500D02*
D03*
X589000Y240000D02*
D03*
X592500Y236000D02*
D03*
X589000Y257500D02*
D03*
X592500Y261500D02*
D03*
X551500Y232000D02*
D03*
Y227000D02*
D03*
X562000Y249000D02*
D03*
X551500D02*
D03*
X640000Y280000D02*
D03*
X645000Y270000D02*
D03*
X640000Y260000D02*
D03*
X645000Y250000D02*
D03*
X640000Y240000D02*
D03*
X645000Y230000D02*
D03*
X640000Y220000D02*
D03*
X645000Y210000D02*
D03*
X640000Y200000D02*
D03*
X645000Y190000D02*
D03*
X640000Y180000D02*
D03*
X630000Y280000D02*
D03*
X635000Y270000D02*
D03*
X630000Y260000D02*
D03*
X635000Y250000D02*
D03*
X630000Y240000D02*
D03*
X635000Y230000D02*
D03*
X630000Y220000D02*
D03*
X635000Y210000D02*
D03*
X630000Y200000D02*
D03*
X635000Y190000D02*
D03*
X630000Y180000D02*
D03*
X620000Y280000D02*
D03*
X625000Y270000D02*
D03*
X620000Y260000D02*
D03*
X625000Y190000D02*
D03*
X620000Y180000D02*
D03*
X615000Y270000D02*
D03*
X610000Y260000D02*
D03*
X615000Y210000D02*
D03*
Y190000D02*
D03*
X605000Y270000D02*
D03*
Y250000D02*
D03*
X590000Y280000D02*
D03*
X595000Y270000D02*
D03*
Y210000D02*
D03*
Y190000D02*
D03*
X590000Y180000D02*
D03*
X580000Y280000D02*
D03*
X585000Y270000D02*
D03*
X580000Y260000D02*
D03*
Y240000D02*
D03*
X585000Y230000D02*
D03*
Y210000D02*
D03*
X580000Y200000D02*
D03*
X570000Y280000D02*
D03*
X575000Y270000D02*
D03*
Y230000D02*
D03*
X570000Y200000D02*
D03*
X575000Y190000D02*
D03*
X560000Y280000D02*
D03*
X565000Y270000D02*
D03*
Y230000D02*
D03*
Y210000D02*
D03*
X550000Y280000D02*
D03*
X555000Y270000D02*
D03*
X550000Y260000D02*
D03*
X555000Y230000D02*
D03*
Y190000D02*
D03*
X540000Y280000D02*
D03*
X545000Y270000D02*
D03*
X540000Y260000D02*
D03*
X530000Y280000D02*
D03*
X535000Y270000D02*
D03*
X530000Y260000D02*
D03*
X520000Y280000D02*
D03*
X525000Y270000D02*
D03*
X520000Y260000D02*
D03*
X525000Y250000D02*
D03*
X510000Y280000D02*
D03*
X515000Y270000D02*
D03*
X510000Y260000D02*
D03*
X515000Y250000D02*
D03*
X510000Y240000D02*
D03*
X515000Y230000D02*
D03*
X510000Y220000D02*
D03*
X515000Y190000D02*
D03*
X510000Y180000D02*
D03*
X500000Y280000D02*
D03*
X505000Y270000D02*
D03*
X500000Y260000D02*
D03*
X505000Y250000D02*
D03*
X500000Y240000D02*
D03*
Y220000D02*
D03*
Y200000D02*
D03*
X505000Y190000D02*
D03*
X500000Y180000D02*
D03*
X524500Y237500D02*
D03*
X551500D02*
D03*
X582053Y207447D02*
D03*
X579500Y210000D02*
D03*
X567447Y222053D02*
D03*
X569500Y220000D02*
D03*
M02*
