G04*
G04 #@! TF.GenerationSoftware,Altium Limited,Altium Designer,20.0.13 (296)*
G04*
G04 Layer_Physical_Order=2*
G04 Layer_Color=16711680*
%FSLAX25Y25*%
%MOIN*%
G70*
G01*
G75*
%ADD34C,0.01500*%
%ADD36C,0.07087*%
%ADD37C,0.06000*%
%ADD38C,0.05906*%
%ADD39R,0.05906X0.05906*%
%ADD40C,0.01968*%
G36*
X651500Y172000D02*
X489500D01*
Y292500D01*
X651500D01*
Y172000D01*
D02*
G37*
%LPC*%
G36*
X606000Y288634D02*
X604608Y288497D01*
X603270Y288091D01*
X602036Y287432D01*
X600955Y286545D01*
X600068Y285464D01*
X599409Y284230D01*
X599003Y282892D01*
X598866Y281500D01*
X599003Y280108D01*
X599409Y278770D01*
X600068Y277536D01*
X600955Y276455D01*
X602036Y275568D01*
X603270Y274909D01*
X604608Y274503D01*
X606000Y274366D01*
X607392Y274503D01*
X608730Y274909D01*
X609964Y275568D01*
X611045Y276455D01*
X611932Y277536D01*
X612591Y278770D01*
X612997Y280108D01*
X613134Y281500D01*
X612997Y282892D01*
X612591Y284230D01*
X611932Y285464D01*
X611045Y286545D01*
X609964Y287432D01*
X608730Y288091D01*
X607392Y288497D01*
X606000Y288634D01*
D02*
G37*
G36*
X600400Y259087D02*
X599083Y258913D01*
X597857Y258405D01*
X596803Y257597D01*
X595995Y256543D01*
X595486Y255317D01*
X595313Y254000D01*
X595486Y252683D01*
X595995Y251457D01*
X596803Y250403D01*
X597857Y249595D01*
X599083Y249086D01*
X600400Y248913D01*
X601717Y249086D01*
X602943Y249595D01*
X603997Y250403D01*
X604805Y251457D01*
X605313Y252683D01*
X605487Y254000D01*
X605313Y255317D01*
X604805Y256543D01*
X603997Y257597D01*
X602943Y258405D01*
X601717Y258913D01*
X600400Y259087D01*
D02*
G37*
G36*
X611600Y253787D02*
X610283Y253613D01*
X609057Y253105D01*
X608003Y252297D01*
X607195Y251243D01*
X606686Y250017D01*
X606513Y248700D01*
X606686Y247383D01*
X607195Y246157D01*
X608003Y245103D01*
X609057Y244295D01*
X610283Y243787D01*
X611600Y243613D01*
X612917Y243787D01*
X614143Y244295D01*
X615197Y245103D01*
X616005Y246157D01*
X616513Y247383D01*
X616687Y248700D01*
X616513Y250017D01*
X616005Y251243D01*
X615197Y252297D01*
X614143Y253105D01*
X612917Y253613D01*
X611600Y253787D01*
D02*
G37*
G36*
X551500Y240403D02*
X550749Y240304D01*
X550049Y240014D01*
X549762Y239794D01*
X526238D01*
X525951Y240014D01*
X525251Y240304D01*
X524500Y240403D01*
X523749Y240304D01*
X523049Y240014D01*
X522447Y239553D01*
X521986Y238951D01*
X521696Y238251D01*
X521597Y237500D01*
X521696Y236749D01*
X521986Y236049D01*
X522447Y235447D01*
X523049Y234986D01*
X523749Y234696D01*
X524500Y234597D01*
X525251Y234696D01*
X525951Y234986D01*
X526238Y235206D01*
X549762D01*
X550049Y234986D01*
X550749Y234696D01*
X551500Y234597D01*
X552251Y234696D01*
X552951Y234986D01*
X553553Y235447D01*
X554014Y236049D01*
X554304Y236749D01*
X554403Y237500D01*
X554304Y238251D01*
X554014Y238951D01*
X553553Y239553D01*
X552951Y240014D01*
X552251Y240304D01*
X551500Y240403D01*
D02*
G37*
G36*
X600400Y248287D02*
X599083Y248113D01*
X597857Y247605D01*
X596803Y246797D01*
X595995Y245743D01*
X595486Y244517D01*
X595313Y243200D01*
X595486Y241883D01*
X595995Y240657D01*
X596803Y239603D01*
X597857Y238795D01*
X599083Y238286D01*
X600400Y238113D01*
X601717Y238286D01*
X602943Y238795D01*
X603997Y239603D01*
X604805Y240657D01*
X605313Y241883D01*
X605487Y243200D01*
X605313Y244517D01*
X604805Y245743D01*
X603997Y246797D01*
X602943Y247605D01*
X601717Y248113D01*
X600400Y248287D01*
D02*
G37*
G36*
X611600Y242887D02*
X610283Y242713D01*
X609057Y242205D01*
X608003Y241397D01*
X607195Y240343D01*
X606686Y239117D01*
X606513Y237800D01*
X606686Y236483D01*
X607195Y235257D01*
X608003Y234203D01*
X609057Y233395D01*
X610283Y232887D01*
X611600Y232713D01*
X612917Y232887D01*
X614143Y233395D01*
X615197Y234203D01*
X616005Y235257D01*
X616513Y236483D01*
X616687Y237800D01*
X616513Y239117D01*
X616005Y240343D01*
X615197Y241397D01*
X614143Y242205D01*
X612917Y242713D01*
X611600Y242887D01*
D02*
G37*
G36*
X612600Y231351D02*
Y227900D01*
X616051D01*
X616026Y228086D01*
X615569Y229191D01*
X614840Y230140D01*
X613891Y230869D01*
X612786Y231326D01*
X612600Y231351D01*
D02*
G37*
G36*
X610600D02*
X610414Y231326D01*
X609309Y230869D01*
X608360Y230140D01*
X607631Y229191D01*
X607174Y228086D01*
X607149Y227900D01*
X610600D01*
Y231351D01*
D02*
G37*
G36*
X600400Y237387D02*
X599083Y237213D01*
X597857Y236705D01*
X596803Y235897D01*
X595995Y234843D01*
X595486Y233617D01*
X595313Y232300D01*
X595486Y230983D01*
X595995Y229757D01*
X596803Y228703D01*
X597857Y227895D01*
X599083Y227386D01*
X600400Y227213D01*
X601717Y227386D01*
X602943Y227895D01*
X603997Y228703D01*
X604805Y229757D01*
X605313Y230983D01*
X605487Y232300D01*
X605313Y233617D01*
X604805Y234843D01*
X603997Y235897D01*
X602943Y236705D01*
X601717Y237213D01*
X600400Y237387D01*
D02*
G37*
G36*
X616051Y225900D02*
X612600D01*
Y222449D01*
X612786Y222474D01*
X613891Y222931D01*
X614840Y223660D01*
X615569Y224609D01*
X616026Y225714D01*
X616051Y225900D01*
D02*
G37*
G36*
X610600D02*
X607149D01*
X607174Y225714D01*
X607631Y224609D01*
X608360Y223660D01*
X609309Y222931D01*
X610414Y222474D01*
X610600Y222449D01*
Y225900D01*
D02*
G37*
G36*
X612600Y220451D02*
Y217000D01*
X616051D01*
X616026Y217186D01*
X615569Y218291D01*
X614840Y219240D01*
X613891Y219969D01*
X612786Y220426D01*
X612600Y220451D01*
D02*
G37*
G36*
X610600D02*
X610414Y220426D01*
X609309Y219969D01*
X608360Y219240D01*
X607631Y218291D01*
X607174Y217186D01*
X607149Y217000D01*
X610600D01*
Y220451D01*
D02*
G37*
G36*
X600400Y226487D02*
X599083Y226313D01*
X597857Y225805D01*
X596803Y224997D01*
X595995Y223943D01*
X595486Y222717D01*
X595313Y221400D01*
X595486Y220083D01*
X595995Y218857D01*
X596803Y217803D01*
X597857Y216995D01*
X599083Y216487D01*
X600400Y216313D01*
X601717Y216487D01*
X602943Y216995D01*
X603997Y217803D01*
X604805Y218857D01*
X605313Y220083D01*
X605487Y221400D01*
X605313Y222717D01*
X604805Y223943D01*
X603997Y224997D01*
X602943Y225805D01*
X601717Y226313D01*
X600400Y226487D01*
D02*
G37*
G36*
X616051Y215000D02*
X612600D01*
Y211549D01*
X612786Y211574D01*
X613891Y212031D01*
X614840Y212760D01*
X615569Y213709D01*
X616026Y214814D01*
X616051Y215000D01*
D02*
G37*
G36*
X610600D02*
X607149D01*
X607174Y214814D01*
X607631Y213709D01*
X608360Y212760D01*
X609309Y212031D01*
X610414Y211574D01*
X610600Y211549D01*
Y215000D01*
D02*
G37*
G36*
X601400Y214951D02*
Y211500D01*
X604851D01*
X604826Y211686D01*
X604369Y212791D01*
X603640Y213740D01*
X602691Y214469D01*
X601586Y214926D01*
X601400Y214951D01*
D02*
G37*
G36*
X599400D02*
X599214Y214926D01*
X598109Y214469D01*
X597160Y213740D01*
X596431Y212791D01*
X595974Y211686D01*
X595949Y211500D01*
X599400D01*
Y214951D01*
D02*
G37*
G36*
X604851Y209500D02*
X601400D01*
Y206049D01*
X601586Y206074D01*
X602691Y206531D01*
X603640Y207260D01*
X604369Y208209D01*
X604826Y209314D01*
X604851Y209500D01*
D02*
G37*
G36*
X599400D02*
X595949D01*
X595974Y209314D01*
X596431Y208209D01*
X597160Y207260D01*
X598109Y206531D01*
X599214Y206074D01*
X599400Y206049D01*
Y209500D01*
D02*
G37*
G36*
X567447Y224955D02*
X566696Y224856D01*
X565996Y224567D01*
X565395Y224105D01*
X564933Y223504D01*
X564643Y222804D01*
X564545Y222053D01*
X564643Y221301D01*
X564933Y220601D01*
X565395Y220000D01*
X565996Y219539D01*
X566696Y219249D01*
X566986Y218549D01*
X567447Y217947D01*
X568049Y217486D01*
X568749Y217196D01*
X569107Y217149D01*
X576649Y209607D01*
X576696Y209249D01*
X576986Y208549D01*
X577447Y207947D01*
X578049Y207486D01*
X578749Y207196D01*
X579107Y207149D01*
X579202Y207054D01*
X579249Y206696D01*
X579539Y205996D01*
X580000Y205395D01*
X580601Y204934D01*
X581301Y204644D01*
X582053Y204545D01*
X582804Y204644D01*
X583504Y204934D01*
X584105Y205395D01*
X584566Y205996D01*
X584857Y206696D01*
X584955Y207447D01*
X584857Y208199D01*
X584566Y208899D01*
X584105Y209500D01*
X583504Y209961D01*
X582804Y210251D01*
X582446Y210298D01*
X582351Y210393D01*
X582304Y210751D01*
X582014Y211451D01*
X581553Y212053D01*
X580951Y212514D01*
X580251Y212804D01*
X579893Y212851D01*
X572351Y220393D01*
X572304Y220751D01*
X572014Y221451D01*
X571553Y222053D01*
X570951Y222514D01*
X570251Y222804D01*
X569961Y223504D01*
X569500Y224105D01*
X568899Y224567D01*
X568199Y224856D01*
X567447Y224955D01*
D02*
G37*
G36*
X515500Y180855D02*
Y178000D01*
X518355D01*
X518351Y178032D01*
X517953Y178993D01*
X517319Y179819D01*
X516493Y180453D01*
X515532Y180851D01*
X515500Y180855D01*
D02*
G37*
G36*
X505500D02*
Y178000D01*
X508355D01*
X508351Y178032D01*
X507953Y178993D01*
X507319Y179819D01*
X506493Y180453D01*
X505532Y180851D01*
X505500Y180855D01*
D02*
G37*
G36*
X495500D02*
Y178000D01*
X498355D01*
X498351Y178032D01*
X497953Y178993D01*
X497319Y179819D01*
X496493Y180453D01*
X495532Y180851D01*
X495500Y180855D01*
D02*
G37*
G36*
X503500D02*
X503468Y180851D01*
X502507Y180453D01*
X501681Y179819D01*
X501047Y178993D01*
X500649Y178032D01*
X500645Y178000D01*
X503500D01*
Y180855D01*
D02*
G37*
G36*
X513500D02*
X513468Y180851D01*
X512507Y180453D01*
X511681Y179819D01*
X511047Y178993D01*
X510649Y178032D01*
X510645Y178000D01*
X513500D01*
Y180855D01*
D02*
G37*
G36*
X493500D02*
X493468Y180851D01*
X492507Y180453D01*
X491681Y179819D01*
X491047Y178993D01*
X490649Y178032D01*
X490645Y178000D01*
X493500D01*
Y180855D01*
D02*
G37*
G36*
X606000Y190234D02*
X604608Y190097D01*
X603270Y189691D01*
X602036Y189032D01*
X600955Y188145D01*
X600068Y187064D01*
X599409Y185830D01*
X599003Y184492D01*
X598866Y183100D01*
X599003Y181708D01*
X599409Y180370D01*
X600068Y179136D01*
X600955Y178055D01*
X602036Y177168D01*
X603270Y176509D01*
X604608Y176103D01*
X606000Y175966D01*
X607392Y176103D01*
X608730Y176509D01*
X609964Y177168D01*
X611045Y178055D01*
X611932Y179136D01*
X612591Y180370D01*
X612997Y181708D01*
X613134Y183100D01*
X612997Y184492D01*
X612591Y185830D01*
X611932Y187064D01*
X611045Y188145D01*
X609964Y189032D01*
X608730Y189691D01*
X607392Y190097D01*
X606000Y190234D01*
D02*
G37*
G36*
X518355Y176000D02*
X515500D01*
Y173145D01*
X515532Y173149D01*
X516493Y173547D01*
X517319Y174181D01*
X517953Y175007D01*
X518351Y175968D01*
X518355Y176000D01*
D02*
G37*
G36*
X508355D02*
X505500D01*
Y173145D01*
X505532Y173149D01*
X506493Y173547D01*
X507319Y174181D01*
X507953Y175007D01*
X508351Y175968D01*
X508355Y176000D01*
D02*
G37*
G36*
X498355D02*
X495500D01*
Y173145D01*
X495532Y173149D01*
X496493Y173547D01*
X497319Y174181D01*
X497953Y175007D01*
X498351Y175968D01*
X498355Y176000D01*
D02*
G37*
G36*
X513500D02*
X510645D01*
X510649Y175968D01*
X511047Y175007D01*
X511681Y174181D01*
X512507Y173547D01*
X513468Y173149D01*
X513500Y173145D01*
Y176000D01*
D02*
G37*
G36*
X503500D02*
X500645D01*
X500649Y175968D01*
X501047Y175007D01*
X501681Y174181D01*
X502507Y173547D01*
X503468Y173149D01*
X503500Y173145D01*
Y176000D01*
D02*
G37*
G36*
X493500D02*
X490645D01*
X490649Y175968D01*
X491047Y175007D01*
X491681Y174181D01*
X492507Y173547D01*
X493468Y173149D01*
X493500Y173145D01*
Y176000D01*
D02*
G37*
G36*
X588953Y181453D02*
X580047D01*
Y172547D01*
X588953D01*
Y181453D01*
D02*
G37*
G36*
X574500Y181491D02*
X573338Y181338D01*
X572254Y180889D01*
X571324Y180176D01*
X570611Y179246D01*
X570162Y178162D01*
X570009Y177000D01*
X570162Y175838D01*
X570611Y174754D01*
X571324Y173824D01*
X572254Y173110D01*
X573338Y172662D01*
X574500Y172509D01*
X575662Y172662D01*
X576746Y173110D01*
X577676Y173824D01*
X578390Y174754D01*
X578838Y175838D01*
X578991Y177000D01*
X578838Y178162D01*
X578390Y179246D01*
X577676Y180176D01*
X576746Y180889D01*
X575662Y181338D01*
X574500Y181491D01*
D02*
G37*
G36*
X564500D02*
X563338Y181338D01*
X562254Y180889D01*
X561324Y180176D01*
X560610Y179246D01*
X560162Y178162D01*
X560009Y177000D01*
X560162Y175838D01*
X560610Y174754D01*
X561324Y173824D01*
X562254Y173110D01*
X563338Y172662D01*
X564500Y172509D01*
X565662Y172662D01*
X566746Y173110D01*
X567676Y173824D01*
X568390Y174754D01*
X568838Y175838D01*
X568991Y177000D01*
X568838Y178162D01*
X568390Y179246D01*
X567676Y180176D01*
X566746Y180889D01*
X565662Y181338D01*
X564500Y181491D01*
D02*
G37*
G36*
X554500D02*
X553338Y181338D01*
X552254Y180889D01*
X551324Y180176D01*
X550610Y179246D01*
X550162Y178162D01*
X550009Y177000D01*
X550162Y175838D01*
X550610Y174754D01*
X551324Y173824D01*
X552254Y173110D01*
X553338Y172662D01*
X554500Y172509D01*
X555662Y172662D01*
X556746Y173110D01*
X557676Y173824D01*
X558390Y174754D01*
X558838Y175838D01*
X558991Y177000D01*
X558838Y178162D01*
X558390Y179246D01*
X557676Y180176D01*
X556746Y180889D01*
X555662Y181338D01*
X554500Y181491D01*
D02*
G37*
G36*
X544500D02*
X543338Y181338D01*
X542254Y180889D01*
X541324Y180176D01*
X540611Y179246D01*
X540162Y178162D01*
X540009Y177000D01*
X540162Y175838D01*
X540611Y174754D01*
X541324Y173824D01*
X542254Y173110D01*
X543338Y172662D01*
X544500Y172509D01*
X545662Y172662D01*
X546746Y173110D01*
X547676Y173824D01*
X548389Y174754D01*
X548838Y175838D01*
X548991Y177000D01*
X548838Y178162D01*
X548389Y179246D01*
X547676Y180176D01*
X546746Y180889D01*
X545662Y181338D01*
X544500Y181491D01*
D02*
G37*
G36*
X534500D02*
X533338Y181338D01*
X532254Y180889D01*
X531324Y180176D01*
X530611Y179246D01*
X530162Y178162D01*
X530009Y177000D01*
X530162Y175838D01*
X530611Y174754D01*
X531324Y173824D01*
X532254Y173110D01*
X533338Y172662D01*
X534500Y172509D01*
X535662Y172662D01*
X536746Y173110D01*
X537676Y173824D01*
X538389Y174754D01*
X538838Y175838D01*
X538991Y177000D01*
X538838Y178162D01*
X538389Y179246D01*
X537676Y180176D01*
X536746Y180889D01*
X535662Y181338D01*
X534500Y181491D01*
D02*
G37*
G36*
X524500D02*
X523338Y181338D01*
X522254Y180889D01*
X521324Y180176D01*
X520611Y179246D01*
X520162Y178162D01*
X520009Y177000D01*
X520162Y175838D01*
X520611Y174754D01*
X521324Y173824D01*
X522254Y173110D01*
X523338Y172662D01*
X524500Y172509D01*
X525662Y172662D01*
X526746Y173110D01*
X527676Y173824D01*
X528390Y174754D01*
X528838Y175838D01*
X528991Y177000D01*
X528838Y178162D01*
X528390Y179246D01*
X527676Y180176D01*
X526746Y180889D01*
X525662Y181338D01*
X524500Y181491D01*
D02*
G37*
%LPD*%
D34*
Y237500D02*
X551500D01*
X567447Y222053D02*
X569500Y220000D01*
X579500Y210000D01*
X582053Y207447D01*
D36*
X611600Y248700D02*
D03*
Y237800D02*
D03*
Y216000D02*
D03*
Y226900D02*
D03*
X600400Y210500D02*
D03*
Y221400D02*
D03*
Y254000D02*
D03*
Y243200D02*
D03*
Y232300D02*
D03*
D37*
X606000Y281500D02*
D03*
Y183100D02*
D03*
D38*
X564500Y177000D02*
D03*
X494500D02*
D03*
X504500D02*
D03*
X514500D02*
D03*
X524500D02*
D03*
X534500D02*
D03*
X544500D02*
D03*
X554500D02*
D03*
X574500D02*
D03*
D39*
X584500D02*
D03*
D40*
X505000Y198000D02*
D03*
X515000D02*
D03*
X529500Y188500D02*
D03*
X539500D02*
D03*
X541000Y198000D02*
D03*
X526000D02*
D03*
X559500Y260000D02*
D03*
X562000Y236500D02*
D03*
X566500Y249000D02*
D03*
X512500Y211555D02*
D03*
X509500Y211500D02*
D03*
X589000Y240000D02*
D03*
X592500Y236000D02*
D03*
X589000Y257500D02*
D03*
X592500Y261500D02*
D03*
X551500Y232000D02*
D03*
Y227000D02*
D03*
X562000Y249000D02*
D03*
X551500D02*
D03*
X640000Y280000D02*
D03*
X645000Y270000D02*
D03*
X640000Y260000D02*
D03*
X645000Y250000D02*
D03*
X640000Y240000D02*
D03*
X645000Y230000D02*
D03*
X640000Y220000D02*
D03*
X645000Y210000D02*
D03*
X640000Y200000D02*
D03*
X645000Y190000D02*
D03*
X640000Y180000D02*
D03*
X630000Y280000D02*
D03*
X635000Y270000D02*
D03*
X630000Y260000D02*
D03*
X635000Y250000D02*
D03*
X630000Y240000D02*
D03*
X635000Y230000D02*
D03*
X630000Y220000D02*
D03*
X635000Y210000D02*
D03*
X630000Y200000D02*
D03*
X635000Y190000D02*
D03*
X630000Y180000D02*
D03*
X620000Y280000D02*
D03*
X625000Y270000D02*
D03*
X620000Y260000D02*
D03*
X625000Y190000D02*
D03*
X620000Y180000D02*
D03*
X615000Y270000D02*
D03*
X610000Y260000D02*
D03*
X615000Y210000D02*
D03*
Y190000D02*
D03*
X605000Y270000D02*
D03*
Y250000D02*
D03*
X590000Y280000D02*
D03*
X595000Y270000D02*
D03*
Y210000D02*
D03*
Y190000D02*
D03*
X590000Y180000D02*
D03*
X580000Y280000D02*
D03*
X585000Y270000D02*
D03*
X580000Y260000D02*
D03*
Y240000D02*
D03*
X585000Y230000D02*
D03*
Y210000D02*
D03*
X580000Y200000D02*
D03*
X570000Y280000D02*
D03*
X575000Y270000D02*
D03*
Y230000D02*
D03*
X570000Y200000D02*
D03*
X575000Y190000D02*
D03*
X560000Y280000D02*
D03*
X565000Y270000D02*
D03*
Y230000D02*
D03*
Y210000D02*
D03*
X550000Y280000D02*
D03*
X555000Y270000D02*
D03*
X550000Y260000D02*
D03*
X555000Y230000D02*
D03*
Y190000D02*
D03*
X540000Y280000D02*
D03*
X545000Y270000D02*
D03*
X540000Y260000D02*
D03*
X530000Y280000D02*
D03*
X535000Y270000D02*
D03*
X530000Y260000D02*
D03*
X520000Y280000D02*
D03*
X525000Y270000D02*
D03*
X520000Y260000D02*
D03*
X525000Y250000D02*
D03*
X510000Y280000D02*
D03*
X515000Y270000D02*
D03*
X510000Y260000D02*
D03*
X515000Y250000D02*
D03*
X510000Y240000D02*
D03*
X515000Y230000D02*
D03*
X510000Y220000D02*
D03*
X515000Y190000D02*
D03*
X510000Y180000D02*
D03*
X500000Y280000D02*
D03*
X505000Y270000D02*
D03*
X500000Y260000D02*
D03*
X505000Y250000D02*
D03*
X500000Y240000D02*
D03*
Y220000D02*
D03*
Y200000D02*
D03*
X505000Y190000D02*
D03*
X500000Y180000D02*
D03*
X524500Y237500D02*
D03*
X551500D02*
D03*
X582053Y207447D02*
D03*
X579500Y210000D02*
D03*
X567447Y222053D02*
D03*
X569500Y220000D02*
D03*
M02*
