M48
;Layer_Color=9474304
;FILE_FORMAT=2:5
INCH,TZ
;TYPE=PLATED
T1F00S00C0.01181
T2F00S00C0.03543
T3F00S00C0.04331
T4F00S00C0.12598
%
T01
X50269Y-44000
Y-34577
Y-25154
Y-15731
X59692
Y-25154
X69115
X78538
X87962
X97385
Y-15731
X106808
X116231
X125654
X135077
Y-25154
X125654
X116231
X106808
Y-34577
X116231
X125654
X135077
X144500
Y-25154
Y-15731
Y-44000
X135077
X125654
X116231
X106808
X97385
Y-34577
X87962
X78538
X69115
X59692
Y-44000
X69115
X78538
X87962
X87500Y14500
X82500Y13000
X82000Y19000
X81000Y27000
X86000Y29500
X99862Y28262
X100000Y23500
Y16000
Y11000
X75500Y11500
X58500Y16000
Y21000
X62000Y28000
Y31000
Y34000
X70000Y51000
Y56000
Y60000
X73000Y62000
X80000
X79000Y56000
X75000
Y51000
X79000
X82000Y52000
X90000Y58500
X93423Y57695
X99000Y55000
X100000Y37000
X111000Y40000
X108142Y43086
X115500Y42000
X122146Y42354
X119500Y48500
X117000Y52000
X126311Y49051
X131500Y51500
X129307Y60047
X124307
Y65047
X129307
X135000Y63000
X140500
Y57295
X139000Y38500
X145000
X155000
X159000Y32000
X164000
Y27000
Y22000
Y37000
X132500Y38500
Y33500
X127500Y25000
X122000Y26000
X127500Y17500
Y10500
X113500Y36500
X52000Y12500
X49000Y65000
X44000
X39000
X35000Y67000
X31000Y55000
Y50000
X39000Y53000
X21000Y48000
X18000Y44000
Y39000
X4000Y48000
X15000Y67000
X22000Y-15731
X31423
X40846
Y-25154
X31423
X22000
Y-34577
X31423
X40846
Y-44000
X31423
X22000
X12750Y69250
X10000Y72000
X25500Y78500
X34500
X44000
X43000Y94000
Y99000
X41000Y103000
Y107000
Y114000
X45000
X42000Y118000
X27000
X11000Y132000
X2500
Y140500
X20000Y164000
X28500
X37000
X45500
X44000Y156000
X45645Y103395
X11500Y93000
X48000Y85000
Y81000
X64000Y70000
X74000Y78000
Y82000
X72000Y86000
X78500Y88500
X83500Y82000
X88500Y77500
X86500Y73500
X95000Y81000
X107000Y78000
X116000Y81000
Y86000
X107000Y93000
X104000Y96000
X101000Y105500
Y109000
X95000Y108000
X97000Y113000
X92000Y116000
X83000
X79429Y116872
X71000Y117000
Y112000
X68000Y100000
X63000
Y95000
X57500Y100000
X56000Y120000
X52000
X60000
Y133000
X56000
X52000
X50000Y146000
X66468Y141119
X74606Y137165
X78937
Y132835
X83268
Y137165
X87598
Y132835
X91929
Y137165
X99000Y131000
X106000Y136500
X115000Y133000
Y129000
Y125000
X106000Y121500
X118000Y115000
Y110000
X121500
X128037Y104584
X134000Y100500
X132000Y95000
X134500Y92500
X138000Y81000
X136807Y69547
X128000Y74500
X122000Y73000
X112637Y70622
X89000Y92000
X83000Y96000
X81000Y104000
X86000Y105000
X87000Y112000
X74606Y132835
X74000Y152000
X77256
X86000
X92000
X95965Y151965
X108000Y150000
X112535Y155500
X121035
X129535
Y164000
X121035
X112535
X121035Y147000
X126500Y127000
X131000Y131000
X135500Y117000
Y107500
X154500Y98000
Y88500
X164000
Y98000
Y136000
Y145500
X146535Y164000
X138035
X59000Y162000
T02
X151000Y43000
Y53000
Y63000
X161000
Y53000
Y43000
Y73000
Y83000
X151000
Y73000
X98000Y160000
X88000
X78000
X68000
T03
X66968Y-5600
X77868
X88768
X99668
X104968Y5600
X94168
X83268
X72368
X61468
T04
X144291Y22244
X22244
Y144291
X144291
M30
