G04*
G04 #@! TF.GenerationSoftware,Altium Limited,Altium Designer,20.0.13 (296)*
G04*
G04 Layer_Physical_Order=2*
G04 Layer_Color=16711680*
%FSLAX25Y25*%
%MOIN*%
G70*
G01*
G75*
%ADD13C,0.01500*%
%ADD42C,0.23622*%
%ADD43C,0.02000*%
%ADD44C,0.05000*%
%ADD46C,0.03000*%
%ADD48C,0.05906*%
%ADD49R,0.05906X0.05906*%
%ADD50O,0.07874X0.05906*%
%ADD51O,0.07874X0.05906*%
%ADD52C,0.17717*%
%ADD53C,0.07087*%
%ADD54C,0.02559*%
%ADD55C,0.02559*%
G36*
X648975Y457500D02*
X648652Y457302D01*
X647059Y455941D01*
X645698Y454348D01*
X644603Y452562D01*
X643801Y450626D01*
X643312Y448589D01*
X643148Y446500D01*
X643312Y444411D01*
X643801Y442374D01*
X644603Y440438D01*
X645698Y438652D01*
X647059Y437059D01*
X648652Y435698D01*
X650438Y434603D01*
X652374Y433801D01*
X654411Y433312D01*
X656500Y433148D01*
X658589Y433312D01*
X660626Y433801D01*
X662562Y434603D01*
X664348Y435698D01*
X665941Y437059D01*
X667302Y438652D01*
X667500Y438975D01*
X669000Y438552D01*
Y167000D01*
X441500D01*
Y438552D01*
X443000Y438975D01*
X443198Y438652D01*
X444559Y437059D01*
X446152Y435698D01*
X447938Y434603D01*
X449874Y433801D01*
X451911Y433312D01*
X454000Y433148D01*
X456089Y433312D01*
X458126Y433801D01*
X460062Y434603D01*
X461848Y435698D01*
X463441Y437059D01*
X464802Y438652D01*
X465897Y440438D01*
X466699Y442374D01*
X467188Y444411D01*
X467352Y446500D01*
X467188Y448589D01*
X466699Y450626D01*
X465897Y452562D01*
X464802Y454348D01*
X463441Y455941D01*
X461848Y457302D01*
X461525Y457500D01*
X461948Y459000D01*
X648552D01*
X648975Y457500D01*
D02*
G37*
%LPC*%
G36*
X554484Y414491D02*
X552516D01*
X551353Y414338D01*
X550270Y413890D01*
X549340Y413176D01*
X547660D01*
X546730Y413890D01*
X545647Y414338D01*
X544484Y414491D01*
X542516D01*
X541353Y414338D01*
X540270Y413890D01*
X539340Y413176D01*
X537660D01*
X536730Y413890D01*
X535647Y414338D01*
X534484Y414491D01*
X532516D01*
X531353Y414338D01*
X530270Y413890D01*
X529340Y413176D01*
X528626Y412246D01*
X528178Y411162D01*
X528025Y410000D01*
X528178Y408838D01*
X528626Y407754D01*
X529340Y406824D01*
X530270Y406110D01*
X531074Y405777D01*
X531203Y405112D01*
Y404888D01*
X531074Y404223D01*
X530270Y403890D01*
X529340Y403176D01*
X528626Y402246D01*
X528178Y401162D01*
X528025Y400000D01*
X528178Y398838D01*
X528626Y397754D01*
X529340Y396824D01*
X530270Y396111D01*
X531074Y395777D01*
X531203Y395112D01*
Y394888D01*
X531074Y394223D01*
X530270Y393889D01*
X529340Y393176D01*
X528626Y392246D01*
X528178Y391162D01*
X528025Y390000D01*
X528178Y388838D01*
X528626Y387754D01*
X529340Y386824D01*
X530270Y386110D01*
X531074Y385777D01*
X531203Y385112D01*
Y384888D01*
X531074Y384223D01*
X530270Y383890D01*
X529340Y383176D01*
X528626Y382246D01*
X528178Y381162D01*
X528025Y380000D01*
X528178Y378838D01*
X528626Y377754D01*
X529340Y376824D01*
X530270Y376111D01*
X531074Y375777D01*
X531203Y375112D01*
Y374888D01*
X531074Y374223D01*
X530270Y373889D01*
X529340Y373176D01*
X528626Y372246D01*
X528178Y371162D01*
X528025Y370000D01*
X528178Y368838D01*
X528626Y367754D01*
X529340Y366824D01*
X530270Y366110D01*
X531074Y365777D01*
X531203Y365112D01*
Y364888D01*
X531074Y364223D01*
X530270Y363890D01*
X529340Y363176D01*
X528626Y362246D01*
X528178Y361162D01*
X528025Y360000D01*
X528178Y358838D01*
X528626Y357754D01*
X529340Y356824D01*
X530270Y356111D01*
X531074Y355777D01*
X531203Y355112D01*
Y354888D01*
X531074Y354223D01*
X530270Y353889D01*
X529340Y353176D01*
X528626Y352246D01*
X528178Y351162D01*
X528025Y350000D01*
X528178Y348838D01*
X528626Y347754D01*
X529340Y346824D01*
X530270Y346111D01*
X531074Y345777D01*
X531203Y345112D01*
Y344888D01*
X531074Y344223D01*
X530270Y343889D01*
X529340Y343176D01*
X528626Y342246D01*
X528488Y341912D01*
X526792Y341488D01*
X521140Y347140D01*
X520513Y347621D01*
X519783Y347923D01*
X519000Y348026D01*
X475500D01*
X474717Y347923D01*
X473987Y347621D01*
X473360Y347140D01*
X472880Y346513D01*
X472577Y345783D01*
X472474Y345000D01*
X472577Y344217D01*
X472880Y343487D01*
X473360Y342860D01*
X473987Y342379D01*
X474717Y342077D01*
X475500Y341974D01*
X496135D01*
X496709Y340588D01*
X494360Y338240D01*
X493880Y337613D01*
X493577Y336883D01*
X493474Y336100D01*
Y332967D01*
Y329833D01*
Y326700D01*
Y323567D01*
X493577Y322783D01*
X493880Y322054D01*
X494360Y321427D01*
X494987Y320946D01*
X495717Y320644D01*
X496500Y320541D01*
X497283Y320644D01*
X498013Y320946D01*
X498640Y321427D01*
X499121Y322054D01*
X499423Y322783D01*
X499526Y323567D01*
Y326700D01*
Y329833D01*
Y334847D01*
X501653Y336974D01*
X516547D01*
X529160Y324360D01*
X529787Y323880D01*
X530517Y323577D01*
X531300Y323474D01*
X547000D01*
X547783Y323577D01*
X548513Y323880D01*
X549140Y324360D01*
X549620Y324987D01*
X549923Y325717D01*
X550026Y326500D01*
X549923Y327283D01*
X549620Y328013D01*
X549247Y328500D01*
X549620Y328987D01*
X549923Y329717D01*
X550026Y330500D01*
X549923Y331283D01*
X549665Y331906D01*
X549639Y332116D01*
X549885Y333479D01*
X550109Y333732D01*
X550482Y334018D01*
X550928Y334598D01*
X550936Y334619D01*
X552338Y335662D01*
X553500Y335509D01*
X554662Y335662D01*
X555746Y336110D01*
X556676Y336824D01*
X557389Y337754D01*
X557723Y338559D01*
X558388Y338688D01*
X558612D01*
X559277Y338559D01*
X559611Y337754D01*
X560324Y336824D01*
X561254Y336110D01*
X562338Y335662D01*
X563500Y335509D01*
X564662Y335662D01*
X565746Y336110D01*
X566676Y336824D01*
X567389Y337754D01*
X567547Y338135D01*
X569047Y337837D01*
Y335547D01*
X577953D01*
Y336989D01*
X579453Y337499D01*
X579697Y337181D01*
X580522Y336547D01*
X581484Y336149D01*
X582500Y336015D01*
Y340000D01*
Y343985D01*
X581484Y343851D01*
X580522Y343453D01*
X579697Y342819D01*
X579453Y342501D01*
X577953Y343010D01*
Y344453D01*
X575663D01*
X575365Y345953D01*
X575746Y346111D01*
X576676Y346824D01*
X577138Y347427D01*
X577757Y347563D01*
X578258D01*
X578877Y347427D01*
X579340Y346824D01*
X580270Y346111D01*
X581353Y345662D01*
X582516Y345509D01*
X584484D01*
X585647Y345662D01*
X586730Y346111D01*
X587660Y346824D01*
X588374Y347754D01*
X588822Y348838D01*
X588975Y350000D01*
X588822Y351162D01*
X588374Y352246D01*
X587660Y353176D01*
X586730Y353889D01*
X585925Y354223D01*
X585797Y354888D01*
Y355112D01*
X585925Y355777D01*
X586730Y356111D01*
X587660Y356824D01*
X588374Y357754D01*
X588822Y358838D01*
X588975Y360000D01*
X588822Y361162D01*
X588374Y362246D01*
X587660Y363176D01*
X586730Y363890D01*
X585925Y364223D01*
X585797Y364888D01*
Y365112D01*
X585925Y365777D01*
X586730Y366110D01*
X587660Y366824D01*
X588374Y367754D01*
X588822Y368838D01*
X588975Y370000D01*
X588822Y371162D01*
X588374Y372246D01*
X587660Y373176D01*
X586730Y373889D01*
X585925Y374223D01*
X585797Y374888D01*
Y375112D01*
X585925Y375777D01*
X586730Y376111D01*
X587660Y376824D01*
X588374Y377754D01*
X588822Y378838D01*
X588975Y380000D01*
X588822Y381162D01*
X588374Y382246D01*
X587660Y383176D01*
X586730Y383890D01*
X585925Y384223D01*
X585797Y384888D01*
Y385112D01*
X585925Y385777D01*
X586730Y386110D01*
X587660Y386824D01*
X588374Y387754D01*
X588822Y388838D01*
X588975Y390000D01*
X588822Y391162D01*
X588374Y392246D01*
X587660Y393176D01*
X586730Y393889D01*
X585647Y394338D01*
X584484Y394491D01*
X582516D01*
X581353Y394338D01*
X580270Y393889D01*
X579340Y393176D01*
X578626Y392246D01*
X578178Y391162D01*
X578025Y390000D01*
X578178Y388838D01*
X578626Y387754D01*
X579340Y386824D01*
X580270Y386110D01*
X581074Y385777D01*
X581203Y385112D01*
Y384888D01*
X581074Y384223D01*
X580270Y383890D01*
X579340Y383176D01*
X578626Y382246D01*
X578178Y381162D01*
X578025Y380000D01*
X578178Y378838D01*
X578626Y377754D01*
X579340Y376824D01*
X580270Y376111D01*
X581074Y375777D01*
X581203Y375112D01*
Y374888D01*
X581074Y374223D01*
X580270Y373889D01*
X579340Y373176D01*
X578626Y372246D01*
X578178Y371162D01*
X578025Y370000D01*
X578178Y368838D01*
X578626Y367754D01*
X579340Y366824D01*
X580270Y366110D01*
X581074Y365777D01*
X581203Y365112D01*
Y364888D01*
X581074Y364223D01*
X580270Y363890D01*
X579340Y363176D01*
X578953Y362671D01*
X577453Y363180D01*
Y363953D01*
X574500D01*
Y360000D01*
Y356047D01*
X577453D01*
Y356820D01*
X578953Y357329D01*
X579340Y356824D01*
X580270Y356111D01*
X581074Y355777D01*
X581203Y355112D01*
Y354888D01*
X581074Y354223D01*
X580270Y353889D01*
X579340Y353176D01*
X578877Y352573D01*
X578258Y352437D01*
X577757D01*
X577138Y352573D01*
X576676Y353176D01*
X575746Y353889D01*
X574662Y354338D01*
X573500Y354491D01*
X572338Y354338D01*
X571254Y353889D01*
X570324Y353176D01*
X569611Y352246D01*
X569277Y351441D01*
X568612Y351312D01*
X568388D01*
X567723Y351441D01*
X567389Y352246D01*
X566676Y353176D01*
X565746Y353889D01*
X564662Y354338D01*
X563500Y354491D01*
X562338Y354338D01*
X561254Y353889D01*
X560324Y353176D01*
X559611Y352246D01*
X559277Y351441D01*
X558612Y351312D01*
X558388D01*
X557723Y351441D01*
X557389Y352246D01*
X556676Y353176D01*
X555746Y353889D01*
X554662Y354338D01*
X553500Y354491D01*
X552338Y354338D01*
X551254Y353889D01*
X550324Y353176D01*
X549611Y352246D01*
X549277Y351441D01*
X548612Y351312D01*
X548388D01*
X547723Y351441D01*
X547390Y352246D01*
X546676Y353176D01*
X545746Y353889D01*
X544941Y354223D01*
X544812Y354888D01*
Y355112D01*
X544941Y355777D01*
X545746Y356111D01*
X546676Y356824D01*
X547390Y357754D01*
X547838Y358838D01*
X547991Y360000D01*
X547838Y361162D01*
X547390Y362246D01*
X546676Y363176D01*
X545746Y363890D01*
X544662Y364338D01*
X543500Y364491D01*
X542338Y364338D01*
X541254Y363890D01*
X540324Y363176D01*
X539862Y362573D01*
X539243Y362437D01*
X538742D01*
X538123Y362573D01*
X537660Y363176D01*
X536730Y363890D01*
X535925Y364223D01*
X535797Y364888D01*
Y365112D01*
X535925Y365777D01*
X536730Y366110D01*
X537660Y366824D01*
X538374Y367754D01*
X538822Y368838D01*
X538975Y370000D01*
X538822Y371162D01*
X538374Y372246D01*
X537660Y373176D01*
X536730Y373889D01*
X535925Y374223D01*
X535797Y374888D01*
Y375112D01*
X535925Y375777D01*
X536730Y376111D01*
X537660Y376824D01*
X538374Y377754D01*
X538822Y378838D01*
X538975Y380000D01*
X538822Y381162D01*
X538374Y382246D01*
X537660Y383176D01*
X536730Y383890D01*
X535925Y384223D01*
X535797Y384888D01*
Y385112D01*
X535925Y385777D01*
X536730Y386110D01*
X537660Y386824D01*
X538374Y387754D01*
X538822Y388838D01*
X538975Y390000D01*
X538822Y391162D01*
X538374Y392246D01*
X537660Y393176D01*
X536730Y393889D01*
X535925Y394223D01*
X535797Y394888D01*
Y395112D01*
X535925Y395777D01*
X536730Y396111D01*
X537660Y396824D01*
X538374Y397754D01*
X538822Y398838D01*
X538975Y400000D01*
X538822Y401162D01*
X538374Y402246D01*
X537660Y403176D01*
X536730Y403890D01*
X535925Y404223D01*
X535797Y404888D01*
Y405112D01*
X535925Y405777D01*
X536730Y406110D01*
X537660Y406824D01*
X539340D01*
X540270Y406110D01*
X541353Y405662D01*
X542516Y405509D01*
X544484D01*
X545647Y405662D01*
X546730Y406110D01*
X547660Y406824D01*
X549340D01*
X550270Y406110D01*
X551353Y405662D01*
X552516Y405509D01*
X554484D01*
X555647Y405662D01*
X556730Y406110D01*
X557660Y406824D01*
X558374Y407754D01*
X558822Y408838D01*
X558975Y410000D01*
X558822Y411162D01*
X558374Y412246D01*
X557660Y413176D01*
X556730Y413890D01*
X555647Y414338D01*
X554484Y414491D01*
D02*
G37*
G36*
X621910Y431725D02*
X620284Y431597D01*
X618699Y431216D01*
X617192Y430592D01*
X615802Y429741D01*
X614562Y428682D01*
X613504Y427442D01*
X612652Y426052D01*
X612028Y424545D01*
X611647Y422960D01*
X611519Y421335D01*
X611647Y419709D01*
X612028Y418124D01*
X612652Y416617D01*
X613504Y415227D01*
X614562Y413988D01*
X615802Y412929D01*
X617192Y412077D01*
X618699Y411453D01*
X620284Y411072D01*
X621910Y410944D01*
X623535Y411072D01*
X625120Y411453D01*
X626627Y412077D01*
X628017Y412929D01*
X629256Y413988D01*
X630315Y415227D01*
X631167Y416617D01*
X631791Y418124D01*
X632172Y419709D01*
X632300Y421335D01*
X632172Y422960D01*
X631791Y424545D01*
X631167Y426052D01*
X630315Y427442D01*
X629256Y428682D01*
X628017Y429741D01*
X626627Y430592D01*
X625120Y431216D01*
X623535Y431597D01*
X621910Y431725D01*
D02*
G37*
G36*
X584484Y414491D02*
X582516D01*
X581353Y414338D01*
X580270Y413890D01*
X579340Y413176D01*
X578626Y412246D01*
X578178Y411162D01*
X578025Y410000D01*
X578178Y408838D01*
X578626Y407754D01*
X579340Y406824D01*
X580270Y406110D01*
X581353Y405662D01*
X582516Y405509D01*
X584484D01*
X585647Y405662D01*
X586730Y406110D01*
X587660Y406824D01*
X588374Y407754D01*
X588822Y408838D01*
X588975Y410000D01*
X588822Y411162D01*
X588374Y412246D01*
X587660Y413176D01*
X586730Y413890D01*
X585647Y414338D01*
X584484Y414491D01*
D02*
G37*
G36*
X584500Y403985D02*
Y401000D01*
X588340D01*
X588335Y401032D01*
X587937Y401993D01*
X587303Y402819D01*
X586478Y403453D01*
X585516Y403851D01*
X584500Y403985D01*
D02*
G37*
G36*
X582500D02*
X581484Y403851D01*
X580522Y403453D01*
X579697Y402819D01*
X579063Y401993D01*
X578665Y401032D01*
X578660Y401000D01*
X582500D01*
Y403985D01*
D02*
G37*
G36*
X588340Y399000D02*
X584500D01*
Y396015D01*
X585516Y396149D01*
X586478Y396547D01*
X587303Y397181D01*
X587937Y398007D01*
X588335Y398968D01*
X588340Y399000D01*
D02*
G37*
G36*
X582500D02*
X578660D01*
X578665Y398968D01*
X579063Y398007D01*
X579697Y397181D01*
X580522Y396547D01*
X581484Y396149D01*
X582500Y396015D01*
Y399000D01*
D02*
G37*
G36*
X627500Y393587D02*
X626183Y393413D01*
X624957Y392905D01*
X623903Y392097D01*
X623095Y391043D01*
X622586Y389817D01*
X622413Y388500D01*
X622586Y387183D01*
X623095Y385957D01*
X623903Y384903D01*
X624957Y384095D01*
X626183Y383587D01*
X626449Y383552D01*
Y382039D01*
X626314Y382021D01*
X625209Y381563D01*
X624260Y380835D01*
X623531Y379886D01*
X623074Y378781D01*
X623049Y378594D01*
X627500D01*
X631951D01*
X631926Y378781D01*
X631469Y379886D01*
X630740Y380835D01*
X629791Y381563D01*
X628686Y382021D01*
X628551Y382039D01*
Y383552D01*
X628817Y383587D01*
X630043Y384095D01*
X631097Y384903D01*
X631905Y385957D01*
X632413Y387183D01*
X632587Y388500D01*
X632413Y389817D01*
X631905Y391043D01*
X631097Y392097D01*
X630043Y392905D01*
X628817Y393413D01*
X627500Y393587D01*
D02*
G37*
G36*
X564500Y363855D02*
Y361000D01*
X567355D01*
X567351Y361032D01*
X566953Y361993D01*
X566319Y362819D01*
X565493Y363453D01*
X564532Y363851D01*
X564500Y363855D01*
D02*
G37*
G36*
X554500D02*
Y361000D01*
X557355D01*
X557351Y361032D01*
X556953Y361993D01*
X556319Y362819D01*
X555493Y363453D01*
X554532Y363851D01*
X554500Y363855D01*
D02*
G37*
G36*
X562500D02*
X562468Y363851D01*
X561507Y363453D01*
X560681Y362819D01*
X560047Y361993D01*
X559649Y361032D01*
X559645Y361000D01*
X562500D01*
Y363855D01*
D02*
G37*
G36*
X552500D02*
X552468Y363851D01*
X551507Y363453D01*
X550681Y362819D01*
X550047Y361993D01*
X549649Y361032D01*
X549645Y361000D01*
X552500D01*
Y363855D01*
D02*
G37*
G36*
X572500Y363953D02*
X569547D01*
Y361000D01*
X572500D01*
Y363953D01*
D02*
G37*
G36*
X567355Y359000D02*
X564500D01*
Y356145D01*
X564532Y356149D01*
X565493Y356547D01*
X566319Y357181D01*
X566953Y358007D01*
X567351Y358968D01*
X567355Y359000D01*
D02*
G37*
G36*
X557355D02*
X554500D01*
Y356145D01*
X554532Y356149D01*
X555493Y356547D01*
X556319Y357181D01*
X556953Y358007D01*
X557351Y358968D01*
X557355Y359000D01*
D02*
G37*
G36*
X562500D02*
X559645D01*
X559649Y358968D01*
X560047Y358007D01*
X560681Y357181D01*
X561507Y356547D01*
X562468Y356149D01*
X562500Y356145D01*
Y359000D01*
D02*
G37*
G36*
X552500D02*
X549645D01*
X549649Y358968D01*
X550047Y358007D01*
X550681Y357181D01*
X551507Y356547D01*
X552468Y356149D01*
X552500Y356145D01*
Y359000D01*
D02*
G37*
G36*
X572500D02*
X569547D01*
Y356047D01*
X572500D01*
Y359000D01*
D02*
G37*
G36*
X616319Y399040D02*
X615002Y398866D01*
X613775Y398358D01*
X612722Y397550D01*
X611914Y396496D01*
X611405Y395269D01*
X611232Y393953D01*
X611405Y392636D01*
X611914Y391409D01*
X612722Y390356D01*
X613775Y389547D01*
X614344Y389312D01*
Y387688D01*
X613775Y387453D01*
X612722Y386644D01*
X611914Y385591D01*
X611405Y384364D01*
X611232Y383047D01*
X611405Y381731D01*
X611914Y380504D01*
X612722Y379450D01*
X613775Y378642D01*
X614344Y378406D01*
Y376783D01*
X613775Y376547D01*
X612722Y375739D01*
X611914Y374685D01*
X611405Y373458D01*
X611232Y372142D01*
X611405Y370825D01*
X611914Y369598D01*
X612722Y368545D01*
X613775Y367736D01*
X614344Y367501D01*
Y365877D01*
X613775Y365641D01*
X612722Y364833D01*
X611914Y363780D01*
X611405Y362553D01*
X611232Y361236D01*
X611405Y359920D01*
X611914Y358693D01*
X612722Y357639D01*
X613775Y356831D01*
X615002Y356323D01*
X615268Y356288D01*
Y354775D01*
X615133Y354757D01*
X614028Y354299D01*
X613079Y353571D01*
X612350Y352622D01*
X611893Y351517D01*
X611868Y351331D01*
X616319D01*
X620770D01*
X620745Y351517D01*
X620288Y352622D01*
X619559Y353571D01*
X618610Y354299D01*
X617505Y354757D01*
X617370Y354775D01*
Y356288D01*
X617635Y356323D01*
X618862Y356831D01*
X619916Y357639D01*
X620724Y358693D01*
X621232Y359920D01*
X621406Y361236D01*
X621232Y362553D01*
X620724Y363780D01*
X619916Y364833D01*
X618862Y365641D01*
X618293Y365877D01*
Y367501D01*
X618862Y367736D01*
X619916Y368545D01*
X620724Y369598D01*
X621232Y370825D01*
X621406Y372142D01*
X621232Y373458D01*
X620724Y374685D01*
X619916Y375739D01*
X618862Y376547D01*
X618293Y376783D01*
Y378406D01*
X618862Y378642D01*
X619916Y379450D01*
X620724Y380504D01*
X621232Y381731D01*
X621406Y383047D01*
X621232Y384364D01*
X620724Y385591D01*
X619916Y386644D01*
X618862Y387453D01*
X618293Y387688D01*
Y389312D01*
X618862Y389547D01*
X619916Y390356D01*
X620724Y391409D01*
X621232Y392636D01*
X621406Y393953D01*
X621232Y395269D01*
X620724Y396496D01*
X619916Y397550D01*
X618862Y398358D01*
X617635Y398866D01*
X616319Y399040D01*
D02*
G37*
G36*
X631951Y376594D02*
X627500D01*
X623049D01*
X623074Y376408D01*
X623531Y375303D01*
X624260Y374354D01*
X625209Y373626D01*
X626314Y373168D01*
X626449Y373150D01*
Y371637D01*
X626183Y371603D01*
X624957Y371094D01*
X623903Y370286D01*
X623095Y369232D01*
X622586Y368005D01*
X622413Y366689D01*
X622586Y365372D01*
X623095Y364146D01*
X623903Y363092D01*
X624957Y362284D01*
X625526Y362048D01*
Y360424D01*
X624957Y360189D01*
X623903Y359380D01*
X623095Y358327D01*
X622586Y357100D01*
X622413Y355784D01*
X622586Y354467D01*
X623095Y353240D01*
X623903Y352186D01*
X624957Y351378D01*
X626183Y350870D01*
X627500Y350697D01*
X628817Y350870D01*
X630043Y351378D01*
X631097Y352186D01*
X631905Y353240D01*
X632413Y354467D01*
X632587Y355784D01*
X632413Y357100D01*
X631905Y358327D01*
X631097Y359380D01*
X630043Y360189D01*
X629474Y360424D01*
Y362048D01*
X630043Y362284D01*
X631097Y363092D01*
X631905Y364146D01*
X632413Y365372D01*
X632587Y366689D01*
X632413Y368005D01*
X631905Y369232D01*
X631097Y370286D01*
X630043Y371094D01*
X628817Y371603D01*
X628551Y371637D01*
Y373150D01*
X628686Y373168D01*
X629791Y373626D01*
X630740Y374354D01*
X631469Y375303D01*
X631926Y376408D01*
X631951Y376594D01*
D02*
G37*
G36*
X640500Y363166D02*
X639774Y363071D01*
X639098Y362791D01*
X638518Y362345D01*
X638072Y361765D01*
X637792Y361089D01*
X637697Y360363D01*
X637792Y359637D01*
X637951Y359254D01*
Y351609D01*
X637792Y351226D01*
X637697Y350500D01*
X637792Y349774D01*
X638072Y349098D01*
X638518Y348518D01*
X639098Y348072D01*
X639774Y347792D01*
X640500Y347696D01*
X641226Y347792D01*
X641902Y348072D01*
X642482Y348518D01*
X642928Y349098D01*
X643208Y349774D01*
X643303Y350500D01*
X643208Y351226D01*
X643049Y351609D01*
Y359254D01*
X643208Y359637D01*
X643303Y360363D01*
X643208Y361089D01*
X642928Y361765D01*
X642482Y362345D01*
X641902Y362791D01*
X641226Y363071D01*
X640500Y363166D01*
D02*
G37*
G36*
X615319Y349331D02*
X611868D01*
X611893Y349145D01*
X612350Y348040D01*
X613079Y347090D01*
X614028Y346362D01*
X615133Y345904D01*
X615319Y345880D01*
Y349331D01*
D02*
G37*
G36*
X620770D02*
X617319D01*
Y345880D01*
X617505Y345904D01*
X618610Y346362D01*
X619559Y347090D01*
X620288Y348040D01*
X620745Y349145D01*
X620770Y349331D01*
D02*
G37*
G36*
X584500Y343985D02*
Y341000D01*
X588340D01*
X588335Y341032D01*
X587937Y341993D01*
X587303Y342819D01*
X586478Y343453D01*
X585516Y343851D01*
X584500Y343985D01*
D02*
G37*
G36*
X588340Y339000D02*
X584500D01*
Y336015D01*
X585516Y336149D01*
X586478Y336547D01*
X587303Y337181D01*
X587937Y338007D01*
X588335Y338968D01*
X588340Y339000D01*
D02*
G37*
G36*
X612750Y337554D02*
X612024Y337458D01*
X611348Y337178D01*
X610768Y336732D01*
X610322Y336152D01*
X610042Y335476D01*
X609946Y334750D01*
X610042Y334024D01*
X610322Y333348D01*
X610456Y333174D01*
Y330700D01*
X608651Y328895D01*
X607285D01*
X606407Y328721D01*
X605663Y328223D01*
X603676Y326237D01*
X603458Y326208D01*
X602782Y325928D01*
X602202Y325482D01*
X601756Y324902D01*
X601476Y324226D01*
X601380Y323500D01*
X601476Y322774D01*
X601756Y322098D01*
X602202Y321518D01*
X602782Y321072D01*
X603458Y320792D01*
X604184Y320696D01*
X604910Y320792D01*
X605586Y321072D01*
X606166Y321518D01*
X606612Y322098D01*
X606892Y322774D01*
X606921Y322992D01*
X608236Y324307D01*
X609601D01*
X610130Y324412D01*
X611178Y323777D01*
X611554Y323396D01*
X611519Y322949D01*
X611647Y321323D01*
X612028Y319738D01*
X612652Y318232D01*
X613504Y316842D01*
X614562Y315602D01*
X615802Y314543D01*
X617192Y313691D01*
X618699Y313067D01*
X620284Y312686D01*
X621910Y312559D01*
X623535Y312686D01*
X625120Y313067D01*
X626627Y313691D01*
X628017Y314543D01*
X629256Y315602D01*
X630315Y316842D01*
X631167Y318232D01*
X631791Y319738D01*
X632172Y321323D01*
X632300Y322949D01*
X632172Y324574D01*
X631791Y326160D01*
X631167Y327666D01*
X630315Y329056D01*
X629256Y330296D01*
X628017Y331355D01*
X626627Y332207D01*
X625120Y332831D01*
X623535Y333211D01*
X621910Y333339D01*
X620284Y333211D01*
X618699Y332831D01*
X617192Y332207D01*
X616544Y331809D01*
X615990Y332120D01*
X615178Y333348D01*
X615458Y334024D01*
X615554Y334750D01*
X615458Y335476D01*
X615178Y336152D01*
X614732Y336732D01*
X614152Y337178D01*
X613476Y337458D01*
X612750Y337554D01*
D02*
G37*
G36*
X584765Y320903D02*
X584039Y320808D01*
X583363Y320528D01*
X582783Y320082D01*
X582337Y319502D01*
X582057Y318826D01*
X581961Y318100D01*
X582057Y317374D01*
X582251Y316906D01*
Y307753D01*
X582157Y307526D01*
X582061Y306800D01*
X582157Y306074D01*
X582437Y305398D01*
X582883Y304818D01*
X583463Y304372D01*
X584139Y304092D01*
X584865Y303996D01*
X585591Y304092D01*
X586267Y304372D01*
X586847Y304818D01*
X587293Y305398D01*
X587573Y306074D01*
X587669Y306800D01*
X587573Y307526D01*
X587349Y308066D01*
Y317075D01*
X587473Y317374D01*
X587569Y318100D01*
X587473Y318826D01*
X587193Y319502D01*
X586747Y320082D01*
X586167Y320528D01*
X585491Y320808D01*
X584765Y320903D01*
D02*
G37*
G36*
X529500Y302304D02*
X528774Y302208D01*
X528391Y302049D01*
X506110D01*
X505726Y302208D01*
X505000Y302304D01*
X504274Y302208D01*
X503598Y301928D01*
X503018Y301482D01*
X502572Y300902D01*
X502292Y300226D01*
X502197Y299500D01*
X502292Y298774D01*
X502572Y298098D01*
X503018Y297518D01*
X503598Y297072D01*
X504274Y296792D01*
X505000Y296696D01*
X505726Y296792D01*
X506110Y296951D01*
X528391D01*
X528774Y296792D01*
X529500Y296696D01*
X530226Y296792D01*
X530902Y297072D01*
X531482Y297518D01*
X531928Y298098D01*
X532208Y298774D01*
X532303Y299500D01*
X532208Y300226D01*
X531928Y300902D01*
X531482Y301482D01*
X530902Y301928D01*
X530226Y302208D01*
X529500Y302304D01*
D02*
G37*
G36*
X614500Y311303D02*
X613774Y311208D01*
X613098Y310928D01*
X612518Y310482D01*
X612072Y309902D01*
X611792Y309226D01*
X611696Y308500D01*
X611792Y307774D01*
X612072Y307098D01*
X612518Y306518D01*
X613098Y306072D01*
X613774Y305792D01*
X614500Y305697D01*
X615226Y305792D01*
X615610Y305951D01*
X623444D01*
X631413Y297982D01*
X631572Y297598D01*
X632018Y297018D01*
X632598Y296572D01*
X633274Y296292D01*
X634000Y296197D01*
X634726Y296292D01*
X635402Y296572D01*
X635982Y297018D01*
X636428Y297598D01*
X636708Y298274D01*
X636803Y299000D01*
X636708Y299726D01*
X636428Y300402D01*
X635982Y300982D01*
X635402Y301428D01*
X635018Y301587D01*
X626302Y310302D01*
X625476Y310855D01*
X624500Y311049D01*
X615610D01*
X615226Y311208D01*
X614500Y311303D01*
D02*
G37*
G36*
X554484Y289991D02*
X552516D01*
X551353Y289838D01*
X550270Y289389D01*
X549340Y288676D01*
X547660D01*
X546730Y289389D01*
X545647Y289838D01*
X544484Y289991D01*
X542516D01*
X541353Y289838D01*
X540270Y289389D01*
X539340Y288676D01*
X537660D01*
X536730Y289389D01*
X535647Y289838D01*
X534484Y289991D01*
X532516D01*
X531353Y289838D01*
X530270Y289389D01*
X529340Y288676D01*
X528626Y287746D01*
X528178Y286662D01*
X528025Y285500D01*
X528178Y284338D01*
X528626Y283254D01*
X529340Y282324D01*
X530270Y281610D01*
X531074Y281277D01*
X531203Y280612D01*
Y280388D01*
X531074Y279723D01*
X530270Y279390D01*
X529340Y278676D01*
X528626Y277746D01*
X528178Y276662D01*
X528025Y275500D01*
X528178Y274338D01*
X528626Y273254D01*
X529340Y272324D01*
X530270Y271610D01*
X531074Y271277D01*
X531203Y270612D01*
Y270388D01*
X531074Y269723D01*
X530270Y269390D01*
X529340Y268676D01*
X528626Y267746D01*
X528178Y266662D01*
X528025Y265500D01*
X528178Y264338D01*
X528626Y263254D01*
X529340Y262324D01*
X530270Y261611D01*
X531074Y261277D01*
X531203Y260612D01*
Y260388D01*
X531074Y259723D01*
X530270Y259389D01*
X529340Y258676D01*
X528626Y257746D01*
X528178Y256662D01*
X528025Y255500D01*
X528178Y254338D01*
X528626Y253254D01*
X529340Y252324D01*
X530270Y251610D01*
X531074Y251277D01*
X531203Y250612D01*
Y250388D01*
X531074Y249723D01*
X530270Y249390D01*
X529340Y248676D01*
X528626Y247746D01*
X528178Y246662D01*
X528025Y245500D01*
X528178Y244338D01*
X528626Y243254D01*
X529340Y242324D01*
X530270Y241611D01*
X531074Y241277D01*
X531203Y240612D01*
Y240388D01*
X531074Y239723D01*
X530270Y239389D01*
X529340Y238676D01*
X528626Y237746D01*
X528178Y236662D01*
X528025Y235500D01*
X528178Y234338D01*
X528626Y233254D01*
X529340Y232324D01*
X530270Y231610D01*
X531074Y231277D01*
X531203Y230612D01*
Y230388D01*
X531074Y229723D01*
X530270Y229390D01*
X529340Y228676D01*
X528626Y227746D01*
X528178Y226662D01*
X528025Y225500D01*
X528178Y224338D01*
X528626Y223254D01*
X529340Y222324D01*
X530270Y221610D01*
X531074Y221277D01*
X531203Y220612D01*
Y220388D01*
X531074Y219723D01*
X530270Y219390D01*
X529340Y218676D01*
X528626Y217746D01*
X528178Y216662D01*
X528025Y215500D01*
X528178Y214338D01*
X528626Y213254D01*
X529340Y212324D01*
X530270Y211611D01*
X531353Y211162D01*
X532516Y211009D01*
X534484D01*
X535647Y211162D01*
X536730Y211611D01*
X537547Y212238D01*
X538038Y212145D01*
X539047Y211668D01*
Y211047D01*
X547953D01*
Y213206D01*
X549648D01*
X550324Y212324D01*
X551254Y211611D01*
X552338Y211162D01*
X553500Y211009D01*
X554662Y211162D01*
X555746Y211611D01*
X556676Y212324D01*
X557352Y213206D01*
X559648D01*
X560324Y212324D01*
X561254Y211611D01*
X562338Y211162D01*
X563500Y211009D01*
X564662Y211162D01*
X565746Y211611D01*
X566676Y212324D01*
X567389Y213254D01*
X567723Y214059D01*
X568388Y214188D01*
X568612D01*
X569277Y214059D01*
X569611Y213254D01*
X570324Y212324D01*
X571254Y211611D01*
X572338Y211162D01*
X573500Y211009D01*
X574662Y211162D01*
X575746Y211611D01*
X576676Y212324D01*
X577389Y213254D01*
X577467Y213441D01*
X579063Y213507D01*
X579697Y212681D01*
X580522Y212047D01*
X581484Y211649D01*
X582500Y211515D01*
Y215500D01*
Y219485D01*
X581484Y219351D01*
X580522Y218953D01*
X579697Y218319D01*
X579063Y217493D01*
X577467Y217559D01*
X577389Y217746D01*
X576676Y218676D01*
X575746Y219390D01*
X574941Y219723D01*
X574812Y220388D01*
Y220612D01*
X574941Y221277D01*
X575746Y221610D01*
X576676Y222324D01*
X577138Y222927D01*
X577757Y223063D01*
X578258D01*
X578877Y222927D01*
X579340Y222324D01*
X580270Y221610D01*
X581353Y221162D01*
X582516Y221009D01*
X584484D01*
X585647Y221162D01*
X586730Y221610D01*
X587660Y222324D01*
X588374Y223254D01*
X588822Y224338D01*
X588975Y225500D01*
X588872Y226283D01*
X591540Y228951D01*
X603944D01*
X611472Y221423D01*
X611497Y221407D01*
X612244Y220430D01*
X612112Y219378D01*
X611983Y219068D01*
X611959Y218882D01*
X616409D01*
X620860D01*
X620836Y219068D01*
X620791Y219176D01*
X621793Y220676D01*
X623274D01*
X623994Y219738D01*
X625047Y218929D01*
X626274Y218421D01*
X627591Y218248D01*
X628907Y218421D01*
X630134Y218929D01*
X630617Y219300D01*
X644071D01*
X644071Y219300D01*
X645115Y219438D01*
X646088Y219841D01*
X646924Y220482D01*
X649853Y223411D01*
X649853Y223411D01*
X650494Y224246D01*
X650897Y225219D01*
X651034Y226264D01*
X651034Y226264D01*
Y240000D01*
Y247000D01*
Y250500D01*
X650897Y251544D01*
X650494Y252517D01*
X649853Y253353D01*
X649017Y253994D01*
X648044Y254397D01*
X647000Y254535D01*
X645956Y254397D01*
X644983Y253994D01*
X644147Y253353D01*
X643506Y252517D01*
X643103Y251544D01*
X642966Y250500D01*
Y247000D01*
Y240000D01*
Y227935D01*
X642400Y227369D01*
X630617D01*
X630134Y227740D01*
X629565Y227976D01*
Y229599D01*
X630134Y229835D01*
X631187Y230643D01*
X631996Y231697D01*
X632504Y232924D01*
X632677Y234240D01*
X632504Y235557D01*
X631996Y236784D01*
X631187Y237837D01*
X630134Y238646D01*
X628907Y239154D01*
X628642Y239189D01*
Y240702D01*
X628777Y240719D01*
X629882Y241177D01*
X630831Y241905D01*
X631559Y242854D01*
X632017Y243960D01*
X632041Y244146D01*
X627591D01*
X623140D01*
X623164Y243960D01*
X623622Y242854D01*
X624350Y241905D01*
X625299Y241177D01*
X626404Y240719D01*
X626540Y240702D01*
Y239189D01*
X626274Y239154D01*
X625047Y238646D01*
X623994Y237837D01*
X623185Y236784D01*
X622677Y235557D01*
X622504Y234240D01*
X622677Y232924D01*
X623185Y231697D01*
X623994Y230643D01*
X625047Y229835D01*
X625616Y229599D01*
Y227976D01*
X625047Y227740D01*
X623994Y226932D01*
X623543Y226345D01*
X622267Y226334D01*
X621330Y227524D01*
X621496Y228787D01*
X621323Y230104D01*
X620815Y231331D01*
X620006Y232384D01*
X618953Y233193D01*
X618384Y233428D01*
Y235052D01*
X618953Y235288D01*
X620006Y236096D01*
X620815Y237150D01*
X621323Y238376D01*
X621496Y239693D01*
X621323Y241009D01*
X620815Y242236D01*
X620006Y243290D01*
X618953Y244098D01*
X618384Y244334D01*
Y245957D01*
X618953Y246193D01*
X620006Y247002D01*
X620815Y248055D01*
X621323Y249282D01*
X621496Y250598D01*
X621323Y251915D01*
X620815Y253142D01*
X620006Y254195D01*
X618953Y255004D01*
X618384Y255239D01*
Y256863D01*
X618953Y257099D01*
X620006Y257907D01*
X620815Y258961D01*
X621323Y260187D01*
X621496Y261504D01*
X621323Y262821D01*
X620815Y264047D01*
X620006Y265101D01*
X618953Y265909D01*
X617726Y266417D01*
X616409Y266591D01*
X615093Y266417D01*
X613866Y265909D01*
X612813Y265101D01*
X612004Y264047D01*
X611496Y262821D01*
X611323Y261504D01*
X611496Y260187D01*
X612004Y258961D01*
X612813Y257907D01*
X613866Y257099D01*
X614435Y256863D01*
Y255239D01*
X613866Y255004D01*
X612813Y254195D01*
X612004Y253142D01*
X611496Y251915D01*
X611323Y250598D01*
X611496Y249282D01*
X612004Y248055D01*
X612813Y247002D01*
X613866Y246193D01*
X614435Y245957D01*
Y244334D01*
X613866Y244098D01*
X612813Y243290D01*
X612004Y242236D01*
X611496Y241009D01*
X611323Y239693D01*
X611496Y238376D01*
X612004Y237150D01*
X612813Y236096D01*
X613866Y235288D01*
X614435Y235052D01*
Y233428D01*
X613866Y233193D01*
X612813Y232384D01*
X612004Y231331D01*
X611679Y230547D01*
X610452Y230115D01*
X609985Y230120D01*
X606802Y233302D01*
X605975Y233855D01*
X605000Y234049D01*
X590484D01*
X590226Y233998D01*
X588946Y235117D01*
X588930Y235153D01*
X588975Y235500D01*
X588822Y236662D01*
X588374Y237746D01*
X587660Y238676D01*
X586730Y239389D01*
X585925Y239723D01*
X585797Y240388D01*
Y240612D01*
X585925Y241277D01*
X586730Y241611D01*
X587660Y242324D01*
X588374Y243254D01*
X588822Y244338D01*
X588975Y245500D01*
X588822Y246662D01*
X588374Y247746D01*
X587660Y248676D01*
X586730Y249390D01*
X585925Y249723D01*
X585797Y250388D01*
Y250612D01*
X585925Y251277D01*
X586730Y251610D01*
X587660Y252324D01*
X588374Y253254D01*
X588822Y254338D01*
X588975Y255500D01*
X588822Y256662D01*
X588374Y257746D01*
X587660Y258676D01*
X586730Y259389D01*
X585925Y259723D01*
X585797Y260388D01*
Y260612D01*
X585925Y261277D01*
X586730Y261611D01*
X587660Y262324D01*
X588374Y263254D01*
X588822Y264338D01*
X588975Y265500D01*
X588822Y266662D01*
X588374Y267746D01*
X587660Y268676D01*
X586730Y269390D01*
X585647Y269838D01*
X584484Y269991D01*
X582516D01*
X581353Y269838D01*
X580270Y269390D01*
X579340Y268676D01*
X578626Y267746D01*
X578178Y266662D01*
X578025Y265500D01*
X578178Y264338D01*
X578626Y263254D01*
X579340Y262324D01*
X580270Y261611D01*
X581074Y261277D01*
X581203Y260612D01*
Y260388D01*
X581074Y259723D01*
X580270Y259389D01*
X579340Y258676D01*
X578626Y257746D01*
X578178Y256662D01*
X578025Y255500D01*
X578178Y254338D01*
X578626Y253254D01*
X579340Y252324D01*
X580270Y251610D01*
X581074Y251277D01*
X581203Y250612D01*
Y250388D01*
X581074Y249723D01*
X580270Y249390D01*
X579340Y248676D01*
X578626Y247746D01*
X578178Y246662D01*
X578025Y245500D01*
X578178Y244338D01*
X578626Y243254D01*
X579340Y242324D01*
X580270Y241611D01*
X581074Y241277D01*
X581203Y240612D01*
Y240388D01*
X581074Y239723D01*
X580270Y239389D01*
X579340Y238676D01*
X578953Y238171D01*
X577453Y238680D01*
Y239453D01*
X574500D01*
Y235500D01*
Y231547D01*
X577453D01*
Y232320D01*
X578953Y232829D01*
X579340Y232324D01*
X580270Y231610D01*
X581074Y231277D01*
X581203Y230612D01*
Y230388D01*
X581074Y229723D01*
X580270Y229390D01*
X579340Y228676D01*
X578877Y228073D01*
X578258Y227937D01*
X577757D01*
X577138Y228073D01*
X576676Y228676D01*
X575746Y229390D01*
X574662Y229838D01*
X573500Y229991D01*
X572338Y229838D01*
X571254Y229390D01*
X570324Y228676D01*
X569611Y227746D01*
X569277Y226941D01*
X568612Y226812D01*
X568388D01*
X567723Y226941D01*
X567389Y227746D01*
X566676Y228676D01*
X565746Y229390D01*
X564662Y229838D01*
X563500Y229991D01*
X562338Y229838D01*
X561254Y229390D01*
X560324Y228676D01*
X559611Y227746D01*
X559277Y226941D01*
X558612Y226812D01*
X558388D01*
X557723Y226941D01*
X557389Y227746D01*
X556676Y228676D01*
X555746Y229390D01*
X554662Y229838D01*
X553500Y229991D01*
X552338Y229838D01*
X551254Y229390D01*
X550324Y228676D01*
X549611Y227746D01*
X549277Y226941D01*
X548612Y226812D01*
X548388D01*
X547723Y226941D01*
X547390Y227746D01*
X546676Y228676D01*
X545746Y229390D01*
X544941Y229723D01*
X544812Y230388D01*
Y230612D01*
X544941Y231277D01*
X545746Y231610D01*
X546676Y232324D01*
X547390Y233254D01*
X547838Y234338D01*
X547991Y235500D01*
X547838Y236662D01*
X547390Y237746D01*
X546676Y238676D01*
X545746Y239389D01*
X544662Y239838D01*
X543500Y239991D01*
X542338Y239838D01*
X541254Y239389D01*
X540324Y238676D01*
X539862Y238073D01*
X539243Y237937D01*
X538742D01*
X538123Y238073D01*
X537660Y238676D01*
X536730Y239389D01*
X535925Y239723D01*
X535797Y240388D01*
Y240612D01*
X535925Y241277D01*
X536730Y241611D01*
X537660Y242324D01*
X538374Y243254D01*
X538822Y244338D01*
X538975Y245500D01*
X538822Y246662D01*
X538374Y247746D01*
X537660Y248676D01*
X536730Y249390D01*
X535925Y249723D01*
X535797Y250388D01*
Y250612D01*
X535925Y251277D01*
X536730Y251610D01*
X537660Y252324D01*
X538374Y253254D01*
X538822Y254338D01*
X538975Y255500D01*
X538822Y256662D01*
X538374Y257746D01*
X537660Y258676D01*
X536730Y259389D01*
X535925Y259723D01*
X535797Y260388D01*
Y260612D01*
X535925Y261277D01*
X536730Y261611D01*
X537660Y262324D01*
X538374Y263254D01*
X538822Y264338D01*
X538975Y265500D01*
X538822Y266662D01*
X538374Y267746D01*
X537660Y268676D01*
X536730Y269390D01*
X535925Y269723D01*
X535797Y270388D01*
Y270612D01*
X535925Y271277D01*
X536730Y271610D01*
X537660Y272324D01*
X538374Y273254D01*
X538822Y274338D01*
X538975Y275500D01*
X538822Y276662D01*
X538374Y277746D01*
X537660Y278676D01*
X536730Y279390D01*
X535925Y279723D01*
X535797Y280388D01*
Y280612D01*
X535925Y281277D01*
X536730Y281610D01*
X537660Y282324D01*
X539340D01*
X540270Y281610D01*
X541353Y281162D01*
X542516Y281009D01*
X544484D01*
X545647Y281162D01*
X546730Y281610D01*
X547660Y282324D01*
X549340D01*
X550270Y281610D01*
X551353Y281162D01*
X552516Y281009D01*
X554484D01*
X555647Y281162D01*
X556730Y281610D01*
X557660Y282324D01*
X558374Y283254D01*
X558822Y284338D01*
X558975Y285500D01*
X558822Y286662D01*
X558374Y287746D01*
X557660Y288676D01*
X556730Y289389D01*
X555647Y289838D01*
X554484Y289991D01*
D02*
G37*
G36*
X584484D02*
X582516D01*
X581353Y289838D01*
X580270Y289389D01*
X579340Y288676D01*
X578626Y287746D01*
X578178Y286662D01*
X578025Y285500D01*
X578178Y284338D01*
X578626Y283254D01*
X579340Y282324D01*
X580270Y281610D01*
X581353Y281162D01*
X582516Y281009D01*
X584484D01*
X585647Y281162D01*
X586730Y281610D01*
X587660Y282324D01*
X588374Y283254D01*
X588822Y284338D01*
X588975Y285500D01*
X588822Y286662D01*
X588374Y287746D01*
X587660Y288676D01*
X586730Y289389D01*
X585647Y289838D01*
X584484Y289991D01*
D02*
G37*
G36*
X622000Y299276D02*
X620375Y299148D01*
X618789Y298768D01*
X617283Y298144D01*
X615893Y297292D01*
X614653Y296233D01*
X613594Y294993D01*
X612742Y293603D01*
X612118Y292097D01*
X611738Y290511D01*
X611610Y288886D01*
X611738Y287260D01*
X612118Y285675D01*
X612742Y284169D01*
X613594Y282779D01*
X614653Y281539D01*
X615893Y280480D01*
X617283Y279628D01*
X618789Y279004D01*
X620375Y278623D01*
X622000Y278496D01*
X623625Y278623D01*
X625211Y279004D01*
X626717Y279628D01*
X628107Y280480D01*
X629347Y281539D01*
X630406Y282779D01*
X631258Y284169D01*
X631882Y285675D01*
X632262Y287260D01*
X632390Y288886D01*
X632262Y290511D01*
X631882Y292097D01*
X631258Y293603D01*
X630406Y294993D01*
X629347Y296233D01*
X628107Y297292D01*
X626717Y298144D01*
X625211Y298768D01*
X623625Y299148D01*
X622000Y299276D01*
D02*
G37*
G36*
X584500Y279485D02*
Y276500D01*
X588340D01*
X588335Y276532D01*
X587937Y277493D01*
X587303Y278319D01*
X586478Y278953D01*
X585516Y279351D01*
X584500Y279485D01*
D02*
G37*
G36*
X582500D02*
X581484Y279351D01*
X580522Y278953D01*
X579697Y278319D01*
X579063Y277493D01*
X578665Y276532D01*
X578660Y276500D01*
X582500D01*
Y279485D01*
D02*
G37*
G36*
X588340Y274500D02*
X584500D01*
Y271515D01*
X585516Y271649D01*
X586478Y272047D01*
X587303Y272681D01*
X587937Y273507D01*
X588335Y274468D01*
X588340Y274500D01*
D02*
G37*
G36*
X582500D02*
X578660D01*
X578665Y274468D01*
X579063Y273507D01*
X579697Y272681D01*
X580522Y272047D01*
X581484Y271649D01*
X582500Y271515D01*
Y274500D01*
D02*
G37*
G36*
X627591Y261138D02*
X626274Y260965D01*
X625047Y260456D01*
X623994Y259648D01*
X623185Y258595D01*
X622677Y257368D01*
X622504Y256051D01*
X622677Y254735D01*
X623185Y253508D01*
X623994Y252454D01*
X625047Y251646D01*
X626274Y251138D01*
X626540Y251103D01*
Y249590D01*
X626404Y249572D01*
X625299Y249114D01*
X624350Y248386D01*
X623622Y247437D01*
X623164Y246332D01*
X623140Y246146D01*
X627591D01*
X632041D01*
X632017Y246332D01*
X631559Y247437D01*
X630831Y248386D01*
X629882Y249114D01*
X628777Y249572D01*
X628642Y249590D01*
Y251103D01*
X628907Y251138D01*
X630134Y251646D01*
X631187Y252454D01*
X631996Y253508D01*
X632504Y254735D01*
X632677Y256051D01*
X632504Y257368D01*
X631996Y258595D01*
X631187Y259648D01*
X630134Y260456D01*
X628907Y260965D01*
X627591Y261138D01*
D02*
G37*
G36*
X564500Y239355D02*
Y236500D01*
X567355D01*
X567351Y236532D01*
X566953Y237493D01*
X566319Y238319D01*
X565493Y238953D01*
X564532Y239351D01*
X564500Y239355D01*
D02*
G37*
G36*
X554500D02*
Y236500D01*
X557355D01*
X557351Y236532D01*
X556953Y237493D01*
X556319Y238319D01*
X555493Y238953D01*
X554532Y239351D01*
X554500Y239355D01*
D02*
G37*
G36*
X562500D02*
X562468Y239351D01*
X561507Y238953D01*
X560681Y238319D01*
X560047Y237493D01*
X559649Y236532D01*
X559645Y236500D01*
X562500D01*
Y239355D01*
D02*
G37*
G36*
X552500D02*
X552468Y239351D01*
X551507Y238953D01*
X550681Y238319D01*
X550047Y237493D01*
X549649Y236532D01*
X549645Y236500D01*
X552500D01*
Y239355D01*
D02*
G37*
G36*
X572500Y239453D02*
X569547D01*
Y236500D01*
X572500D01*
Y239453D01*
D02*
G37*
G36*
X567355Y234500D02*
X564500D01*
Y231645D01*
X564532Y231649D01*
X565493Y232047D01*
X566319Y232681D01*
X566953Y233507D01*
X567351Y234468D01*
X567355Y234500D01*
D02*
G37*
G36*
X557355D02*
X554500D01*
Y231645D01*
X554532Y231649D01*
X555493Y232047D01*
X556319Y232681D01*
X556953Y233507D01*
X557351Y234468D01*
X557355Y234500D01*
D02*
G37*
G36*
X562500D02*
X559645D01*
X559649Y234468D01*
X560047Y233507D01*
X560681Y232681D01*
X561507Y232047D01*
X562468Y231649D01*
X562500Y231645D01*
Y234500D01*
D02*
G37*
G36*
X552500D02*
X549645D01*
X549649Y234468D01*
X550047Y233507D01*
X550681Y232681D01*
X551507Y232047D01*
X552468Y231649D01*
X552500Y231645D01*
Y234500D01*
D02*
G37*
G36*
X572500D02*
X569547D01*
Y231547D01*
X572500D01*
Y234500D01*
D02*
G37*
G36*
X584500Y219485D02*
Y216500D01*
X588340D01*
X588335Y216532D01*
X587937Y217493D01*
X587303Y218319D01*
X586478Y218953D01*
X585516Y219351D01*
X584500Y219485D01*
D02*
G37*
G36*
X615409Y216882D02*
X611959D01*
X611983Y216696D01*
X612441Y215591D01*
X613169Y214642D01*
X614118Y213913D01*
X615223Y213456D01*
X615409Y213431D01*
Y216882D01*
D02*
G37*
G36*
X620860D02*
X617409D01*
Y213431D01*
X617595Y213456D01*
X618701Y213913D01*
X619650Y214642D01*
X620378Y215591D01*
X620836Y216696D01*
X620860Y216882D01*
D02*
G37*
G36*
X588340Y214500D02*
X584500D01*
Y211515D01*
X585516Y211649D01*
X586478Y212047D01*
X587303Y212681D01*
X587937Y213507D01*
X588335Y214468D01*
X588340Y214500D01*
D02*
G37*
G36*
X477500Y191991D02*
X476338Y191838D01*
X475254Y191390D01*
X474324Y190676D01*
X473610Y189746D01*
X473277Y188941D01*
X472612Y188812D01*
X472388D01*
X471723Y188941D01*
X471389Y189746D01*
X470676Y190676D01*
X469746Y191390D01*
X468662Y191838D01*
X467500Y191991D01*
X466338Y191838D01*
X465254Y191390D01*
X464324Y190676D01*
X463611Y189746D01*
X463277Y188941D01*
X462612Y188812D01*
X462388D01*
X461723Y188941D01*
X461389Y189746D01*
X460676Y190676D01*
X459746Y191390D01*
X458662Y191838D01*
X457500Y191991D01*
X456338Y191838D01*
X455254Y191390D01*
X454324Y190676D01*
X453611Y189746D01*
X453162Y188662D01*
X453009Y187500D01*
X453162Y186338D01*
X453611Y185254D01*
X454324Y184324D01*
X455254Y183610D01*
X455635Y183453D01*
X455337Y181953D01*
X453047D01*
Y173047D01*
X461953D01*
Y175337D01*
X463453Y175635D01*
X463611Y175254D01*
X464324Y174324D01*
X465254Y173610D01*
X466338Y173162D01*
X467500Y173009D01*
X468662Y173162D01*
X469746Y173610D01*
X470676Y174324D01*
X471389Y175254D01*
X471723Y176059D01*
X472388Y176188D01*
X472612D01*
X473277Y176059D01*
X473610Y175254D01*
X474324Y174324D01*
X475254Y173610D01*
X476338Y173162D01*
X477500Y173009D01*
X478662Y173162D01*
X479746Y173610D01*
X480676Y174324D01*
X481390Y175254D01*
X481838Y176338D01*
X481991Y177500D01*
X481838Y178662D01*
X481390Y179746D01*
X480676Y180676D01*
X479746Y181389D01*
X478941Y181723D01*
X478812Y182388D01*
Y182612D01*
X478941Y183277D01*
X479746Y183610D01*
X480676Y184324D01*
X481390Y185254D01*
X481838Y186338D01*
X481991Y187500D01*
X481838Y188662D01*
X481390Y189746D01*
X480676Y190676D01*
X479746Y191390D01*
X478662Y191838D01*
X477500Y191991D01*
D02*
G37*
G36*
X498500Y191355D02*
Y188500D01*
X501355D01*
X501351Y188532D01*
X500953Y189493D01*
X500319Y190319D01*
X499493Y190953D01*
X498532Y191351D01*
X498500Y191355D01*
D02*
G37*
G36*
X496500D02*
X496468Y191351D01*
X495507Y190953D01*
X494681Y190319D01*
X494047Y189493D01*
X493649Y188532D01*
X493645Y188500D01*
X496500D01*
Y191355D01*
D02*
G37*
G36*
X488500D02*
Y188500D01*
X491355D01*
X491351Y188532D01*
X490953Y189493D01*
X490319Y190319D01*
X489493Y190953D01*
X488532Y191351D01*
X488500Y191355D01*
D02*
G37*
G36*
X486500D02*
X486468Y191351D01*
X485507Y190953D01*
X484681Y190319D01*
X484047Y189493D01*
X483649Y188532D01*
X483645Y188500D01*
X486500D01*
Y191355D01*
D02*
G37*
G36*
X517500Y211804D02*
X516774Y211708D01*
X516098Y211428D01*
X515518Y210982D01*
X515072Y210402D01*
X514792Y209726D01*
X514697Y209000D01*
X514792Y208274D01*
X515072Y207598D01*
X515206Y207424D01*
Y191352D01*
X514324Y190676D01*
X513611Y189746D01*
X513277Y188941D01*
X512612Y188812D01*
X512388D01*
X511723Y188941D01*
X511389Y189746D01*
X510676Y190676D01*
X509746Y191390D01*
X508662Y191838D01*
X507500Y191991D01*
X506338Y191838D01*
X505254Y191390D01*
X504324Y190676D01*
X503611Y189746D01*
X503162Y188662D01*
X503009Y187500D01*
X503162Y186338D01*
X503611Y185254D01*
X504324Y184324D01*
X505254Y183610D01*
X506059Y183277D01*
X506188Y182612D01*
Y182388D01*
X506059Y181723D01*
X505254Y181389D01*
X504324Y180676D01*
X503611Y179746D01*
X503162Y178662D01*
X503009Y177500D01*
X503162Y176338D01*
X503611Y175254D01*
X504324Y174324D01*
X505254Y173610D01*
X506338Y173162D01*
X507500Y173009D01*
X508662Y173162D01*
X509746Y173610D01*
X510676Y174324D01*
X511389Y175254D01*
X511723Y176059D01*
X512388Y176188D01*
X512612D01*
X513277Y176059D01*
X513611Y175254D01*
X514324Y174324D01*
X515254Y173610D01*
X516338Y173162D01*
X517500Y173009D01*
X518662Y173162D01*
X519746Y173610D01*
X520676Y174324D01*
X521389Y175254D01*
X521723Y176059D01*
X522388Y176188D01*
X522612D01*
X523277Y176059D01*
X523610Y175254D01*
X524324Y174324D01*
X525254Y173610D01*
X526338Y173162D01*
X527500Y173009D01*
X528662Y173162D01*
X529746Y173610D01*
X530676Y174324D01*
X531390Y175254D01*
X531723Y176059D01*
X532388Y176188D01*
X532612D01*
X533277Y176059D01*
X533610Y175254D01*
X534324Y174324D01*
X535254Y173610D01*
X536338Y173162D01*
X537500Y173009D01*
X538662Y173162D01*
X539746Y173610D01*
X540676Y174324D01*
X541390Y175254D01*
X541723Y176059D01*
X542388Y176188D01*
X542612D01*
X543277Y176059D01*
X543610Y175254D01*
X544324Y174324D01*
X545254Y173610D01*
X546338Y173162D01*
X547500Y173009D01*
X548662Y173162D01*
X549746Y173610D01*
X550676Y174324D01*
X551390Y175254D01*
X551723Y176059D01*
X552388Y176188D01*
X552612D01*
X553277Y176059D01*
X553611Y175254D01*
X554324Y174324D01*
X555254Y173610D01*
X556338Y173162D01*
X557500Y173009D01*
X558662Y173162D01*
X559746Y173610D01*
X560676Y174324D01*
X561389Y175254D01*
X561723Y176059D01*
X562388Y176188D01*
X562612D01*
X563277Y176059D01*
X563611Y175254D01*
X564324Y174324D01*
X565254Y173610D01*
X566338Y173162D01*
X567500Y173009D01*
X568662Y173162D01*
X569746Y173610D01*
X570676Y174324D01*
X571389Y175254D01*
X571723Y176059D01*
X572388Y176188D01*
X572612D01*
X573277Y176059D01*
X573610Y175254D01*
X574324Y174324D01*
X575254Y173610D01*
X576338Y173162D01*
X577500Y173009D01*
X578451Y173134D01*
X578669Y173059D01*
X579203Y172663D01*
X579762Y171994D01*
X579697Y171500D01*
X579792Y170774D01*
X580072Y170098D01*
X580518Y169518D01*
X581098Y169072D01*
X581774Y168792D01*
X582500Y168696D01*
X583226Y168792D01*
X583902Y169072D01*
X584482Y169518D01*
X584928Y170098D01*
X585208Y170774D01*
X585303Y171500D01*
X585208Y172226D01*
X585049Y172609D01*
Y197104D01*
X585428Y197598D01*
X585708Y198274D01*
X585784Y198851D01*
X586220Y199145D01*
X587250Y199506D01*
X596263Y190492D01*
X596292Y190274D01*
X596572Y189598D01*
X597018Y189018D01*
X597598Y188572D01*
X598274Y188292D01*
X599000Y188197D01*
X599726Y188292D01*
X600402Y188572D01*
X600982Y189018D01*
X601428Y189598D01*
X601708Y190274D01*
X601803Y191000D01*
X601708Y191726D01*
X601428Y192402D01*
X600982Y192982D01*
X600402Y193428D01*
X599726Y193708D01*
X599508Y193737D01*
X589797Y203448D01*
X589804Y203500D01*
X589708Y204226D01*
X589428Y204902D01*
X588982Y205482D01*
X588402Y205928D01*
X587726Y206208D01*
X587000Y206304D01*
X586274Y206208D01*
X585598Y205928D01*
X585018Y205482D01*
X584572Y204902D01*
X584292Y204226D01*
X584197Y203500D01*
X584250Y203094D01*
X584170Y202884D01*
X583698Y202296D01*
X583075Y201794D01*
X583000Y201803D01*
X582274Y201708D01*
X581598Y201428D01*
X581018Y200982D01*
X580572Y200402D01*
X580292Y199726D01*
X580287Y199688D01*
X580145Y199476D01*
X579951Y198500D01*
Y192928D01*
X578863Y192008D01*
X578451Y191866D01*
X577500Y191991D01*
X576338Y191838D01*
X575254Y191390D01*
X574324Y190676D01*
X573610Y189746D01*
X573277Y188941D01*
X572612Y188812D01*
X572388D01*
X571723Y188941D01*
X571389Y189746D01*
X570676Y190676D01*
X569746Y191390D01*
X568662Y191838D01*
X567500Y191991D01*
X566338Y191838D01*
X565254Y191390D01*
X564324Y190676D01*
X563611Y189746D01*
X563277Y188941D01*
X562612Y188812D01*
X562388D01*
X561723Y188941D01*
X561389Y189746D01*
X560676Y190676D01*
X559746Y191390D01*
X558662Y191838D01*
X557500Y191991D01*
X556338Y191838D01*
X555254Y191390D01*
X554324Y190676D01*
X553611Y189746D01*
X553277Y188941D01*
X552612Y188812D01*
X552388D01*
X551723Y188941D01*
X551390Y189746D01*
X550676Y190676D01*
X549746Y191390D01*
X548662Y191838D01*
X547500Y191991D01*
X546338Y191838D01*
X545254Y191390D01*
X544324Y190676D01*
X543610Y189746D01*
X543277Y188941D01*
X542612Y188812D01*
X542388D01*
X541723Y188941D01*
X541390Y189746D01*
X540676Y190676D01*
X539746Y191390D01*
X538662Y191838D01*
X537500Y191991D01*
X536338Y191838D01*
X535254Y191390D01*
X534324Y190676D01*
X533610Y189746D01*
X533277Y188941D01*
X532612Y188812D01*
X532388D01*
X531723Y188941D01*
X531390Y189746D01*
X530676Y190676D01*
X529746Y191390D01*
X528662Y191838D01*
X527500Y191991D01*
X526338Y191838D01*
X525254Y191390D01*
X524324Y190676D01*
X523610Y189746D01*
X523277Y188941D01*
X522612Y188812D01*
X522388D01*
X521723Y188941D01*
X521389Y189746D01*
X520676Y190676D01*
X519794Y191352D01*
Y207424D01*
X519928Y207598D01*
X520208Y208274D01*
X520303Y209000D01*
X520208Y209726D01*
X519928Y210402D01*
X519482Y210982D01*
X518902Y211428D01*
X518226Y211708D01*
X517500Y211804D01*
D02*
G37*
G36*
X501355Y186500D02*
X498500D01*
Y183645D01*
X498532Y183649D01*
X499493Y184047D01*
X500319Y184681D01*
X500953Y185507D01*
X501351Y186468D01*
X501355Y186500D01*
D02*
G37*
G36*
X496500D02*
X493645D01*
X493649Y186468D01*
X494047Y185507D01*
X494681Y184681D01*
X495507Y184047D01*
X496468Y183649D01*
X496500Y183645D01*
Y186500D01*
D02*
G37*
G36*
X491355D02*
X488500D01*
Y183645D01*
X488532Y183649D01*
X489493Y184047D01*
X490319Y184681D01*
X490953Y185507D01*
X491351Y186468D01*
X491355Y186500D01*
D02*
G37*
G36*
X486500D02*
X483645D01*
X483649Y186468D01*
X484047Y185507D01*
X484681Y184681D01*
X485507Y184047D01*
X486468Y183649D01*
X486500Y183645D01*
Y186500D01*
D02*
G37*
G36*
X622000Y200890D02*
X620375Y200762D01*
X618789Y200382D01*
X617283Y199758D01*
X615893Y198906D01*
X614653Y197847D01*
X613594Y196607D01*
X612742Y195217D01*
X612118Y193711D01*
X611738Y192125D01*
X611610Y190500D01*
X611738Y188875D01*
X612118Y187289D01*
X612742Y185783D01*
X613594Y184393D01*
X614653Y183153D01*
X615893Y182094D01*
X617283Y181242D01*
X618789Y180618D01*
X620375Y180238D01*
X622000Y180110D01*
X623625Y180238D01*
X625211Y180618D01*
X626717Y181242D01*
X628107Y182094D01*
X629347Y183153D01*
X630406Y184393D01*
X631258Y185783D01*
X631882Y187289D01*
X632262Y188875D01*
X632390Y190500D01*
X632262Y192125D01*
X631882Y193711D01*
X631258Y195217D01*
X630406Y196607D01*
X629347Y197847D01*
X628107Y198906D01*
X626717Y199758D01*
X625211Y200382D01*
X623625Y200762D01*
X622000Y200890D01*
D02*
G37*
G36*
X498500Y181355D02*
Y178500D01*
X501355D01*
X501351Y178532D01*
X500953Y179493D01*
X500319Y180319D01*
X499493Y180953D01*
X498532Y181351D01*
X498500Y181355D01*
D02*
G37*
G36*
X496500D02*
X496468Y181351D01*
X495507Y180953D01*
X494681Y180319D01*
X494047Y179493D01*
X493649Y178532D01*
X493645Y178500D01*
X496500D01*
Y181355D01*
D02*
G37*
G36*
X488500D02*
Y178500D01*
X491355D01*
X491351Y178532D01*
X490953Y179493D01*
X490319Y180319D01*
X489493Y180953D01*
X488532Y181351D01*
X488500Y181355D01*
D02*
G37*
G36*
X486500D02*
X486468Y181351D01*
X485507Y180953D01*
X484681Y180319D01*
X484047Y179493D01*
X483649Y178532D01*
X483645Y178500D01*
X486500D01*
Y181355D01*
D02*
G37*
G36*
X501355Y176500D02*
X498500D01*
Y173645D01*
X498532Y173649D01*
X499493Y174047D01*
X500319Y174681D01*
X500953Y175507D01*
X501351Y176468D01*
X501355Y176500D01*
D02*
G37*
G36*
X496500D02*
X493645D01*
X493649Y176468D01*
X494047Y175507D01*
X494681Y174681D01*
X495507Y174047D01*
X496468Y173649D01*
X496500Y173645D01*
Y176500D01*
D02*
G37*
G36*
X491355D02*
X488500D01*
Y173645D01*
X488532Y173649D01*
X489493Y174047D01*
X490319Y174681D01*
X490953Y175507D01*
X491351Y176468D01*
X491355Y176500D01*
D02*
G37*
G36*
X486500D02*
X483645D01*
X483649Y176468D01*
X484047Y175507D01*
X484681Y174681D01*
X485507Y174047D01*
X486468Y173649D01*
X486500Y173645D01*
Y176500D01*
D02*
G37*
%LPD*%
D13*
X609601Y326601D02*
X612750Y329750D01*
X612989Y334500D02*
X613000D01*
X612750Y334261D02*
X612989Y334500D01*
X612750Y329750D02*
Y334261D01*
X604184Y323500D02*
X607285Y326601D01*
X609601D01*
X587000Y203213D02*
Y203500D01*
Y203213D02*
X587500Y202713D01*
Y202500D02*
Y202713D01*
Y202500D02*
X599000Y191000D01*
X517500Y187500D02*
X517500Y187500D01*
X517500Y209000D02*
X517500Y209000D01*
Y187500D02*
Y209000D01*
X553500Y215500D02*
X563500D01*
X543500D02*
X553500D01*
D42*
X454000Y446500D02*
D03*
X656500D02*
D03*
D43*
X530000Y280500D02*
X537000D01*
X530000Y405000D02*
X537000D01*
X580000Y385000D02*
X587000D01*
X530000D02*
X537000D01*
X530000Y395000D02*
X537000D01*
X530000Y270500D02*
X537000D01*
X530000Y260500D02*
X537000D01*
X582500Y198500D02*
X583000Y199000D01*
X582500Y171500D02*
Y198500D01*
X613275Y223225D02*
X627591D01*
X640500Y350500D02*
Y360363D01*
X624500Y308500D02*
X634000Y299000D01*
X614500Y308500D02*
X624500D01*
X590484Y231500D02*
X605000D01*
X613275Y223225D01*
X580000Y240500D02*
X587000D01*
X580000Y250500D02*
X587000D01*
X580000Y260500D02*
X587000D01*
X530000Y240500D02*
X537000D01*
X530000Y250500D02*
X537000D01*
X530000Y230500D02*
X546000D01*
X580000Y375000D02*
X587000D01*
X580000Y365000D02*
X587000D01*
X580000Y355000D02*
X587000D01*
X530000D02*
X546000D01*
X530000Y375000D02*
X537000D01*
X530000Y365000D02*
X537000D01*
X584484Y225500D02*
X590484Y231500D01*
X583500Y225500D02*
X584484D01*
X505000Y299500D02*
X529500D01*
X548500Y336000D02*
Y345000D01*
X584800Y306865D02*
X584865Y306800D01*
X584800Y306865D02*
Y318100D01*
X548500Y345000D02*
X553500Y350000D01*
D44*
X647000Y240000D02*
Y247000D01*
Y226264D02*
Y240000D01*
X627591Y223335D02*
X644071D01*
X647000Y226264D01*
Y247000D02*
Y250500D01*
D46*
X540000Y326500D02*
X547000D01*
X496500Y336100D02*
X500400Y340000D01*
X517800D01*
X475500Y345000D02*
X482500D01*
X536500Y330500D02*
X543500D01*
X486000Y345000D02*
X519000D01*
X482500D02*
X486000D01*
X543500Y330500D02*
X547000D01*
X533500D02*
X536500D01*
X519000Y345000D02*
X533500Y330500D01*
X517800Y340000D02*
X531300Y326500D01*
X536500D01*
X540000D01*
X496500Y332967D02*
Y336100D01*
Y329833D02*
Y332967D01*
Y326700D02*
Y329833D01*
Y323567D02*
Y326700D01*
D48*
X553500Y225500D02*
D03*
Y235500D02*
D03*
X563500Y225500D02*
D03*
Y235500D02*
D03*
X573500Y225500D02*
D03*
X543500Y235500D02*
D03*
Y225500D02*
D03*
X553500Y215500D02*
D03*
X563500D02*
D03*
X573500D02*
D03*
X553500Y350000D02*
D03*
Y360000D02*
D03*
X563500Y350000D02*
D03*
Y360000D02*
D03*
X573500Y350000D02*
D03*
X543500Y360000D02*
D03*
Y350000D02*
D03*
X563500Y340000D02*
D03*
X553500D02*
D03*
X543500D02*
D03*
X507500Y187500D02*
D03*
Y177500D02*
D03*
X487500Y187500D02*
D03*
Y177500D02*
D03*
X457500Y187500D02*
D03*
X467500Y177500D02*
D03*
Y187500D02*
D03*
X477500Y177500D02*
D03*
Y187500D02*
D03*
X497500D02*
D03*
Y177500D02*
D03*
X517500D02*
D03*
Y187500D02*
D03*
X527500Y177500D02*
D03*
X537500D02*
D03*
X547500D02*
D03*
Y187500D02*
D03*
X537500D02*
D03*
X527500D02*
D03*
X557500Y177500D02*
D03*
Y187500D02*
D03*
X567500Y177500D02*
D03*
Y187500D02*
D03*
X577500Y177500D02*
D03*
Y187500D02*
D03*
D49*
X573500Y235500D02*
D03*
X543500Y215500D02*
D03*
X573500Y360000D02*
D03*
Y340000D02*
D03*
X457500Y177500D02*
D03*
D50*
X583500Y380000D02*
D03*
Y370000D02*
D03*
Y360000D02*
D03*
Y350000D02*
D03*
Y340000D02*
D03*
Y390000D02*
D03*
Y400000D02*
D03*
Y410000D02*
D03*
X533500D02*
D03*
Y400000D02*
D03*
Y390000D02*
D03*
Y340000D02*
D03*
Y350000D02*
D03*
Y360000D02*
D03*
Y370000D02*
D03*
Y380000D02*
D03*
X583500Y255500D02*
D03*
Y245500D02*
D03*
Y235500D02*
D03*
Y225500D02*
D03*
Y215500D02*
D03*
Y265500D02*
D03*
Y275500D02*
D03*
Y285500D02*
D03*
X533500D02*
D03*
Y275500D02*
D03*
Y265500D02*
D03*
Y215500D02*
D03*
Y225500D02*
D03*
Y235500D02*
D03*
Y245500D02*
D03*
Y255500D02*
D03*
D51*
X543500Y410000D02*
D03*
X553500D02*
D03*
X543500Y285500D02*
D03*
X553500D02*
D03*
D52*
X622000Y190500D02*
D03*
Y288886D02*
D03*
X621910Y421335D02*
D03*
Y322949D02*
D03*
D53*
X616409Y239693D02*
D03*
Y250598D02*
D03*
Y261504D02*
D03*
Y228787D02*
D03*
Y217882D02*
D03*
X627591Y234240D02*
D03*
Y223335D02*
D03*
Y245146D02*
D03*
Y256051D02*
D03*
X627500Y388500D02*
D03*
Y377594D02*
D03*
Y355784D02*
D03*
Y366689D02*
D03*
X616319Y350331D02*
D03*
Y361236D02*
D03*
Y393953D02*
D03*
Y383047D02*
D03*
Y372142D02*
D03*
D54*
X582500Y171500D02*
D03*
X612750Y334750D02*
D03*
X609313Y330315D02*
D03*
X604184Y323500D02*
D03*
X640500Y350500D02*
D03*
Y360363D02*
D03*
X634000Y299000D02*
D03*
X614500Y308500D02*
D03*
X609000Y303080D02*
D03*
X613000Y183000D02*
D03*
X472500Y168500D02*
D03*
Y173000D02*
D03*
X482573Y192573D02*
D03*
X492427D02*
D03*
X482427Y182427D02*
D03*
X502427D02*
D03*
X492427D02*
D03*
X443000Y168500D02*
D03*
X475833Y297500D02*
D03*
X469667D02*
D03*
X463500D02*
D03*
X500500D02*
D03*
X494333D02*
D03*
X488167D02*
D03*
X475833Y291333D02*
D03*
X469667D02*
D03*
X463500D02*
D03*
X500500D02*
D03*
X494333D02*
D03*
X488167D02*
D03*
X475833Y285167D02*
D03*
X469667D02*
D03*
X463500D02*
D03*
X500500D02*
D03*
X494333D02*
D03*
X488167D02*
D03*
X475833Y279000D02*
D03*
X469667D02*
D03*
X463500D02*
D03*
X500500D02*
D03*
X494333D02*
D03*
X488167D02*
D03*
X475833Y272833D02*
D03*
X469667D02*
D03*
X463500D02*
D03*
X500500D02*
D03*
X494333D02*
D03*
X488167D02*
D03*
X475833Y266667D02*
D03*
X469667D02*
D03*
X463500D02*
D03*
X500500D02*
D03*
X494333D02*
D03*
X488167D02*
D03*
X482000Y297500D02*
D03*
Y291333D02*
D03*
Y285167D02*
D03*
Y279000D02*
D03*
Y272833D02*
D03*
Y266667D02*
D03*
X488167Y260500D02*
D03*
X494333D02*
D03*
X500500D02*
D03*
X463500D02*
D03*
X469667D02*
D03*
X475833D02*
D03*
X482000D02*
D03*
X598500Y288920D02*
D03*
X593000Y225189D02*
D03*
X595500Y223189D02*
D03*
X598000Y220500D02*
D03*
X601500Y214000D02*
D03*
X647000Y250500D02*
D03*
Y240000D02*
D03*
X646935Y243500D02*
D03*
X647000Y247000D02*
D03*
X587000Y203500D02*
D03*
X599000Y191000D02*
D03*
X583000Y199000D02*
D03*
X529500Y299500D02*
D03*
X505000D02*
D03*
X482500Y345000D02*
D03*
X479000Y345065D02*
D03*
X475500Y345000D02*
D03*
X486000D02*
D03*
X543500Y330500D02*
D03*
X540000Y330565D02*
D03*
X536500Y330500D02*
D03*
X547000D02*
D03*
X548500Y336000D02*
D03*
X536500Y326500D02*
D03*
X547000D02*
D03*
X589500Y325500D02*
D03*
X539982Y432100D02*
D03*
X543500Y326435D02*
D03*
X540000Y326500D02*
D03*
X507947Y334000D02*
D03*
X601646Y410000D02*
D03*
X598646Y413000D02*
D03*
X496500Y323567D02*
D03*
Y336100D02*
D03*
Y332967D02*
D03*
Y329833D02*
D03*
Y326700D02*
D03*
X584765Y318100D02*
D03*
X584865Y306800D02*
D03*
X546721Y317379D02*
D03*
X550120D02*
D03*
X543361D02*
D03*
X539982Y317400D02*
D03*
X553500D02*
D03*
X553520Y307579D02*
D03*
X540002D02*
D03*
X543382Y307600D02*
D03*
X550141D02*
D03*
X546741D02*
D03*
X546721Y432121D02*
D03*
X550120D02*
D03*
X543361D02*
D03*
X553500Y432100D02*
D03*
X553479Y441921D02*
D03*
X539961D02*
D03*
X543341Y441900D02*
D03*
X550100D02*
D03*
X546700D02*
D03*
X453500Y378000D02*
D03*
X456646Y381146D02*
D03*
X506354Y318854D02*
D03*
X509500Y322000D02*
D03*
X456555Y324354D02*
D03*
X453409Y327500D02*
D03*
Y332681D02*
D03*
X479700Y312447D02*
D03*
X484700D02*
D03*
X482200Y310447D02*
D03*
X484700Y322553D02*
D03*
X479700D02*
D03*
X482200Y324553D02*
D03*
X471300Y322553D02*
D03*
X466300D02*
D03*
X468800Y324553D02*
D03*
X454553Y366000D02*
D03*
Y371000D02*
D03*
X456553Y368500D02*
D03*
X507947Y329000D02*
D03*
X505947Y331500D02*
D03*
X478153Y328000D02*
D03*
Y333000D02*
D03*
X480153Y330500D02*
D03*
X517500Y209000D02*
D03*
X593500Y301000D02*
D03*
X597603Y304250D02*
D03*
X609000Y181896D02*
D03*
X589547Y183276D02*
D03*
X593500Y180500D02*
D03*
X609000Y209128D02*
D03*
X606082Y209121D02*
D03*
X601500Y210500D02*
D03*
X592000Y208000D02*
D03*
X601424Y285465D02*
D03*
X605000Y226389D02*
D03*
X602500Y224389D02*
D03*
X607500D02*
D03*
X598000Y225189D02*
D03*
X605000Y271800D02*
D03*
X607500Y273800D02*
D03*
X602500D02*
D03*
X595500Y275000D02*
D03*
X593000Y273000D02*
D03*
X598000D02*
D03*
X601500Y335000D02*
D03*
X606582Y330121D02*
D03*
X592500Y328500D02*
D03*
X601500Y338500D02*
D03*
X612500Y305500D02*
D03*
X598000Y345000D02*
D03*
X602500Y399611D02*
D03*
X607500D02*
D03*
X605000Y397611D02*
D03*
X598000Y398811D02*
D03*
X593000D02*
D03*
X595500Y400811D02*
D03*
X607500Y350200D02*
D03*
X602500D02*
D03*
X605000Y352200D02*
D03*
X595500Y349000D02*
D03*
X598000Y351000D02*
D03*
X593000D02*
D03*
D55*
X664000Y432000D02*
D03*
Y416000D02*
D03*
Y400000D02*
D03*
Y384000D02*
D03*
Y368000D02*
D03*
Y352000D02*
D03*
Y336000D02*
D03*
Y320000D02*
D03*
Y304000D02*
D03*
Y288000D02*
D03*
Y272000D02*
D03*
Y256000D02*
D03*
Y240000D02*
D03*
Y224000D02*
D03*
Y208000D02*
D03*
Y192000D02*
D03*
Y176000D02*
D03*
X660000Y424000D02*
D03*
X656000Y416000D02*
D03*
X660000Y408000D02*
D03*
X656000Y400000D02*
D03*
X660000Y392000D02*
D03*
X656000Y384000D02*
D03*
X660000Y376000D02*
D03*
X656000Y368000D02*
D03*
X660000Y360000D02*
D03*
X656000Y352000D02*
D03*
X660000Y344000D02*
D03*
X656000Y336000D02*
D03*
X660000Y328000D02*
D03*
X656000Y320000D02*
D03*
X660000Y312000D02*
D03*
X656000Y304000D02*
D03*
X660000Y296000D02*
D03*
X656000Y288000D02*
D03*
X660000Y280000D02*
D03*
X656000Y272000D02*
D03*
X660000Y264000D02*
D03*
X656000Y256000D02*
D03*
X660000Y248000D02*
D03*
X656000Y240000D02*
D03*
X660000Y232000D02*
D03*
X656000Y224000D02*
D03*
X660000Y216000D02*
D03*
X656000Y208000D02*
D03*
X660000Y200000D02*
D03*
X656000Y192000D02*
D03*
X660000Y184000D02*
D03*
X656000Y176000D02*
D03*
X648000Y432000D02*
D03*
X652000Y216000D02*
D03*
X648000Y208000D02*
D03*
X652000Y200000D02*
D03*
X648000Y192000D02*
D03*
X652000Y184000D02*
D03*
X648000Y176000D02*
D03*
X640000Y448000D02*
D03*
Y416000D02*
D03*
Y400000D02*
D03*
X632000Y448000D02*
D03*
X636000Y424000D02*
D03*
Y408000D02*
D03*
X632000Y400000D02*
D03*
X636000Y392000D02*
D03*
Y376000D02*
D03*
Y344000D02*
D03*
X632000Y336000D02*
D03*
X636000Y328000D02*
D03*
X628000Y408000D02*
D03*
X624000Y400000D02*
D03*
X628000Y344000D02*
D03*
X624000Y336000D02*
D03*
X628000Y312000D02*
D03*
Y264000D02*
D03*
X624000Y240000D02*
D03*
X620000Y440000D02*
D03*
X616000Y432000D02*
D03*
X620000Y408000D02*
D03*
X616000Y272000D02*
D03*
X612000Y440000D02*
D03*
X608000Y432000D02*
D03*
Y416000D02*
D03*
X612000Y408000D02*
D03*
Y344000D02*
D03*
X608000Y336000D02*
D03*
X604000Y440000D02*
D03*
X600000Y432000D02*
D03*
X604000Y424000D02*
D03*
X600000Y416000D02*
D03*
X596000Y440000D02*
D03*
X592000Y432000D02*
D03*
X596000Y424000D02*
D03*
Y280000D02*
D03*
X588000Y424000D02*
D03*
X576000Y400000D02*
D03*
Y384000D02*
D03*
Y272000D02*
D03*
Y256000D02*
D03*
X568000Y416000D02*
D03*
X572000Y408000D02*
D03*
X568000Y400000D02*
D03*
X572000Y392000D02*
D03*
X568000Y384000D02*
D03*
X572000Y376000D02*
D03*
X568000Y304000D02*
D03*
Y288000D02*
D03*
X572000Y280000D02*
D03*
X568000Y272000D02*
D03*
X572000Y264000D02*
D03*
X568000Y256000D02*
D03*
X564000Y440000D02*
D03*
Y424000D02*
D03*
X560000Y416000D02*
D03*
X564000Y408000D02*
D03*
X560000Y400000D02*
D03*
X564000Y392000D02*
D03*
X560000Y320000D02*
D03*
X564000Y312000D02*
D03*
X560000Y304000D02*
D03*
X564000Y296000D02*
D03*
X560000Y288000D02*
D03*
X564000Y280000D02*
D03*
X560000Y272000D02*
D03*
X564000Y264000D02*
D03*
X552000Y416000D02*
D03*
Y400000D02*
D03*
X556000Y392000D02*
D03*
X552000Y304000D02*
D03*
X556000Y296000D02*
D03*
X552000Y272000D02*
D03*
X544000Y416000D02*
D03*
Y304000D02*
D03*
X548000Y296000D02*
D03*
X536000Y432000D02*
D03*
Y416000D02*
D03*
Y320000D02*
D03*
Y304000D02*
D03*
X540000Y296000D02*
D03*
X532000Y440000D02*
D03*
X528000Y432000D02*
D03*
Y416000D02*
D03*
X524000Y440000D02*
D03*
X520000Y432000D02*
D03*
X516000Y440000D02*
D03*
X512000Y432000D02*
D03*
X516000Y424000D02*
D03*
X512000Y400000D02*
D03*
Y384000D02*
D03*
Y320000D02*
D03*
X508000Y440000D02*
D03*
X504000Y432000D02*
D03*
X508000Y424000D02*
D03*
Y408000D02*
D03*
X504000Y400000D02*
D03*
X508000Y392000D02*
D03*
X504000Y384000D02*
D03*
Y256000D02*
D03*
Y240000D02*
D03*
Y224000D02*
D03*
X496000Y448000D02*
D03*
Y432000D02*
D03*
X500000Y424000D02*
D03*
Y408000D02*
D03*
X496000Y400000D02*
D03*
X500000Y392000D02*
D03*
X496000Y384000D02*
D03*
X500000Y376000D02*
D03*
X496000Y368000D02*
D03*
X500000Y360000D02*
D03*
X496000Y256000D02*
D03*
X500000Y248000D02*
D03*
Y232000D02*
D03*
X496000Y224000D02*
D03*
X500000Y216000D02*
D03*
X496000Y208000D02*
D03*
X488000Y448000D02*
D03*
X492000Y424000D02*
D03*
X488000Y416000D02*
D03*
X492000Y408000D02*
D03*
X488000Y400000D02*
D03*
X492000Y392000D02*
D03*
X488000Y384000D02*
D03*
X492000Y376000D02*
D03*
X488000Y368000D02*
D03*
X492000Y360000D02*
D03*
X488000Y352000D02*
D03*
Y256000D02*
D03*
X492000Y248000D02*
D03*
X488000Y224000D02*
D03*
X492000Y216000D02*
D03*
X488000Y208000D02*
D03*
X492000Y200000D02*
D03*
X480000Y448000D02*
D03*
X484000Y440000D02*
D03*
X480000Y432000D02*
D03*
X484000Y408000D02*
D03*
X480000Y400000D02*
D03*
X484000Y392000D02*
D03*
X480000Y384000D02*
D03*
X484000Y376000D02*
D03*
Y360000D02*
D03*
X480000Y336000D02*
D03*
Y256000D02*
D03*
X484000Y248000D02*
D03*
X480000Y224000D02*
D03*
X484000Y216000D02*
D03*
X480000Y208000D02*
D03*
X484000Y200000D02*
D03*
X472000Y448000D02*
D03*
X476000Y440000D02*
D03*
X472000Y432000D02*
D03*
Y256000D02*
D03*
X476000Y248000D02*
D03*
X472000Y240000D02*
D03*
X476000Y232000D02*
D03*
X472000Y224000D02*
D03*
X476000Y216000D02*
D03*
X472000Y208000D02*
D03*
X476000Y200000D02*
D03*
X472000Y192000D02*
D03*
X468000Y440000D02*
D03*
X464000Y432000D02*
D03*
X468000Y424000D02*
D03*
X464000Y400000D02*
D03*
Y384000D02*
D03*
X468000Y328000D02*
D03*
X464000Y256000D02*
D03*
X468000Y248000D02*
D03*
Y232000D02*
D03*
X464000Y224000D02*
D03*
X468000Y216000D02*
D03*
X464000Y208000D02*
D03*
X468000Y200000D02*
D03*
X460000Y424000D02*
D03*
X456000Y416000D02*
D03*
X460000Y408000D02*
D03*
X456000Y400000D02*
D03*
X460000Y392000D02*
D03*
X456000Y352000D02*
D03*
Y320000D02*
D03*
X448000Y432000D02*
D03*
X452000Y424000D02*
D03*
X448000Y416000D02*
D03*
X452000Y408000D02*
D03*
X448000Y400000D02*
D03*
X452000Y392000D02*
D03*
X448000Y384000D02*
D03*
X452000Y360000D02*
D03*
X448000Y352000D02*
D03*
X452000Y344000D02*
D03*
X448000Y336000D02*
D03*
Y320000D02*
D03*
X452000Y312000D02*
D03*
X448000Y304000D02*
D03*
M02*
