G04*
G04 #@! TF.GenerationSoftware,Altium Limited,Altium Designer,20.0.13 (296)*
G04*
G04 Layer_Color=32896*
%FSLAX25Y25*%
%MOIN*%
G70*
G01*
G75*
%ADD13C,0.01500*%
%ADD14C,0.00800*%
%ADD43C,0.02000*%
%ADD46C,0.03000*%
D13*
X507500Y170500D02*
Y172500D01*
X517500Y170500D02*
Y172500D01*
X527500Y170500D02*
Y172500D01*
X537500Y170500D02*
Y172500D01*
X547500Y170500D02*
Y172500D01*
X557500Y170500D02*
Y172500D01*
X507500Y170500D02*
X527500D01*
X537500D02*
X557500D01*
D14*
X501048Y169000D02*
X503048D01*
X501048Y171000D01*
Y171500D01*
X501548Y172000D01*
X502548D01*
X503048Y171500D01*
X563452Y169000D02*
X562452D01*
X562952D01*
Y172000D01*
X563452Y171500D01*
X567853Y199474D02*
X569267Y200888D01*
X570328Y199828D01*
X569621Y199121D01*
X570328Y199828D01*
X571388Y198767D01*
X567147D02*
X569267Y196647D01*
X568207Y195586D01*
X567500Y195586D01*
X567147Y195940D01*
X567147Y196647D01*
X568207Y197707D01*
X567147Y196647D01*
X566440D01*
X566086Y197000D01*
X566086Y197707D01*
X567147Y198767D01*
X565733Y193112D02*
X567147Y194526D01*
X564319D01*
X563966Y194879D01*
Y195586D01*
X564673Y196293D01*
X565379D01*
X567500Y209121D02*
X568914Y210534D01*
X569974Y209474D01*
X569267Y208767D01*
X569974Y209474D01*
X571034Y208414D01*
X566793D02*
X568914Y206293D01*
X567853Y205233D01*
X567147Y205233D01*
X566793Y205586D01*
X566793Y206293D01*
X567853Y207353D01*
X566793Y206293D01*
X566086D01*
X565733Y206647D01*
X565733Y207353D01*
X566793Y208414D01*
Y204172D02*
X566086Y203466D01*
X566440Y203819D01*
X564319Y205940D01*
X565026D01*
X579267Y200181D02*
X579267Y200888D01*
X579974Y201595D01*
X580681D01*
X581034Y201241D01*
X581034Y200534D01*
X580328Y199828D01*
X580328Y199121D01*
X580681Y198767D01*
X581388Y198767D01*
X582095Y199474D01*
Y200181D01*
X576793Y198414D02*
X578207Y199828D01*
X580328Y197707D01*
X578914Y196293D01*
X579267Y198767D02*
X578560Y198060D01*
X578207Y195586D02*
X576086Y197707D01*
X575026Y196647D01*
Y195940D01*
X575733Y195233D01*
X576440Y195233D01*
X577500Y196293D01*
X576793Y195586D02*
X576793Y194173D01*
X574673Y192052D02*
X576086Y193466D01*
X573259D01*
X572905Y193819D01*
X572905Y194526D01*
X573612Y195233D01*
X574319D01*
X578914Y209827D02*
X578914Y210534D01*
X579621Y211241D01*
X580328D01*
X580681Y210888D01*
X580681Y210181D01*
X579974Y209474D01*
X579974Y208767D01*
X580328Y208414D01*
X581034Y208414D01*
X581741Y209121D01*
Y209827D01*
X576440Y208060D02*
X577853Y209474D01*
X579974Y207353D01*
X578560Y205940D01*
X578914Y208414D02*
X578207Y207707D01*
X577853Y205233D02*
X575733Y207353D01*
X574673Y206293D01*
Y205586D01*
X575379Y204879D01*
X576086Y204879D01*
X577147Y205940D01*
X576440Y205233D02*
X576440Y203819D01*
X575733Y203112D02*
X575026Y202405D01*
X575379Y202759D01*
X573259Y204879D01*
X573966D01*
X549267Y200181D02*
X549267Y200888D01*
X549974Y201595D01*
X550681D01*
X551034Y201241D01*
X551034Y200534D01*
X550327Y199828D01*
X550327Y199121D01*
X550681Y198767D01*
X551388Y198767D01*
X552095Y199474D01*
Y200181D01*
X548207Y199828D02*
X546793Y198414D01*
X547500Y199121D01*
X549621Y197000D01*
X544672Y196293D02*
X546086Y197707D01*
X548207Y195586D01*
X546793Y194173D01*
X547147Y196647D02*
X546440Y195940D01*
X546086Y193466D02*
X543966Y195586D01*
X542905Y194526D01*
X542905Y193819D01*
X543612Y193112D01*
X544319D01*
X545379Y194173D01*
X549090Y210711D02*
X551211Y208591D01*
X550151Y207530D01*
X549444Y207530D01*
X548030Y208944D01*
X548030Y209651D01*
X549090Y210711D01*
X546970Y208591D02*
X546263Y207884D01*
X546616Y208237D01*
X548737Y206116D01*
X549090Y206470D01*
X548384Y205763D01*
X547323Y204703D02*
X545203Y206823D01*
X544142Y205763D01*
Y205056D01*
X544849Y204349D01*
X545556Y204349D01*
X546616Y205410D01*
X545910Y204703D02*
X545910Y203289D01*
X560327Y197707D02*
X558207Y199828D01*
X557147Y198767D01*
X557147Y198060D01*
X557853Y197353D01*
X558560Y197353D01*
X559621Y198414D01*
X558914Y197707D02*
X558914Y196293D01*
X556086Y197707D02*
X556793Y194173D01*
X554672Y196293D02*
X558207Y195586D01*
X558207Y209827D02*
X556793Y208414D01*
X557500Y209121D01*
X559621Y207000D01*
X556086Y207707D02*
X556793Y204172D01*
X554672Y206293D02*
X558207Y205586D01*
X536793Y208414D02*
X538207Y209827D01*
X540328Y207707D01*
X538914Y206293D01*
X539267Y208767D02*
X538560Y208060D01*
X538207Y205586D02*
X536086Y207707D01*
X536793Y204172D01*
X534672Y206293D01*
X540151Y201771D02*
X542271Y199651D01*
X541211Y198591D01*
X540504Y198591D01*
X539090Y200004D01*
X539090Y200711D01*
X540151Y201771D01*
X538030Y199651D02*
X537323Y198944D01*
X537677Y199297D01*
X539797Y197177D01*
X540151Y197530D01*
X539444Y196823D01*
X538384Y195763D02*
X536970Y197177D01*
X535556D01*
Y195763D01*
X536970Y194349D01*
X535910Y195410D01*
X537323Y196823D01*
X533082Y193996D02*
X533082Y194703D01*
X533789Y195410D01*
X534496D01*
X535910Y193996D01*
Y193289D01*
X535203Y192582D01*
X534496D01*
X533789Y193289D01*
X534496Y193996D01*
X528207Y209827D02*
X526793Y208414D01*
X527500Y209121D01*
X529621Y207000D01*
X526086Y207707D02*
X526793Y204172D01*
X524673Y206293D02*
X528207Y205586D01*
X530328Y197707D02*
X528207Y199828D01*
X527147Y198767D01*
X527147Y198060D01*
X527853Y197353D01*
X528560Y197353D01*
X529621Y198414D01*
X528914Y197707D02*
X528914Y196293D01*
X526086Y197707D02*
X526793Y194173D01*
X524673Y196293D02*
X528207Y195586D01*
X519091Y210711D02*
X521211Y208591D01*
X520151Y207530D01*
X519444Y207530D01*
X518030Y208944D01*
X518030Y209651D01*
X519091Y210711D01*
X516970Y208591D02*
X516263Y207884D01*
X516616Y208237D01*
X518737Y206116D01*
X519091Y206470D01*
X518384Y205763D01*
X517323Y204703D02*
X515203Y206823D01*
X514142Y205763D01*
Y205056D01*
X514849Y204349D01*
X515556Y204349D01*
X516616Y205410D01*
X515909Y204703D02*
X515909Y203289D01*
X519267Y200181D02*
X519267Y200888D01*
X519974Y201595D01*
X520681D01*
X521034Y201241D01*
X521034Y200534D01*
X520328Y199828D01*
X520328Y199121D01*
X520681Y198767D01*
X521388Y198767D01*
X522095Y199474D01*
Y200181D01*
X518207Y199828D02*
X516793Y198414D01*
X517500Y199121D01*
X519621Y197000D01*
X514673Y196293D02*
X516086Y197707D01*
X518207Y195586D01*
X516793Y194173D01*
X517147Y196647D02*
X516440Y195940D01*
X516086Y193466D02*
X513966Y195586D01*
X512905Y194526D01*
X512905Y193819D01*
X513612Y193112D01*
X514319D01*
X515379Y194173D01*
X510151Y201771D02*
X512271Y199651D01*
X511211Y198591D01*
X510504Y198591D01*
X509091Y200004D01*
X509091Y200711D01*
X510151Y201771D01*
X508030Y199651D02*
X507323Y198944D01*
X507677Y199297D01*
X509797Y197177D01*
X510151Y197530D01*
X509444Y196823D01*
X508384Y195763D02*
X506970Y197177D01*
X505556D01*
Y195763D01*
X506970Y194349D01*
X505909Y195410D01*
X507323Y196823D01*
X503082Y193996D02*
X503082Y194703D01*
X503789Y195410D01*
X504496D01*
X505909Y193996D01*
Y193289D01*
X505203Y192582D01*
X504496D01*
X503789Y193289D01*
X504496Y193996D01*
X506793Y208414D02*
X508207Y209827D01*
X510327Y207707D01*
X508914Y206293D01*
X509267Y208767D02*
X508560Y208060D01*
X508207Y205586D02*
X506086Y207707D01*
X506793Y204172D01*
X504672Y206293D01*
X496500Y203451D02*
X496000Y203951D01*
Y204951D01*
X496500Y205451D01*
X498500D01*
X499000Y204951D01*
Y203951D01*
X498500Y203451D01*
X497500D01*
Y204451D01*
X499000Y202452D02*
X496000D01*
X499000Y200452D01*
X496000D01*
Y199453D02*
X499000D01*
Y197953D01*
X498500Y197453D01*
X496500D01*
X496000Y197953D01*
Y199453D01*
X486500Y203451D02*
X486000Y203951D01*
Y204951D01*
X486500Y205451D01*
X488500D01*
X489000Y204951D01*
Y203951D01*
X488500Y203451D01*
X487500D01*
Y204451D01*
X489000Y202452D02*
X486000D01*
X489000Y200452D01*
X486000D01*
Y199453D02*
X489000D01*
Y197953D01*
X488500Y197453D01*
X486500D01*
X486000Y197953D01*
Y199453D01*
X477500Y208200D02*
Y206201D01*
X476500Y207200D02*
X478500D01*
X476500Y205201D02*
X476000Y204701D01*
Y203701D01*
X476500Y203202D01*
X477000D01*
X477500Y203701D01*
Y204201D01*
Y203701D01*
X478000Y203202D01*
X478500D01*
X479000Y203701D01*
Y204701D01*
X478500Y205201D01*
X479000Y202202D02*
X478500D01*
Y201702D01*
X479000D01*
Y202202D01*
X476500Y199703D02*
X476000Y199203D01*
Y198203D01*
X476500Y197703D01*
X477000D01*
X477500Y198203D01*
Y198703D01*
Y198203D01*
X478000Y197703D01*
X478500D01*
X479000Y198203D01*
Y199203D01*
X478500Y199703D01*
X476000Y196704D02*
X478000D01*
X479000Y195704D01*
X478000Y194704D01*
X476000D01*
X467500Y209450D02*
Y207450D01*
X466500Y208450D02*
X468500D01*
X468999Y206451D02*
Y205451D01*
Y205951D01*
X466001D01*
X466500Y206451D01*
X468999Y201952D02*
Y203951D01*
X467000Y201952D01*
X466500D01*
X466001Y202452D01*
Y203451D01*
X466500Y203951D01*
X468999Y200952D02*
X468500D01*
Y200452D01*
X468999D01*
Y200952D01*
X466500Y198453D02*
X466001Y197953D01*
Y196954D01*
X466500Y196454D01*
X468500D01*
X468999Y196954D01*
Y197953D01*
X468500Y198453D01*
X466500D01*
X466001Y195454D02*
X468000D01*
X468999Y194454D01*
X468000Y193455D01*
X466001D01*
X457500Y209450D02*
Y207450D01*
X456500Y208450D02*
X458500D01*
X458999Y206451D02*
Y205451D01*
Y205951D01*
X456001D01*
X456500Y206451D01*
X458999Y201952D02*
Y203951D01*
X457000Y201952D01*
X456500D01*
X456001Y202452D01*
Y203451D01*
X456500Y203951D01*
X458999Y200952D02*
X458500D01*
Y200452D01*
X458999D01*
Y200952D01*
X456500Y198453D02*
X456001Y197953D01*
Y196954D01*
X456500Y196454D01*
X458500D01*
X458999Y196954D01*
Y197953D01*
X458500Y198453D01*
X456500D01*
X456001Y195454D02*
X458000D01*
X458999Y194454D01*
X458000Y193455D01*
X456001D01*
D43*
X654335Y367243D02*
X661000D01*
X654335Y373908D01*
Y375574D01*
X656002Y377240D01*
X659334D01*
X661000Y375574D01*
X659334Y234794D02*
X656002D01*
X657668D01*
Y244791D01*
X659334Y243125D01*
D46*
X457502Y373480D02*
Y365482D01*
Y369481D01*
X469498D01*
Y361484D02*
X457502D01*
X461501Y357485D01*
X457502Y353486D01*
X469498D01*
X459502Y341490D02*
X457502Y343490D01*
Y347488D01*
X459502Y349488D01*
X467499D01*
X469498Y347488D01*
Y343490D01*
X467499Y341490D01*
X471498Y337492D02*
Y329494D01*
X459502Y317498D02*
X457502Y319497D01*
Y323496D01*
X459502Y325496D01*
X467499D01*
X469498Y323496D01*
Y319497D01*
X467499Y317498D01*
X469498Y313499D02*
X461501D01*
X457502Y309501D01*
X461501Y305502D01*
X469498D01*
X463500D01*
Y313499D01*
X469498Y301503D02*
X457502D01*
Y295505D01*
X459502Y293506D01*
X463500D01*
X465500Y295505D01*
Y301503D01*
Y297504D02*
X469498Y293506D01*
X457502Y289507D02*
X469498D01*
Y283509D01*
X467499Y281510D01*
X459502D01*
X457502Y283509D01*
Y289507D01*
X471498Y277511D02*
Y269514D01*
X461501Y265515D02*
X469498Y261516D01*
X461501Y257518D01*
X469498Y253519D02*
Y249520D01*
Y251519D01*
X457502D01*
X459502Y253519D01*
X513498Y325496D02*
Y333493D01*
X505501Y325496D01*
X503501D01*
X501502Y327495D01*
Y331493D01*
X503501Y333493D01*
Y321497D02*
X501502Y319497D01*
Y315499D01*
X503501Y313499D01*
X511499D01*
X513498Y315499D01*
Y319497D01*
X511499Y321497D01*
X503501D01*
X513498Y301503D02*
Y309501D01*
X505501Y301503D01*
X503501D01*
X501502Y303503D01*
Y307501D01*
X503501Y309501D01*
Y297504D02*
X501502Y295505D01*
Y291507D01*
X503501Y289507D01*
X511499D01*
X513498Y291507D01*
Y295505D01*
X511499Y297504D01*
X503501D01*
X480502Y351487D02*
X492498D01*
X488499D01*
X480502Y343490D01*
X486500Y349488D01*
X492498Y343490D01*
Y339491D02*
X480502D01*
X492498Y331493D01*
X480502D01*
Y319497D02*
Y327495D01*
X492498D01*
Y319497D01*
X486500Y327495D02*
Y323496D01*
X492498Y303503D02*
X484501D01*
X480502Y299504D01*
X484501Y295505D01*
X492498D01*
X486500D01*
Y303503D01*
X482501Y283509D02*
X480502Y285508D01*
Y289507D01*
X482501Y291507D01*
X490499D01*
X492498Y289507D01*
Y285508D01*
X490499Y283509D01*
X486500D01*
Y287508D01*
X480502Y279510D02*
X492498D01*
X486500D01*
Y271513D01*
X480502D01*
X492498D01*
M02*
