G04*
G04 #@! TF.GenerationSoftware,Altium Limited,Altium Designer,20.0.13 (296)*
G04*
G04 Layer_Color=65535*
%FSLAX25Y25*%
%MOIN*%
G70*
G01*
G75*
%ADD10C,0.01000*%
%ADD11C,0.00787*%
%ADD12C,0.00600*%
%ADD13C,0.01500*%
%ADD14C,0.00800*%
%ADD15R,0.01400X0.12000*%
D10*
X606047Y316486D02*
G03*
X606047Y316486I-1000J0D01*
G01*
X597453Y315014D02*
G03*
X597453Y315014I-1000J0D01*
G01*
X605547Y195486D02*
G03*
X605547Y195486I-1000J0D01*
G01*
X597453Y194014D02*
G03*
X597453Y194014I-1000J0D01*
G01*
X452815Y223689D02*
Y231000D01*
Y240000D02*
Y247311D01*
X492185Y240000D02*
Y255185D01*
Y215815D02*
Y231000D01*
X460689Y255185D02*
X492185D01*
X452815Y247311D02*
X460689Y255185D01*
Y215815D02*
X492185D01*
X452815Y223689D02*
X460689Y215815D01*
X469315Y405689D02*
Y413000D01*
Y422000D02*
Y429311D01*
X508685Y422000D02*
Y437185D01*
Y397815D02*
Y413000D01*
X477189Y437185D02*
X508685D01*
X469315Y429311D02*
X477189Y437185D01*
Y397815D02*
X508685D01*
X469315Y405689D02*
X477189Y397815D01*
X527500Y335000D02*
X589500Y335000D01*
Y415000D01*
X527500D02*
X589500D01*
X527500Y335000D02*
Y415000D01*
Y210500D02*
X589500Y210500D01*
Y290500D01*
X527500D02*
X589500D01*
X527500Y210500D02*
Y290500D01*
X575311Y332185D02*
X583185Y324311D01*
X543815Y332185D02*
X575311D01*
Y292815D02*
X583185Y300689D01*
X543815Y292815D02*
X575311D01*
X543815Y317000D02*
Y332185D01*
Y292815D02*
Y308000D01*
X583185Y300689D02*
Y308000D01*
Y317000D02*
Y324311D01*
X575311Y456685D02*
X583185Y448811D01*
X543815Y456685D02*
X575311D01*
Y417315D02*
X583185Y425189D01*
X543815Y417315D02*
X575311D01*
X543815Y441500D02*
Y456685D01*
Y417315D02*
Y432500D01*
X583185Y425189D02*
Y432500D01*
Y441500D02*
Y448811D01*
X667748Y179193D02*
Y300393D01*
X612600D02*
X667748D01*
X612600Y179193D02*
X667748D01*
X612600D02*
Y179293D01*
X667748Y207547D02*
X692984D01*
X693011D02*
Y271839D01*
X667748D02*
X693011D01*
X518575Y339925D02*
Y393075D01*
X465425D02*
X518575D01*
X465425Y353705D02*
Y393075D01*
Y339925D02*
Y353705D01*
Y339925D02*
X518575D01*
X667658Y404287D02*
X692921D01*
Y339996D02*
Y404287D01*
X667658Y339996D02*
X692894D01*
X612509Y311642D02*
Y311742D01*
Y311642D02*
X667658D01*
X612509Y432842D02*
X667658D01*
Y311642D02*
Y432842D01*
D11*
X538500Y240500D02*
X578500D01*
X538500Y220500D02*
X578500D01*
Y240500D01*
X538500Y220500D02*
Y240500D01*
X578500Y210500D02*
Y220500D01*
X538500Y210500D02*
X578500D01*
X538500Y220500D02*
X578500D01*
X538500Y210500D02*
Y220500D01*
X530055Y292319D02*
X531236D01*
X530055Y294681D02*
X531236D01*
X538500Y365000D02*
X578500D01*
X538500Y345000D02*
X578500D01*
Y365000D01*
X538500Y345000D02*
Y365000D01*
Y335000D02*
Y345000D01*
X578500D01*
X538500Y335000D02*
X578500D01*
Y345000D01*
X594909Y408819D02*
X596091D01*
X594909Y411181D02*
X596091D01*
X594410Y340319D02*
X595590D01*
X594410Y342681D02*
X595590D01*
X594410Y335319D02*
X595590D01*
X594410Y337681D02*
X595590D01*
X583910Y333181D02*
X585090D01*
X583910Y330819D02*
X585090D01*
X593681Y321764D02*
Y322945D01*
X591319Y321764D02*
Y322945D01*
X607819Y307909D02*
Y309090D01*
X610181Y307909D02*
Y309090D01*
X594764Y284319D02*
X595945D01*
X594764Y286681D02*
X595945D01*
X594410Y215819D02*
X595590D01*
X594410Y218181D02*
X595590D01*
X594410Y210819D02*
X595590D01*
X594410Y213181D02*
X595590D01*
X593181Y201409D02*
Y202591D01*
X590819Y201409D02*
Y202591D01*
X583410Y208681D02*
X584590D01*
X583410Y206319D02*
X584590D01*
X607819Y187409D02*
Y188591D01*
X610181Y187409D02*
Y188591D01*
X568681Y198909D02*
Y200091D01*
X566319Y198909D02*
Y200091D01*
X563681Y198909D02*
Y200091D01*
X561319Y198909D02*
Y200091D01*
X558681Y198909D02*
Y200091D01*
X556319Y198909D02*
Y200091D01*
X523181Y201909D02*
Y203091D01*
X520819Y201909D02*
Y203091D01*
X518181Y201909D02*
Y203091D01*
X515819Y201909D02*
Y203091D01*
X513181Y201909D02*
Y203091D01*
X510819Y201909D02*
Y203091D01*
X505000Y326000D02*
X509000D01*
X505000Y337000D02*
X509000D01*
X506181Y304909D02*
Y306090D01*
X503819Y304909D02*
Y306090D01*
X502910Y320819D02*
X504090D01*
X502910Y323181D02*
X504090D01*
X458819Y343862D02*
X460000D01*
X458819Y341500D02*
X460000D01*
X458819Y336500D02*
X460000D01*
X458819Y338862D02*
X460000D01*
X458819Y331500D02*
X460000D01*
X458819Y333862D02*
X460000D01*
X458819Y328681D02*
X460000D01*
X458819Y326319D02*
X460000D01*
X458910Y379181D02*
X460090D01*
X458910Y376819D02*
X460090D01*
X453500Y374000D02*
X457500D01*
X453500Y363000D02*
X457500D01*
X582500Y172500D02*
Y192500D01*
X452500Y172500D02*
Y192500D01*
X582500D01*
X452500Y172500D02*
X582500D01*
D12*
X608500Y395464D02*
Y400464D01*
X601500Y395464D02*
Y400464D01*
X599000Y384558D02*
Y389558D01*
X592000Y384558D02*
Y389558D01*
X599000Y360253D02*
Y365253D01*
X592000Y360253D02*
Y365253D01*
X608500Y349347D02*
Y354347D01*
X601500Y349347D02*
Y354347D01*
Y317450D02*
Y329450D01*
X604500D01*
Y318450D02*
Y329450D01*
X603500Y317450D02*
X604500Y318450D01*
X601500Y317450D02*
X603500D01*
X600000Y302050D02*
Y314050D01*
X597000Y302050D02*
X600000D01*
X597000D02*
Y313050D01*
X598000Y314050D01*
X600000D01*
X608500Y269653D02*
Y274653D01*
X601500Y269653D02*
Y274653D01*
X599000Y258747D02*
Y263747D01*
X592000Y258747D02*
Y263747D01*
X599000Y234442D02*
Y239442D01*
X592000Y234442D02*
Y239442D01*
X608500Y223536D02*
Y228536D01*
X601500Y223536D02*
Y228536D01*
X601000Y196450D02*
Y208450D01*
X604000D01*
Y197450D02*
Y208450D01*
X603000Y196450D02*
X604000Y197450D01*
X601000Y196450D02*
X603000D01*
X600000Y181050D02*
Y193050D01*
X597000Y181050D02*
X600000D01*
X597000D02*
Y192050D01*
X598000Y193050D01*
X600000D01*
X469800Y324500D02*
X494900D01*
X469800D02*
Y336500D01*
X494900D01*
X461200Y257900D02*
Y299900D01*
X503174D02*
X503227Y257900D01*
X497200Y299900D02*
X503174D01*
X461200D02*
X466700D01*
X461200Y257900D02*
X503227D01*
D13*
X444502Y388500D02*
X450500D01*
X448501D01*
X444502Y392499D01*
X447501Y389500D01*
X450500Y392499D01*
Y394498D02*
X444502D01*
X450500Y398497D01*
X444502D01*
Y404495D02*
Y400496D01*
X450500D01*
Y404495D01*
X447501Y400496D02*
Y402495D01*
X450500Y412492D02*
X446501D01*
X444502Y414492D01*
X446501Y416491D01*
X450500D01*
X447501D01*
Y412492D01*
X445502Y422489D02*
X444502Y421489D01*
Y419490D01*
X445502Y418490D01*
X449500D01*
X450500Y419490D01*
Y421489D01*
X449500Y422489D01*
X447501D01*
Y420490D01*
X444502Y424488D02*
X450500D01*
X447501D01*
Y428487D01*
X444502D01*
X450500D01*
X460500Y392499D02*
Y388500D01*
X456501Y392499D01*
X455502D01*
X454502Y391499D01*
Y389500D01*
X455502Y388500D01*
Y394498D02*
X454502Y395498D01*
Y397497D01*
X455502Y398497D01*
X459500D01*
X460500Y397497D01*
Y395498D01*
X459500Y394498D01*
X455502D01*
X460500Y404495D02*
Y400496D01*
X456501Y404495D01*
X455502D01*
X454502Y403495D01*
Y401496D01*
X455502Y400496D01*
Y406494D02*
X454502Y407494D01*
Y409493D01*
X455502Y410493D01*
X459500D01*
X460500Y409493D01*
Y407494D01*
X459500Y406494D01*
X455502D01*
X468500Y453498D02*
X472499D01*
X470499D01*
Y447500D01*
X474498D02*
Y453498D01*
X476497Y451498D01*
X478497Y453498D01*
Y447500D01*
X484495Y452498D02*
X483495Y453498D01*
X481496D01*
X480496Y452498D01*
Y448499D01*
X481496Y447500D01*
X483495D01*
X484495Y448499D01*
X486494Y446500D02*
X490493D01*
X496491Y452498D02*
X495491Y453498D01*
X493492D01*
X492492Y452498D01*
Y448499D01*
X493492Y447500D01*
X495491D01*
X496491Y448499D01*
X498490Y447500D02*
Y451498D01*
X500490Y453498D01*
X502489Y451498D01*
Y447500D01*
Y450499D01*
X498490D01*
X504488Y447500D02*
Y453498D01*
X507487D01*
X508487Y452498D01*
Y450499D01*
X507487Y449499D01*
X504488D01*
X506488D02*
X508487Y447500D01*
X510486Y453498D02*
Y447500D01*
X513485D01*
X514485Y448499D01*
Y452498D01*
X513485Y453498D01*
X510486D01*
X516484Y446500D02*
X520483D01*
X522482Y451498D02*
X524482Y447500D01*
X526481Y451498D01*
X528481Y447500D02*
X530480D01*
X529480D01*
Y453498D01*
X528481Y452498D01*
D14*
X498501Y442000D02*
X498001Y442499D01*
X497001D01*
X496501Y442000D01*
Y440000D01*
X497001Y439501D01*
X498001D01*
X498501Y440000D01*
X501500Y439501D02*
X499500D01*
X501500Y441500D01*
Y442000D01*
X501000Y442499D01*
X500000D01*
X499500Y442000D01*
X502499Y442499D02*
X504499D01*
Y442000D01*
X502499Y440000D01*
Y439501D01*
X496000Y247501D02*
X495501Y247001D01*
Y246001D01*
X496000Y245501D01*
X498000D01*
X498499Y246001D01*
Y247001D01*
X498000Y247501D01*
X498499Y250500D02*
Y248500D01*
X496500Y250500D01*
X496000D01*
X495501Y250000D01*
Y249000D01*
X496000Y248500D01*
X495501Y253499D02*
X496000Y252499D01*
X497000Y251499D01*
X498000D01*
X498499Y251999D01*
Y252999D01*
X498000Y253499D01*
X497500D01*
X497000Y252999D01*
Y251499D01*
X446501Y328500D02*
X446001Y328999D01*
X445001D01*
X444501Y328500D01*
Y326500D01*
X445001Y326000D01*
X446001D01*
X446501Y326500D01*
X449500Y326000D02*
X447500D01*
X449500Y328000D01*
Y328500D01*
X449000Y328999D01*
X448000D01*
X447500Y328500D01*
X452499Y328999D02*
X450499D01*
Y327500D01*
X451499Y328000D01*
X451999D01*
X452499Y327500D01*
Y326500D01*
X451999Y326000D01*
X450999D01*
X450499Y326500D01*
X524500Y404502D02*
X521500D01*
X522500Y405502D01*
X521500Y406501D01*
X524500D01*
X521500Y409000D02*
Y408001D01*
X522000Y407501D01*
X524000D01*
X524500Y408001D01*
Y409000D01*
X524000Y409500D01*
X522000D01*
X521500Y409000D01*
Y410500D02*
X524500D01*
Y411999D01*
X524000Y412499D01*
X522000D01*
X521500Y411999D01*
Y410500D01*
X524500Y415498D02*
Y413499D01*
X522500Y415498D01*
X522000D01*
X521500Y414998D01*
Y413999D01*
X522000Y413499D01*
X525000Y280002D02*
X522001D01*
X523000Y281001D01*
X522001Y282001D01*
X525000D01*
X522001Y284500D02*
Y283501D01*
X522500Y283001D01*
X524500D01*
X525000Y283501D01*
Y284500D01*
X524500Y285000D01*
X522500D01*
X522001Y284500D01*
Y286000D02*
X525000D01*
Y287499D01*
X524500Y287999D01*
X522500D01*
X522001Y287499D01*
Y286000D01*
X525000Y288999D02*
Y289998D01*
Y289498D01*
X522001D01*
X522500Y288999D01*
X585001Y198001D02*
X587500D01*
X587999Y198501D01*
Y199500D01*
X587500Y200000D01*
X585001D01*
Y202999D02*
Y201000D01*
X586500D01*
X586000Y201999D01*
Y202499D01*
X586500Y202999D01*
X587500D01*
X587999Y202499D01*
Y201500D01*
X587500Y201000D01*
X591001Y333500D02*
Y331000D01*
X591501Y330501D01*
X592500D01*
X593000Y331000D01*
Y333500D01*
X595499Y330501D02*
Y333500D01*
X594000Y332000D01*
X595999D01*
X596001Y178999D02*
Y176500D01*
X596501Y176000D01*
X597500D01*
X598000Y176500D01*
Y178999D01*
X599000Y178500D02*
X599500Y178999D01*
X600499D01*
X600999Y178500D01*
Y178000D01*
X600499Y177500D01*
X600000D01*
X600499D01*
X600999Y177000D01*
Y176500D01*
X600499Y176000D01*
X599500D01*
X599000Y176500D01*
X596501Y299999D02*
Y297500D01*
X597001Y297001D01*
X598000D01*
X598500Y297500D01*
Y299999D01*
X601499Y297001D02*
X599500D01*
X601499Y299000D01*
Y299500D01*
X600999Y299999D01*
X600000D01*
X599500Y299500D01*
X554000Y196751D02*
X551000D01*
Y198251D01*
X551500Y198751D01*
X552500D01*
X553000Y198251D01*
Y196751D01*
Y197751D02*
X554000Y198751D01*
Y199750D02*
Y200750D01*
Y200250D01*
X551000D01*
X551500Y199750D01*
Y202249D02*
X551000Y202749D01*
Y203749D01*
X551500Y204249D01*
X552000D01*
X552500Y203749D01*
Y203249D01*
Y203749D01*
X553000Y204249D01*
X553500D01*
X554000Y203749D01*
Y202749D01*
X553500Y202249D01*
X543999Y196751D02*
X541001D01*
Y198251D01*
X541500Y198751D01*
X542500D01*
X543000Y198251D01*
Y196751D01*
Y197751D02*
X543999Y198751D01*
Y199750D02*
Y200750D01*
Y200250D01*
X541001D01*
X541500Y199750D01*
X543999Y204249D02*
Y202249D01*
X542000Y204249D01*
X541500D01*
X541001Y203749D01*
Y202749D01*
X541500Y202249D01*
X549000Y196751D02*
X546000D01*
Y198251D01*
X546500Y198751D01*
X547500D01*
X548000Y198251D01*
Y196751D01*
Y197751D02*
X549000Y198751D01*
X546000Y201750D02*
X546500Y200750D01*
X547500Y199750D01*
X548500D01*
X549000Y200250D01*
Y201250D01*
X548500Y201750D01*
X548000D01*
X547500Y201250D01*
Y199750D01*
X573001Y205501D02*
Y208500D01*
X574500D01*
X575000Y208000D01*
Y207000D01*
X574500Y206500D01*
X573001D01*
X574001D02*
X575000Y205501D01*
X577999Y208500D02*
X576000D01*
Y207000D01*
X577000Y207500D01*
X577499D01*
X577999Y207000D01*
Y206000D01*
X577499Y205501D01*
X576500D01*
X576000Y206000D01*
X528001Y297001D02*
Y299999D01*
X529500D01*
X530000Y299500D01*
Y298500D01*
X529500Y298000D01*
X528001D01*
X529001D02*
X530000Y297001D01*
X532499D02*
Y299999D01*
X531000Y298500D01*
X532999D01*
X447500Y336501D02*
Y339499D01*
X449000D01*
X449500Y339000D01*
Y338000D01*
X449000Y337500D01*
X447500D01*
X448500D02*
X449500Y336501D01*
X450499Y339000D02*
X450999Y339499D01*
X451999D01*
X452499Y339000D01*
Y338500D01*
X451999Y338000D01*
X451499D01*
X451999D01*
X452499Y337500D01*
Y337000D01*
X451999Y336501D01*
X450999D01*
X450499Y337000D01*
X447500Y341500D02*
Y344499D01*
X449000D01*
X449500Y344000D01*
Y343000D01*
X449000Y342500D01*
X447500D01*
X448500D02*
X449500Y341500D01*
X452499D02*
X450499D01*
X452499Y343500D01*
Y344000D01*
X451999Y344499D01*
X450999D01*
X450499Y344000D01*
X525499Y217001D02*
X522501D01*
Y218500D01*
X523000Y219000D01*
X524000D01*
X524500Y218500D01*
Y217001D01*
X522501Y221999D02*
Y220000D01*
X524000D01*
X523500Y221000D01*
Y221499D01*
X524000Y221999D01*
X525000D01*
X525499Y221499D01*
Y220500D01*
X525000Y220000D01*
X525499Y224501D02*
X522501D01*
Y226000D01*
X523000Y226500D01*
X524000D01*
X524500Y226000D01*
Y224501D01*
X525499Y229499D02*
Y227500D01*
X523500Y229499D01*
X523000D01*
X522501Y228999D01*
Y228000D01*
X523000Y227500D01*
X452900Y195700D02*
Y198699D01*
X454399D01*
X454899Y198199D01*
Y197199D01*
X454399Y196700D01*
X452900D01*
X455899Y195700D02*
X456899D01*
X456399D01*
Y198699D01*
X455899Y198199D01*
X607000Y290000D02*
Y289001D01*
Y289500D01*
X609500D01*
X610000Y289001D01*
Y288501D01*
X609500Y288001D01*
X610000Y292999D02*
Y291000D01*
X608000Y292999D01*
X607500D01*
X607000Y292499D01*
Y291500D01*
X607500Y291000D01*
X613699Y439188D02*
X612700D01*
X613200D01*
Y436689D01*
X612700Y436189D01*
X612200D01*
X611700Y436689D01*
X614699Y436189D02*
X615699D01*
X615199D01*
Y439188D01*
X614699Y438688D01*
X604001Y213000D02*
X603501Y213499D01*
X602501D01*
X602001Y213000D01*
Y211000D01*
X602501Y210501D01*
X603501D01*
X604001Y211000D01*
X607000Y210501D02*
X605000D01*
X607000Y212500D01*
Y213000D01*
X606500Y213499D01*
X605500D01*
X605000Y213000D01*
X609499Y210501D02*
Y213499D01*
X607999Y212000D01*
X609999D01*
X593501Y222500D02*
X593001Y223000D01*
X592001D01*
X591501Y222500D01*
Y220500D01*
X592001Y220001D01*
X593001D01*
X593501Y220500D01*
X596500Y220001D02*
X594500D01*
X596500Y222000D01*
Y222500D01*
X596000Y223000D01*
X595000D01*
X594500Y222500D01*
X597499D02*
X597999Y223000D01*
X598999D01*
X599499Y222500D01*
Y222000D01*
X598999Y221500D01*
X598499D01*
X598999D01*
X599499Y221000D01*
Y220500D01*
X598999Y220001D01*
X597999D01*
X597499Y220500D01*
X603501Y240000D02*
X603001Y240499D01*
X602001D01*
X601501Y240000D01*
Y238000D01*
X602001Y237501D01*
X603001D01*
X603501Y238000D01*
X606499Y237501D02*
X604500D01*
X606499Y239500D01*
Y240000D01*
X606000Y240499D01*
X605000D01*
X604500Y240000D01*
X609499Y237501D02*
X607499D01*
X609499Y239500D01*
Y240000D01*
X608999Y240499D01*
X607999D01*
X607499Y240000D01*
X603501Y245000D02*
X603001Y245499D01*
X602001D01*
X601501Y245000D01*
Y243000D01*
X602001Y242500D01*
X603001D01*
X603501Y243000D01*
X606499Y242500D02*
X604500D01*
X606499Y244500D01*
Y245000D01*
X606000Y245499D01*
X605000D01*
X604500Y245000D01*
X607499Y242500D02*
X608499D01*
X607999D01*
Y245499D01*
X607499Y245000D01*
X603501Y260000D02*
X603001Y260500D01*
X602001D01*
X601501Y260000D01*
Y258000D01*
X602001Y257501D01*
X603001D01*
X603501Y258000D01*
X604500Y257501D02*
X605500D01*
X605000D01*
Y260500D01*
X604500Y260000D01*
X608999Y257501D02*
X606999D01*
X608999Y259500D01*
Y260000D01*
X608499Y260500D01*
X607499D01*
X606999Y260000D01*
X603501Y255000D02*
X603001Y255500D01*
X602001D01*
X601501Y255000D01*
Y253000D01*
X602001Y252501D01*
X603001D01*
X603501Y253000D01*
X604500Y252501D02*
X605500D01*
X605000D01*
Y255500D01*
X604500Y255000D01*
X606999Y252501D02*
X607999D01*
X607499D01*
Y255500D01*
X606999Y255000D01*
X603751Y411500D02*
X603251Y412000D01*
X602251D01*
X601751Y411500D01*
Y409500D01*
X602251Y409000D01*
X603251D01*
X603751Y409500D01*
X604750Y409000D02*
X605750D01*
X605250D01*
Y412000D01*
X604750Y411500D01*
X607249D02*
X607749Y412000D01*
X608749D01*
X609249Y411500D01*
Y409500D01*
X608749Y409000D01*
X607749D01*
X607249Y409500D01*
Y411500D01*
X536500Y327500D02*
X536000Y327000D01*
Y326001D01*
X536500Y325501D01*
X538500D01*
X539000Y326001D01*
Y327000D01*
X538500Y327500D01*
Y328500D02*
X539000Y329000D01*
Y329999D01*
X538500Y330499D01*
X536500D01*
X536000Y329999D01*
Y329000D01*
X536500Y328500D01*
X537000D01*
X537500Y329000D01*
Y330499D01*
X586500Y320000D02*
X586000Y319500D01*
Y318501D01*
X586500Y318001D01*
X588500D01*
X589000Y318501D01*
Y319500D01*
X588500Y320000D01*
X586500Y321000D02*
X586000Y321500D01*
Y322499D01*
X586500Y322999D01*
X587000D01*
X587500Y322499D01*
X588000Y322999D01*
X588500D01*
X589000Y322499D01*
Y321500D01*
X588500Y321000D01*
X588000D01*
X587500Y321500D01*
X587000Y321000D01*
X586500D01*
X587500Y321500D02*
Y322499D01*
X580500Y200000D02*
X580000Y199500D01*
Y198501D01*
X580500Y198001D01*
X582500D01*
X583000Y198501D01*
Y199500D01*
X582500Y200000D01*
X580000Y201000D02*
Y202999D01*
X580500D01*
X582500Y201000D01*
X583000D01*
X608000Y300000D02*
X607501Y299500D01*
Y298501D01*
X608000Y298001D01*
X610000D01*
X610499Y298501D01*
Y299500D01*
X610000Y300000D01*
X607501Y302999D02*
X608000Y301999D01*
X609000Y301000D01*
X610000D01*
X610499Y301500D01*
Y302499D01*
X610000Y302999D01*
X609500D01*
X609000Y302499D01*
Y301000D01*
X608000Y179000D02*
X607501Y178500D01*
Y177501D01*
X608000Y177001D01*
X610000D01*
X610499Y177501D01*
Y178500D01*
X610000Y179000D01*
X607501Y181999D02*
Y180000D01*
X609000D01*
X608500Y181000D01*
Y181499D01*
X609000Y181999D01*
X610000D01*
X610499Y181499D01*
Y180500D01*
X610000Y180000D01*
X456500Y291501D02*
X459000D01*
X459500Y292001D01*
Y293000D01*
X459000Y293500D01*
X456500D01*
X459500Y294500D02*
Y295499D01*
Y295000D01*
X456500D01*
X457000Y294500D01*
X523499Y208501D02*
X520501D01*
Y210000D01*
X521000Y210500D01*
X522000D01*
X522500Y210000D01*
Y208501D01*
Y209501D02*
X523499Y210500D01*
Y211500D02*
Y212499D01*
Y212000D01*
X520501D01*
X521000Y211500D01*
X523499Y213999D02*
Y214999D01*
Y214499D01*
X520501D01*
X521000Y213999D01*
X518500Y208501D02*
X515500D01*
Y210000D01*
X516000Y210500D01*
X517000D01*
X517500Y210000D01*
Y208501D01*
Y209501D02*
X518500Y210500D01*
Y211500D02*
Y212499D01*
Y212000D01*
X515500D01*
X516000Y211500D01*
Y213999D02*
X515500Y214499D01*
Y215498D01*
X516000Y215998D01*
X518000D01*
X518500Y215498D01*
Y214499D01*
X518000Y213999D01*
X516000D01*
X513499Y208501D02*
X510500D01*
Y210000D01*
X511000Y210500D01*
X512000D01*
X512500Y210000D01*
Y208501D01*
Y209501D02*
X513499Y210500D01*
X513000Y211500D02*
X513499Y212000D01*
Y212999D01*
X513000Y213499D01*
X511000D01*
X510500Y212999D01*
Y212000D01*
X511000Y211500D01*
X511500D01*
X512000Y212000D01*
Y213499D01*
X584501Y326000D02*
Y328999D01*
X586000D01*
X586500Y328500D01*
Y327500D01*
X586000Y327000D01*
X584501D01*
X585500D02*
X586500Y326000D01*
X587500Y328500D02*
X588000Y328999D01*
X588999D01*
X589499Y328500D01*
Y328000D01*
X588999Y327500D01*
X589499Y327000D01*
Y326500D01*
X588999Y326000D01*
X588000D01*
X587500Y326500D01*
Y327000D01*
X588000Y327500D01*
X587500Y328000D01*
Y328500D01*
X588000Y327500D02*
X588999D01*
X511500Y303001D02*
X508500D01*
Y304500D01*
X509000Y305000D01*
X510000D01*
X510500Y304500D01*
Y303001D01*
Y304000D02*
X511500Y305000D01*
X508500Y306000D02*
Y307999D01*
X509000D01*
X511000Y306000D01*
X511500D01*
X448500Y331000D02*
Y333999D01*
X450000D01*
X450499Y333500D01*
Y332500D01*
X450000Y332000D01*
X448500D01*
X449500D02*
X450499Y331000D01*
X451499D02*
X452499D01*
X451999D01*
Y333999D01*
X451499Y333500D01*
X525499Y337501D02*
X522501D01*
Y339000D01*
X523000Y339500D01*
X524000D01*
X524500Y339000D01*
Y337501D01*
X525499Y341999D02*
X522501D01*
X524000Y340500D01*
Y342499D01*
X525499Y348001D02*
X522501D01*
Y349500D01*
X523000Y350000D01*
X524000D01*
X524500Y349500D01*
Y348001D01*
X523000Y351000D02*
X522501Y351500D01*
Y352499D01*
X523000Y352999D01*
X523500D01*
X524000Y352499D01*
Y351999D01*
Y352499D01*
X524500Y352999D01*
X525000D01*
X525499Y352499D01*
Y351500D01*
X525000Y351000D01*
X467501Y398000D02*
Y395001D01*
X469500D01*
X470500D02*
X471499D01*
X470999D01*
Y398000D01*
X470500Y397500D01*
X465000Y332501D02*
X468000D01*
Y334000D01*
X467500Y334500D01*
X465500D01*
X465000Y334000D01*
Y332501D01*
X468000Y335500D02*
Y336499D01*
Y335999D01*
X465000D01*
X465500Y335500D01*
X593501Y347000D02*
X593001Y347499D01*
X592001D01*
X591501Y347000D01*
Y345000D01*
X592001Y344500D01*
X593001D01*
X593501Y345000D01*
X596500Y344500D02*
X594500D01*
X596500Y346500D01*
Y347000D01*
X596000Y347499D01*
X595000D01*
X594500Y347000D01*
X597499D02*
X597999Y347499D01*
X598999D01*
X599499Y347000D01*
Y345000D01*
X598999Y344500D01*
X597999D01*
X597499Y345000D01*
Y347000D01*
X604251Y337500D02*
X603751Y338000D01*
X602751D01*
X602251Y337500D01*
Y335500D01*
X602751Y335000D01*
X603751D01*
X604251Y335500D01*
X605250Y335000D02*
X606250D01*
X605750D01*
Y338000D01*
X605250Y337500D01*
X607749Y335500D02*
X608249Y335000D01*
X609249D01*
X609749Y335500D01*
Y337500D01*
X609249Y338000D01*
X608249D01*
X607749Y337500D01*
Y337000D01*
X608249Y336500D01*
X609749D01*
X603251Y365500D02*
X602751Y366000D01*
X601751D01*
X601251Y365500D01*
Y363500D01*
X601751Y363000D01*
X602751D01*
X603251Y363500D01*
X604250Y363000D02*
X605250D01*
X604750D01*
Y366000D01*
X604250Y365500D01*
X606749D02*
X607249Y366000D01*
X608249D01*
X608749Y365500D01*
Y365000D01*
X608249Y364500D01*
X608749Y364000D01*
Y363500D01*
X608249Y363000D01*
X607249D01*
X606749Y363500D01*
Y364000D01*
X607249Y364500D01*
X606749Y365000D01*
Y365500D01*
X607249Y364500D02*
X608249D01*
X603251Y371000D02*
X602751Y371499D01*
X601751D01*
X601251Y371000D01*
Y369000D01*
X601751Y368500D01*
X602751D01*
X603251Y369000D01*
X604250Y368500D02*
X605250D01*
X604750D01*
Y371499D01*
X604250Y371000D01*
X606749Y371499D02*
X608749D01*
Y371000D01*
X606749Y369000D01*
Y368500D01*
X603251Y385000D02*
X602751Y385500D01*
X601751D01*
X601251Y385000D01*
Y383000D01*
X601751Y382501D01*
X602751D01*
X603251Y383000D01*
X604250Y382501D02*
X605250D01*
X604750D01*
Y385500D01*
X604250Y385000D01*
X608749Y385500D02*
X607749Y385000D01*
X606749Y384000D01*
Y383000D01*
X607249Y382501D01*
X608249D01*
X608749Y383000D01*
Y383500D01*
X608249Y384000D01*
X606749D01*
X603251Y380000D02*
X602751Y380500D01*
X601751D01*
X601251Y380000D01*
Y378000D01*
X601751Y377501D01*
X602751D01*
X603251Y378000D01*
X604250Y377501D02*
X605250D01*
X604750D01*
Y380500D01*
X604250Y380000D01*
X608749Y380500D02*
X606749D01*
Y379000D01*
X607749Y379500D01*
X608249D01*
X608749Y379000D01*
Y378000D01*
X608249Y377501D01*
X607249D01*
X606749Y378000D01*
X603751Y286500D02*
X603251Y287000D01*
X602251D01*
X601751Y286500D01*
Y284500D01*
X602251Y284000D01*
X603251D01*
X603751Y284500D01*
X604750Y284000D02*
X605750D01*
X605250D01*
Y287000D01*
X604750Y286500D01*
X608749Y284000D02*
Y287000D01*
X607249Y285500D01*
X609249D01*
X538500Y447251D02*
X538000Y446751D01*
Y445751D01*
X538500Y445251D01*
X540500D01*
X541000Y445751D01*
Y446751D01*
X540500Y447251D01*
X541000Y448250D02*
Y449250D01*
Y448750D01*
X538000D01*
X538500Y448250D01*
Y450749D02*
X538000Y451249D01*
Y452249D01*
X538500Y452749D01*
X539000D01*
X539500Y452249D01*
Y451749D01*
Y452249D01*
X540000Y452749D01*
X540500D01*
X541000Y452249D01*
Y451249D01*
X540500Y450749D01*
X459000Y383500D02*
X458500Y383999D01*
X457501D01*
X457001Y383500D01*
Y381500D01*
X457501Y381000D01*
X458500D01*
X459000Y381500D01*
X461499Y381000D02*
Y383999D01*
X460000Y382500D01*
X461999D01*
X448500Y379000D02*
X448000Y379500D01*
X447001D01*
X446501Y379000D01*
Y377000D01*
X447001Y376501D01*
X448000D01*
X448500Y377000D01*
X449500Y379000D02*
X450000Y379500D01*
X450999D01*
X451499Y379000D01*
Y378500D01*
X450999Y378000D01*
X450499D01*
X450999D01*
X451499Y377500D01*
Y377000D01*
X450999Y376501D01*
X450000D01*
X449500Y377000D01*
X511000Y323000D02*
X510500Y323499D01*
X509501D01*
X509001Y323000D01*
Y321000D01*
X509501Y320500D01*
X510500D01*
X511000Y321000D01*
X513999Y320500D02*
X512000D01*
X513999Y322500D01*
Y323000D01*
X513499Y323499D01*
X512500D01*
X512000Y323000D01*
X517500Y332000D02*
X517000Y331500D01*
Y330501D01*
X517500Y330001D01*
X519500D01*
X520000Y330501D01*
Y331500D01*
X519500Y332000D01*
X520000Y333000D02*
Y333999D01*
Y333500D01*
X517000D01*
X517500Y333000D01*
D15*
X494600Y330500D02*
D03*
M02*
