G04*
G04 #@! TF.GenerationSoftware,Altium Limited,Altium Designer,20.0.13 (296)*
G04*
G04 Layer_Color=8388736*
%FSLAX25Y25*%
%MOIN*%
G70*
G01*
G75*
%ADD26R,0.17335X0.06706*%
%ADD27R,0.03753X0.03950*%
%ADD28R,0.07800X0.07200*%
%ADD29R,0.05800X0.03300*%
%ADD30R,0.03950X0.03753*%
%ADD31R,0.12217X0.22060*%
%ADD32R,0.06200X0.12800*%
%ADD33R,0.06300X0.08800*%
%ADD34R,0.05000X0.09300*%
%ADD35R,0.40800X0.40800*%
%ADD36C,0.06706*%
%ADD37R,0.06706X0.06706*%
%ADD38O,0.08674X0.06706*%
%ADD39O,0.08674X0.06706*%
%ADD40C,0.18517*%
%ADD41C,0.07887*%
%ADD42C,0.23622*%
D26*
X455721Y235500D02*
D03*
X489280D02*
D03*
X472221Y417500D02*
D03*
X505780D02*
D03*
X546721Y312500D02*
D03*
X580279D02*
D03*
X546721Y437000D02*
D03*
X580279D02*
D03*
D27*
X527791Y293500D02*
D03*
X533500D02*
D03*
X592646Y410000D02*
D03*
X598354D02*
D03*
X592146Y341500D02*
D03*
X597854D02*
D03*
X592146Y336500D02*
D03*
X597854D02*
D03*
X587354Y332000D02*
D03*
X581646D02*
D03*
X592500Y285500D02*
D03*
X598209D02*
D03*
X592146Y217000D02*
D03*
X597854D02*
D03*
X592146Y212000D02*
D03*
X597854D02*
D03*
X586854Y207500D02*
D03*
X581146D02*
D03*
X500646Y322000D02*
D03*
X506354D02*
D03*
X462264Y342681D02*
D03*
X456555D02*
D03*
Y337681D02*
D03*
X462264D02*
D03*
X456555Y332681D02*
D03*
X462264D02*
D03*
Y327500D02*
D03*
X456555D02*
D03*
X462354Y378000D02*
D03*
X456646D02*
D03*
D28*
X605000Y404664D02*
D03*
Y391264D02*
D03*
X595500Y393758D02*
D03*
Y380358D02*
D03*
Y369453D02*
D03*
Y356053D02*
D03*
X605000Y358547D02*
D03*
Y345147D02*
D03*
Y278853D02*
D03*
Y265453D02*
D03*
X595500Y267947D02*
D03*
Y254547D02*
D03*
Y243642D02*
D03*
Y230242D02*
D03*
X605000Y232736D02*
D03*
Y219336D02*
D03*
D29*
X608000Y323550D02*
D03*
Y319750D02*
D03*
X598000Y327250D02*
D03*
X608000D02*
D03*
X598000Y319750D02*
D03*
X593500Y307950D02*
D03*
Y311750D02*
D03*
X603500Y304250D02*
D03*
X593500D02*
D03*
X603500Y311750D02*
D03*
X607500Y202550D02*
D03*
Y198750D02*
D03*
X597500Y206250D02*
D03*
X607500D02*
D03*
X597500Y198750D02*
D03*
X593500Y186950D02*
D03*
Y190750D02*
D03*
X603500Y183250D02*
D03*
X593500D02*
D03*
X603500Y190750D02*
D03*
D30*
X592500Y319500D02*
D03*
Y325209D02*
D03*
X609000Y311354D02*
D03*
Y305646D02*
D03*
X592000Y199146D02*
D03*
Y204854D02*
D03*
X609000Y190854D02*
D03*
Y185146D02*
D03*
X567500Y196646D02*
D03*
Y202354D02*
D03*
X562500Y196646D02*
D03*
Y202354D02*
D03*
X557500Y196646D02*
D03*
Y202354D02*
D03*
X522000Y199646D02*
D03*
Y205354D02*
D03*
X517000Y199646D02*
D03*
Y205354D02*
D03*
X512000Y199646D02*
D03*
Y205354D02*
D03*
X505000Y302646D02*
D03*
Y308354D02*
D03*
D31*
X472905Y366500D02*
D03*
X511095D02*
D03*
D32*
X501000Y331500D02*
D03*
X513000D02*
D03*
X461500Y368500D02*
D03*
X449500D02*
D03*
D33*
X473100Y330500D02*
D03*
X490900D02*
D03*
D34*
X495600Y317500D02*
D03*
X488900D02*
D03*
X482200D02*
D03*
X475500D02*
D03*
X468800D02*
D03*
D35*
X482200Y278900D02*
D03*
D36*
X553500Y225500D02*
D03*
Y235500D02*
D03*
X563500Y225500D02*
D03*
Y235500D02*
D03*
X573500Y225500D02*
D03*
X543500Y235500D02*
D03*
Y225500D02*
D03*
X553500Y215500D02*
D03*
X563500D02*
D03*
X573500D02*
D03*
X553500Y350000D02*
D03*
Y360000D02*
D03*
X563500Y350000D02*
D03*
Y360000D02*
D03*
X573500Y350000D02*
D03*
X543500Y360000D02*
D03*
Y350000D02*
D03*
X563500Y340000D02*
D03*
X553500D02*
D03*
X543500D02*
D03*
X507500Y187500D02*
D03*
Y177500D02*
D03*
X487500Y187500D02*
D03*
Y177500D02*
D03*
X457500Y187500D02*
D03*
X467500Y177500D02*
D03*
Y187500D02*
D03*
X477500Y177500D02*
D03*
Y187500D02*
D03*
X497500D02*
D03*
Y177500D02*
D03*
X517500D02*
D03*
Y187500D02*
D03*
X527500Y177500D02*
D03*
X537500D02*
D03*
X547500D02*
D03*
Y187500D02*
D03*
X537500D02*
D03*
X527500D02*
D03*
X557500Y177500D02*
D03*
Y187500D02*
D03*
X567500Y177500D02*
D03*
Y187500D02*
D03*
X577500Y177500D02*
D03*
Y187500D02*
D03*
D37*
X573500Y235500D02*
D03*
X543500Y215500D02*
D03*
X573500Y360000D02*
D03*
Y340000D02*
D03*
X457500Y177500D02*
D03*
D38*
X583500Y380000D02*
D03*
Y370000D02*
D03*
Y360000D02*
D03*
Y350000D02*
D03*
Y340000D02*
D03*
Y390000D02*
D03*
Y400000D02*
D03*
Y410000D02*
D03*
X533500D02*
D03*
Y400000D02*
D03*
Y390000D02*
D03*
Y340000D02*
D03*
Y350000D02*
D03*
Y360000D02*
D03*
Y370000D02*
D03*
Y380000D02*
D03*
X583500Y255500D02*
D03*
Y245500D02*
D03*
Y235500D02*
D03*
Y225500D02*
D03*
Y215500D02*
D03*
Y265500D02*
D03*
Y275500D02*
D03*
Y285500D02*
D03*
X533500D02*
D03*
Y275500D02*
D03*
Y265500D02*
D03*
Y215500D02*
D03*
Y225500D02*
D03*
Y235500D02*
D03*
Y245500D02*
D03*
Y255500D02*
D03*
D39*
X543500Y410000D02*
D03*
X553500D02*
D03*
X543500Y285500D02*
D03*
X553500D02*
D03*
D40*
X622000Y190500D02*
D03*
Y288886D02*
D03*
X621910Y421335D02*
D03*
Y322949D02*
D03*
D41*
X616409Y239693D02*
D03*
Y250598D02*
D03*
Y261504D02*
D03*
Y228787D02*
D03*
Y217882D02*
D03*
X627591Y234240D02*
D03*
Y223335D02*
D03*
Y245146D02*
D03*
Y256051D02*
D03*
X627500Y388500D02*
D03*
Y377594D02*
D03*
Y355784D02*
D03*
Y366689D02*
D03*
X616319Y350331D02*
D03*
Y361236D02*
D03*
Y393953D02*
D03*
Y383047D02*
D03*
Y372142D02*
D03*
D42*
X454000Y446500D02*
D03*
X656500D02*
D03*
M02*
