G04*
G04 #@! TF.GenerationSoftware,Altium Limited,Altium Designer,20.0.13 (296)*
G04*
G04 Layer_Color=16711935*
%FSLAX25Y25*%
%MOIN*%
G70*
G01*
G75*
%ADD36C,0.06706*%
%ADD37R,0.06706X0.06706*%
%ADD38O,0.08674X0.06706*%
%ADD39O,0.08674X0.06706*%
%ADD40C,0.18517*%
%ADD41C,0.07887*%
%ADD42C,0.23622*%
D36*
X553500Y225500D02*
D03*
Y235500D02*
D03*
X563500Y225500D02*
D03*
Y235500D02*
D03*
X573500Y225500D02*
D03*
X543500Y235500D02*
D03*
Y225500D02*
D03*
X553500Y215500D02*
D03*
X563500D02*
D03*
X573500D02*
D03*
X553500Y350000D02*
D03*
Y360000D02*
D03*
X563500Y350000D02*
D03*
Y360000D02*
D03*
X573500Y350000D02*
D03*
X543500Y360000D02*
D03*
Y350000D02*
D03*
X563500Y340000D02*
D03*
X553500D02*
D03*
X543500D02*
D03*
X507500Y187500D02*
D03*
Y177500D02*
D03*
X487500Y187500D02*
D03*
Y177500D02*
D03*
X457500Y187500D02*
D03*
X467500Y177500D02*
D03*
Y187500D02*
D03*
X477500Y177500D02*
D03*
Y187500D02*
D03*
X497500D02*
D03*
Y177500D02*
D03*
X517500D02*
D03*
Y187500D02*
D03*
X527500Y177500D02*
D03*
X537500D02*
D03*
X547500D02*
D03*
Y187500D02*
D03*
X537500D02*
D03*
X527500D02*
D03*
X557500Y177500D02*
D03*
Y187500D02*
D03*
X567500Y177500D02*
D03*
Y187500D02*
D03*
X577500Y177500D02*
D03*
Y187500D02*
D03*
D37*
X573500Y235500D02*
D03*
X543500Y215500D02*
D03*
X573500Y360000D02*
D03*
Y340000D02*
D03*
X457500Y177500D02*
D03*
D38*
X583500Y380000D02*
D03*
Y370000D02*
D03*
Y360000D02*
D03*
Y350000D02*
D03*
Y340000D02*
D03*
Y390000D02*
D03*
Y400000D02*
D03*
Y410000D02*
D03*
X533500D02*
D03*
Y400000D02*
D03*
Y390000D02*
D03*
Y340000D02*
D03*
Y350000D02*
D03*
Y360000D02*
D03*
Y370000D02*
D03*
Y380000D02*
D03*
X583500Y255500D02*
D03*
Y245500D02*
D03*
Y235500D02*
D03*
Y225500D02*
D03*
Y215500D02*
D03*
Y265500D02*
D03*
Y275500D02*
D03*
Y285500D02*
D03*
X533500D02*
D03*
Y275500D02*
D03*
Y265500D02*
D03*
Y215500D02*
D03*
Y225500D02*
D03*
Y235500D02*
D03*
Y245500D02*
D03*
Y255500D02*
D03*
D39*
X543500Y410000D02*
D03*
X553500D02*
D03*
X543500Y285500D02*
D03*
X553500D02*
D03*
D40*
X622000Y190500D02*
D03*
Y288886D02*
D03*
X621910Y421335D02*
D03*
Y322949D02*
D03*
D41*
X616409Y239693D02*
D03*
Y250598D02*
D03*
Y261504D02*
D03*
Y228787D02*
D03*
Y217882D02*
D03*
X627591Y234240D02*
D03*
Y223335D02*
D03*
Y245146D02*
D03*
Y256051D02*
D03*
X627500Y388500D02*
D03*
Y377594D02*
D03*
Y355784D02*
D03*
Y366689D02*
D03*
X616319Y350331D02*
D03*
Y361236D02*
D03*
Y393953D02*
D03*
Y383047D02*
D03*
Y372142D02*
D03*
D42*
X454000Y446500D02*
D03*
X656500D02*
D03*
M02*
